<?xml version="1.0" encoding="utf-8"?>
<!-- Generator: Adobe Illustrator 25.4.1, SVG Export Plug-In . SVG Version: 6.00 Build 0)  -->
<svg version="1.1" id="Layer_1" xmlns="http://www.w3.org/2000/svg" xmlns:xlink="http://www.w3.org/1999/xlink" x="0px" y="0px"
	 viewBox="0 0 259.9 259.9" style="enable-background:new 0 0 259.9 259.9;" xml:space="preserve">
<style type="text/css">
	.st0{fill:#003A74;stroke:#000000;stroke-width:2.158;stroke-miterlimit:2.473;}
	.st1{fill:#7CC9F1;stroke:#000000;stroke-width:2.6446;stroke-miterlimit:1.9233;}
	.st2{fill:#9ED9FF;}
	.st3{fill:#006FFF;}
	.st4{fill:#35B336;}
	.st5{fill:#86473F;}
	.st6{fill:#FFEF6F;}
	.st7{fill:#B37535;}
	.st8{fill:#FFFFFF;}
	.st9{fill:#FFB935;}
	.st10{fill:#EF1439;}
	.st11{fill:none;stroke:#000000;stroke-width:0.4115;stroke-miterlimit:2.3852;}
	.st12{fill:none;}
</style>
<g>
	<g>
		<path id="path3964_00000071542437158458183500000009502639466658514323_" class="st0" d="M258.8,130
			c0,71.2-57.7,128.9-128.9,128.9S1.1,201.2,1.1,130c0,0,0,0,0,0C1.1,58.8,58.8,1.1,129.9,1.1S258.8,58.8,258.8,130
			C258.8,129.9,258.8,129.9,258.8,130z"/>
		<path id="path3180_00000091694911508444314450000018269896891595614606_" class="st1" d="M230.2,130
			c0,55.4-44.9,100.2-100.2,100.2S29.7,185.3,29.7,130c0,0,0,0,0,0c0-55.4,44.9-100.2,100.2-100.2C185.3,29.7,230.2,74.6,230.2,130
			C230.2,129.9,230.2,130,230.2,130z"/>
		
			<g id="g3003_00000070840363219270346730000005373393820005564802_" transform="matrix(1.044977,0,0,1.044977,-9.5469898,8.3449196)">
			
				<g id="g9347_00000111164720154783697990000004401525659727856028_" transform="matrix(1.3221546,0,0,1.3221546,-113.75281,-82.728343)">
				<path id="path164_00000081609062397479733890000012318306333164837285_" class="st2" d="M181,171h22.7l0.2-0.1
					c0,3.2,0,5.7,0,6.2c0,1.4,0.2,2.6-2.5,3.3c-2.7,0.7-13.9,3.7-13.9,3.7s-11.2-3-13.9-3.7c-2.7-0.7-2.5-1.9-2.5-3.3
					c0,0,0-0.1,0-0.1c0,0,0.1,0,0.2,0c0,0,0,0,0,0c0.2,0,0.4-0.1,0.7-0.1c0,0,0,0,0,0c0.1,0,0.1,0,0.2,0c0,0,0,0,0,0
					c0.1,0,0.1,0,0.2,0c0,0,0,0,0,0c0.1,0,0.1,0,0.2,0c0,0,0,0,0.1,0c0.1,0,0.1,0,0.2,0c0,0,0,0,0.1,0c0.1,0,0.1,0,0.2,0
					c0,0,0,0,0.1,0c0.1,0,0.1,0,0.2,0c0,0,0.1,0,0.1,0c0.1,0,0.1,0,0.2,0c0,0,0,0,0.1,0c0.1,0,0.1,0,0.2,0c1.1-0.2,2,0,3.7-0.3
					c1.7-0.3,2.9-0.2,5-0.4c2.1-0.2,4.5-0.5,5.2-0.7c0.7-0.2,1.3-0.5,3-0.8c1.7-0.3,1.1-0.4,1.1-0.4s-0.5-0.1-1.4-0.5
					c-0.9-0.3-0.7-0.5-1.9-0.7c-1.1-0.2-0.3,0.2-1.3,0c-1-0.2-1.2-0.3-1.2-0.3s-1.2-0.1-1.7-0.3c-0.5-0.1-0.8-0.1-1.1-0.3
					c-0.3-0.2-1.4-0.6-1.4-0.6s-0.6-0.2-1.1-0.3"/>
				<path id="path166_00000150103637262250731800000015728877436700211868_" class="st3" d="M187.7,185.5c0.7,0,1.6,0.3,0.7,2
					c-0.9,1.7,2,2.7,2,2.7l1.1-1.1c-1.3-1.2-1.3-1.6,0.3-2.6c1.6-1.1,2.3,1.5,2.3,1.5l1.2-0.5l0.1-1.5c3.2,0.3,5,0,7.8-1.7
					c-5.3,1.7-8.3-0.3-8.3-0.3s5.8-1.6,8-2.1c2.1-0.5,3.4-1.1,3.4-3.8c0-2.8,0-18.3,0-26.8c0-8.5,3.2-7.6,3.2-7.6l-3.4-5.6
					c-8.7,3.1-10.6-2.5-18.2-2.5s-9.4,5.6-18.2,2.5l-3.4,5.6c0,0,3.2-0.9,3.2,7.6c0,8.5,0,24,0,26.8c0,2.8,1.3,3.3,3.4,3.8
					c2.1,0.5,8,2.1,8,2.1s-3,2-8.3,0.3c2.8,1.7,4.6,2,7.8,1.7l0.1,1.5l1.2,0.5c0,0,0.7-2.5,2.3-1.5c1.6,1.1,1.6,1.5,0.2,2.7l1,1.2
					c0,0,3.1-1.1,2.2-2.8C186.1,185.8,187,185.5,187.7,185.5l-0.1-1.5c0,0-11.2-3-13.9-3.7c-2.7-0.7-2.5-1.9-2.5-3.3
					c0-1.4,0-23.9,0-23.9h32.8c0,0,0,22.5,0,23.9c0,1.4,0.2,2.6-2.5,3.3c-2.7,0.7-13.9,3.7-13.9,3.7L187.7,185.5"/>
				<path id="path168_00000132079886009599614760000002295686626789572006_" class="st3" d="M174.8,178.6c1.6,0,2.2-0.4,3.2-0.4
					c1,0,1.6,0,3-0.4c1.4-0.4,5.4-0.8,3.6-0.2c-1.8,0.6-1.2,0.8,1.6,0.6c2.8-0.2,4.6-0.4,4.4-1c-0.2-0.6,0.1-0.2-1.5-0.1
					c-1.6,0.1-1.7-0.1-1.7-0.1s0.5-0.7,1.6-0.5c1.1,0.1,2.7-0.1,3.2-0.2c0.6-0.1,1.3,0.6,0.5,0.7c-0.7,0.1-0.3,0.6,0.2,0.7
					c0.5,0.1,0.9,1.3-2.2,1.1c-3.1-0.2-4.1,0.1-6.2,0.2c-2.1,0.1-4.7,0.1-3.6-0.2c1.1-0.3,1.7-0.5-0.9-0.1c-2.6,0.4-2.2,0.1-4.3,0.2
					c-2.1,0.1-3.1,0.1-3.1,0.1L174.8,178.6"/>
				<path id="path170_00000123413400444746049340000003319335559308658104_" class="st3" d="M192.6,174.8c-1.6,0.2,2.2-0.2,2.9-0.3
					c0.8-0.1,2.5-0.3,1,0c-1.5,0.4-1.4,0.4-0.1,0.4c1.3,0,2.1-0.2,2.2-0.2c0.1,0,0.8,0,0.8,0s0.9,0-1.4,0.3
					c-2.3,0.3-4.1,0.4-3.3,0.3c0.8-0.2,2.4-0.4,0.5-0.3c-1.9,0.1-2.4,0-1.6-0.1C194.3,174.8,193.3,174.7,192.6,174.8"/>
				<path id="path172_00000097481188180322396860000007532888055974140303_" class="st3" d="M203.8,173.4c0,0,1.1,0.1-1,0
					c-2.1-0.1-2.8,0-2.8,0s-0.8,0,0.9,0.2c1.7,0.2,3.7,0.4,2.1,0.5c-1.7,0.1-2.5,0.3-1.9,0.3c0.5,0.1,0.8,0,1.3,0
					c0.5-0.1,1.1,0,1.1,0l0.5,0.1v0.9c0,0,0.3,0-1.2,0c-1.5,0-3.8,0.1-2.6,0.1c1.1,0,1.6,0,2.3,0c0.7,0,1.7,0,1.6,0"/>
				<path id="path174_00000078727948380489003850000010308382814758714801_" class="st3" d="M188.6,171.6c0.6,0,2.4,0.2,1.6,0.2
					c-0.8,0-1.1,0.2,0.1,0.3c1.3,0.1,2.3,0.1,2.3,0.1l-2.4,0.2c0,0-1.6,0-1.3-0.1c0.3-0.1-0.6-0.3-0.6-0.3l-0.5-0.3L188.6,171.6"/>
				<path id="path176_00000088111661386518633250000015947380856195051167_" class="st3" d="M196.6,179.8c2.5-0.1,2-0.3,4.9-0.8
					c2.9-0.5,0.3-1.1-1.5-1.4c-1.8-0.3,3-0.6,2.5-0.7c-0.5-0.1-3.6,0.1-5.6,0.1c-2,0-0.4,1.2,1.7,1.4c2.1,0.2-2.3,0.5-4.4,0.5
					c0,0,0.9,0.4-3.3,0.6c-4.2,0.2-7.2,0.3-5.4,0.5c1.8,0.3,8.9,0.3,4,0.8c-4.9,0.5-6.4,0.2-7.4,0.4c-1,0.2-3,0.5-3,0.5
					s2.4,0.6,2.6,0.6s-0.7-0.3,2.3-0.3c3,0,5-0.2,7.4-0.5c2.4-0.3,6.3-0.8,4-1c-2.3-0.2-3.8-0.5-1.9-0.5S196.6,179.8,196.6,179.8"/>
				<path id="path178_00000181059239919938572180000010687716692907737774_" class="st4" d="M182,123.9l-0.8-0.5
					c0,0-0.1,0.9,0.5,1.9"/>
				<path id="path180_00000151508591447585816480000013858684804094741169_" class="st4" d="M183.8,128.3c0,0-0.9-0.3-1.2-0.5
					c-0.3-0.2-1.1-0.3-1.1-0.3s0-0.1,0-0.4c0-0.1,0.1-0.2,0.1-0.3c0-0.2-0.1-0.4-0.2-0.5c-0.1-0.2-0.2-0.5-0.4-0.8
					c-0.7-0.9-1-0.9-2.3-1.2c-1.3-0.3-2.3-0.9-2.3-0.9s-0.3,0.9,1.1,1.5c1.4,0.5,2.8,1.3,2.8,1.3s-0.1,0.5-1.1,0.5
					c-0.2,0-0.4,0-0.6-0.1c0-0.1,0-0.2,0-0.2c0-0.4-0.3-0.7-0.7-0.7c-0.3,0-0.5,0.2-0.6,0.5c-0.4-0.2-0.8-0.4-1.1-0.7
					c-0.7-0.6-2.1-1.3-3.2-1.3c0,0,0.5,0.4,1.4,1.1c0.3,0.2,0.6,0.5,1,0.8c-0.4,0-0.7,0.3-0.7,0.7c0,0,0,0.1,0,0.2
					c-0.5-0.1-0.6-0.2-1-0.5c0,0,0-0.1,0-0.1c0-0.4-0.3-0.7-0.7-0.7c-0.2,0-0.4,0.1-0.6,0.3c-0.1,0-0.3,0-0.6-0.1
					c-1.1-0.1-2.1,0-2.1,0s0.3,0.3,0.8,0.5c0.5,0.1,1.1,0,1.2,0.6c0.1,0.4,0,0.5,0,0.7c0,0,0,0-0.1,0c0-0.1,0-0.1,0-0.2
					c0-0.4-0.3-0.7-0.7-0.7c-0.4,0-0.7,0.3-0.7,0.7c0,0.1,0,0.2,0,0.2c-0.1,0-0.2-0.1-0.3-0.1c-0.4,0-0.7,0.3-0.7,0.7
					c0,0.4,0.3,0.7,0.7,0.7c0.4,0,0.7-0.3,0.7-0.7c0-0.1,0-0.2,0-0.2c0.1,0,0.2,0.1,0.3,0.1c0,0,0.1,0,0.1,0c0,0.1,0,0.1,0,0.2
					c0,0.4,0.3,0.6,0.6,0.7c0,0.3-0.2,0.3-0.8,0.6c-0.8,0.5-2.3,1.7-2.3,1.7s1.1-0.3,1.9-0.5c0.8-0.2,1.5-0.4,1.7-1.1
					c0.3-0.7,0.9-1.5,0.9-1.5s0.1-0.1,0.3-0.2c0,0,0,0.1,0,0.1c0,0.4,0.3,0.7,0.7,0.7c0.4,0,0.7-0.3,0.7-0.7c0-0.1,0-0.1,0-0.2
					c0.2,0.1,0.4,0.2,0.4,0.2s0.1,1.1-0.6,1.7c-0.7,0.7-2.1,1.5-2.1,1.5s1.4,0.2,2.2-0.4c0.8-0.6,0.7-0.9,1.1-1.7
					c0.4-0.7,0.7-0.9,0.7-0.9s0.1,0,0.4,0c0,0.1-0.1,0.2-0.1,0.3c0,0.4,0.3,0.7,0.7,0.7c0,0,0.1,0,0.1,0c-0.1,0.1-0.2,0.1-0.3,0.2
					c-1,0.6-1.9,1.6-1.9,1.6s0.7,0.5,1.8-0.5c1.1-0.9,1.4-1.5,2-1.8c0.6-0.3,1.3-0.1,1.3-0.1s-0.2,0.9-1.4,1.5c-1.2,0.7-2,1.7-2,1.7
					s0.9-0.1,1.6-0.5c0.7-0.4,1.6-0.9,1.6-0.9"/>
				<path id="path182_00000125565958473691197270000000559673949190900618_" class="st4" d="M171.2,168.7c0.7,0,1.3-0.1,2.4,0.6
					c1.1,0.7,1.4,0.9,2.1,1.1c0.7,0.1,0.7,0,1.5,0.3c0.8,0.3,0.4,0.4,1.3,0.3c0.9-0.1,1.5-0.3,2.1-0.1c0.5,0.2,1.5,0.5,1.5,0.5
					s1.1,0.4,1.4,0.6c0.3,0.2,0.6,0.1,1.1,0.3c0.5,0.1,1.7,0.3,1.7,0.3s0.2,0.1,1.2,0.3c1,0.2,0.2-0.2,1.3,0c1.1,0.2,1,0.3,1.9,0.7
					c0.9,0.3,1.4,0.5,1.4,0.5s0.7,0.1-1.1,0.4c-1.7,0.3-2.3,0.6-3,0.8c-0.7,0.2-3,0.5-5.2,0.7c-2.1,0.2-3.3,0.1-5,0.4
					c-1.7,0.3-2.6,0.1-3.7,0.3c-1.1,0.2-2.8,0.5-2.8,0.5L171.2,168.7"/>
				<path id="path184_00000166636463023370805870000004199535888532864908_" class="st4" d="M178.5,189.4c2.5,2,3.5,1.8,6.3,5.6
					c-1.3-3.4-1.6-4.2-3.4-5.7c3,2.1,3.9,2.1,6.1,5.6c-4.9-14.5-24.6-6.8-29.9-4.6c6.9-1.6,12,0.5,14.7,3.8c0,0-1.2-3.2-2.4-4.6
					c4.6,2.8,4.5,2.5,6.9,5.1c0,0-1.7-4.1-2-4.9c3.6,1,6.3,5.1,6.3,5.1S179.9,191.6,178.5,189.4"/>
				<path id="path186_00000127005345906566182290000007356216659192089218_" class="st4" d="M196.5,189.4c-2.5,2-3.5,1.8-6.3,5.6
					c1.3-3.4,1.6-4.2,3.4-5.7c-3,2.1-3.9,2.1-6.1,5.6c4.9-14.5,24.6-6.8,29.9-4.6c-6.9-1.6-12,0.5-14.7,3.8c0,0,1.2-3.2,2.4-4.6
					c-4.6,2.8-4.5,2.5-6.9,5.1c0,0,1.7-4.1,2-4.9c-3.6,1-6.3,5.1-6.3,5.1S195.1,191.6,196.5,189.4"/>
				<path id="path188_00000115509388354222087520000006998010881014188948_" class="st5" d="M138.4,108.4c-0.2-1,0-1.7,0.2-1
					c0.2,0.7,0.3,0.8,0.3,0.8"/>
				<path id="path190_00000130643871234203932070000009610419045206809219_" class="st5" d="M169.3,151.2c0-8.5-3.2-7.6-3.2-7.6
					l3.4-5.6c3,1.1,5.2,1.1,7.1,0.7l0-0.2c0,0-0.2-0.8-0.7-2.4c-0.5-1.6-0.9-1.6-2-1.7c-1.1-0.1-3.6,1.5-5.6,2.1
					c-2,0.6-4.2,1.4-4.2,1.4s-1.5-2.7-2-3.3c-0.5-0.6-1.2-0.9-1.7-2.4c-0.5-1.5-0.7-1.5-1.7-2.6c-0.9-0.9-2.4-2.7-2.8-3.2
					c0-0.1,0.1-0.2,0.4-0.5c0.3-0.4,1.1-0.2,2.4-0.4c1.3-0.2,1.2-1.4,1.5-1.9c0.3-0.5,0.1-0.4,0-1.5c-0.1-1.1-1-1.4-1.6-1.6
					c-0.5-0.2-1.4-0.5-2.3-1.2c-0.9-0.7-3.6-2-4.2-2.4c-0.5-0.3,0-0.9,0.5-1.1c0.5-0.2,3.9,0,5.2-0.1c1.2-0.1,0.4-0.4,0-0.5
					s-3-0.3-3-0.3s1.4-0.2,4.9-1.8c3.5-1.6,4.5-5,4.5-5c-1.1,1.6-3.5,2.6-4.2,2.7c-0.7,0.1-0.2-0.6,0-1.7s-0.2-0.5-1,1
					c-0.8,1.5-2.9,2.2-4,2.6c-1,0.4-0.9,0.3,0-0.5c0.9-0.9,1-1.5,1.5-2.7c0.4-1.2,0.2-1.5-0.6,0.1c-0.8,1.6-3.8,3.6-4.5,4.1
					c-0.7,0.4-0.2-0.8,0.2-1.9c0.4-1.1,0.2-1.2-0.3-0.2c-0.5,0.9-1.1,1.8-2,2.4c-0.9,0.6-0.7,0.3-0.7-0.2c0-2.1-0.7-2.6-1-2.9
					c-0.2-0.3-0.5-0.6-0.2,0.4c0.3,1,0.1,2.2,0,2.7c-0.1,0.4-0.4,0.2-0.8,0c-0.3-0.2-0.6-0.8-0.3-1.4c1.8-3.3,1.5-5.2,1.5-6.8
					c0-1.5-0.4-0.4-0.4-0.4c0.2,5.7-2.6,7.1-2.6,7.1c-0.5-2.2-0.9-1.9-0.9-1.9c0,1-0.3,1.7-0.3,1.7s-2.5-2.8-2-5.3
					c0.5-2.5-0.2-3.9-0.2-3.9c-0.6,7.8-6.2,5.1-6.2,5.1l2.7,1.8c-0.9,3.6-5.5,1.7-5.5,1.7c1.4,2.7,9.7,1.6,9.7,1.6s0.7,0.9,2.3,2
					c1.6,1.1,3,2.1,3,2.1l-0.4,0.2c-2-1.5-4-1.5-5.2-0.9c-1.2,0.5-1.9,1.2-1.9,1.2c0.7,2.5,4.1,3,4.1,3c-0.5,1.3-0.7,3.8-0.3,6.8
					c0.4,2.9-0.5,5.7-0.5,5.7l1.1-0.7c0,0,0.1,0.8,0,1.5c-0.1,0.7,0.3,0.9,0.8,1.2c0.5,0.3,0.5,0.9,0.5,0.9v1.6l0.9-0.5
					c0,0,0.4,3.1,0.4,4.2s-0.3,2.3-0.4,2.8c-0.1,0.5-0.3,1.7-0.3,1.7l0.8-0.4c0,0-0.9,3.6-1.6,5c-0.7,1.5-4.1,3.6-7.7,7.3
					c-3.6,3.7-2.8,7.1-3,8.9c-0.3,1.7,1.1,0.7,1.1,0.7s1.9,2.5,1.9,5.7c0,3.2-2,5-2.6,5.7c-0.7,0.7-0.1,1.2-0.3,2.4
					c-0.1,1.2,0,2.5,0.7,3.7c0.7,1.2,0.1,5.6,0,6.8c-0.1,1.2,0,1.2,0.5,1.6c0.5,0.4,1.2,1.3,2,2c0.8,0.7,1.2-0.4,1.3-1.3
					c0.1-0.9-0.3-1.1-0.3-1.1l0.2-0.1c0,0-0.6-0.4-1.5-1.6c-0.9-1.2-0.5-4.4-0.2-7.7c0.3-3.3,0.5-2.7,3.9-5.8
					c3.4-3.1,5.4-8.3,5.4-8.3s1.1,0.7,3.5,2.3c2.4,1.6,1.7,1.5,1.1,4.2c-0.6,2.7-0.5,3.4,0,4.1c0.5,0.7,1.1,1.3,2.6,2
					c1.5,0.7,1.6,0.8,3.1,2.8c1.5,2,2.3,2.5,3.7,2.7c1.4,0.2,1.4,0.8,1.4,0.8l2.3-1c-0.5-1.4-1.7-1.2-3-1.3c-1.3-0.1-1.4-0.4-2.9-2
					c-1.5-1.6-2.4-2.9-3.4-5.4c-1-2.5,0.1-4.5,1.6-8.6c1.5-4.2-0.6-5.8-0.6-5.8s1.9-2.2,3.7-3.8c1.8-1.6,3.8-5.6,4-6.7
					c0.2-1.1,0.4-1.1,1.9-1c1.5,0.1,0.8,2.9,0.6,5.2c-0.2,2.3-0.4,2.5,0.2,3.2c0.6,0.7,0.4,1.3,0.1,2.9c-0.3,1.3,1.4,2.1,2.3,1.9
					C169.3,160.9,169.3,155.3,169.3,151.2"/>
				<path id="path192_00000182520727885937136480000014345436384579975810_" class="st5" d="M232.7,116.8c4.2-0.5,7.6-4.1,8.9-6
					c1.4-1.9-0.4-1.4-1-0.7c-0.6,0.7-0.1,0.4-1.4,1.6c-1.3,1.2-1.7,0.9-1.2-0.3c0.5-1.2-1,0.2-2.6,1.3c-1.6,1.1-1.7,0.5-0.7-0.6
					c1-1.1-0.1-0.7-1.1-0.2c-1,0.5-3.2,1.3-3.2,1.3s-0.2-0.8,2.3-2.2c2.5-1.4,5.9-4.2,6.4-5.5c0.5-1.3,0.1-2.1-0.6-0.5
					c-0.7,1.6-1.5,1.4-2.7,0.4c-2.9,2.5-2.8-0.3-2.8-0.3s-0.3,0.5-0.8,1.3c-0.5,0.8-1.2,0.7-1.7,0.4c-0.5-0.3-0.7-0.5-2.2,0.9
					c-1.5,1.4-3.1-1.5-3.2-3c-0.1-1.5-0.2-1.6-0.7-0.1c-0.5,1.5-0.1,3.4,0.7,5.4c0.8,2-0.6,1.2-1.5,1.1c-0.9-0.1-2.9-1.9-4-3
					c-1.1-1.1-0.9-0.8-0.9,0.2c0,1,0.6,2.3,0.6,2.3s-3.1-1.3-4.2-2.4c-1.1-1.1-1.3-0.5-0.8,0.4c0.5,0.9,0.8,2.9,5.8,3.6
					c5,0.7,6.2,1.8,6,3.5c-6.1,0.5-8.1-1.9-8.6-2.3c-0.5-0.4-0.2,1.2-0.2,1.2s-2.1-0.7-3-1.7c-0.9-1-0.8,0.1,0,1.1
					c3.6,4.6,11.9,3.5,11.9,3.5s-1.6,0.8-2.3,1.5c-0.7,0.7-1.2,0.8-1.9,0.9c-2.1,0.1-3.2,0.1-5.1,0.9c-1.9,0.9-1.6,2.7-1.3,3.8
					c0.3,1.1,2,1.1,2.4,1.6c0.4,0.5,1.5,0.5,1.8,0.3c0.3-0.2,0.4-0.6,1-0.9c0.6-0.3,0.9-0.1,0.6,0.7c-0.3,0.8-2.6,3.2-3.8,4.4
					c-1.1,1.1-0.9,1-1,1.8c-0.1,0.8,0.5,1,0.4,1.5c-0.1,0.5-0.1,0.6-0.7,1.5c-0.6,0.9-1.4,1.6-1.5,2.2c-0.1,0.6-1.7,2-1.7,2
					c-2.2-1.3-5.1-3-6.3-3.8c-1.2-0.8-1.2-1-3.1-1s-2.6,2.2-2.8,4.1l0.2,0.1c1.4,0,2.9-0.3,4.7-0.9l3.4,5.6c0,0-0.6-0.2-1.3,0.4
					l0.2,0.1l1.2,1.1l-2.6,1.1h-0.1c-0.3,1.1-0.5,2.7-0.5,4.9c0,3.9,0,9.3,0,14.3c1.1-0.6,1-2.8,0.7-4.5c1.4-0.2,1-1.6,0.7-1.7
					c-0.3-0.1-0.5-5-0.1-7.2c0.4-2.2,1.1-1.8,2.4-2c1.3-0.2,0.9,1.2,1.3,2.9c0.4,1.7,1.5,3.2,1.5,3.2l-0.1-1.2c0,0-0.4-1.2,0.9,0.7
					c1.3,1.9,8,5.8,8,5.8s-1.3,0.9-2.4,4.2c-1.1,3.3,1.3,7.2,0.5,12.4c-0.5,3.4-3.2,6.8-5,7.7c-1.8,1-2.2,1.8-2.2,1.8l2,1.1
					c0,0,0.3-0.5,0.8-1c0.5-0.5,0-0.5,1.3-0.5c1.3,0,1.7-1.8,2.5-3.5c0.8-1.7,3.7-4.8,3.7-4.8c1.2-1.8,0.9-1.6,0.7-2.5
					c-0.2-0.9-0.6-1.8-0.1-3.6c1.3-4.5,5.6-7.5,5.6-7.5v1.8c0,3.8,1.1,4.2,4.3,8.6c3.2,4.5,2.4,9.9,2.1,12.6s-1.5,3.7-1.5,3.7
					l0.8,2.9c0,0,0.1-0.3,0.4-0.9c0.3-0.6,0.9-1.9,1.5-2.3c0.6-0.4,0.8,0.2,0.7-2.4c-0.1-2.6,0.1-5.1,0.7-8.6
					c0.6-3.6,0.3-2.7-0.9-6.1c-1.2-3.4-0.4-3.8,0.6-6c1-2.2,1.6-4.1,1.6-4.1s0.9,0.1,0.8-1c0-2.5-2-4.7-5.7-8s-4.3-6.9-4.3-6.9h0.1
					c-0.5-1.9,0.7-1,0.7-1c-0.6-2.2,0.8-4.6,0.8-4.6c-0.9-1.8-0.8-2.4-0.8-2.4l0.8-0.5c-1.1-3.5-0.8-3.7-0.8-3.7l0.8-0.2
					c-0.1-1.8,0.1-3.2,0.1-3.2l1,0.1c0,0-0.1-2.2,0.5-5c0.6-2.8,1.3-1.3,0-6.9c3.4-1,3.2-2.7,3.2-2.7s-1.7-0.9-3.8-0.9
					S231.2,116.9,232.7,116.8"/>
				<path id="path194_00000170963382435855934500000009892907144666208661_" class="st5" d="M194.3,117.2l1,0.8l0.4-1.4
					c0.1,0.4,1.3,1.3,1.3,1.3l0.3-1.1l1,1.7l0.8-0.6c0.3,0.7,1.2,1,1.2,1l0.6-1.3c0,0-0.7-1.4,0.2,0s1.9,1.2,1.9,1.2l0.3-1l1.3,1.4
					l0.7-1.1c0.7,2.6,1.6,3.7,1.6,3.7l0.5-0.2c0.2,1.8,0.8,2.8,0.8,2.8l0.5-1.5c0,0,0.3,1.4,0.5,2.7c0.3,1.3,0.7,2,0.7,2l0.3-1.2
					l1,2.1c2-13.7-3.9-19.9-6.1-22.6c-2.2-2.7-7.2-4.4-10.6-4.6c-3.4-0.2-2.8,3.4-0.3,4.9c2,1.2-1.3,3.8-1.3,3.8s-0.3-0.5-0.8-1.2
					l0,0c0,0-0.1,0.3,0.1,0.8c0.2,0.5,0.2,1,0.2,1l-0.5,0.1c0,0-0.1,0.5-0.2,0.9c-0.1,0.4,0.2,0.9,0.2,0.9l-0.9-0.8l-0.2,1.1l-1-0.7
					l-0.3,1l-0.7-0.7l-0.5,0.7l-0.8-0.4l-0.5,1l-0.7-0.9l-0.7,0.9l-0.5-1l-0.1,0.3l-0.4-0.6l-0.5,1.1c0,0-0.3-0.9-0.8-0.9
					c-0.5-0.1-0.6-0.1-0.8-0.2c-0.2-0.1-0.2-1.1-0.2-1.1l-0.7,0.2l0.7-2.9l0.1,0.1c-2.3-1.7-4-2.9-3.2-6c0.6-2.3-1.7-4.6-7.3,0.1
					c-6.4,6.1-8.3,17.4-7.9,24.8l1.1-2.1l0.5,0.5l1-2.1l0.5,0.3c0,0,1.7-1.6,2-2.9s0.1,0.2,0.1,0.2l0.4,0.6c0,0,0.4,0.3,0.8-0.5
					c0.4-0.7,1.7-3,1.7-3s-0.2,1.3,0.5,1.5c0,0,0.9-0.3,1.6-1.6l0.5,0.8c0,0,1.3-0.5,1.5-1.3l0.3,1.1c0,0,1.3-0.9,1.9-1.9l0.6,1.3
					c0,0,0.9-0.5,1.3-1.4l1.5,1.1c0,0-0.7,0.9,0.3,2.1c-0.1,0.8,0,2.3,0,2.3s-0.1,0.6-0.3,1.2c-0.1,0.6-0.3,1.1-0.2,1.9
					c0.1,0.7,0.3,1.4,1.1,1.5c0.8,0.1,1.1,0.3,1.9,0.5c0.9,0.1,1.5-0.1,2.3-0.3c0.7-0.2,1-0.9,0.9-1.5c-0.1-0.5-0.1-0.4-0.1-1.3
					c0-0.9-0.3-1.7,0.3-1.7c0.7,0,0.8-0.3,1.3,0.8c0.5,1.1,0.5,0.8,0.5,1.9c0,1.1,0,1.9,0.7,2c0.7,0.1,0.3,0.3,1.5,0.2
					c1.2-0.1,1.4-0.1,2.2-0.1c0.8-0.1,1.3-0.5,1.5-1.1c0.2-0.6,0.1-0.9,0.1-1.4c-0.1-0.5,0.2,0.2-0.3-0.9c-0.5-1.1-0.9-2.9-1.1-4
					C194.4,119.4,194.2,118.3,194.3,117.2"/>
				<path id="path196_00000057870105389023186800000011262047909479558811_" class="st5" d="M181.7,131.7v-2.8l13.7-0.2v2.8
					L181.7,131.7"/>
				<path id="path198_00000039132494968990521610000015338423338430118309_" class="st6" d="M184.1,127.7c0,0,0.6,0.2-0.9,1.2
					c-1.5,1-2.5,1-2.5,1.9c0,0.9,0.2,0.9,0.2,0.9s0.5,0,0.9,0c0.5,0,1,0.1,1.2,0c0.2-0.1,0.6,0.4,1.2,0.3c0.6-0.1,1.2-0.4,1.2-0.4
					s0,0,0.5,0.2c0.5,0.2,0.3,0.1,1,0c0.7-0.1,1.2-0.3,1.2-0.3s0.8-1-0.3-1.7c-1.1-0.7-1.6-0.8-1.7-0.9c-0.2-0.1-0.3-0.6-0.4-0.9"/>
				<path id="path200_00000102514197400922476700000008966257286617394837_" class="st6" d="M191.9,128c0,0,0.6,0.4-0.6,1.1
					c-1.2,0.7-2,0.4-2.1,1.4c-0.1,0.8,0.2,1.1,0.2,1.1s0.5-0.1,1-0.1c0,0,0.2-0.1,0.5-0.6c0.3-0.5,1.1-1.1,1.1-1.1s0.3-0.2,0.1,0.8
					c-0.2,0.9,0.4,1.2,0.4,1.2l0.7-0.1c0,0,0.1-0.6,0.1-0.9c0-0.3,0-1,0-1s0.1-0.1,0.5,0.3c0.3,0.3,0.4,0.4,0.6,1
					c0.2,0.6,0.2,0.5,0.3,0.5c0.1,0,0.8-0.2,0.8-0.2s0.8-0.9,0.1-1.5c-0.7-0.5-1.9-0.9-2.4-1.9"/>
				<path id="path202_00000080189465847515531760000005854874682588648634_" class="st6" d="M195.5,130.3l3.7-0.9l0.1,0.3l1.1-0.9
					l-1.4-0.2l0.1,0.3l-3.7,0.9"/>
				<path id="path204_00000183230521374296606830000018179625499237014957_" class="st6" d="M195.5,131.3l5.2,1.2l-0.1,0.3l1.4-0.3
					l-1.2-0.8l-0.1,0.3l-5.2-1.3"/>
				<path id="path206_00000000909615919217350670000011142648963489956234_" class="st6" d="M195.6,130.8l6.8-0.1l0,0.3l1.3-0.7
					l-1.4-0.5l0,0.3l-6.8,0.1"/>
				<path id="path208_00000073001792234166800880000001813638809762167479_" class="st6" d="M203.9,171.1c0-7.1,0-18,0-18h-32.8
					l0,15.6c0.7,0,1.3-0.1,2.4,0.6c1.1,0.7,1.4,0.9,2.1,1.1c0.7,0.1,0.7,0,1.5,0.3c0.8,0.3,0.4,0.4,1.3,0.3c0.9-0.1,1.5-0.3,2.1-0.1
					L203.9,171.1"/>
				<path id="path210_00000005967105290300997340000017059684491696974234_" class="st5" d="M181.8,174c0.5-0.3,0.8-0.3,1.3,0.1
					c0,0,0.4-1.9,0.5-2.3c0.1-0.4,0.8-2.4,0.8-2.4s0.1,0.8,0.1,2.1c0.1,1.3-0.2,1.9,0.7,2.1c0.9,0.2,1.4,0,1.4,0s-0.5-0.1-0.5-1.1
					s-0.3-4.4-0.4-4.8c-0.1-0.4-0.1-1.1-0.1-1.1l0.3-1.1c0,0,0.5,0.1,1.2,0c0.7-0.1,0.9-0.3,1.2-0.3c0.3,0,0.6-0.1,0.6-0.1l0.1-0.5
					c0,0-0.9-0.1-1.6-0.1c-0.7,0-1.4-0.3-1.4-0.3s-0.1-0.1-0.2-0.6c-0.1-0.5-0.7-1-0.7-1s0.3-0.3,0.3-0.7c0-0.4,0.3-0.6,0.1-1.1
					c-0.3-0.5-0.4-0.8-1.1-0.6c-0.7,0.2-0.7,0.1-0.9,0.8c-0.3,0.7-0.1,0.6-0.1,0.9c0.1,0.3-0.1,0.5-0.1,0.5s-0.4-0.4-0.6-0.1
					c-0.2,0.3-0.4,0.5-0.4,0.5l-0.7,0.1l-0.2-0.7c0,0-0.1-0.3-0.2-0.7c-0.1-0.4-0.3-1.5-0.3-1.5l-0.5-0.5c0,0-0.3,0.7-0.2,0.9
					c0.1,0.2,0.3,0.9,0.3,1.4c0,0.5,0,1.7,0,1.7s0,0.7,0.7,0.8c0.7,0.1,1.5,0.1,1.5,0.1s0.2,0.3,0.3,1.4c0.1,1.1,0,0.3,0.1,0.9
					c0.1,0.6-0.1,0.3-0.2,1.5c-0.1,1.2-0.5,2.6-0.6,3.2C182,172.1,181.8,174,181.8,174"/>
				<path id="path212_00000044882786507702348360000000587811068903057556_" class="st7" d="M156.7,164.3l-1.9,1.7
					c0,0,2,2.9,0.4,7.2c-1.6,4.2,0.3,5.6,0.3,5.6s-0.8-3,1.1-7.7C158.4,166.5,158,166.3,156.7,164.3"/>
				<path id="path214_00000038392996519540505910000005428026224972953504_" class="st7" d="M135.7,184.7c0.7-1.1,1.5-4.1-0.3-5.7
					l-0.4,0.4l0.1,3.8l0.4,0.9"/>
				<path id="path216_00000036248698546731724130000006270210397628802465_" class="st7" d="M138.5,176.7c0.9-3.7,0.1-4.5,0.9-9.3
					c0.8-4.8,0.3-9.7,2.3-9c2,0.7,4.5,2,4.1,5c-0.4,3.1-2.5,7.4-4.5,10.1c-2,2.7-2.8,4.1-2.7,2.7"/>
				<path id="path218_00000150065264060225248600000018389077270851760062_" class="st7" d="M138.5,166.6c1.8-3.1-0.1-7.4,2.8-9.3
					c2.9-1.9,1.7-1.2,1.7-1.2s-5,0.5-5.3,6.5C137.4,168.6,138.1,167.2,138.5,166.6"/>
				<path id="path220_00000042013637081551553920000002688797495917551259_" class="st7" d="M150.2,147.2
					c-2.8,7.6-3.7,10.5-2.3,11.9c1.5,1.5,3.7,1.3,5.8-1.9c2.1-3.2,3.3-7.6,3.6-8.6c0.3-1.1,0.1-1.7,2.4-0.8c2.3,0.9,5.2,2,6.5,2.4
					c1.3,0.4,2.5,0,2.4,4.5c-0.1,4.5-0.8,4-0.5,6.2c0.3,2.3-0.3,4.2,1.1,4.6l-0.1-16.2c0,0-6.4-2.5-7.3-3.2
					c-0.9-0.7-2.4-7.8-4.4-11.5c-2-3.7-4.9-6.4-6.8-9.3c-1.9-2.9-2-4.4-0.7-3.7c1.3,0.7,2.6,2.4,5,2.7c0,0-1.2-1.1-1.9-1.9
					c-0.7-0.8-1.1-1.2-0.4-1.2s1.3,0.1,1.3,0.8c0,0.7-0.1,0.7,1.1,1.1c1.2,0.4,1.9,0,0.7-0.7c-1.2-0.7-1.2-2-1.2-2s1.3,0.3,2.1,0.8
					c0.8,0.5,1.3,1.2,1.3,1.2l2.1-1.1c0,0-0.5-0.3-1.7-0.3c-1.2,0-2.9-0.8-3.3-1.2c-0.4-0.4-2.1-2.1-4.4-1.6
					c-2.3,0.5-2.8,1.3-2.8,1.3H147l0.4,0.7c0,0-0.7,0.5-0.8,1.9c-0.1,1.3,0.7,0.7,0.7,0.7s0.4,0.7,0.5,3.1c0.1,2.4-0.5,1.5-0.5,3.3
					c0,1.9,0.1,2.3,0.1,2.3s0.5-1.6,0.7,0.1c0.1,1.7-0.4,2.9,0.9,4.9c1.3,2,1.2,3.3,1.2,3.3l-1.3-1.3c0,0,0.9,0.3,0.1,3.1
					c-0.8,2.8,0.4,2.5,0.4,2.5s0.8,0.3,0.3,1.5c-0.5,1.2,0.7,0.4,0.7,0.4S150.7,145.8,150.2,147.2"/>
				<path id="path222_00000075150279304808848940000002436580718796840362_" class="st7" d="M140.9,117.9c0,0,2-1.3,3.7-0.9
					c1.7,0.4,2.6,2.1,2.6,2.1s-2.5,1.2-3.4,0.7C142.9,119.3,140.9,117.9,140.9,117.9"/>
				<path id="path224_00000011752094508379755960000005711590297504139145_" class="st7" d="M134.8,112.5c2.3,0,3.3-0.4,3.7-2.3
					C138.4,112.1,139.4,112.1,134.8,112.5"/>
				<path id="path226_00000110448725663319015940000012014032129975700405_" class="st7" d="M138.4,109.1c-1.1,0,2.5-0.8,3-2.1
					c0.5-1.3,0.5-1.1,0,0.4C140.9,108.8,140.8,109.1,138.4,109.1"/>
				<path id="path228_00000000205012784394812500000015328418651890264481_" class="st7" d="M232.7,172.3c-2.4-3.7-2.1-4.5-2.3-7.3
					c-0.1-2.8-0.9-2.9-0.1-4.8c0.8-1.9,4.4-2.9,5.2,0c0.8,2.9,1.7,4.5,0.1,8C234.1,171.6,233.7,173.7,232.7,172.3"/>
				<path id="path230_00000062176901733971671980000013219844899824564865_" class="st7" d="M228.6,164.5c0,0-1.3-1.2-3.4,2.4
					c-2.1,3.6-2.9,3.3-3,6.1c-0.1,2.8,0.3,4.5,0.3,4.5l1.1-0.1c0,0-0.8-2.9-0.3-4.4c0.5-1.5,1.7-3.8,3.2-5.2
					c1.5-1.3,2.4-2.3,2.4-2.3L228.6,164.5"/>
				<path id="path232_00000089547637771202084770000012335022245977419950_" class="st7" d="M218.9,148.7c0,0,0.3,4.1,3.3,6.5
					c3,2.4,4.5,3.6,5.6,2.6c1.1-0.9,1.6-0.9,0.1-4.1c-1.5-3.2-2.4-5.6-2.4-6.6c0-1.1,0-4,0-4l0.9,1.5l-0.1-4.2l0.8,0.5
					c0,0-0.3-1.2-0.4-2.8c-0.1-1.6-0.1-2.5-0.1-2.5l0.9,0.9c0,0-0.3-2.3-0.7-3.7c-0.4-1.5-0.3-0.8-0.3-0.8l1.1,0.7l0.4-2.9l0.5-3.4
					c0,0,0.4-0.4,0.7-2.5c0.3-2.1,0.4-2.7,0.4-2.7s0.7,0,2.3-0.3c1.6-0.3,3.6-1.6,3.6-1.6s-2-1.3-4.2-0.5c-2.3,0.8-2.8,0.8-2.8,0.8
					s-1.7-1.7-3.2-0.8c-1.5,0.9-2.4,1.9-3.8,2c-1.5,0.1-3.7-0.1-4.4,1.1c-0.7,1.2-1.3,2.1-0.1,2.5c0,0,0-1.6,0.8-1.9
					c0.8-0.3,2-0.7,2-0.7s2.4-0.1,3.4-0.8c1.1-0.7,1.7-1.2,2.8-1.1c1.1,0.1,2-0.4,1.2,1.1c-0.8,1.5-2.1,1.7-2.1,1.7s1.1,0.3,0.3,1.7
					c-0.8,1.5-1.7,1.9-2.1,2.4c-0.4,0.5-1.7,2.4-1.7,2.4l1.7-0.4l-3.1,4.4l1.6-0.5l-1.5,1.3l0.8,0.3l-2.5,3c0,0-0.1,0.9-1.3,2.3
					c-1.2,1.3-1.3,1.2-1.9,1.9s-1.1,1.6-1.1,1.6s-1.2,1.9-3.3,2.6c-2.1,0.8-4.8,1.6-4.8,1.6s-0.5,1.9-0.4,6.4
					c0.1,4.5,0.1,6.4,0.1,6.4s0.5-0.3,0.7-4c0.1-3.7-1.2-7.1,2.5-8c3.7-0.8,6.1-1.9,8.7-2c2.6-0.1,3.3,0.4,2,1.1
					c-1.3,0.7-1.9,0.8-1.9,0.8S218.8,147.1,218.9,148.7"/>
				<path id="path234_00000144303589998688811150000012434128771865093550_" class="st7" d="M201.5,139c0,0-0.1-2.9,1.5-3
					c1.6-0.1,1.7-0.1,3.6,1.6c1.9,1.7,1.7,3.1,1.3,3.7l-1.9-3.1L201.5,139"/>
				<path id="path236_00000067198688569585171450000017839125722713488276_" class="st7" d="M223.1,111.9c0,0,2.7,0,3,1.1
					c0.4,1.1,1.1,4.4,1.1,4.4s1.6,0.9,2.6,0.3c1.1-0.7,0.5-0.7,1.9-1.5c1.3-0.8,5.7-2.7,5.7-2.7s-1.1-0.3-0.4-1.1
					c0.7-0.8-0.1,0.4-0.1,0.4s-2.3,1.2-3.2,1.3c-0.9,0.1-0.8-0.5-0.4-0.9l-2.9,0.8c0,0-0.8-0.1-0.4-1.1c0.4-0.9,1.3-1.7,1.3-1.7
					s-1.7-0.5-2.1,1.2c-0.4,1.7-0.3,3.7-0.3,3.7h-1.1c0,0-0.1-1.2-0.4-2.5c-0.3-1.3-1.3-4.1-1.3-4.1s0.4,1.5-0.1,2.1
					C225.4,112.3,223.1,111.9,223.1,111.9"/>
				<path id="path238_00000161610322384191047100000016559852091429561766_" class="st7" d="M214.6,108c0,0,1.5,1.7,2.5,2.4
					c1.1,0.7,3.3,0.9,3.3,0.9l-1.6-3.7l0.3,2.6C219.1,110.3,215.6,108.9,214.6,108"/>
				<path id="path240_00000086684181141334884800000001506095574227977108_" class="st7" d="M213.9,112.5c0,0,2.1,1.3,3.3,1.9v-1.2
					c0,0,1.2,1.2,3.2,2c2,0.8,2.5,0.7,5.7,0.4l-0.3,0.7c0,0-3.2,0-4.8-0.3c-1.6-0.3-3.2-1.3-3.2-1.3l0.4,0.9c0,0-0.3,0.3-1.2-0.1
					c-0.9-0.4-3.3-2.5-3.3-2.5"/>
				<path id="path242_00000079464067396093074170000000425130222720840330_" class="st7" d="M182,173.9c0,0,0.4-2.2,0.6-3
					c0.2-0.9,0.3-1.7,0.5-2.3c0.1-0.7,0.4-0.9,0.3-1.3c-0.1-0.4-0.1-0.3-0.1-0.9c-0.1-0.6-0.3-1.2-0.3-1.6c0-0.4-0.2-0.3,0.2-0.7
					c0.4-0.4,0.7-1.5,0.9-0.3c0.2,1.1,0.2,1.2,0.2,1.2l0.9-1.6l0.2,0.1l-1.1,2c0,0-0.2-0.3-0.2,0.7c0,1,0.3,1.5-0.1,1.7
					c-0.3,0.2-0.3,0.6-0.1,0.7c0.2,0.1,0.1,0.2-0.2,1.1c-0.3,0.9-0.6,1.9-0.7,2.5c-0.1,0.6-0.4,1.7-0.4,1.7L182,173.9"/>
				<path id="path244_00000103977519890635579580000015537205340159425172_" class="st7" d="M185.2,173.5c0,0,0.1,0.3-0.1-1.1
					c-0.1-1.4-0.3-2.8-0.3-2.8l0.3-0.9c0,0-0.2,0.2,0.1,1.2c0.3,1,0.3,2.3,0.4,2.8c0.1,0.5,0.3,0.9,0.3,0.9L185.2,173.5"/>
				<path id="path246_00000056406412393383334880000001421092456200097164_" class="st7" d="M185.2,161.7c0,0-0.5,0-0.7-0.3
					c-0.2-0.3-0.4,0.1-0.4,0.1s-0.1,0.3,0,0.7c0.1,0.3,0.3,0.7,0.3,0.7h0.6l0.4-0.5L185.2,161.7"/>
				<path id="path248_00000021829126199497679370000014719662289889711772_" class="st7" d="M183.9,166.9c0,0,0.7,0.2,1,0.1
					c0.3-0.1,0.3-0.1,0.3-0.1l-0.8,0.3h0.4l-1.1,0.7"/>
				<path id="path250_00000091711834987458986030000015573244171614003078_" class="st7" d="M180.5,161.8c0,0,0.4,0.3,0.4,1
					c0,0.7,0.6,1.6,0.6,1.6s-0.8,0.3-0.9-0.4S180.5,161.8,180.5,161.8"/>
				<path id="path252_00000073680675680703951930000015751081122876577465_" class="st8" d="M182.6,108.8c0,0,2.1-3.2,0.9-4.4
					c-1.3-1.2-1.5-1.1-1.5-1.1s-0.3-0.2-0.3-0.7c0,0-0.4-0.1-1,0.1c-0.6,0.1-0.7-0.4-0.4-1.3c0.3-0.9,1.2-1.6,2.8-0.9
					c0,0,0.9-0.8,2.3-0.3c1.7,0.6,3.1,1.3,4,3.6c0.9,2.3,1.1,2.4,1.5,3.1c0.2,0.4,0.8,1.2,1.3,2l0,0c0,0-0.1,0.3,0.1,0.8
					c0.2,0.5,0.2,1,0.2,1l-0.5,0.1c0,0-0.1,0.5-0.2,0.9c-0.1,0.4,0.2,0.9,0.2,0.9l-0.9-0.8l-0.2,1.1l-1-0.7l-0.3,1l-0.7-0.7
					l-0.5,0.7l-0.8-0.4l-0.5,1l-0.7-0.9l-0.7,0.9l-0.5-1l-0.1,0.3l-0.4-0.6l-0.5,1.1c0,0-0.3-0.9-0.8-0.9c-0.5-0.1-0.6-0.1-0.8-0.2
					c-0.2-0.1-0.2-1.1-0.2-1.1l-0.7,0.2L182.6,108.8L182.6,108.8"/>
				<path id="path254_00000023277369300955265000000009565443851406961034_" class="st8" d="M194.6,120.9c1.4,1.4,4.4,2.9,2.8,3.4
					c0,0-0.7,0.1-1.2-0.3c-0.5-0.5,0.1,0.2,0.1,0.2s0,0.5-0.5,0.7C195.9,124.8,194.9,122.9,194.6,120.9"/>
				<path id="path256_00000100382757109459860070000003090965184635898511_" class="st8" d="M189.9,125.4c-0.7,0-2,0.1-2-1.3
					c0-0.5-0.3-0.7,0.3-0.9c0.6-0.2,0.5-0.7,1,0.3C189.1,123.5,189.9,124.6,189.9,125.4"/>
				<path id="path258_00000047780013501468549430000015923699851829354143_" class="st8" d="M180.4,159.9L180.4,159.9L180.4,159.9
					L180.4,159.9"/>
				<path id="path260_00000103247166135133650810000016685984613541905333_" class="st8" d="M180.5,162.1c0,0,0-0.1,0-0.1
					c0-0.5-0.3-1.2-0.3-1.4c0-0.1,0-0.3,0.1-0.5l-0.2,0.3l0.4,1.1L180.5,162.1"/>
				<path id="path262_00000070829705100087346570000004074262587359813769_" class="st8" d="M183.8,171l0.6,0
					c-0.1-1-0.1-1.5-0.1-1.5S184,170.3,183.8,171"/>
				<path id="path264_00000086652653059629922280000001954371575033465015_" class="st8" d="M182.7,168.4c0.1-1.2,0.3-0.9,0.2-1.5
					c-0.1-0.6,0,0.2-0.1-0.9c-0.1-1.1-0.3-1.4-0.3-1.4s-0.8,0-1.5-0.1c-0.7-0.1-0.7-0.8-0.7-0.8s0-0.4,0-0.8c-0.2,0.3-0.7,1-1.9,1.7
					c-1.6,0.9-1.7,1.9-0.7,1.9c1.1,0,0.8-0.5,2.1,0.5c1.3,1.1,1.2,0.9-1.3,0.4c-2.5-0.5-1.9-0.5-2.9-0.3c-1.1,0.3-1.7,0.4-0.8,0.8
					c0.9,0.4,1.7,0.8,0.7,1.1c-1.1,0.3-2.1,0.3-2.1,0.3c1.1,0.7,1.4,0.9,2.1,1.1c0.7,0.1,0.7,0,1.5,0.3c0.8,0.3,0.4,0.4,1.3,0.3
					c0.9-0.1,1.5-0.3,2.1-0.1l1.7,0C182.4,170.3,182.6,169.3,182.7,168.4"/>
				<path id="path266_00000033338353663445565300000006309915285726807439_" class="st8" d="M202.3,159.8c-1.3,0.4-2,0.5-2.4-0.5
					c-0.4-1.1-2-0.7-2.6-0.4c-0.7,0.3-1.6,0.4-2,0.4s-1.9-0.9-1.1-1.2c0.8-0.3,0.4-2.1-1.9-1.3c-2.3,0.8-4,0.5-2.4,1.2
					c1.6,0.7,2.5,1.7,0.7,2.3c-1.9,0.5-2.5,1.2-3.2,1.3c-0.7,0.1-0.5,0.4-1.3-0.8c-0.8-1.2-1.2-2.1-2.4-1.2
					c-1.2,0.9-0.9,1.7-1.5,2.1c-0.5,0.4-0.9,0.4-0.9,0.4l-0.5-1.5c0.1,0.3,0.2,0.9,0.3,1.1c0.1,0.4,0.2,0.7,0.2,0.7l0.2,0.7l0.7-0.1
					c0,0,0.2-0.2,0.4-0.5c0.2-0.3,0.6,0.1,0.6,0.1s0.1-0.1,0.1-0.5c-0.1-0.3-0.2-0.3,0.1-0.9c0.3-0.7,0.3-0.6,0.9-0.8
					c0.7-0.2,0.8,0.1,1.1,0.6c0.3,0.5-0.1,0.7-0.1,1.1c0,0.4-0.3,0.7-0.3,0.7s0.6,0.5,0.7,1c0.1,0.5,0.2,0.6,0.2,0.6
					s0.7,0.3,1.4,0.3c0.7,0,1.6,0.1,1.6,0.1l-0.1,0.5c0,0-0.3,0.1-0.6,0.1c-0.3,0-0.5,0.3-1.2,0.3c-0.7,0.1-1.2,0-1.2,0l-0.3,1.1
					c0,0,0,0.7,0.1,1.1c0,0.3,0.2,1.8,0.3,3.1l18.1,0.1c0-3.7,0-8.3,0-11.9C203.9,159.2,203.6,159.4,202.3,159.8"/>
				<path id="path268_00000036244602279641624550000011017581473965718197_" class="st8" d="M187.5,195.6
					c-13.6,0.3-20.8-1.5-32.2-5.7c-11.4-4.2-11.8,0.8-15.4,3.6l-1.4,1.8c0.3-0.1,0.5-0.2,0.8-0.4l0.2,0.1
					c11.4,10.5,23.1,21.1,48,21.3c24.3-0.3,35.1-10.9,46.5-21.4l0.2-0.1c0.3,0.1,0.5,0.3,0.8,0.4l-1.2-2c-3.6-2.8-4.9-6.8-14.2-3.3
					C208.3,194.1,201.2,195.9,187.5,195.6l0,5.8c20.9-0.1,29.1-4,34.5-6.4c-6.7,5.4-15.9,13.9-34.5,13.4c-18.6,0.5-29.2-7.9-36-13.3
					c5.6,2.4,15,6.2,36,6.3L187.5,195.6"/>
				<path id="path270_00000026124497810622318250000011986629690681256864_" class="st9" d="M197.5,171.1c0.3-0.4,0.5-0.9,0.5-1.4
					c0-1.2-1-2.2-2.2-2.2c-1.2,0-2.2,1-2.2,2.2c0,0.5,0.2,1,0.5,1.3"/>
				<path id="path272_00000164500939716188323040000014535755793398335929_" class="st9" d="M188.3,170.1h4.9v-0.5h-4.9V170.1z"/>
				<path id="path274_00000035511015206925807560000016673620466362547632_" class="st9" d="M193.2,169.1l-4.3-0.5l0,0.4l4.3,0.5
					L193.2,169.1"/>
				<path id="path276_00000132077316418335992710000014296126326712442528_" class="st9" d="M193.3,168.6l-4.5-2l-0.2,0.4l4.5,2
					L193.3,168.6"/>
				<path id="path278_00000065783070520197264810000008718030706366311071_" class="st9" d="M193.6,168.1l-3.7-2.2l-0.2,0.3l3.7,2.2
					L193.6,168.1"/>
				<path id="path280_00000078020750522936744910000008572362846762705549_" class="st9" d="M194,167.6l-3.8-4.2l-0.3,0.3l3.8,4.2
					L194,167.6"/>
				<path id="path282_00000078737786320491295110000008832966279053257647_" class="st9" d="M194.5,167.3l-2.5-3.5l-0.3,0.2l2.5,3.6
					L194.5,167.3"/>
				<path id="path284_00000018232846776327553640000004054569403124832424_" class="st9" d="M195,167l-2.1-6.2l-0.4,0.1l2.1,6.2
					L195,167"/>
				<path id="path286_00000167397886353078129210000004984672726161765296_" class="st9" d="M195.5,166.9l-0.9-4.3l-0.4,0.1l0.9,4.3
					L195.5,166.9"/>
				<path id="path288_00000119110199743276347210000009951683784479529658_" class="st9" d="M196.1,166.9l0.6-6.5l-0.4,0l-0.6,6.5
					L196.1,166.9"/>
				<path id="path290_00000128478359301623535660000000335142342514668968_" class="st9" d="M196.7,167l0.9-4.2l-0.4-0.1l-0.9,4.2
					L196.7,167"/>
				<path id="path292_00000094608943625906451230000013214340462162195612_" class="st9" d="M197.2,167.2l3.2-5.7l-0.3-0.2l-3.2,5.7
					L197.2,167.2"/>
				<path id="path294_00000098200848246611310010000008490306921451360693_" class="st9" d="M197.7,167.5l2.6-3.5l-0.3-0.2l-2.6,3.5
					L197.7,167.5"/>
				<path id="path296_00000083052589481504845160000004500389996325487536_" class="st9" d="M198.1,167.9l5.3-3.9l-0.2-0.3l-5.3,3.9
					L198.1,167.9"/>
				<path id="path298_00000036222292120379226340000001843865832083191996_" class="st9" d="M198.4,168.4l3.8-2.2l-0.2-0.3l-3.8,2.2
					L198.4,168.4"/>
				<path id="path300_00000137823831169701528250000002779029559820250781_" class="st9" d="M198.6,168.9l4.4-1l-0.1-0.4l-4.4,1
					L198.6,168.9"/>
				<path id="path302_00000108269086035035409810000016568161817947973298_" class="st9" d="M198.6,169.5l4.3-0.5l0-0.4l-4.3,0.5
					L198.6,169.5"/>
				<path id="path304_00000118354915679122412860000009267032304259208072_" class="st9" d="M198.6,170.1l4,0.8l0.1-0.4l-4-0.8
					L198.6,170.1"/>
				<path id="path306_00000047062322214184521230000002661467495256949160_" class="st10" d="M187.4,96.1c8.7,0,18.2,2.2,25.3,6
					c0,0,0.7,0,1.2-1c0.5-1,0.7-1.1,0.7-1.1s4,3.5,6,4.2c0,0-0.9-1.9-0.9-4.1l4.8-1.4c-3.5-1.6-7.8-4.3-9.9-6.7
					c-2.2-2.4-5.8-3.3-6.2-1.2c-0.4,2.1-0.9,2.8-0.9,2.8s-8.3-3.3-20.1-3.3c-11.7,0-20.1,3.3-20.1,3.3s-0.5-0.7-0.9-2.8
					c-0.4-2.1-4-1.2-6.2,1.2c-2.2,2.4-6.5,5.1-9.9,6.7l4.8,1.4c0,2.2-0.9,4.1-0.9,4.1c2-0.7,6-4.2,6-4.2s0.2,0.1,0.7,1.1
					c0.5,1,1.2,1,1.2,1C169.3,98.2,178.7,96.1,187.4,96.1"/>
				<path id="path308_00000129170544407694437730000004666851840132511894_" d="M149.4,119.3c1.1-0.1,1.6-0.6,2.5-0.3
					c0.9,0.3,1.4,0.6,2.1,1.3c0.7,0.7,0.4,0.3,0.4,0.3s-0.9-0.3-1.2,0.1c-0.3,0.4-1.5,0.5-1.9,0c-0.4-0.5-0.3-0.7-0.8-0.8
					c-0.5-0.1-0.8-0.1-1.5-0.3c-0.7-0.3-0.7-0.3-0.7-0.3s1.3,0.2,1.7,0.3c0.5,0.1,0.8-0.1,1.1,0.3c0.3,0.4,0.2,0.3,0.5,0.1
					c0.3-0.2,0.5-0.5,0.7-0.4c0.2,0.1,0.7,0.1,0.5,0.5c-0.2,0.5-0.1,0.5-0.1,0.5s0.2-0.1,0.5-0.2c0.3-0.1,0.5-0.1,0.5-0.1
					s-1.3-0.7-1.7-0.9c-0.3-0.2-0.7-0.3-1.3-0.2C150,119.3,149.4,119.3,149.4,119.3"/>
				<path id="path310_00000168830624427955957640000014316893304963901621_" d="M160.2,121.6c-0.6-0.1-0.6,0.1-1.3,0.4
					c-0.7,0.3-1.1,0.4-1.1,0.4s0.5,0.4,1,0.3c0.5-0.1,1.2-0.4,1.6-0.4L160.2,121.6"/>
				<path id="path312_00000052792214718556108170000012298912408386820026_" d="M141.8,118c0.9-0.4,0.7-0.5,1.9-0.3
					c1.1,0.2,1.7,0.1,2.3,0.9c0.6,0.8-1.1,0.7-1.6,0.4c-0.5-0.3-2.5-0.7-2.8-1.1"/>
				<path id="path314_00000108302018260858691870000017544359240975252889_" d="M218.7,123.7c-1.2,1.7-2.4,0.4-1.4-0.8
					c0.4-0.4,0.5-0.5,0.8-0.6c0.7-0.4,1.5-0.5,1.5-0.5s-1.3,0.4-1.7,1c-0.4,0.5-0.1,0.5-0.2,0.9c-0.1,0.4,0,0.3,0.2,0.1
					c0.3-0.2,0.3,0,0.5-0.4C218.7,122.9,218.9,123.4,218.7,123.7"/>
				<path id="path316_00000009582402916201637620000015021848681875631500_" d="M223,121c0.9-0.6,1.5-1.1,2-1.2
					c0.5-0.1,0.9-0.1,1.4,0.1c0.5,0.2,0.7,0.3,0.7,0.3l-1.1-0.1c0,0-0.4,1.6-1,0.2l-1,0.3L223,121"/>
				<path id="path318_00000029041579416786749950000002610645970500938388_" d="M229.6,120.3c0.3-0.3,0.3-0.4,1.1-0.6
					c0.8-0.2,0.9-0.5,1.5-0.3c0.5,0.1,1.5,0.3,1.5,0.3s-0.7,0.6-2,0.6C230.3,120.3,229.6,120.3,229.6,120.3"/>
				<path id="path320_00000137131200676829171950000013874151244094293136_" d="M183.2,100.6c0.8,0.3,1.4,0.6,2.6,1.4
					c1.2,0.8,0.2,0.6-0.2,0.3c-0.4-0.3-0.6-0.3-0.6-0.3s-0.5,0.5-0.8-0.1c-0.3-0.7,0.1-0.5-0.3-0.7c-0.4-0.2-1-0.6-1-0.6
					L183.2,100.6"/>
				<path id="path322_00000061453918730260821930000000922015810092928947_" d="M182.3,131.2c0-0.7-0.1-1.1,0.3-1.4
					c0.3-0.3,1.1-0.7,1.1-0.7s-0.6,0.1-0.7,1c-0.2,0.9-0.3,1.2-0.2,1.4l-0.5,0L182.3,131.2"/>
				<path id="path324_00000144313269838032854530000015173904527318589087_" d="M185,131.5c0.1-0.1,0.3-0.3,0.1-0.8
					c-0.2-0.5-0.4-1-0.2-1.1c0.2-0.1,0.3-0.2,0.4,0.4c0.1,0.6,0,1.2,0.4,1.5l-0.3-0.1L185,131.5"/>
				<path id="path326_00000083089151727637914860000011456737464675098501_" d="M180.8,131.7l0.3,0.5l0.3-0.5"/>
				<path id="path328_00000113342874585533615820000001506332259160899495_" d="M183.6,131.9c0,0,0.2,0.2,0.4,0.7
					c0.1,0.5,0.1,0.3,0.1,0.3s0.1-0.3,0.2-0.5c0.1-0.1,0.1-0.4,0.1-0.4L183.6,131.9"/>
				<path id="path330_00000051354366593894483240000017140716466667744680_" d="M186.5,131.7c0.1,0.2,0.3,0.7,0.3,0.7s0-0.1,0.2-0.3
					c0.2-0.2,0.2-0.6,0.2-0.6l-0.7,0.1"/>
				<path id="path332_00000152972876964599172330000016493360377690579614_" d="M189.4,131.6c-0.1,0.2,0.2,0.7,0.2,0.7l0.4-0.7
					H189.4"/>
				<path id="path334_00000091700800998802055950000009554708319514554244_" d="M192.2,131.8l0.5,0.7l0.2-0.8L192.2,131.8"/>
				<path id="path336_00000127012057585483445880000000898869033110223247_" d="M194.3,131.6l0.5,0.7c0,0,0,0,0.2-0.3
					c0.1-0.2,0.3-0.6,0.3-0.6L194.3,131.6"/>
				<path id="path338_00000170245476119390240510000009785920187830283927_" d="M188.5,164.6l0.3-1.9l0.2,0.1l-0.3,1.9"/>
				<path id="path340_00000077286290451571055190000016464287081261957303_" d="M188.3,165.4l-0.7,5.7l-0.3,0.6l-0.3,0.1l0.2,0.2
					l-0.4,1.5l0.5,0.1l0.3-1.7c0,0,0.3-0.5,0.4-1c0.1-0.5,0.6-5.6,0.6-5.6"/>
				<path id="path342_00000156559368691419706590000018331069908743831703_" d="M181.8,174c0,0,0.7-0.4,1.2-0.1
					c0.5,0.3-0.1,0.5-0.3,0.5C182.4,174.5,181.8,174,181.8,174"/>
				<path id="path344_00000030467097224272826810000010971996219005106317_" d="M186.5,173.7l0.1,0.2c0,0-0.2,0.1-0.9,0.1
					s-1.1-0.4-1.1-0.4"/>
				<path id="path346_00000080907104395813204150000007490790502462595759_" d="M165,187.8l-0.5-1.2l-1.6,1.5l0.4-0.4l-3-0.3
					c0,0,1.4,0.3,1.7,0.5c0.3,0.2,0.5,0.4,0.6,0.5l-0.1,0.1L165,187.8"/>
				<path id="path348_00000174592539917153406790000012411724186026904250_" d="M137.1,194c0.8,0.1,2.4-0.1,2.7-0.3l-0.4,1.7
					l-0.6,0.2L137.1,194"/>
				<path id="path350_00000115488109635491339610000005045196675336456864_" d="M214.3,189.1l0.1-0.4l-1.8-1.5l-0.8,1.1L214.3,189.1
					"/>
				<path id="path352_00000181048669048761367600000017188624355549942926_" d="M234.3,191.6l1.5,0.9l-0.4,0.6l-1.2-0.6l0.1,2.4
					l-0.5-2l-0.6-0.3L234.3,191.6"/>
				<path id="path354_00000173156265774540443140000011993413119407777164_" d="M153.8,193.5c-0.1,0.2,0.1,0.4,0.3,0.5
					c0.2,0.1,0.4,0,0.5-0.2c0.1-0.3-0.1-0.5-0.3-0.6c-0.2-0.1-0.3-0.2-0.4-0.4c-0.1-0.2-0.1-0.4,0-0.6c0.2-0.5,0.6-0.7,1.1-0.5
					c0.4,0.1,0.7,0.6,0.6,1.1l-0.5-0.2c0-0.2-0.1-0.3-0.2-0.4c-0.2-0.1-0.3,0-0.4,0.2c-0.1,0.2,0.1,0.3,0.2,0.5
					c0.2,0.1,0.3,0.3,0.5,0.4c0.1,0.2,0.2,0.5,0.1,0.7c-0.2,0.5-0.7,0.7-1.2,0.6c-0.5-0.2-0.8-0.7-0.6-1.1L153.8,193.5"/>
				<path id="path356_00000026123714145177746260000011958288195801391547_" d="M156.2,192.1l0.5,0.2l-0.9,2.8l-0.5-0.2L156.2,192.1
					"/>
				<path id="path358_00000085973256789234257010000011850301073337160589_" d="M160.6,196.7c-0.3-0.1-0.5-0.2-0.7-0.4
					c-0.3,0.1-0.6,0-0.9,0c-0.8-0.3-1.3-1.1-1-1.9c0.1-0.4,0.4-0.7,0.7-0.9c0.4-0.2,0.8-0.2,1.2-0.1c0.8,0.3,1.3,1.1,1,1.9
					c-0.1,0.4-0.3,0.6-0.6,0.8c0.1,0.1,0.2,0.1,0.3,0.2l0.1,0L160.6,196.7"/>
				<path id="path360_00000109017289571200164290000012926155110223031732_" d="M162.4,194.1l-0.5,1.8c0,0.1-0.1,0.3-0.1,0.4
					c0,0.2,0.1,0.3,0.3,0.4c0.1,0,0.3,0,0.4-0.1c0.1-0.1,0.2-0.3,0.2-0.4l0.5-1.8l0.5,0.2l-0.5,1.8c-0.1,0.3-0.2,0.5-0.4,0.7
					c-0.2,0.2-0.6,0.2-0.9,0.1c-0.3-0.1-0.5-0.3-0.6-0.6c-0.1-0.3-0.1-0.6,0-0.9l0.5-1.8L162.4,194.1"/>
				<path id="path362_00000066502439214891285440000010086826015311415936_" d="M165.8,195.1l1.3,0.3L167,196l-0.8-0.2l-0.2,0.7
					l0.8,0.2l-0.1,0.5l-0.8-0.2l-0.2,0.7l0.8,0.2l-0.1,0.5l-1.4-0.4l0.2-0.7l-0.8-0.2l-0.6,0.6l-0.6-0.2L165.8,195.1"/>
				<path id="path364_00000165929373593647386680000011094435415160682423_" d="M168,195.6l0.8,0.2c0.3,0.1,0.5,0.1,0.7,0.4
					c0.2,0.2,0.2,0.5,0.2,0.8c0,0.2-0.2,0.4-0.4,0.6c-0.2,0.1-0.4,0.2-0.6,0.2l0.5,1.2l-0.7-0.1l-0.5-1.3l-0.2,1.1l-0.5-0.1
					L168,195.6"/>
				<path id="path366_00000058556318108101205880000014208632940363386020_" d="M170.3,196.1l0.5,0.1l-0.5,2.9l-0.5-0.1L170.3,196.1
					"/>
				<path id="path368_00000173141281811633765280000017367653416283322769_" d="M171.6,198.5c0,0.2,0.1,0.4,0.4,0.4
					c0.2,0,0.4-0.1,0.4-0.3c0-0.3-0.2-0.4-0.4-0.6c-0.2-0.1-0.3-0.2-0.5-0.3c-0.1-0.2-0.2-0.4-0.1-0.6c0.1-0.5,0.5-0.8,1-0.7
					c0.4,0.1,0.8,0.5,0.7,1l-0.6-0.1c0-0.2-0.1-0.3-0.3-0.4c-0.2,0-0.3,0.1-0.3,0.3c0,0.2,0.2,0.3,0.3,0.4c0.2,0.1,0.4,0.2,0.5,0.3
					c0.2,0.2,0.3,0.4,0.2,0.7c-0.1,0.5-0.6,0.9-1.1,0.8c-0.5-0.1-0.9-0.5-0.8-1L171.6,198.5"/>
				<path id="path370_00000050665241389176638300000005309466550303301004_" d="M174.7,199.7l0.2-2.9l0.7,0.1c0.3,0,0.5,0,0.8,0.2
					c0.2,0.2,0.4,0.5,0.3,0.8c0,0.3-0.2,0.6-0.4,0.7c-0.3,0.2-0.6,0.1-0.9,0.1l-0.1,0l-0.1,1.1L174.7,199.7"/>
				<path id="path372_00000078739539437148394510000001679548079064890763_" d="M177.2,196.9l1.6,0.1l0,0.5l-1-0.1l0,0.7l1,0.1
					l0,0.5l-1-0.1l0,0.7l1,0.1l0,0.5l-1.6-0.1L177.2,196.9"/>
				<path id="path374_00000000202307453419145260000000891767746386720387_" d="M179.4,197l0.6,0l1.2,2.2l0.1-2.1l0.5,0l-0.1,2.9
					l-0.6,0l-1.2-2.2l-0.1,2.1l-0.5,0L179.4,197"/>
				<path id="path376_00000151527944372049924640000007511533087072798641_" d="M182.5,197.1l0.5,0l-0.1,2.9l-0.5,0L182.5,197.1"/>
				<path id="path378_00000146496510585598986020000003868894755494019222_" d="M183.7,197.1l0.6,0l1.2,2.2l0-2.1l0.5,0l0,2.9
					l-0.6,0l-1.2-2.1l0,2.1l-0.5,0L183.7,197.1"/>
				<path id="path380_00000011745545518433384650000005668215417862046351_" d="M187.2,199.3c0,0.2,0.2,0.4,0.4,0.4
					c0.2,0,0.4-0.2,0.4-0.4c0-0.3-0.3-0.4-0.5-0.5c-0.2-0.1-0.4-0.1-0.5-0.3c-0.1-0.1-0.2-0.4-0.2-0.6c0-0.5,0.4-0.8,0.9-0.8
					c0.5,0,0.9,0.4,0.9,0.8h-0.6c0-0.2-0.2-0.3-0.3-0.3c-0.2,0-0.3,0.1-0.3,0.3c0,0.2,0.2,0.3,0.4,0.4c0.2,0.1,0.4,0.1,0.6,0.3
					c0.2,0.2,0.3,0.4,0.3,0.7c0,0.5-0.4,0.9-1,0.9c-0.5,0-0.9-0.4-0.9-0.9L187.2,199.3"/>
				<path id="path382_00000010270565095163673200000017726062136297989787_" d="M189.6,197.2l0,1.8c0,0.1,0,0.3,0.1,0.4
					c0.1,0.2,0.2,0.2,0.4,0.2c0.1,0,0.3-0.1,0.4-0.2c0.1-0.1,0.1-0.3,0.1-0.4l0-1.8l0.5,0l0,1.8c0,0.3,0,0.6-0.2,0.8
					c-0.2,0.2-0.5,0.4-0.8,0.4c-0.3,0-0.6-0.1-0.8-0.3c-0.2-0.2-0.2-0.5-0.3-0.8l0-1.8L189.6,197.2"/>
				<path id="path384_00000070088285192067783100000015965889061676970885_" d="M191.7,197.1l0.5,0l0.1,2.4l0.9,0l0,0.5l-1.4,0.1
					L191.7,197.1"/>
				<path id="path386_00000173865387782590222040000002053414762064231566_" d="M194.5,197l0.4,0l1.4,2.9l-0.6,0l-0.4-0.7l-1,0.1
					l-0.3,0.8l-0.6,0L194.5,197"/>
				<path id="path388_00000029032565238128893740000008497040949283883438_" d="M196.6,196.9l0.7-0.1l1,2.2l0.6-2.3l0.7-0.1l0.3,2.9
					l-0.5,0l-0.2-2.2l-0.6,2.3l-0.5,0l-1-2.1l0.2,2.2l-0.5,0L196.6,196.9"/>
				<path id="path390_00000100360276285838514960000002883399699852178841_" d="M202.5,196.2l0.4-0.1l1.7,2.7l-0.6,0.1l-0.4-0.7
					l-1,0.2l-0.2,0.8l-0.6,0.1L202.5,196.2"/>
				<path id="path392_00000072261107450432089960000011275756170797632444_" d="M204.5,195.9l0.7-0.1l1.2,2.1l0.4-2.4l0.7-0.1
					l0.5,2.9l-0.5,0.1l-0.4-2.2l-0.3,2.3l-0.5,0.1l-1.2-2l0.4,2.2l-0.5,0.1L204.5,195.9"/>
				<path id="path394_00000032638862528985192480000003448381460082933153_" d="M211,197.5l-0.1-0.3c-0.1,0.3-0.5,0.5-0.8,0.6
					c-0.8,0.2-1.6-0.3-1.8-1.1c-0.2-0.8,0.3-1.6,1.1-1.8c0.3-0.1,0.8,0,1,0.2l-0.1-0.3l1.4-0.3l0.1,0.5L211,195l0.2,0.7l0.8-0.2
					l0.1,0.5l-0.8,0.2l0.2,0.7l0.8-0.2l0.1,0.5L211,197.5"/>
				<path id="path396_00000183959681912001961400000013544109211610457004_" d="M212.3,194.2l0.6-0.2l1.8,1.7l-0.6-2.1l0.5-0.2
					l0.8,2.8l-0.6,0.2l-1.8-1.7l0.6,2l-0.5,0.2L212.3,194.2"/>
				<path id="path398_00000143604593487661279750000015432025988351823295_" d="M216.1,193l0.4-0.1l2.1,2.4l-0.6,0.2l-0.5-0.6
					l-1,0.3l-0.1,0.8l-0.6,0.2L216.1,193"/>
				<path id="path400_00000009588602535119627100000013639757489857338252_" d="M218.1,192.3l0.7-0.3l1.5,1.8l-0.1-2.4l0.7-0.3
					l1,2.7l-0.5,0.2l-0.8-2.1l0.1,2.3l-0.4,0.2l-1.5-1.8l0.8,2.1l-0.5,0.2L218.1,192.3"/>
				<path id="path402_00000029017390152814472330000006526425040962258108_" d="M156.5,203.1c0.1-0.5,0.1-1-0.4-1.4
					c-0.6-0.4-1.2,0.1-1.5,0.6c-0.4,0.7-0.7,1.5-0.1,1.9c0.5,0.3,1,0,1.4-0.2l0.5,0.6c-0.6,0.4-1.4,0.6-2.4,0
					c-1.1-0.7-1.6-1.8-0.8-3c0.8-1.1,2-1.2,2.9-0.5c0.4,0.3,0.5,0.5,0.6,0.7l0.2-0.1l0.4,0.3l-0.2,1.4L156.5,203.1"/>
				<path id="path404_00000031914283625023988240000015552716982906308524_" d="M158,206.4l0.2,0.1c0.3,0.2,0.5,0.3,0.7,0l1.1-1.9
					c0.2-0.3,0-0.4-0.3-0.6l-0.2-0.1l0.3-0.4l2.5,1.4l-0.3,0.4l-0.2-0.1c-0.3-0.2-0.5-0.3-0.7,0l-1.1,1.9c-0.2,0.3,0,0.5,0.3,0.6
					l0.2,0.1l-0.3,0.4l-2.5-1.4L158,206.4"/>
				<path id="path406_00000134963201296796306450000009984641980479806348_" d="M162.6,209l0.2,0.1c0.3,0.1,0.6,0.2,0.7-0.1l0.9-2
					c0.1-0.3-0.1-0.4-0.4-0.6l-0.2-0.1l0.2-0.5l2.6,1.1c1.2,0.5,1.7,1.4,1.5,1.9c-0.2,0.5-0.8,0.7-1.5,0.5l0.2,1
					c0.1,0.4,0.2,0.5,0.6,0.7l0.2,0.1l-0.2,0.5l-1.8-0.8l-0.3-1.9l-0.3-0.1l-0.3,0.7c-0.1,0.3,0.1,0.4,0.3,0.6l0.2,0.1l-0.2,0.5
					l-2.6-1.1L162.6,209"/>
				<path id="path408_00000173866761165812614970000002346826070087219343_" d="M173.9,210.9c-0.1-0.5-0.2-1-0.8-1.2
					c-0.7-0.2-1.1,0.4-1.3,1.1c-0.2,0.8-0.2,1.6,0.5,1.8c0.5,0.1,0.9-0.3,1.2-0.6l0.7,0.4c-0.4,0.6-1.1,1-2.3,0.7
					c-1.3-0.3-2.1-1.3-1.7-2.6c0.4-1.3,1.5-1.7,2.6-1.4c0.5,0.1,0.7,0.3,0.8,0.5l0.1-0.2l0.5,0.1l0.3,1.4L173.9,210.9"/>
				<path id="path410_00000059989026283848294340000014045701134911214768_" d="M179.5,210.4l-0.1,0.5l-0.2,0c-0.3,0-0.4,0-0.4,0.2
					l-0.3,2c0,0.4,0.2,0.7,0.7,0.8c0.6,0.1,0.8-0.1,0.9-0.6l0.3-2c0-0.2-0.1-0.3-0.3-0.3l-0.3,0l0.1-0.5l2.2,0.3l-0.1,0.5l-0.2,0
					c-0.3,0-0.4,0-0.5,0.2l-0.3,2.1c-0.1,0.9-1,1-1.9,0.9c-1.8-0.2-1.9-0.9-1.8-1.6l0.2-1.9c0-0.2-0.1-0.3-0.5-0.3l-0.2,0l0.1-0.5
					L179.5,210.4"/>
				<path id="path412_00000173131886972706125880000016396766914052915845_" d="M184,214.3h0.2c0.3,0,0.6,0,0.6-0.4l0-2.2
					c0-0.3-0.3-0.4-0.6-0.4H184l0-0.5l2.5,0l0.9,2.2h0l0.9-2.2l2.5,0l0,0.5h-0.2c-0.3,0-0.6,0-0.6,0.4l0,2.2c0,0.4,0.3,0.4,0.6,0.4
					h0.2l0,0.5l-2.7,0l0-0.5l0.2,0c0.3,0,0.5-0.1,0.5-0.3l0-2.3h0l-1.3,3.1l-0.5,0l-1.3-3.1h0l0,2.3c0,0.2,0.2,0.3,0.5,0.3h0.2
					l0,0.5l-2.3,0L184,214.3"/>
				<path id="path414_00000030476353384455897830000015659574145773167498_" d="M193.2,213.3l0.6-0.3c0.4,0.3,1.1,0.7,1.9,0.6
					c0.4-0.1,0.7-0.3,0.7-0.5c0-0.3-0.3-0.3-0.8-0.4l-1.5-0.2c-0.6-0.1-1-0.4-1-0.8c-0.1-0.7,0.6-1.3,1.6-1.5c0.4-0.1,0.8,0,1,0
					l0-0.1l0.5-0.1l0.8,1l-0.6,0.3c-0.4-0.3-0.9-0.7-1.6-0.6c-0.4,0.1-0.6,0.3-0.5,0.5c0,0.3,0.5,0.3,0.9,0.4l1.4,0.2
					c0.6,0.1,1,0.4,1,0.8c0.1,0.7-0.7,1.4-1.7,1.5c-0.2,0-0.6,0.1-1.1,0l0,0.2l-0.6,0.1L193.2,213.3"/>
				<path id="path416_00000038407173340922446500000008541117584403285128_" d="M200.1,212.8l0.2-0.1c0.3-0.1,0.6-0.2,0.5-0.5
					l-0.6-2.1c-0.1-0.3-0.3-0.3-0.7-0.2l-0.2,0l-0.1-0.5l2.6-0.7c1.1-0.3,2.3-0.2,2.5,0.6c0.2,0.9-1,1.4-2.1,1.7l-0.3,0.1l0.2,0.7
					c0.1,0.3,0.3,0.3,0.7,0.2l0.3-0.1l0.1,0.5l-2.9,0.8L200.1,212.8"/>
				<path id="path418_00000008860714349073741690000015923930788735255470_" d="M207.1,210.7l0.2-0.1c0.3-0.1,0.6-0.2,0.4-0.6
					L207,208c-0.1-0.3-0.4-0.3-0.7-0.1l-0.2,0.1l-0.2-0.5l2.7-1l0.2,0.5l-0.2,0.1c-0.3,0.1-0.6,0.2-0.4,0.6l0.8,2.1
					c0.1,0.3,0.4,0.3,0.7,0.1l0.2-0.1l0.2,0.5l-2.7,1L207.1,210.7"/>
				<path id="path420_00000078039876780081456540000012196113090558140859_" d="M214.6,205.4c-0.4-0.3-0.8-0.6-1.4-0.4
					c-0.6,0.3-0.5,1-0.2,1.6c0.3,0.7,0.9,1.3,1.6,1c0.5-0.2,0.5-0.8,0.5-1.3l0.8-0.1c0.1,0.7-0.2,1.5-1.2,2c-1.2,0.6-2.4,0.4-3-0.8
					c-0.6-1.2,0-2.3,1.1-2.8c0.5-0.2,0.7-0.2,0.9-0.1l0-0.2l0.5-0.2l1.1,0.9L214.6,205.4"/>
				<path id="path422_00000005949300215921771560000017259103961063563415_" d="M218.2,205.7l0.2-0.1c0.3-0.2,0.5-0.3,0.3-0.6
					l-1.2-1.8c-0.2-0.3-0.4-0.2-0.7,0l-0.2,0.1l-0.3-0.4l3.4-2.3l1.3,0.5l-0.5,0.6c-0.7-0.3-1.4,0-2,0.4l-0.1,0.1l0.7,1l0.3-0.2
					c0.2-0.2,0.3-0.3,0.2-0.5l-0.1-0.1l0.6-0.4l0.9,1.3l-0.6,0.4l-0.1-0.1c-0.1-0.2-0.3-0.3-0.6-0.1l-0.3,0.2l0.7,1l0.2-0.1
					c0.9-0.6,1.1-1,1.2-1.8l0.7-0.2l0,1.4l-3.6,2.4L218.2,205.7"/>
				<path id="path424_00000123416167896474089020000000463103715548286112_" class="st8" d="M163.9,95.5l1.9-0.7l0.2,0.6l-1.3,0.4
					l0.3,0.8l1.2-0.4l0.2,0.6l-1.2,0.4l0.3,0.8l1.3-0.4l0.2,0.7l-1.9,0.7L163.9,95.5"/>
				<path id="path426_00000053534028016470994550000018070572425759797167_" class="st8" d="M171,97.3l-1-3.7l0.9-0.2
					c0.4-0.1,0.7-0.2,1.1-0.1c0.4,0.1,0.6,0.4,0.7,0.8c0.1,0.4,0,0.8-0.2,1.1c-0.2,0.3-0.7,0.4-1,0.5l-0.1,0l0.4,1.4L171,97.3"/>
				<path id="path428_00000049218357099651741560000015424374911940351155_" class="st8" d="M173.1,92.8l0.7-0.2l0.7,3.1l1.1-0.2
					l0.1,0.7l-1.8,0.4L173.1,92.8"/>
				<path id="path430_00000024710427770589386860000011462636520240607888_" class="st8" d="M176.4,92.1l0.4,2.4
					c0,0.2,0,0.3,0.2,0.5c0.1,0.2,0.3,0.3,0.6,0.2c0.2,0,0.4-0.2,0.4-0.3c0.1-0.2,0-0.4,0-0.6l-0.4-2.3l0.7-0.1l0.4,2.3
					c0.1,0.4,0.1,0.7-0.1,1.1c-0.2,0.3-0.5,0.6-0.9,0.7c-0.4,0.1-0.8-0.1-1-0.3c-0.3-0.3-0.4-0.6-0.5-1l-0.4-2.4L176.4,92.1"/>
				<path id="path432_00000072281126672235430980000001315724164149930129_" class="st8" d="M179.3,91.6l1.1-0.1
					c0.4,0,0.7-0.1,1,0.2c0.3,0.2,0.5,0.5,0.5,0.9c0,0.3-0.1,0.6-0.2,0.9c-0.2,0.2-0.4,0.4-0.6,0.4l1.2,1.3l-0.9,0.1l-1.2-1.3
					l0.2,1.5l-0.7,0.1L179.3,91.6"/>
				<path id="path434_00000143612246439837803390000016763520277364105372_" class="st8" d="M182.6,91.3l0.7-0.1l0.3,3.8l-0.7,0
					L182.6,91.3"/>
				<path id="path436_00000131331052456481120180000000326792784106881976_" class="st8" d="M184.4,91.2l0.7,0c0.3,0,0.7,0,1,0.1
					c0.3,0.2,0.6,0.5,0.6,0.8c0,0.3-0.1,0.6-0.4,0.7c0.4,0.1,0.7,0.5,0.7,0.9c0,0.4-0.1,0.7-0.4,0.9c-0.3,0.2-0.7,0.3-1,0.3l-1,0
					L184.4,91.2"/>
				<path id="path438_00000117645537396732837980000014664225220187531427_" class="st8" d="M188.5,91.1l-0.1,2.4
					c0,0.2,0,0.4,0.1,0.5c0.1,0.2,0.3,0.3,0.5,0.3c0.2,0,0.4-0.1,0.5-0.3c0.1-0.2,0.1-0.4,0.1-0.6l0.1-2.4l0.7,0l-0.1,2.4
					c0,0.4,0,0.7-0.3,1c-0.3,0.3-0.6,0.5-1,0.5c-0.4,0-0.7-0.2-1-0.5c-0.3-0.3-0.3-0.7-0.3-1.1l0.1-2.4L188.5,91.1"/>
				<path id="path440_00000056416651373915887570000018268750532075684250_" class="st8" d="M191.7,94c0,0.3,0.2,0.5,0.5,0.5
					c0.3,0,0.5-0.2,0.5-0.4c0-0.4-0.3-0.6-0.6-0.7c-0.2-0.1-0.5-0.2-0.6-0.4c-0.2-0.2-0.3-0.5-0.2-0.8c0.1-0.6,0.6-1,1.2-1
					c0.6,0.1,1.1,0.6,1,1.2l-0.7-0.1c0-0.2-0.2-0.4-0.4-0.4c-0.2,0-0.4,0.1-0.4,0.4c0,0.3,0.2,0.4,0.4,0.5c0.3,0.1,0.5,0.2,0.7,0.4
					c0.3,0.2,0.4,0.5,0.3,0.9c-0.1,0.7-0.7,1.2-1.3,1.1c-0.6-0.1-1.2-0.6-1.1-1.3L191.7,94"/>
				<path id="path442_00000173849190780058862050000001320179423713569214_" class="st8" d="M198.6,92.1l-0.4,2.3
					c0,0.2-0.1,0.3,0,0.5c0.1,0.2,0.2,0.4,0.4,0.4c0.2,0,0.4,0,0.5-0.2c0.1-0.2,0.2-0.3,0.2-0.5l0.5-2.3l0.7,0.1l-0.4,2.3
					c-0.1,0.4-0.2,0.7-0.5,1c-0.3,0.2-0.7,0.4-1.1,0.3c-0.4-0.1-0.7-0.3-0.9-0.6c-0.2-0.4-0.2-0.7-0.1-1.1l0.4-2.3L198.6,92.1"/>
				<path id="path444_00000045613449189197558330000001670425174964806021_" class="st8" d="M201.5,92.7l0.8,0.2l0.9,3.1l0.7-2.7
					l0.7,0.2l-0.9,3.7l-0.8-0.2l-0.9-3.1l-0.7,2.7l-0.7-0.2L201.5,92.7"/>
				<path id="path446_00000045597576501841904260000000639589997534824613_" class="st8" d="M206.3,94l-0.7,2.3
					c-0.1,0.2-0.1,0.3-0.1,0.5c0,0.2,0.2,0.4,0.4,0.5c0.2,0,0.4,0,0.5-0.1c0.2-0.1,0.2-0.3,0.3-0.5l0.7-2.3l0.7,0.2l-0.7,2.3
					c-0.1,0.4-0.2,0.7-0.6,0.9c-0.3,0.2-0.7,0.3-1.1,0.2c-0.3-0.1-0.6-0.4-0.8-0.7c-0.2-0.4-0.1-0.7,0-1.1l0.7-2.3L206.3,94"/>
				<path id="path448_00000051353099662653276900000015459341834261119636_" class="st8" d="M209.1,94.9l0.9,0.3l-0.1,3.1l2-2.4
					l0.9,0.3l-1.3,3.6l-0.7-0.2l1-2.7l-1.9,2.3l-0.6-0.2l0.1-3l-1,2.7l-0.7-0.2L209.1,94.9"/>
				<path id="path450_00000068644050155219203790000007716632782608978332_" class="st8" d="M171,149.6h0.2c0.4,0,0.6,0,0.6-0.5
					v-3.7c-0.7,0.1-0.9,0.5-1.4,1.2l-0.7-0.3l0.8-1.7h3.9l0.8,1.6l-0.6,0.3c-0.4-0.6-0.7-1.1-1.4-1.2v3.7c0,0.5,0.3,0.5,0.6,0.5h0.2
					v0.7H171V149.6"/>
				<path id="path452_00000076575492460628418280000014934913242118759044_" class="st8" d="M178.1,144.6v0.7H178
					c-0.3,0-0.4,0.1-0.4,0.4v2.9c0,0.6,0.3,0.9,0.8,0.9c0.6,0,0.8-0.3,0.8-1v-2.8c0-0.3-0.1-0.4-0.4-0.4h-0.3v-0.7h2.3v0.7h-0.3
					c-0.3,0-0.4,0.1-0.4,0.4v3.1c0,1.3-0.9,1.6-1.9,1.6c-1.8,0-2-1-2-2v-2.7c0-0.3-0.2-0.4-0.5-0.4h-0.2v-0.7H178.1"/>
				<path id="path454_00000039816648565589562480000001271856388965872774_" class="st8" d="M181.2,149.6h0.2c0.4,0,0.6,0,0.6-0.5
					v-3.1c0-0.5-0.3-0.5-0.6-0.5h-0.2v-0.7h4.2l0.8,1.6l-0.7,0.3c-0.4-0.9-1.1-1.1-2-1.1h-0.2v1.7h0.3c0.3,0,0.4-0.1,0.4-0.5v-0.2
					h0.7v2.3h-0.7v-0.3c0-0.3-0.1-0.6-0.4-0.6h-0.3v1.7h0.3c1,0,1.5-0.2,2.1-1.2l0.7,0.3l-0.8,1.7h-4.4V149.6"/>
				<path id="path456_00000133503065632105136490000000626907895576846733_" class="st8" d="M187,149.6h0.2c0.4,0,0.6,0,0.6-0.5
					v-3.1c0-0.5-0.3-0.5-0.6-0.5H187v-0.7h2.2c1.2,0,2.5,0.2,2.5,1.5c0,0.7-0.5,1.2-1.5,1.3v0c1.2,0,1.8,0.7,1.8,1.3
					c0,1.5-1.3,1.6-2.5,1.6H187V149.6"/>
				<path id="path458_00000161601228722072946920000013207696880409730979_" class="st8" d="M195.2,144.5c1.7,0,2.4,1.5,2.4,2.9
					c0,1.5-0.7,2.9-2.4,2.9c-1.3,0-2.4-1-2.4-2.9C192.8,145.5,193.9,144.5,195.2,144.5"/>
				<path id="path460_00000011032073248236127790000005476236017468586399_" class="st8" d="M198.3,149.6h0.2c0.4,0,0.6,0,0.6-0.5
					v-3.1c0-0.5-0.3-0.5-0.6-0.5h-0.2v-0.7h2.9c1.4,0,2.2,0.9,2.2,1.7c0,0.8-0.5,1.3-1.2,1.5l0.6,1.2c0.2,0.4,0.3,0.6,0.8,0.6h0.3
					v0.7h-2l-1.1-2.3h-0.3v1.1c0,0.5,0.2,0.5,0.5,0.5h0.2v0.7h-2.9V149.6"/>
				<path id="path462_00000021095754624275501220000011990179518866975874_" class="st8" d="M160,195.6c0.2-0.1,0.3-0.3,0.4-0.5
					c0.2-0.5-0.1-1.1-0.7-1.3c-0.3-0.1-0.5-0.1-0.8,0.1c-0.2,0.1-0.4,0.3-0.5,0.5l0,0.2l0,0.5c0.1,0.4,0.4,0.6,0.7,0.7
					c0.1,0,0.2,0,0.3,0L160,195.6"/>
				<path id="path464_00000060016050554550956480000003216169430742224294_" class="st8" d="M165.3,196.7l0.2-0.7l-0.6,0.6
					L165.3,196.7"/>
				<path id="path466_00000056392240950059367210000008286603014515673743_" class="st8" d="M168.5,197.2c0.1,0,0.3,0,0.4,0
					c0.1-0.1,0.2-0.2,0.2-0.3c0-0.1,0-0.3-0.1-0.4c-0.1-0.1-0.2-0.2-0.4-0.2l-0.3-0.1l-0.2,0.8L168.5,197.2"/>
				<path id="path468_00000152227347765453124050000012052756289733184430_" class="st8" d="M175.4,198.1c0.1,0,0.3,0,0.4,0
					c0.2,0,0.3-0.2,0.3-0.3c0-0.2-0.1-0.3-0.3-0.4c-0.1,0-0.3,0-0.4-0.1l-0.1,0l-0.1,0.8L175.4,198.1"/>
				<path id="path470_00000155828229870299483060000002831060352813917118_" class="st8" d="M195.1,198.6l-0.4-0.9l-0.3,0.9
					L195.1,198.6"/>
				<path id="path472_00000168102318695141225330000016380550804997167546_" class="st8" d="M208.9,196.6c0.1,0.5,0.6,0.8,1.2,0.7
					c0.5-0.1,0.8-0.7,0.7-1.2c-0.1-0.5-0.6-0.9-1.2-0.7C209,195.5,208.7,196,208.9,196.6"/>
				<path id="path474_00000072256076441498438260000016095347396647434919_" class="st8" d="M217.1,194.4l-0.6-0.7l0,0.9
					L217.1,194.4"/>
				<path id="path476_00000080203597671069395480000012360533486988217256_" class="st8" d="M165.5,208.4c0.5,0.2,1.1,0.4,1.3-0.1
					c0.2-0.4-0.3-0.8-0.9-1.1l-0.2-0.1l-0.5,1.1L165.5,208.4"/>
				<path id="path478_00000045594185666689028020000009535626597691941764_" class="st8" d="M201.7,210.6l0.3-0.1
					c0.5-0.1,1-0.4,0.8-0.8c-0.1-0.5-0.8-0.4-1.3-0.3l-0.1,0L201.7,210.6"/>
				<path id="path480_00000122688781530040310430000000263499039414751642_" class="st8" d="M203.2,197.8l-0.4-0.8l-0.2,0.9
					L203.2,197.8"/>
				<path id="path482_00000111175425404459689760000001969646311482735004_" class="st10" d="M171.2,95c0.2,0,0.4-0.1,0.5-0.2
					c0.2-0.1,0.3-0.3,0.2-0.5c-0.1-0.2-0.2-0.3-0.5-0.3c-0.2,0-0.4,0.1-0.5,0.1l-0.1,0l0.3,1L171.2,95"/>
				<path id="path484_00000134210946703280563570000013719994371138852504_" class="st10" d="M180.6,93.3c0.2,0,0.4-0.1,0.5-0.2
					c0.1-0.1,0.1-0.3,0.1-0.4c0-0.2-0.1-0.3-0.3-0.4c-0.2-0.1-0.3-0.1-0.5-0.1l-0.4,0l0.1,1.1L180.6,93.3"/>
				<path id="path486_00000101102770258360497710000002616725408367166641_" class="st10" d="M185.5,94.3c0.2,0,0.4,0,0.6-0.2
					c0.1-0.1,0.2-0.2,0.2-0.4c0-0.2-0.1-0.3-0.3-0.4c-0.2-0.1-0.3-0.1-0.5-0.1l-0.3,0l0,1L185.5,94.3"/>
				<path id="path488_00000072991051053988396570000009689384701127014047_" class="st10" d="M185.3,92.6c0.2,0,0.3,0,0.5-0.1
					c0.1-0.1,0.2-0.2,0.2-0.4c0-0.2-0.1-0.3-0.2-0.3c-0.1-0.1-0.3,0-0.5,0l-0.1,0l0,0.8L185.3,92.6"/>
				<path id="path490_00000086651063514013263960000008376244111803495319_" class="st3" d="M189.3,147c0.5,0,0.9-0.3,0.9-0.8
					c0-0.5-0.4-0.8-0.9-0.8h-0.1v1.6H189.3"/>
				<path id="path492_00000060751489459229422160000008153126886221014708_" class="st3" d="M189.3,149.6c0.7,0,1.1-0.3,1.1-0.8
					c0-0.7-0.7-0.9-1.1-0.9h-0.2v1.8H189.3"/>
				<path id="path494_00000093154515841938335250000008067734142438347676_" class="st3" d="M195.2,149.6c0.7,0,0.9-1.2,0.9-2.1
					s-0.2-2.1-0.9-2.1c-0.7,0-0.8,1.2-0.8,2.1S194.5,149.6,195.2,149.6"/>
				<path id="path496_00000143619668178378190660000005625887155460787338_" class="st3" d="M200.7,147.2c0.5,0,1.2-0.1,1.2-0.9
					c0-0.7-0.6-0.9-1.3-0.9h-0.2v1.8H200.7"/>
				<path id="path498_00000036964634895947342290000014015942658259083166_" class="st11" d="M139.4,193c0,0,0.4,0.1,0.3,1.1
					c-0.1,0.9-0.5,2-1.3,1.3c-0.8-0.7-1.5-1.6-2-2c-0.5-0.4-0.7-0.4-0.5-1.6c0.1-1.2,0.7-5.6,0-6.8c-0.7-1.2-0.8-2.5-0.7-3.7
					c0.1-1.2-0.4-1.7,0.3-2.4c0.7-0.7,2.6-2.5,2.6-5.7c0-3.2-1.9-5.7-1.9-5.7s-1.3,1.1-1.1-0.7c0.3-1.7-0.5-5.2,3-8.9
					c3.6-3.7,7-5.8,7.7-7.3c0.7-1.5,1.6-5,1.6-5l-0.8,0.4c0,0,0.1-1.2,0.3-1.7c0.1-0.5,0.4-1.6,0.4-2.8c0-1.2-0.4-4.2-0.4-4.2
					l-0.9,0.5v-1.6c0,0,0-0.7-0.5-0.9c-0.5-0.3-0.9-0.5-0.8-1.2c0.1-0.7,0-1.5,0-1.5l-1.1,0.7c0,0,0.9-2.8,0.5-5.7
					c-0.4-2.9-0.3-5.4,0.3-6.8c0,0-3.4-0.5-4.1-3c0,0,0.7-0.7,1.9-1.2c1.2-0.5,3.2-0.5,5.2,0.9l0.4-0.2c0,0-1.4-1-3-2.1
					c-1.6-1.1-2.3-2-2.3-2s-8.3,1.1-9.7-1.6c0,0,4.6,1.9,5.5-1.7l-2.7-1.8c0,0,5.6,2.7,6.2-5.1c0,0,0.7,1.3,0.2,3.9
					c-0.5,2.5,2,5.3,2,5.3s0.3-0.7,0.3-1.7c0,0,0.3-0.3,0.9,1.9c0,0,2.9-1.3,2.6-7.1c0,0,0.4-1.1,0.4,0.4c0,1.5,0.2,3.5-1.5,6.8
					c-0.3,0.6,0,1.2,0.3,1.4c0.3,0.2,0.7,0.4,0.8,0c0.1-0.5,0.3-1.6,0-2.7c-0.3-1,0-0.7,0.2-0.4c0.2,0.3,1,0.8,1,2.9
					c0,0.5-0.2,0.8,0.7,0.2c0.9-0.6,1.4-1.5,2-2.4c0.5-0.9,0.7-0.9,0.3,0.2c-0.4,1.1-1,2.4-0.2,1.9c0.7-0.4,3.7-2.5,4.5-4.1
					c0.8-1.6,1-1.3,0.6-0.1c-0.4,1.2-0.5,1.8-1.5,2.7c-0.9,0.9-1.1,0.9,0,0.5c1-0.4,3.2-1.1,4-2.6c0.8-1.5,1.3-2.1,1-1
					c-0.3,1-0.7,1.8,0,1.7c0.7-0.2,3.1-1.1,4.2-2.7c0,0-1,3.4-4.5,5c-3.5,1.6-4.9,1.8-4.9,1.8s2.5,0.2,3,0.3c0.5,0.1,1.3,0.4,0,0.5
					c-1.2,0.1-4.6-0.1-5.2,0.1c-0.5,0.2-1,0.8-0.5,1.1c0.5,0.3,3.2,1.6,4.2,2.4c0.9,0.7,1.8,1,2.3,1.2c0.5,0.1,1.5,0.5,1.6,1.6
					c0.1,1.1,0.2,1,0,1.5c-0.3,0.4-0.2,1.7-1.5,1.9c-1.3,0.2-2.1,0-2.4,0.4c-0.3,0.4-0.4,0.6-0.4,0.6 M138.4,108.4
					c-0.2-1,0-1.7,0.2-1c0.2,0.7,0.3,0.8,0.3,0.8 M156,126.5c0,0,1.9,2.2,2.9,3.3c1,1.1,1.2,1.1,1.7,2.6c0.5,1.5,1.2,1.8,1.7,2.4
					c0.5,0.6,2,3.3,2,3.3s2.2-0.8,4.2-1.4c2-0.6,4.5-2.2,5.6-2.1c1.1,0.1,1.5,0.1,2,1.7c0.5,1.6,0.7,2.4,0.7,2.4 M167,144.3
					c-0.5,0.5-1.3,1-1.4,1.5c-0.1,0.5-0.4,2.1-0.4,2.1l4.1,1.7 M169.2,166.1c-0.9,0.2-2.5-0.6-2.2-1.9c0.3-1.6,0.5-2.2-0.1-2.9
					c-0.6-0.7-0.4-0.9-0.2-3.2c0.2-2.3,0.9-5.1-0.6-5.2c-1.5-0.1-1.7-0.1-1.9,1c-0.2,1.1-2.2,5.1-4,6.7c-1.8,1.6-3.7,3.8-3.7,3.8
					s2.1,1.6,0.6,5.8c-1.5,4.2-2.6,6.2-1.6,8.6c1,2.5,1.9,3.8,3.4,5.4c1.5,1.6,1.6,1.9,2.9,2c1.3,0.1,2.5-0.1,3,1.3 M162.5,188.4
					c0,0,0-0.6-1.4-0.8c-1.4-0.2-2.2-0.7-3.7-2.7c-1.5-2-1.6-2.1-3.1-2.8c-1.5-0.7-2.1-1.3-2.6-2c-0.5-0.7-0.6-1.4,0-4.1
					c0.6-2.7,1.3-2.6-1.1-4.2c-2.4-1.6-3.5-2.3-3.5-2.3s-2,5.2-5.4,8.3c-3.4,3.1-3.6,2.5-3.9,5.8c-0.3,3.3-0.7,6.5,0.2,7.7
					c0.9,1.2,1.5,1.6,1.5,1.6 M164.7,152.8c0,0-1.5-0.4-2.1-0.8c-0.6-0.4-1.1-0.5-2.4-0.4c-1.3,0.1-3.8-1.4-3.8-1.4 M165.2,147.7
					c0,0-3.2-1.2-3.7-1.8c-0.5-0.6-1.8-2.2-1.8-2.2 M164.3,137.9c0,0,0.4,0.5,0.8,2.3c0.4,1.8,0.9,2.6,0.8,3.6
					c-0.1,1-0.3,1.5-0.3,1.5 M147.2,169.6c0,0,0.7-3.1,0.6-4.8c-0.1-1.7,0.7-3.1,0.7-3.1"/>
				<path id="path500_00000152222622411101901950000017614265008506913185_" class="st11" d="M156.5,164.3c0,0-1.4,1.5-1.9,1.8
					c-0.5,0.3-0.9,1.4-2.7,1.9c-1.8,0.5-3.1,1.1-3.1,1.1 M138.2,109.8c0,0,1.6,0.7,2.5,1.9c0,0-1.7,0.2-1.4-1.1 M145.2,112.4
					c0,0-0.7,0.7-1.3-0.1 M147.5,114.1c0,0,1.3,0.2,1.9,0.7c0.6,0.5,2.1,2.1,2.1,2.1 M154.8,112.9c0,0-1.7,0.9-2.2,1.3
					c-0.5,0.5-1.1,0.3-0.8,1.3c0.3,1,0.5,1.2,0.5,1.2 M160.4,123.7c0,0-1.1,0.3-1.9,0.5c-0.8,0.2-1.1,0.6-1.4,0.8
					c-0.3,0.2-1.1,0.1-1.3,0.1 M200.9,138.9c0.1-1.9,0.9-4.1,2.8-4.1c1.9,0,1.9,0.2,3.1,1c1.2,0.8,4.1,2.5,6.3,3.8
					c0,0,1.7-1.4,1.7-2c0.1-0.6,0.9-1.3,1.5-2.2c0.6-0.9,0.7-1,0.7-1.5c0.1-0.5-0.5-0.7-0.4-1.5c0.1-0.8-0.1-0.7,1-1.8
					c1.1-1.1,3.4-3.6,3.8-4.4c0.3-0.8,0-0.9-0.6-0.7c-0.6,0.3-0.7,0.7-1,0.9c-0.3,0.2-1.4,0.1-1.8-0.3c-0.4-0.5-2.1-0.5-2.4-1.6
					c-0.3-1.1-0.5-2.9,1.3-3.8c1.9-0.9,3-0.8,5.1-0.9c0.7-0.1,1.3-0.2,1.9-0.9c0.7-0.7,2.3-1.5,2.3-1.5s-8.3,1.1-11.9-3.5
					c-0.8-1-0.9-2.1,0-1.1c0.9,1,3,1.7,3,1.7s-0.3-1.6,0.2-1.2c0.5,0.4,2.6,2.8,8.6,2.3c0.2-1.7-1-2.8-6-3.5c-5-0.7-5.3-2.7-5.8-3.6
					c-0.5-0.9-0.3-1.5,0.8-0.4c1.1,1.1,4.2,2.4,4.2,2.4s-0.6-1.3-0.6-2.3c0-1-0.2-1.3,0.9-0.2c1.1,1.1,3.1,2.9,4,3
					c0.9,0.1,2.3,0.9,1.5-1.1c-0.8-2-1.2-3.9-0.7-5.4c0.5-1.5,0.6-1.4,0.7,0.1c0.1,1.5,1.7,4.4,3.2,3c1.5-1.4,1.7-1.2,2.2-0.9
					c0.5,0.3,1.2,0.4,1.7-0.4c0.5-0.8,0.8-1.3,0.8-1.3s-0.1,2.8,2.8,0.3c1.2,1,2,1.2,2.7-0.4c0.7-1.6,1.1-0.8,0.6,0.5
					c-0.5,1.3-3.9,4.1-6.4,5.5c-2.5,1.4-2.3,2.2-2.3,2.2s2.2-0.8,3.2-1.3c1-0.5,2.1-0.9,1.1,0.2c-1,1.1-0.9,1.7,0.7,0.6
					c1.6-1.1,3.1-2.5,2.6-1.3c-0.5,1.2-0.1,1.5,1.2,0.3c1.3-1.2,0.8-0.9,1.4-1.6c0.6-0.7,2.4-1.2,1,0.7c-1.4,1.9-4.8,5.5-8.9,6
					c-1.5,0.1-2.3,1.2-0.2,1.2c2.1,0,3.8,0.9,3.8,0.9s0.2,1.7-3.2,2.7c1.3,5.6,0.6,4.1,0,6.9c-0.6,2.8-0.5,5-0.5,5l-1-0.1
					c0,0-0.2,1.4-0.1,3.2l-0.8,0.2c0,0-0.3,0.2,0.8,3.7l-0.8,0.5c0,0-0.1,0.6,0.8,2.4c0,0-1.4,2.4-0.8,4.6c0,0-1.2-0.9-0.7,1
					 M229.9,148.8c0,0,0.6,3.5,4.3,6.9c3.7,3.4,5.7,5.6,5.7,8c0.1,1.1-0.8,1-0.8,1s-0.6,1.9-1.6,4.1c-1,2.2-1.8,2.6-0.6,6
					c1.2,3.4,1.5,2.5,0.9,6.1c-0.6,3.6-0.8,6.1-0.7,8.6s-0.1,2-0.7,2.4c-0.6,0.4-1.2,1.7-1.5,2.3c-0.3,0.6-0.4,0.9-0.4,0.9l-0.8-2.9
					c0,0,1.2-1,1.5-3.7c0.3-2.7,1.1-8.1-2.1-12.6s-4.3-4.9-4.3-8.6v-1.8c0,0-4.3,2.9-5.6,7.5c-0.5,1.8-0.1,2.7,0.1,3.6
					c0.2,0.9,0.5,0.7-0.7,2.5c0,0-2.9,3.1-3.7,4.8c-0.8,1.7-1.2,3.5-2.5,3.5c-1.3,0-0.9-0.1-1.3,0.5c-0.8,1-0.8,1-0.8,1l-2-1.1
					c0,0,0.4-0.8,2.2-1.8c1.8-1,4.4-4.3,5-7.7c0.8-5.3-1.6-9.1-0.5-12.4c1.1-3.3,2.4-4.2,2.4-4.2s-6.8-3.9-8-5.8
					c-1.3-1.9-0.9-0.7-0.9-0.7l0.1,1.2c0,0-1.1-1.5-1.5-3.2c-0.4-1.7,0-3.1-1.3-2.9c-1.3,0.2-2-0.2-2.4,2c-0.4,2.2-0.2,7.1,0.1,7.2
					c0.3,0.1,0.7,1.5-0.7,1.7c0.3,1.8,0.4,4-0.8,4.6 M206.7,146.3l2.6-1.1l-1.2-1.1 M209.3,145.2l2.7-0.9c0,0,0.1-1.4,0.4-1.8
					c0.3-0.4-0.1-0.6,0.6-1.3c0.7-0.7,1.5-0.8,2.2-1.3c0.7-0.5,1.2-0.9,1.2-0.9"/>
				<path id="path502_00000035519862189299060320000004895829872316382856_" class="st11" d="M213.5,140.5c0,0,0.1-0.9,0.5-1.6
					 M214.8,137.8c0,0,0.5,0.9,1.4,0.1 M217,133.6c0,0,0.2,0.5,1.1-0.5c0.9-1,1.3-1.6,1.3-1.6 M210.5,150.1c0,0,4.8-0.9,6.5-1.3
					c1.7-0.4,2-0.4,2-0.4 M228.7,165.4c0,0,0.2-1.1-0.5-2.8 M217.7,126c0,0,0.8,0.6,1.5-0.1c0.7-0.7,1.4-1.6,3.1-1.2 M233,121.5
					c0,0-0.1-0.1-1.2,0c-1.1,0.1-1.8,0.1-1.8,0.1 M164.3,127.7c-0.5-7.4,1.5-18.7,7.9-24.8c5.6-4.7,7.9-2.3,7.3-0.1
					c-0.9,3,0.9,4.3,3.2,6c0,0,2.1-3.2,0.9-4.4c-1.3-1.2-1.5-1.1-1.5-1.1s-0.3-0.2-0.3-0.7c0,0-0.4-0.1-1,0.1
					c-0.6,0.1-0.7-0.4-0.4-1.3c0.3-0.9,1.2-1.6,2.8-0.9c0,0,0.9-0.8,2.3-0.3c1.7,0.6,3.1,1.3,4,3.6c0.9,2.3,1.1,2.4,1.5,3.1
					c0.5,0.7,2.1,3.1,2.1,3.1s3.3-2.7,1.3-3.8c-2.6-1.5-3.1-5.1,0.3-4.9c3.4,0.2,8.4,2,10.6,4.6c2.2,2.6,8.1,8.9,6.1,22.6l-1-2.1
					l-0.3,1.2c0,0-0.5-0.7-0.7-2c-0.3-1.3-0.5-2.7-0.5-2.7l-0.5,1.5c0,0-0.6-1-0.8-2.8l-0.5,0.2c0,0-0.9-1.1-1.6-3.7l-0.7,1.1
					l-1.3-1.4l-0.3,1c0,0-1,0.2-1.9-1.2s-0.2,0-0.2,0l-0.6,1.3c0,0-0.9-0.3-1.2-1l-0.8,0.6l-1-1.7l-0.3,1.1c0,0-1.2-0.9-1.3-1.3
					l-0.4,1.4l-1-0.8 M164.3,127.7l1.1-2.1l0.5,0.5l1-2.1l0.5,0.3c0,0,1.7-1.6,2-2.9c0.3-1.3,0.1,0.2,0.1,0.2l0.4,0.6
					c0,0,0.4,0.3,0.8-0.5c0.4-0.7,1.7-3.1,1.7-3.1s-0.2,1.3,0.5,1.5c0,0,0.9-0.3,1.6-1.6l0.5,0.8c0,0,1.3-0.5,1.5-1.3l0.3,1.1
					c0,0,1.3-0.9,1.9-1.8l0.6,1.3c0,0,0.9-0.5,1.3-1.4l1.5,1.1c0,0-0.7,0.9,0.3,2.1c-0.1,0.8,0,2.3,0,2.3s-0.1,0.6-0.3,1.2
					c-0.1,0.6-0.3,1.1-0.2,1.9c0.1,0.7,0.3,1.4,1.1,1.5c0.8,0.1,1.1,0.3,1.9,0.5c0.9,0.1,1.5-0.1,2.3-0.3c0.7-0.2,1-0.9,0.9-1.5
					c-0.1-0.5-0.1-0.4-0.1-1.3c0-0.9-0.3-1.7,0.3-1.7s0.8-0.3,1.3,0.8c0.5,1.1,0.5,0.8,0.5,1.9c0,1.1,0,1.9,0.7,2
					c0.7,0.1,0.3,0.3,1.5,0.2c1.2-0.1,1.4-0.1,2.2-0.1c0.8-0.1,1.3-0.5,1.5-1.1c0.2-0.6,0.1-0.9,0.1-1.4c-0.1-0.5,0.2,0.2-0.3-0.9
					c-0.5-1.1-0.9-2.9-1.1-4c-0.1-1.1-0.3-2.1-0.3-3.2 M165.3,125.5c0.3-0.6,0.6-7.9,2.4-11.8 M166.7,124c0.3-0.7,0.7-7,2.3-9.5
					 M169.5,121.1c0.3-1.9,0.3-3,1.4-5.5 M172.1,118.9l0.5-1.9 M174.2,118.7l0.4-1 M210.3,126.5c0,0-0.1-2.6-0.5-4.6
					c-0.3-2.1-0.6-2.8-0.6-2.8 M208.7,123.1c0,0-0.1-1.9-0.4-3.5c-0.3-1.7-0.9-3.1-0.9-3.1 M207.6,121.7c0,0-0.6-3.6-1.4-6
					 M205.4,118.3c-0.3-1.2-1.2-3.4-1.2-3.4 M203.4,117.8l-0.8-2.4 M200.8,117.2l-0.5-1.2 M182.6,108.7l-0.7,2.9l0.7-0.2
					c0,0,0,0.9,0.2,1.1c0.2,0.1,0.3,0.1,0.8,0.2c0.5,0.1,0.8,0.9,0.8,0.9l0.5-1.1l0.4,0.6l0.1-0.3l0.5,1l0.7-0.9l0.7,0.9l0.5-1
					l0.8,0.4l0.5-0.7l0.7,0.7l0.3-1l1,0.7l0.2-1.1l0.9,0.8c0,0-0.3-0.5-0.2-0.9c0.1-0.4,0.2-0.9,0.2-0.9l0.5-0.1c0,0,0-0.5-0.2-1
					c-0.2-0.5-0.1-0.8-0.1-0.8"/>
				<path id="path504_00000148647751876556228390000015645018800618409911_" class="st11" d="M181.8,102.6c0,0,0.9-0.1,2.2,0.5
					 M170.1,112.2c0,0.7-0.1,1.8,1.5-0.3 M170.6,109.9c0,0.7-0.1,1.8,1.5-0.3 M171.9,112.3c0,0.7-0.1,1.8,1.5-0.3 M174,110.8
					c0,0.7-0.1,1.8,1.5-0.3 M173.2,109.6c0,0.7-0.1,1.8,1.5-0.3 M172.2,106.9c0,0.7-0.1,1.8,1.5-0.3 M173.6,114.1
					c0,0.7-0.1,1.8,1.5-0.3 M175.8,109.5c0,0.7-0.1,1.8,1.5-0.3 M176.7,112.3c0,0.7-0.1,1.8,1.5-0.3 M176.9,115
					c0,0.7-0.1,1.8,1.5-0.3 M179.4,113.2c0,0.7-0.1,1.8,1.5-0.3 M174,112.5c0,0.7-0.1,1.8,1.5-0.3 M170,108.1c0,0.7-0.1,1.8,1.5-0.3
					 M168.7,110.7c0,0.7-0.1,1.8,1.5-0.3 M172.5,105.2c0,0.7-0.1,1.8,1.5-0.3 M205.2,112.2c0,0.7,0.1,1.8-1.5-0.3 M204.8,109.9
					c0,0.7,0.1,1.8-1.5-0.3 M203.4,112.3c0,0.7,0.1,1.8-1.5-0.3 M201.4,110.8c0,0.7,0.1,1.8-1.5-0.3 M202.2,109.6
					c0,0.7,0.1,1.8-1.5-0.3 M203.2,106.9c0,0.7,0.1,1.8-1.5-0.3 M201.8,114.1c0,0.7,0.1,1.8-1.5-0.3 M199.5,109.5
					c0,0.7,0.1,1.8-1.5-0.3 M198.7,112.3c0,0.7,0.1,1.8-1.5-0.3 M198.5,115c0,0.7,0.1,1.8-1.5-0.3 M196,113.2c0,0.7,0.1,1.8-1.5-0.3
					 M201.4,112.5c0,0.7,0.1,1.8-1.5-0.3 M205.3,108.1c0,0.7,0.1,1.8-1.5-0.3 M206.7,110.7c0,0.7,0.1,1.8-1.5-0.3 M202.8,105.2
					c0,0.7,0.1,1.8-1.5-0.3 M194.6,120.9c1.4,1.4,4.4,2.9,2.8,3.4c0,0-0.7,0.1-1.2-0.3c-0.5-0.5,0.1,0.2,0.1,0.2s0,0.5-0.5,0.7
					 M189.9,125.4c-0.7,0-1.6,0.1-2-1.3 M184.1,127.7c0,0,0.6,0.2-0.9,1.2c-1.5,1-2.5,1-2.5,1.9c0,0.9,0.2,0.9,0.2,0.9s0.5,0,0.9,0
					c0.5,0,1,0.1,1.2,0c0.2-0.1,0.6,0.4,1.2,0.3c0.6-0.1,1.2-0.4,1.2-0.4s0,0,0.5,0.2c0.5,0.2,0.3,0.1,1,0c0.7-0.1,1.2-0.3,1.2-0.3
					s0.8-1-0.3-1.7c-1.1-0.7-1.6-0.8-1.7-0.9c-0.2-0.1-0.3-0.6-0.4-0.9 M191.9,128c0,0,0.6,0.4-0.6,1.1c-1.2,0.7-2,0.4-2.1,1.4
					c-0.1,0.8,0.2,1.1,0.2,1.1s0.5-0.1,1-0.1c0,0,0.2-0.1,0.5-0.6c0.3-0.5,1.1-1.1,1.1-1.1s0.3-0.2,0.1,0.8
					c-0.2,0.9,0.4,1.2,0.4,1.2l0.7-0.1c0,0,0.1-0.6,0.1-0.9c0-0.3,0-1,0-1s0.1-0.1,0.5,0.3c0.3,0.3,0.4,0.4,0.6,1
					c0.2,0.6,0.2,0.5,0.3,0.5c0.1,0,0.8-0.2,0.8-0.2s0.8-0.9,0.1-1.5c-0.7-0.5-1.9-0.9-2.4-1.9 M160.3,99.8c0,0-0.7-1.7-1.1-2.6
					c-0.4-0.9-1.5-1.8,0.9-2.8c2.4-1,6.5-1.4,6.2-4 M158.5,96c0.5,1.1,0.9,0.8,2.3,0.2c1.4-0.6,4.4-2,6.5-2.7 M187.4,96.1
					c8.7,0,18.2,2.2,25.3,6c0,0,0.7,0,1.2-1c0.5-1,0.7-1.1,0.7-1.1s4,3.5,6,4.2c0,0-0.9-1.9-0.9-4.1l4.8-1.4
					c-3.5-1.6-7.8-4.3-9.9-6.7c-2.2-2.4-5.8-3.3-6.2-1.2c-0.4,2.1-0.9,2.8-0.9,2.8s-8.3-3.3-20.1-3.3c-11.7,0-20.1,3.3-20.1,3.3
					s-0.5-0.7-0.9-2.8c-0.4-2.1-4-1.2-6.2,1.2c-2.2,2.4-6.5,5.1-9.9,6.7l4.8,1.4c0,2.2-0.9,4.1-0.9,4.1c2-0.7,6-4.2,6-4.2
					s0.2,0.1,0.7,1.1c0.5,1,1.2,1,1.2,1C169.3,98.2,178.7,96.1,187.4,96.1L187.4,96.1L187.4,96.1z"/>
				<path id="path506_00000029039310140705763690000001547131412640320956_" class="st11" d="M214.6,99.8c0,0,0.7-1.7,1.1-2.6
					c0.4-0.9,1.5-1.8-0.9-2.8c-2.4-1-6.5-1.4-6.2-4 M216.4,96c-0.5,1.1-0.9,0.8-2.3,0.2c-1.4-0.6-4.4-2-6.5-2.7 M185.9,128.8
					l5.9-0.1 M193.6,128.7l1.8,0v1.4 M194.4,131.5l-1.3,0 M192,131.5l-1.7,0 M189.3,131.5l-2,0 M181.7,129.7v-0.8l1.4,0
					 M183.8,128.3c0,0-0.9-0.3-1.2-0.5c-0.3-0.2-1.1-0.3-1.1-0.3s0-0.1,0-0.4c0-0.1,0.1-0.2,0.1-0.3c0-0.2-0.1-0.4-0.2-0.5
					c-0.1-0.2-0.2-0.5-0.4-0.8c-0.7-0.9-1-0.9-2.3-1.2c-1.3-0.3-2.3-0.9-2.3-0.9s-0.3,0.9,1.1,1.5c1.4,0.5,2.8,1.3,2.8,1.3
					s-0.1,0.5-1.1,0.5c-0.2,0-0.4,0-0.6-0.1c0-0.1,0-0.2,0-0.2c0-0.4-0.3-0.7-0.7-0.7c-0.3,0-0.5,0.2-0.6,0.5
					c-0.4-0.2-0.8-0.4-1.1-0.7c-0.7-0.6-2.1-1.3-3.2-1.3c0,0,0.5,0.4,1.4,1.1c0.3,0.2,0.6,0.5,1,0.8c-0.4,0-0.7,0.3-0.7,0.7
					c0,0,0,0.1,0,0.2c-0.5-0.1-0.6-0.2-1-0.5c0,0,0-0.1,0-0.1c0-0.4-0.3-0.7-0.7-0.7c-0.2,0-0.4,0.1-0.6,0.3c-0.1,0-0.3,0-0.6-0.1
					c-1.1-0.1-2.1,0-2.1,0s0.3,0.3,0.8,0.5c0.5,0.1,1.1,0,1.2,0.6c0.1,0.4,0,0.5,0,0.7c0,0,0,0-0.1,0c0-0.1,0-0.1,0-0.2
					c0-0.4-0.3-0.7-0.7-0.7c-0.4,0-0.7,0.3-0.7,0.7c0,0.1,0,0.2,0,0.2c-0.1,0-0.2-0.1-0.3-0.1c-0.4,0-0.7,0.3-0.7,0.7
					c0,0.4,0.3,0.7,0.7,0.7c0.4,0,0.7-0.3,0.7-0.7c0-0.1,0-0.2,0-0.2c0.1,0,0.2,0.1,0.3,0.1c0,0,0.1,0,0.1,0c0,0.1,0,0.1,0,0.2
					c0,0.4,0.3,0.6,0.6,0.7c0,0.3-0.2,0.3-0.8,0.6c-0.8,0.5-2.3,1.7-2.3,1.7s1.1-0.3,1.9-0.5s1.5-0.4,1.7-1.1s0.9-1.5,0.9-1.5
					s0.1-0.1,0.3-0.2c0,0,0,0.1,0,0.1c0,0.4,0.3,0.7,0.7,0.7c0.4,0,0.7-0.3,0.7-0.7c0-0.1,0-0.1,0-0.2c0.2,0.1,0.4,0.2,0.4,0.2
					s0.1,1.1-0.6,1.7c-0.7,0.7-2.1,1.5-2.1,1.5s1.4,0.2,2.2-0.4c0.8-0.6,0.7-0.9,1.1-1.7c0.4-0.7,0.7-0.9,0.7-0.9s0.1,0,0.4,0
					c0,0.1-0.1,0.2-0.1,0.3c0,0.4,0.3,0.7,0.7,0.7c0,0,0.1,0,0.1,0c-0.1,0.1-0.2,0.1-0.3,0.2c-1,0.6-1.9,1.6-1.9,1.6
					s0.7,0.5,1.8-0.5c1.1-0.9,1.4-1.5,2-1.8c0.6-0.3,1.3-0.1,1.3-0.1s-0.2,0.9-1.4,1.5c-1.2,0.7-2,1.7-2,1.7s0.9-0.1,1.6-0.5
					c0.7-0.4,1.6-0.9,1.6-0.9 M182,123.9l-0.8-0.5c0,0-0.1,0.9,0.5,1.9 M195.5,130.3l3.7-0.9l0.1,0.3l1.1-0.9l-1.4-0.2l0.1,0.3
					l-3.7,0.9 M195.5,131.3l5.2,1.2l-0.1,0.3l1.4-0.3l-1.2-0.8l-0.1,0.3l-5.2-1.3 M195.6,130.8l6.8-0.1l0,0.3l1.3-0.7l-1.4-0.5
					l0,0.3l-6.8,0.1 M187.5,184c0,0-11.2-3-13.9-3.7c-2.7-0.7-2.5-1.9-2.5-3.3c0-1.4,0-23.9,0-23.9h32.8c0,0,0,22.5,0,23.9
					c0,1.4,0.2,2.6-2.5,3.3C198.8,181,187.5,184,187.5,184 M184.9,190.3c0,0,3.1-1,2.2-2.7c-0.9-1.7,0-2,0.7-2"/>
				<path id="path508_00000013169150573306578670000012636324983641651072_" class="st11" d="M181.4,187.8c0,0,0.7-2.4,2.3-1.4
					c1.6,1.1,1.5,1.6,0.1,2.8 M195.1,187.2l0.1-1.3c3.2,0.3,5,0,7.8-1.7c-5.3,1.7-8.3-0.3-8.3-0.3s5.8-1.6,8-2.1
					c2.1-0.5,3.4-1.1,3.4-3.8c0-2.8,0-18.3,0-26.8c0-8.5,3.2-7.6,3.2-7.6l-3.4-5.6c-8.7,3-10.6-2.5-18.2-2.5s-9.4,5.6-18.2,2.5
					l-3.4,5.6c0,0,3.2-0.9,3.2,7.6c0,8.5,0,24,0,26.8c0,2.8,1.3,3.3,3.4,3.8c2.1,0.5,8,2.1,8,2.1s-3,2-8.3,0.3
					c2.8,1.7,4.6,2,7.8,1.7l0.1,1.4 M191.4,189.1c-1.3-1.2-1.3-1.6,0.3-2.6c1.6-1.1,2.2,1.2,2.2,1.2 M187.7,185.5
					c0.7,0,1.6,0.3,0.7,2c-0.9,1.7,1.9,2.7,1.9,2.7 M171.2,168.7c0.7,0,1.3-0.1,2.4,0.6c1.1,0.7,1.4,0.9,2.1,1.1
					c0.7,0.1,0.7,0,1.5,0.3c0.8,0.3,0.4,0.4,1.3,0.3c0.9-0.1,1.5-0.3,2.1-0.1c0.5,0.2,1.5,0.5,1.5,0.5 M186.2,172.5
					c0,0,0.2,0.1,1.2,0.3c1,0.2,0.2-0.2,1.3,0c1.1,0.2,1,0.3,1.9,0.7c0.9,0.3,1.4,0.5,1.4,0.5s0.7,0.1-1.1,0.4
					c-1.7,0.3-2.3,0.6-3,0.8c-0.7,0.2-3,0.5-5.2,0.7c-2.1,0.2-3.3,0.1-5,0.4c-1.7,0.3-2.6,0.1-3.7,0.3c-1.1,0.2-2.8,0.5-2.8,0.5
					 M203.8,171h-17.9 M184.3,171h-0.7 M182.2,171h-1.5 M181.8,174c0.5-0.3,0.8-0.3,1.3,0.1c0,0,0.4-1.9,0.5-2.3
					c0.1-0.4,0.8-2.4,0.8-2.4s0.1,0.8,0.1,2.1c0.1,1.3-0.2,1.9,0.7,2.1c0.9,0.2,1.4,0,1.4,0s-0.5-0.1-0.5-1.1s-0.3-4.4-0.4-4.8
					c-0.1-0.4-0.1-1.1-0.1-1.1l0.3-1.1c0,0,0.5,0.1,1.2,0c0.7-0.1,0.9-0.3,1.2-0.3c0.3,0,0.6-0.1,0.6-0.1l0.1-0.5
					c0,0-0.9-0.1-1.6-0.1c-0.7,0-1.4-0.3-1.4-0.3s-0.1-0.1-0.2-0.6c-0.1-0.5-0.7-1-0.7-1s0.3-0.3,0.3-0.7c0-0.4,0.3-0.6,0.1-1.1
					c-0.3-0.5-0.4-0.8-1.1-0.6c-0.7,0.2-0.7,0.1-0.9,0.8c-0.3,0.7-0.1,0.6-0.1,0.9c0.1,0.3-0.1,0.5-0.1,0.5s-0.4-0.4-0.6-0.1
					c-0.2,0.3-0.4,0.5-0.4,0.5l-0.7,0.1l-0.2-0.7c0,0-0.1-0.3-0.2-0.7c-0.1-0.4-0.3-1.5-0.3-1.5l-0.5-0.5c0,0-0.3,0.7-0.2,0.9
					c0.1,0.2,0.3,0.9,0.3,1.4c0,0.5,0,1.7,0,1.7s0,0.7,0.7,0.8c0.7,0.1,1.5,0.1,1.5,0.1s0.2,0.3,0.3,1.4c0.1,1.1,0,0.3,0.1,0.9
					c0.1,0.6-0.1,0.3-0.2,1.5c-0.1,1.2-0.5,2.6-0.6,3.2C182,172.1,181.8,174,181.8,174L181.8,174z M183.4,171.9l1,0.3 M178.5,189.4
					c2.5,2,3.5,1.8,6.3,5.6c-1.3-3.4-1.6-4.2-3.4-5.7c3,2.1,3.9,2.1,6.1,5.6c-4.9-14.5-24.6-6.8-29.9-4.6c6.9-1.6,12,0.5,14.7,3.8
					c0,0-1.2-3.2-2.4-4.6c4.6,2.8,4.5,2.5,6.9,5.1c0,0-1.7-4.1-2-4.9c3.6,1,6.3,5.1,6.3,5.1S179.9,191.6,178.5,189.4L178.5,189.4z
					 M196.5,189.4c-2.5,2-3.5,1.8-6.3,5.6c1.3-3.4,1.6-4.2,3.4-5.7c-3,2.1-3.9,2.1-6.1,5.6c4.9-14.5,24.6-6.8,29.9-4.6
					c-6.9-1.6-12,0.5-14.7,3.8c0,0,1.2-3.2,2.4-4.6c-4.6,2.8-4.5,2.5-6.9,5.1c0,0,1.7-4.1,2-4.9c-3.6,1-6.3,5.1-6.3,5.1
					S195.1,191.6,196.5,189.4L196.5,189.4z M233.9,193.2c-3.6-2.8-4.9-6.8-14.2-3.3c-11.4,4.2-18.6,6-32.2,5.7
					c-13.6,0.3-20.8-1.5-32.2-5.7c-11.4-4.2-11.8,0.8-15.4,3.6 M234.6,195.1c-3.8-1.7-5.2-3.2-10.6-0.9c-5.4,2.3-12.9,7.2-36.4,7.3
					c-23.6-0.1-32.5-4.9-37.9-7.2s-6.8-0.8-10.6,0.9"/>
				<path id="path510_00000083072196247911150010000006746897262087693459_" class="st11" d="M222.3,194.8
					c-6.8,5.4-15.9,14.1-34.7,13.6c-18.8,0.5-29.4-8-36.2-13.4 M234.1,194.9c-11.4,10.5-22.3,21.1-46.5,21.4
					c-24.9-0.1-36.6-10.8-48-21.3 M181.8,102.6c0,0,0.9-0.1,2.2,0.5"/>
			</g>
		</g>
		<path id="path3968_00000097492820409376316090000006754709790141909668_" class="st12" d="M234.1,131c0,58-47,105-105,105
			c-58,0-105-47-105-105c0,0,0,0,0,0c0-58,47-105,105-105C187.1,26,234.1,73,234.1,131C234.1,131,234.1,131,234.1,131z"/>
		<path id="path3985_00000049944839835135022250000016840076753984636351_" class="st12" d="M37.5,148.7
			c0,57.5,46.7,104.2,104.2,104.2c57.5,0,104.2-46.7,104.2-104.2S199.3,44.5,141.7,44.5S37.5,91.1,37.5,148.7z"/>
	</g>
	<g>
		<path class="st8" d="M36.4,74c0.6-0.3,1.8-1.1,2.6-2.3c1.4-2.2,0.5-3.8-0.6-4.4c-1.8-1.1-3.5,0-4.6,1.6l-0.6,0.9L31.9,69l0.6-0.9
			c0.8-1.2,1.2-3.2-0.3-4.2c-1-0.7-2.3-0.6-3.3,1c-0.7,1-0.8,2.3-0.8,3l-1.5-0.4c-0.1-1,0.3-2.6,1.2-3.9c1.6-2.5,3.8-2.6,5.3-1.6
			c1.3,0.8,1.9,2.3,1.4,4.2l0,0c1.3-1.3,3.3-1.8,5-0.7c2,1.3,2.7,4,0.8,7c-0.9,1.4-2.2,2.3-3,2.7L36.4,74z"/>
		<path class="st8" d="M39.3,51c-0.3,0.3-0.6,0.7-0.9,1.2c-1.6,2.8-0.9,5.6,0.8,7.4l0-0.1c-0.3-1.1-0.1-2.6,1-3.9
			c1.7-2,4.3-2.3,6.6-0.4c2.1,1.7,2.9,4.8,0.9,7.2c-2,2.5-5.3,2.5-8.3,0.1c-2.3-1.9-3.4-4.2-3.6-6.2c-0.2-1.7,0.3-3.5,1.3-5.1
			c0.3-0.5,0.6-0.9,0.8-1.2L39.3,51z M45.6,56.9c-1.7-1.4-3.4-1.2-4.6,0.2c-0.8,0.9-0.9,2.3-0.4,3.4c0.1,0.3,0.3,0.5,0.5,0.7
			c1.9,1.5,4.1,1.8,5.4,0.2C47.7,60.1,47.3,58.3,45.6,56.9z"/>
		<path class="st8" d="M44.6,45l-3.4,3.3l-1.2-1.2l8.2-8.1l1.2,1.2L46,43.6l9.7,9.8l-1.4,1.4L44.6,45z"/>
		<path class="st8" d="M52.1,35.8l4,5.1l5.9-4.6l-4-5.1l1.6-1.2l9.5,12.2l-1.6,1.2l-4.5-5.7l-5.9,4.6l4.5,5.7l-1.6,1.2L50.6,37
			L52.1,35.8z"/>
		<path class="st8" d="M68.6,24.5c1-0.7,2.2-1.5,3.6-2.2c2.6-1.3,4.7-1.7,6.5-1.2c1.8,0.5,3.4,1.7,4.5,3.9c1.2,2.2,1.4,4.4,0.8,6.4
			c-0.6,2-2.4,3.8-5.1,5.1c-1.3,0.7-2.4,1.1-3.3,1.5L68.6,24.5z M76.7,35.7c0.5-0.2,1.2-0.5,1.8-0.8c3.8-2,4.8-5.2,2.8-8.9
			c-1.7-3.3-4.6-4.4-8.3-2.4c-0.9,0.5-1.6,0.9-2,1.3L76.7,35.7z"/>
		<path class="st8" d="M85.1,16.4l5.8,14.4l-1.9,0.8l-5.8-14.4L85.1,16.4z"/>
		<path class="st8" d="M92.9,27.3c1,0.3,2.4,0.3,3.7-0.1c2-0.6,2.8-2,2.3-3.5c-0.4-1.4-1.5-1.9-3.7-2.1c-2.7-0.1-4.6-0.9-5.2-2.9
			c-0.7-2.3,0.6-4.6,3.5-5.5c1.5-0.5,2.7-0.5,3.5-0.3l0,1.7c-0.6-0.1-1.7-0.2-3,0.2c-2,0.6-2.4,2.1-2.1,3.1c0.4,1.4,1.6,1.8,3.8,1.9
			c2.8,0.2,4.5,1,5.1,3.1c0.7,2.3-0.3,4.8-3.8,5.9c-1.4,0.5-3.1,0.5-4.1,0.3L92.9,27.3z"/>
		<path class="st8" d="M104.5,12.3l-4.6,1l-0.3-1.7l11.2-2.3l0.3,1.7l-4.6,1l2.8,13.5l-2,0.4L104.5,12.3z"/>
		<path class="st8" d="M113.8,9.1c1-0.3,2.4-0.6,3.8-0.7c2.1-0.2,3.5,0.1,4.6,0.8c0.8,0.6,1.4,1.6,1.5,2.8c0.2,2-1,3.5-2.5,4.2
			l0,0.1c1.2,0.3,2,1.3,2.6,2.9c0.7,2.1,1.2,3.6,1.6,4.1l-2.1,0.2c-0.3-0.4-0.8-1.7-1.4-3.6c-0.7-2.1-1.6-2.8-3.4-2.7l-1.9,0.2
			l0.6,6.7l-2,0.2L113.8,9.1z M116.4,15.9l2-0.2c2.1-0.2,3.4-1.5,3.2-3.3c-0.2-2-1.7-2.7-3.8-2.5c-1,0.1-1.6,0.2-2,0.4L116.4,15.9z"
			/>
		<path class="st8" d="M129,7.9l0.2,15.5l-2,0L127,7.9L129,7.9z"/>
		<path class="st8" d="M143.3,23.5c-0.8,0.3-2.3,0.6-4.1,0.5c-4.4-0.3-7.5-3.3-7.1-8.3c0.3-4.8,3.8-7.9,8.6-7.6
			c1.9,0.1,3.1,0.6,3.6,0.9l-0.6,1.6c-0.7-0.4-1.8-0.8-3.1-0.9c-3.6-0.2-6.2,1.9-6.5,6c-0.3,3.8,1.8,6.4,5.5,6.6
			c1.2,0.1,2.5-0.1,3.3-0.4L143.3,23.5z"/>
		<path class="st8" d="M151.3,11.5l-4.6-0.9l0.3-1.7l11.3,2.1l-0.3,1.7l-4.7-0.9l-2.6,13.6l-2-0.4L151.3,11.5z"/>
		<path class="st8" d="M171.6,31.1c-0.8,0.1-2.3-0.1-4.1-0.7c-4.1-1.5-6.3-5.2-4.6-10c1.6-4.6,5.8-6.6,10.4-4.9
			c1.8,0.7,2.8,1.5,3.2,1.9l-1,1.4c-0.6-0.6-1.5-1.2-2.7-1.7c-3.4-1.2-6.5,0.1-7.8,4c-1.3,3.6,0,6.6,3.5,7.9
			c1.1,0.4,2.4,0.6,3.3,0.5L171.6,31.1z"/>
		<path class="st8" d="M188.3,31.2c-2.4,4.8-6.6,5.8-10.1,4c-3.6-1.9-4.8-6-2.6-10.2c2.2-4.4,6.4-5.9,10.1-4
			C189.4,22.9,190.3,27.1,188.3,31.2z M177.4,25.9c-1.5,2.9-1.3,6.4,1.5,7.8c2.8,1.4,5.8-0.3,7.4-3.5c1.4-2.7,1.4-6.3-1.5-7.9
			C181.8,20.9,179,22.9,177.4,25.9z"/>
		<path class="st8" d="M196.9,27.8l-5.3,7.5c-2,2.8-1.6,4.9,0.1,6.1c1.9,1.3,4,0.9,5.9-1.9L203,32l1.7,1.2l-5.2,7.4
			c-2.7,3.9-5.9,4.1-8.7,2.1c-2.6-1.8-3.5-4.7-0.8-8.6l5.2-7.5L196.9,27.8z"/>
		<path class="st8" d="M208.3,36.5c0.9,0.5,2,1.4,3.1,2.3c1.6,1.4,2.4,2.6,2.5,3.9c0.1,1-0.3,2.1-1.1,3c-1.4,1.5-3.2,1.7-4.8,1
			l0,0.1c0.6,1.1,0.4,2.4-0.4,3.8c-1.1,1.9-1.8,3.3-2,4l-1.5-1.4c0.1-0.5,0.7-1.7,1.7-3.4c1.1-1.9,1-3-0.3-4.3l-1.4-1.3l-4.5,5
			l-1.5-1.3L208.3,36.5z M205.1,43.1l1.5,1.4c1.6,1.4,3.4,1.5,4.6,0.2c1.3-1.5,0.9-3.1-0.7-4.5c-0.7-0.6-1.3-1-1.6-1.2L205.1,43.1z"
			/>
		<path class="st8" d="M219.2,49.2l-3.1-3.5l1.3-1.1l7.6,8.6l-1.3,1.1l-3.1-3.5l-10.3,9.2l-1.3-1.5L219.2,49.2z"/>
	</g>
	<g>
		<path class="st8" d="M38.4,205.9c0.2,1,0.7,2.3,1.6,3.4c1.3,1.6,2.9,1.8,4.1,0.7c1.1-0.9,1.2-2.1,0.4-4.2c-1-2.5-1-4.5,0.7-6
			c1.8-1.6,4.5-1.2,6.5,1.1c1,1.2,1.5,2.3,1.7,3.1l-1.6,0.6c-0.1-0.6-0.4-1.6-1.4-2.7c-1.4-1.6-2.9-1.4-3.7-0.7
			c-1.1,0.9-1,2.1-0.3,4.3c0.9,2.7,0.8,4.5-0.9,6c-1.8,1.6-4.5,1.6-6.9-1.2c-1-1.1-1.7-2.7-1.8-3.6L38.4,205.9z"/>
		<path class="st8" d="M56.5,209l-3.4-3.2l1.2-1.2l8.3,7.9l-1.2,1.2l-3.4-3.3l-9.5,10L47,219L56.5,209z"/>
		<path class="st8" d="M57.7,221.9l-4.3,2.9l-1.6-1.3l13.6-9l1.9,1.5l-5.3,15.5l-1.7-1.3l1.7-4.9L57.7,221.9z M62.7,223.8l1.5-4.5
			c0.3-1,0.7-1.9,1.1-2.7l0,0c-0.7,0.6-1.5,1.2-2.3,1.7l-3.9,2.6L62.7,223.8z"/>
		<path class="st8" d="M73.1,222.1l-4-2.5l0.9-1.4l9.7,6.1l-0.9,1.4l-4-2.5l-7.3,11.7l-1.7-1.1L73.1,222.1z"/>
		<path class="st8" d="M84.4,235.6L79,233l-2.4,5l6,2.9l-0.7,1.5l-7.8-3.8l6.8-14l7.5,3.6l-0.7,1.5l-5.7-2.8l-2.1,4.4l5.4,2.6
			L84.4,235.6z"/>
		<path class="st8" d="M105.2,242.1c-1.5,5.1-5.4,6.9-9.2,5.8c-3.9-1.2-5.8-5-4.4-9.5c1.4-4.7,5.3-6.9,9.2-5.7
			C104.8,233.8,106.5,237.7,105.2,242.1z M93.6,238.9c-0.9,3.2-0.1,6.5,2.9,7.4c3,0.9,5.6-1.4,6.6-4.7c0.9-3,0.3-6.5-2.9-7.5
			C97,233.1,94.5,235.6,93.6,238.9z"/>
		<path class="st8" d="M109.2,235l8.2,1.4l-0.3,1.7l-6.3-1.1l-0.9,5.1l5.8,1l-0.3,1.6l-5.8-1l-1.2,6.9l-2-0.3L109.2,235z"/>
		<path class="st8" d="M137.3,245.8c-0.1-2.2-0.3-4.8-0.3-6.7h-0.1c-0.5,1.8-1.1,3.8-1.9,5.9l-2.6,7.6l-1.5,0l-2.6-7.4
			c-0.8-2.2-1.4-4.2-1.9-6l0,0c0,1.9-0.1,4.5-0.2,6.9l-0.3,6.7l-1.9,0l0.9-15.5l2.6,0l2.7,7.5c0.7,1.9,1.2,3.6,1.6,5.2l0.1,0
			c0.4-1.6,0.9-3.3,1.6-5.2l2.7-7.5l2.6,0l1.2,15.5l-2,0L137.3,245.8z"/>
		<path class="st8" d="M143.9,236.3l1.9,15.4l-2,0.2l-1.9-15.4L143.9,236.3z"/>
		<path class="st8" d="M160.6,248.4c-0.6,0.5-2,1.2-3.9,1.6c-4.3,0.9-8.1-1.1-9.1-6.1c-1-4.8,1.6-8.6,6.3-9.6
			c1.9-0.4,3.2-0.2,3.7-0.1l-0.1,1.7c-0.8-0.2-1.9-0.3-3.2,0c-3.6,0.7-5.4,3.5-4.6,7.5c0.8,3.7,3.4,5.7,7.1,4.9
			c1.2-0.2,2.4-0.8,3.1-1.3L160.6,248.4z"/>
		<path class="st8" d="M161.1,232.6l2.1,6.1l7.1-2.5l-2.1-6.1l1.9-0.7l5.1,14.6l-1.9,0.7l-2.4-6.9l-7.1,2.5l2.4,6.9l-1.9,0.7
			l-5.1-14.6L161.1,232.6z"/>
		<path class="st8" d="M174.6,227.3l6.4,14.1l-1.8,0.8l-6.4-14.1L174.6,227.3z"/>
		<path class="st8" d="M194.9,233.2c-0.6,0.7-1.9,2.1-3.7,3.1c-2,1.2-4,1.6-6,1.1c-1.8-0.5-3.5-1.8-4.7-3.9c-2.3-4-1.2-8.5,3.3-11.1
			c1.6-0.9,3-1.2,3.7-1.3l0.4,1.7c-0.9,0.1-1.9,0.3-3.3,1.1c-3.3,1.9-4.3,5.1-2.3,8.5c1.9,3.4,5.2,4.3,8.3,2.5
			c1.1-0.6,1.8-1.3,2.1-1.7l-2.3-4l-2.7,1.6l-0.8-1.4l4.4-2.5L194.9,233.2z"/>
		<path class="st8" d="M197.9,226l1.7,4.9l-1.6,1.3l-5.2-15.5l1.9-1.5l13.6,9.2l-1.7,1.3l-4.3-2.9L197.9,226z M201,221.7l-3.9-2.6
			c-0.9-0.6-1.6-1.2-2.3-1.8l0,0c0.4,0.9,0.7,1.8,1.1,2.7l1.5,4.5L201,221.7z"/>
		<path class="st8" d="M210.9,221.9l-10.9-11l1.6-1.5l9.1,2.1c2.1,0.5,3.9,1,5.5,1.6l0,0c-1.6-1.3-3-2.6-4.7-4.4l-4.6-4.6l1.3-1.3
			l10.9,11l-1.4,1.4l-9-2.1c-2-0.5-4-1-5.7-1.6l0,0.1c1.5,1.3,2.8,2.6,4.6,4.4l4.7,4.7L210.9,221.9z"/>
	</g>
</g>
</svg>
