<?xml version="1.0" encoding="utf-8"?>
<!-- Generator: Adobe Illustrator 26.0.2, SVG Export Plug-In . SVG Version: 6.00 Build 0)  -->
<svg version="1.1" id="Layer_1" xmlns="http://www.w3.org/2000/svg" xmlns:xlink="http://www.w3.org/1999/xlink" x="0px" y="0px"
	 viewBox="0 0 286.2 59.9" style="enable-background:new 0 0 286.2 59.9;" xml:space="preserve">
<style type="text/css">
	.st0{fill:#4380A4;}
	.st1{fill:#0B1A3F;}
</style>
<g>
	<g>
		<path class="st0" d="M76.6,18.1h4.7l9.8,23.1h-5.3l-2.1-5.1H74l-2.1,5.1h-5.1L76.6,18.1z M81.9,31.6l-3-7.4l-3,7.4H81.9z"/>
		<path class="st0" d="M92.9,37.9l3-3.6c2.1,1.7,4.2,2.8,6.8,2.8c2.1,0,3.3-0.8,3.3-2.2v-0.1c0-1.3-0.8-1.9-4.6-2.9
			c-4.6-1.2-7.6-2.5-7.6-7v-0.1c0-4.2,3.3-6.9,8-6.9c3.3,0,6.2,1,8.5,2.9l-2.6,3.8c-2-1.4-4-2.3-6-2.3s-2.9,0.9-2.9,2v0.1
			c0,1.5,1,2,4.9,3c4.7,1.2,7.3,2.9,7.3,6.9v0.1c0,4.6-3.5,7.1-8.4,7.1C99.1,41.5,95.6,40.3,92.9,37.9z"/>
		<path class="st0" d="M123.1,18.1h4.7l9.8,23.1h-5.3l-2.1-5.1h-9.7l-2.1,5.1h-5.1L123.1,18.1z M128.5,31.6l-3-7.4l-3,7.4H128.5z"/>
		<path class="st0" d="M141,18.3h5.4l6,9.7l6-9.7h5.4v22.9h-5v-15l-6.5,9.8h-0.1l-6.4-9.7v14.9H141V18.3z"/>
	</g>
	<g>
		<path class="st1" d="M181,27.3h-1c-0.1,0-0.2,0-0.3-0.1s-0.1-0.1-0.2-0.2l-0.9-2.2h-4.1l-0.9,2.2c0,0.1-0.1,0.1-0.2,0.2
			c-0.1,0.1-0.2,0.1-0.3,0.1h-1l3.7-9.2h1.3L181,27.3z M174.9,23.9h3.4l-1.4-3.8c-0.1-0.2-0.2-0.5-0.3-0.9c0,0.2-0.1,0.3-0.1,0.5
			c0,0.1-0.1,0.3-0.1,0.4L174.9,23.9z"/>
		<path class="st1" d="M182,27.3v-6.5h0.7c0.2,0,0.3,0.1,0.3,0.2l0.1,0.7c0.2-0.3,0.5-0.5,0.8-0.7s0.6-0.3,1-0.3s0.8,0.1,1.1,0.4
			c0.3,0.2,0.5,0.6,0.6,1c0.1-0.2,0.2-0.4,0.4-0.6c0.1-0.2,0.3-0.3,0.5-0.4s0.4-0.2,0.6-0.2c0.2-0.1,0.4-0.1,0.6-0.1
			c0.3,0,0.6,0.1,0.9,0.2c0.3,0.1,0.5,0.3,0.7,0.5s0.3,0.5,0.4,0.8c0.1,0.3,0.1,0.7,0.1,1.1v4.2h-1.1v-4.2c0-0.5-0.1-0.9-0.3-1.2
			c-0.2-0.3-0.5-0.4-1-0.4c-0.2,0-0.4,0-0.5,0.1c-0.2,0.1-0.3,0.2-0.4,0.3c-0.1,0.1-0.2,0.3-0.3,0.5s-0.1,0.4-0.1,0.7v4.2H186v-4.2
			c0-0.5-0.1-0.9-0.3-1.2c-0.2-0.3-0.5-0.4-0.9-0.4c-0.3,0-0.5,0.1-0.8,0.2c-0.2,0.2-0.5,0.4-0.7,0.6v4.9H182V27.3z"/>
		<path class="st1" d="M195.1,20.7c0.4,0,0.8,0.1,1.1,0.2s0.6,0.3,0.9,0.6c0.2,0.2,0.4,0.6,0.6,0.9c0.1,0.4,0.2,0.8,0.2,1.2
			c0,0.2,0,0.3-0.1,0.4c0,0.1-0.1,0.1-0.2,0.1h-4.3c0,0.4,0.1,0.8,0.2,1.1c0.1,0.3,0.2,0.6,0.4,0.8c0.2,0.2,0.4,0.4,0.6,0.5
			c0.2,0.1,0.5,0.2,0.8,0.2s0.5,0,0.7-0.1s0.4-0.1,0.5-0.2s0.3-0.1,0.4-0.2c0.1-0.1,0.2-0.1,0.3-0.1s0.2,0,0.2,0.1l0.3,0.4
			c-0.1,0.2-0.3,0.3-0.5,0.4s-0.4,0.2-0.6,0.3c-0.2,0.1-0.5,0.1-0.7,0.2c-0.2,0-0.5,0.1-0.7,0.1c-0.5,0-0.9-0.1-1.2-0.2
			c-0.4-0.2-0.7-0.4-1-0.7s-0.5-0.7-0.6-1.1c-0.2-0.4-0.2-0.9-0.2-1.5c0-0.5,0.1-0.9,0.2-1.3c0.1-0.4,0.3-0.7,0.6-1s0.6-0.5,1-0.7
			C194.2,20.8,194.6,20.7,195.1,20.7z M195.1,21.5c-0.6,0-1,0.2-1.3,0.5s-0.5,0.8-0.6,1.3h3.5c0-0.3,0-0.5-0.1-0.7s-0.2-0.4-0.3-0.6
			s-0.3-0.3-0.5-0.4C195.6,21.6,195.4,21.5,195.1,21.5z"/>
		<path class="st1" d="M199.3,27.3v-6.5h0.7c0.1,0,0.2,0,0.3,0.1c0,0,0.1,0.1,0.1,0.2l0.1,1c0.2-0.5,0.5-0.8,0.8-1.1
			c0.3-0.3,0.7-0.4,1.2-0.4c0.2,0,0.3,0,0.5,0.1c0.1,0,0.3,0.1,0.4,0.2l-0.1,0.9c0,0.1-0.1,0.2-0.2,0.2c-0.1,0-0.2,0-0.3-0.1
			c-0.1,0-0.3-0.1-0.5-0.1c-0.4,0-0.7,0.1-1,0.3c-0.3,0.2-0.5,0.6-0.7,1v4.2H199.3z"/>
		<path class="st1" d="M206,18.7c0,0.1,0,0.2-0.1,0.3c0,0.1-0.1,0.2-0.2,0.3c-0.1,0.1-0.2,0.1-0.3,0.2c-0.1,0-0.2,0.1-0.3,0.1
			s-0.2,0-0.3-0.1c-0.1,0-0.2-0.1-0.3-0.2s-0.1-0.2-0.2-0.3c0-0.1-0.1-0.2-0.1-0.3s0-0.2,0.1-0.3c0-0.1,0.1-0.2,0.2-0.3
			c0.1-0.1,0.2-0.1,0.3-0.2c0.1,0,0.2-0.1,0.3-0.1s0.2,0,0.3,0.1c0.1,0,0.2,0.1,0.3,0.2s0.1,0.2,0.2,0.3C206,18.5,206,18.6,206,18.7
			z M205.7,20.8v6.5h-1.1v-6.5H205.7z"/>
		<path class="st1" d="M212.2,22l-0.1,0.1H212c0,0-0.1,0-0.2-0.1c-0.1-0.1-0.2-0.1-0.3-0.2s-0.3-0.1-0.4-0.2
			c-0.2-0.1-0.4-0.1-0.6-0.1c-0.3,0-0.6,0.1-0.8,0.2s-0.4,0.3-0.6,0.5c-0.2,0.2-0.3,0.5-0.4,0.8c-0.1,0.3-0.1,0.6-0.1,1
			s0,0.7,0.1,1.1s0.2,0.6,0.4,0.8c0.2,0.2,0.4,0.4,0.6,0.5c0.2,0.1,0.5,0.2,0.8,0.2s0.5,0,0.7-0.1s0.3-0.1,0.5-0.2
			c0.1-0.1,0.2-0.2,0.3-0.2s0.2-0.1,0.2-0.1c0.1,0,0.2,0,0.2,0.1l0.3,0.4c-0.3,0.3-0.6,0.6-1.1,0.8c-0.4,0.2-0.9,0.2-1.3,0.2
			c-0.4,0-0.8-0.1-1.1-0.2c-0.4-0.2-0.7-0.4-0.9-0.7c-0.3-0.3-0.5-0.6-0.6-1.1c-0.1-0.4-0.2-0.9-0.2-1.4s0.1-0.9,0.2-1.3
			c0.1-0.4,0.3-0.8,0.6-1.1c0.3-0.3,0.6-0.5,1-0.7s0.8-0.3,1.3-0.3s0.9,0.1,1.2,0.2s0.7,0.4,0.9,0.6L212.2,22z"/>
		<path class="st1" d="M218.6,27.3H218c-0.1,0-0.2,0-0.3-0.1s-0.1-0.1-0.1-0.2l-0.1-0.6c-0.2,0.2-0.3,0.3-0.5,0.4s-0.3,0.2-0.5,0.3
			c-0.2,0.1-0.4,0.1-0.6,0.2c-0.2,0-0.4,0.1-0.7,0.1s-0.5,0-0.7-0.1s-0.4-0.2-0.6-0.3c-0.2-0.1-0.3-0.3-0.4-0.5
			c-0.1-0.2-0.1-0.5-0.1-0.8s0.1-0.5,0.2-0.7s0.4-0.5,0.7-0.6c0.3-0.2,0.7-0.3,1.2-0.5c0.5-0.1,1.1-0.2,1.9-0.2v-0.5
			c0-0.5-0.1-0.9-0.3-1.2c-0.2-0.3-0.5-0.4-1-0.4c-0.3,0-0.5,0-0.7,0.1s-0.4,0.2-0.5,0.2c-0.1,0.1-0.3,0.2-0.4,0.2
			c-0.1,0.1-0.2,0.1-0.3,0.1s-0.1,0-0.2-0.1c-0.1,0-0.1-0.1-0.1-0.2l-0.2-0.4c0.4-0.3,0.7-0.6,1.2-0.8c0.4-0.2,0.9-0.3,1.4-0.3
			c0.4,0,0.7,0.1,1,0.2s0.5,0.3,0.7,0.5s0.3,0.5,0.4,0.8c0.1,0.3,0.1,0.6,0.1,1v4.4H218.6z M215.6,26.6c0.2,0,0.4,0,0.6-0.1
			c0.2,0,0.3-0.1,0.5-0.2c0.1-0.1,0.3-0.2,0.4-0.3s0.3-0.2,0.4-0.4v-1.3c-0.5,0-1,0-1.3,0.1c-0.4,0.1-0.7,0.2-0.9,0.3
			s-0.4,0.2-0.5,0.4c-0.1,0.1-0.2,0.3-0.2,0.5s0,0.3,0.1,0.4s0.1,0.2,0.2,0.3c0.1,0.1,0.2,0.1,0.3,0.2
			C215.3,26.6,215.4,26.6,215.6,26.6z"/>
		<path class="st1" d="M220.3,27.3v-6.5h0.7c0.2,0,0.3,0.1,0.3,0.2l0.1,0.7c0.3-0.3,0.6-0.6,0.9-0.8c0.3-0.2,0.8-0.3,1.2-0.3
			s0.7,0.1,0.9,0.2c0.3,0.1,0.5,0.3,0.7,0.5s0.3,0.5,0.4,0.8c0.1,0.3,0.1,0.6,0.1,1v4.2h-1.1v-4.2c0-0.5-0.1-0.9-0.3-1.1
			c-0.2-0.3-0.6-0.4-1-0.4c-0.3,0-0.7,0.1-0.9,0.2c-0.3,0.2-0.6,0.4-0.8,0.7v4.8C221.5,27.3,220.3,27.3,220.3,27.3z"/>
		<path class="st1" d="M234.8,19.5c0,0.1-0.1,0.1-0.1,0.1s-0.1,0-0.2,0c-0.1,0-0.2,0-0.3-0.1s-0.2-0.2-0.4-0.2
			c-0.1-0.1-0.3-0.2-0.5-0.2c-0.2-0.1-0.5-0.1-0.8-0.1s-0.5,0-0.7,0.1s-0.4,0.2-0.5,0.3s-0.3,0.3-0.3,0.5c-0.1,0.2-0.1,0.4-0.1,0.6
			c0,0.3,0.1,0.5,0.2,0.6s0.3,0.3,0.5,0.4s0.4,0.2,0.7,0.3c0.3,0.1,0.5,0.2,0.8,0.3c0.3,0.1,0.5,0.2,0.8,0.3
			c0.3,0.1,0.5,0.3,0.7,0.4s0.4,0.4,0.5,0.7c0.1,0.3,0.2,0.6,0.2,1s-0.1,0.8-0.2,1.1c-0.1,0.4-0.3,0.7-0.6,0.9
			c-0.3,0.3-0.6,0.5-1,0.6c-0.4,0.2-0.8,0.2-1.3,0.2c-0.6,0-1.1-0.1-1.6-0.3c-0.5-0.2-0.9-0.5-1.3-0.9l0.4-0.6l0.1-0.1
			c0,0,0.1,0,0.2,0c0.1,0,0.2,0,0.3,0.1s0.3,0.2,0.4,0.3c0.2,0.1,0.4,0.2,0.6,0.3c0.2,0.1,0.5,0.1,0.9,0.1c0.3,0,0.6,0,0.8-0.1
			s0.4-0.2,0.6-0.3c0.2-0.1,0.3-0.3,0.4-0.5c0.1-0.2,0.1-0.4,0.1-0.7c0-0.3-0.1-0.5-0.2-0.7c-0.1-0.2-0.3-0.3-0.5-0.4
			s-0.4-0.2-0.7-0.3s-0.5-0.2-0.8-0.3c-0.3-0.1-0.5-0.2-0.8-0.3c-0.3-0.1-0.5-0.3-0.7-0.5s-0.4-0.4-0.5-0.7c-0.1-0.3-0.2-0.6-0.2-1
			c0-0.3,0.1-0.6,0.2-0.9c0.1-0.3,0.3-0.6,0.6-0.8c0.2-0.2,0.5-0.4,0.9-0.6c0.4-0.1,0.8-0.2,1.2-0.2c0.5,0,1,0.1,1.4,0.2
			c0.4,0.2,0.8,0.4,1.1,0.7L234.8,19.5z"/>
		<path class="st1" d="M239.4,20.7c0.5,0,0.9,0.1,1.3,0.2c0.4,0.2,0.7,0.4,1,0.7c0.3,0.3,0.5,0.6,0.6,1.1c0.1,0.4,0.2,0.9,0.2,1.4
			s-0.1,1-0.2,1.4c-0.1,0.4-0.4,0.8-0.6,1.1c-0.3,0.3-0.6,0.5-1,0.7s-0.8,0.2-1.3,0.2s-0.9-0.1-1.3-0.2c-0.4-0.2-0.7-0.4-1-0.7
			c-0.3-0.3-0.5-0.6-0.6-1.1c-0.1-0.4-0.2-0.9-0.2-1.4s0.1-1,0.2-1.4c0.1-0.4,0.4-0.8,0.6-1.1c0.3-0.3,0.6-0.5,1-0.7
			C238.5,20.8,238.9,20.7,239.4,20.7z M239.4,26.5c0.6,0,1.1-0.2,1.4-0.6c0.3-0.4,0.5-1,0.5-1.8s-0.2-1.4-0.5-1.8s-0.8-0.7-1.4-0.7
			c-0.3,0-0.6,0.1-0.8,0.2s-0.4,0.3-0.6,0.5c-0.2,0.2-0.3,0.5-0.4,0.8s-0.1,0.7-0.1,1s0,0.7,0.1,1s0.2,0.6,0.4,0.8
			c0.2,0.2,0.4,0.4,0.6,0.5S239.1,26.5,239.4,26.5z"/>
		<path class="st1" d="M248.4,22l-0.1,0.1h-0.1c0,0-0.1,0-0.2-0.1c-0.1-0.1-0.2-0.1-0.3-0.2s-0.3-0.1-0.4-0.2
			c-0.2-0.1-0.4-0.1-0.6-0.1c-0.3,0-0.6,0.1-0.8,0.2s-0.4,0.3-0.6,0.5c-0.2,0.2-0.3,0.5-0.4,0.8c-0.1,0.3-0.1,0.6-0.1,1
			s0,0.7,0.1,1.1c0.1,0.3,0.2,0.6,0.4,0.8c0.2,0.2,0.4,0.4,0.6,0.5c0.2,0.1,0.5,0.2,0.8,0.2s0.5,0,0.7-0.1s0.3-0.1,0.5-0.2
			c0.1-0.1,0.2-0.2,0.3-0.2c0.1-0.1,0.2-0.1,0.2-0.1c0.1,0,0.2,0,0.2,0.1l0.3,0.4c-0.3,0.3-0.6,0.6-1.1,0.8
			c-0.4,0.2-0.9,0.2-1.3,0.2c-0.4,0-0.8-0.1-1.1-0.2c-0.4-0.2-0.7-0.4-0.9-0.7c-0.3-0.3-0.5-0.6-0.6-1.1c-0.1-0.4-0.2-0.9-0.2-1.4
			s0.1-0.9,0.2-1.3c0.1-0.4,0.3-0.8,0.6-1.1c0.3-0.3,0.6-0.5,1-0.7s0.8-0.3,1.3-0.3s0.9,0.1,1.2,0.2c0.4,0.1,0.7,0.4,0.9,0.6
			L248.4,22z"/>
		<path class="st1" d="M251.4,18.7c0,0.1,0,0.2-0.1,0.3c0,0.1-0.1,0.2-0.2,0.3c-0.1,0.1-0.2,0.1-0.3,0.2c-0.1,0-0.2,0.1-0.3,0.1
			s-0.2,0-0.3-0.1c-0.1,0-0.2-0.1-0.3-0.2s-0.1-0.2-0.2-0.3c0-0.1-0.1-0.2-0.1-0.3s0-0.2,0.1-0.3c0-0.1,0.1-0.2,0.2-0.3
			c0.1-0.1,0.2-0.1,0.3-0.2c0.1,0,0.2-0.1,0.3-0.1s0.2,0,0.3,0.1c0.1,0,0.2,0.1,0.3,0.2s0.1,0.2,0.2,0.3
			C251.4,18.5,251.4,18.6,251.4,18.7z M251.2,20.8v6.5H250v-6.5H251.2z"/>
		<path class="st1" d="M255.8,20.7c0.4,0,0.8,0.1,1.1,0.2s0.6,0.3,0.9,0.6c0.2,0.2,0.4,0.6,0.6,0.9c0.1,0.4,0.2,0.8,0.2,1.2
			c0,0.2,0,0.3-0.1,0.4c0,0.1-0.1,0.1-0.2,0.1H254c0,0.4,0.1,0.8,0.2,1.1c0.1,0.3,0.2,0.6,0.4,0.8c0.2,0.2,0.4,0.4,0.6,0.5
			c0.2,0.1,0.5,0.2,0.8,0.2s0.5,0,0.7-0.1c0.2-0.1,0.4-0.1,0.5-0.2s0.3-0.1,0.4-0.2s0.2-0.1,0.3-0.1c0.1,0,0.2,0,0.2,0.1l0.3,0.4
			c-0.1,0.2-0.3,0.3-0.5,0.4s-0.4,0.2-0.6,0.3c-0.2,0.1-0.5,0.1-0.7,0.2c-0.2,0-0.5,0.1-0.7,0.1c-0.5,0-0.9-0.1-1.2-0.2
			c-0.4-0.2-0.7-0.4-1-0.7s-0.5-0.7-0.6-1.1c-0.2-0.4-0.2-0.9-0.2-1.5c0-0.5,0.1-0.9,0.2-1.3c0.1-0.4,0.3-0.7,0.6-1s0.6-0.5,1-0.7
			C254.9,20.8,255.3,20.7,255.8,20.7z M255.8,21.5c-0.6,0-1,0.2-1.3,0.5s-0.5,0.8-0.6,1.3h3.5c0-0.3,0-0.5-0.1-0.7s-0.2-0.4-0.3-0.6
			s-0.3-0.3-0.5-0.4C256.3,21.6,256.1,21.5,255.8,21.5z"/>
		<path class="st1" d="M261.9,27.4c-0.5,0-0.9-0.1-1.2-0.4c-0.3-0.3-0.4-0.7-0.4-1.2v-4h-0.8c-0.1,0-0.1,0-0.2-0.1
			c0,0-0.1-0.1-0.1-0.2V21l1.1-0.1l0.3-2c0-0.1,0-0.1,0.1-0.2c0,0,0.1-0.1,0.2-0.1h0.6v2.2h1.9v0.8h-1.9v3.9c0,0.3,0.1,0.5,0.2,0.6
			s0.3,0.2,0.5,0.2c0.1,0,0.2,0,0.3,0c0.1,0,0.2-0.1,0.2-0.1c0.1,0,0.1-0.1,0.2-0.1h0.1c0.1,0,0.1,0,0.2,0.1l0.3,0.5
			c-0.2,0.2-0.4,0.3-0.7,0.4C262.5,27.4,262.2,27.4,261.9,27.4z"/>
	</g>
	<g>
		<path class="st1" d="M266.9,29.2c0,0.1-0.1,0.2-0.1,0.2c-0.1,0.1-0.1,0.1-0.3,0.1h-0.8l1.2-2.6l-2.7-6.1h1c0.1,0,0.2,0,0.2,0.1
			c0.1,0,0.1,0.1,0.1,0.2l1.7,4.1c0,0.1,0.1,0.2,0.1,0.3c0,0.1,0.1,0.2,0.1,0.3c0-0.1,0.1-0.2,0.1-0.3c0-0.1,0.1-0.2,0.1-0.3
			l1.7-4.1c0-0.1,0.1-0.1,0.1-0.2c0.1,0,0.1-0.1,0.2-0.1h0.9L266.9,29.2z"/>
	</g>
	<g>
		<path class="st1" d="M274.9,26.8c-0.4-0.4-0.6-1-0.6-1.7c0-0.1,0-0.3,0-0.5s0.1-0.4,0.1-0.5c0.2-0.9,0.6-1.6,1.2-2.1
			c0.5-0.5,1.2-0.8,1.9-0.8c0.6,0,1.1,0.2,1.5,0.7c0.4,0.4,0.6,1,0.6,1.7c0,0.1,0,0.3,0,0.5s-0.1,0.4-0.1,0.5
			c-0.2,0.9-0.6,1.6-1.2,2.1c-0.5,0.5-1.2,0.8-1.9,0.8C275.8,27.5,275.3,27.3,274.9,26.8z M277.4,26.3c0.3-0.5,0.5-1.1,0.7-1.8
			c0.1-0.3,0.1-0.5,0.2-0.8c0-0.3,0.1-0.5,0.1-0.7c0-0.4-0.1-0.6-0.2-0.8c-0.2-0.2-0.4-0.3-0.7-0.3c-0.3,0-0.6,0.2-0.9,0.7
			s-0.5,1.1-0.7,1.8c-0.1,0.3-0.1,0.5-0.2,0.8c0,0.3-0.1,0.5-0.1,0.7c0,0.4,0.1,0.6,0.2,0.8c0.2,0.2,0.4,0.3,0.7,0.3
			C276.8,26.9,277.1,26.7,277.4,26.3z"/>
		<path class="st1" d="M283,22l-0.8,3.9c-0.3,1.6-0.7,2.7-1.2,3.5s-1,1.2-1.6,1.2c-0.2,0-0.3-0.1-0.5-0.2c-0.1-0.1-0.2-0.2-0.2-0.4
			c0-0.2,0.1-0.4,0.2-0.5s0.3-0.2,0.4-0.2s0.2,0.1,0.3,0.2c0.1,0.1,0.2,0.2,0.3,0.2c0,0,0.1-0.1,0.2-0.2s0.1-0.3,0.2-0.4V29
			c0.2-0.7,0.4-1.7,0.6-3.1l0.8-3.9h-1.2c-0.1,0-0.1,0-0.1-0.1l0.1-0.4c0-0.1,0-0.1,0.1-0.1h1.1c0.2-1.2,0.5-2.1,0.9-2.7
			c0.5-0.9,1.3-1.3,2.1-1.3c0.4,0,0.7,0.1,0.9,0.2c0.2,0.1,0.4,0.3,0.4,0.5s0,0.3-0.1,0.4s-0.2,0.2-0.4,0.2l0,0
			c-0.2,0-0.4-0.1-0.5-0.4s-0.3-0.4-0.5-0.4c-0.1,0-0.3,0.1-0.4,0.2c-0.2,0.2-0.3,0.3-0.4,0.6l-0.1,0.2c-0.2,0.6-0.4,1.4-0.6,2.5
			h1.1c0.1,0,0.1,0,0.1,0v0.1l-0.1,0.2c0,0.1,0,0.1-0.1,0.1c0,0-0.1,0-0.2,0H283V22z"/>
	</g>
	<g>
		<path class="st1" d="M181,41.2h-1c-0.1,0-0.2,0-0.3-0.1s-0.1-0.1-0.2-0.2l-0.9-2.2h-4.1l-0.9,2.2c0,0.1-0.1,0.1-0.2,0.2
			c-0.1,0.1-0.2,0.1-0.3,0.1h-1L176,32h1.3L181,41.2z M174.9,37.8h3.4l-1.4-3.8c-0.1-0.2-0.2-0.5-0.3-0.9c0,0.2-0.1,0.3-0.1,0.5
			c0,0.1-0.1,0.3-0.1,0.4L174.9,37.8z"/>
	</g>
	<path class="st1" d="M187.1,31.7v9.5h-0.7c-0.2,0-0.3-0.1-0.3-0.2l-0.1-0.8c-0.3,0.3-0.6,0.6-1,0.8s-0.8,0.3-1.2,0.3
		s-0.7-0.1-1-0.2c-0.3-0.1-0.6-0.3-0.8-0.6s-0.4-0.6-0.5-1s-0.2-0.9-0.2-1.4s0.1-0.9,0.2-1.3c0.1-0.4,0.3-0.8,0.6-1.1
		c0.2-0.3,0.5-0.5,0.9-0.7c0.3-0.2,0.7-0.3,1.2-0.3c0.4,0,0.7,0.1,1,0.2c0.3,0.1,0.5,0.3,0.8,0.6v-3.6h1.1V31.7z M186,36.2
		c-0.2-0.3-0.5-0.5-0.7-0.6c-0.3-0.1-0.5-0.2-0.8-0.2c-0.6,0-1.1,0.2-1.4,0.6c-0.3,0.4-0.5,1.1-0.5,1.9c0,0.4,0,0.8,0.1,1.1
		s0.2,0.6,0.3,0.7c0.1,0.2,0.3,0.3,0.5,0.4c0.2,0.1,0.4,0.1,0.7,0.1c0.4,0,0.7-0.1,1-0.3s0.5-0.4,0.8-0.7L186,36.2L186,36.2z
		 M194.4,31.7v9.5h-0.7c-0.2,0-0.3-0.1-0.3-0.2l-0.1-0.8c-0.3,0.3-0.6,0.6-1,0.8s-0.8,0.3-1.2,0.3s-0.7-0.1-1-0.2
		c-0.3-0.1-0.6-0.3-0.8-0.6s-0.4-0.6-0.5-1s-0.2-0.9-0.2-1.4s0.1-0.9,0.2-1.3c0.1-0.4,0.3-0.8,0.6-1.1c0.2-0.3,0.5-0.5,0.9-0.7
		c0.3-0.2,0.7-0.3,1.2-0.3c0.4,0,0.7,0.1,1,0.2c0.3,0.1,0.5,0.3,0.8,0.6v-3.6h1.1V31.7z M193.2,36.2c-0.2-0.3-0.5-0.5-0.7-0.6
		c-0.3-0.1-0.5-0.2-0.8-0.2c-0.6,0-1.1,0.2-1.4,0.6c-0.3,0.4-0.5,1.1-0.5,1.9c0,0.4,0,0.8,0.1,1.1s0.2,0.6,0.3,0.7
		c0.1,0.2,0.3,0.3,0.5,0.4c0.2,0.1,0.4,0.1,0.7,0.1c0.4,0,0.7-0.1,1-0.3s0.5-0.4,0.8-0.7L193.2,36.2L193.2,36.2z M197.6,32.6
		c0,0.1,0,0.2-0.1,0.3c0,0.1-0.1,0.2-0.2,0.3s-0.2,0.1-0.3,0.2c-0.1,0.1-0.2,0.1-0.3,0.1s-0.2,0-0.3-0.1c-0.1,0-0.2-0.1-0.3-0.2
		c-0.1-0.1-0.1-0.2-0.2-0.3c-0.1-0.1-0.1-0.2-0.1-0.3s0-0.2,0.1-0.3c0-0.1,0.1-0.2,0.2-0.3c0.1-0.1,0.2-0.1,0.3-0.2
		c0.1,0,0.2-0.1,0.3-0.1s0.2,0,0.3,0.1s0.2,0.1,0.3,0.2c0.1,0.1,0.1,0.2,0.2,0.3C197.6,32.4,197.6,32.5,197.6,32.6z M197.4,34.6v6.5
		h-1.1v-6.5H197.4z M203.8,35.8c0,0.1-0.1,0.1-0.1,0.1h-0.1c-0.1,0-0.1,0-0.2-0.1c-0.1-0.1-0.2-0.1-0.3-0.2
		c-0.1-0.1-0.2-0.1-0.4-0.2c-0.2-0.1-0.4-0.1-0.6-0.1c-0.3,0-0.6,0.1-0.8,0.2c-0.2,0.1-0.5,0.3-0.6,0.5c-0.2,0.2-0.3,0.5-0.4,0.8
		c-0.1,0.3-0.1,0.6-0.1,1s0.1,0.7,0.1,1.1c0.1,0.3,0.2,0.6,0.4,0.8s0.4,0.4,0.6,0.5c0.2,0.1,0.5,0.2,0.8,0.2s0.5,0,0.7-0.1
		s0.3-0.1,0.4-0.2c0.1-0.1,0.2-0.2,0.3-0.2c0.1-0.1,0.2-0.1,0.2-0.1c0.1,0,0.2,0,0.2,0.1l0.3,0.4c-0.1,0.2-0.3,0.3-0.5,0.5
		c-0.2,0.1-0.4,0.2-0.6,0.3c-0.2,0.1-0.4,0.1-0.7,0.2c-0.2,0-0.5,0.1-0.7,0.1c-0.4,0-0.8-0.1-1.1-0.2c-0.3-0.1-0.7-0.4-0.9-0.6
		c-0.3-0.3-0.5-0.6-0.6-1.1c-0.1-0.4-0.2-0.9-0.2-1.4s0.1-0.9,0.2-1.3c0.1-0.4,0.3-0.8,0.6-1.1s0.6-0.5,1-0.7s0.8-0.3,1.3-0.3
		s0.9,0.1,1.2,0.2c0.3,0.1,0.7,0.3,0.9,0.6L203.8,35.8z M211.5,41.2h-1.1v-5.6H207v3.9c0,0.3,0.1,0.5,0.2,0.6
		c0.1,0.1,0.3,0.2,0.5,0.2c0.1,0,0.2,0,0.3-0.1c0.1,0,0.2-0.1,0.2-0.1c0.1,0,0.1-0.1,0.2-0.1l0.1-0.1c0.1,0,0.1,0,0.2,0.1l0.3,0.6
		c-0.2,0.2-0.4,0.3-0.7,0.4c-0.3,0.1-0.6,0.2-0.9,0.2c-0.5,0-0.9-0.1-1.2-0.4c-0.3-0.3-0.4-0.7-0.4-1.2v-4H205c-0.1,0-0.1,0-0.2-0.1
		c-0.1,0-0.1-0.1-0.1-0.2v-0.5l1.1-0.1l0.3-2c0-0.1,0-0.1,0.1-0.2c0,0,0.1-0.1,0.2-0.1h0.6v2.2h4.5L211.5,41.2L211.5,41.2z
		 M211.7,32.6c0,0.1,0,0.2-0.1,0.3c0,0.1-0.1,0.2-0.2,0.3c-0.1,0.1-0.2,0.1-0.3,0.2c-0.1,0.1-0.2,0.1-0.3,0.1s-0.2,0-0.3-0.1
		c-0.1,0-0.2-0.1-0.2-0.2c-0.1-0.1-0.1-0.2-0.2-0.3c0-0.1-0.1-0.2-0.1-0.3s0-0.2,0.1-0.3s0.1-0.2,0.2-0.3c0.1-0.1,0.2-0.1,0.2-0.2
		c0.1,0,0.2-0.1,0.3-0.1s0.2,0,0.3,0.1c0.1,0,0.2,0.1,0.3,0.2c0.1,0.1,0.1,0.2,0.2,0.3C211.7,32.3,211.7,32.5,211.7,32.6z
		 M216.1,34.5c0.5,0,0.9,0.1,1.3,0.2c0.4,0.2,0.7,0.4,1,0.7s0.5,0.7,0.6,1.1s0.2,0.9,0.2,1.4s-0.1,1-0.2,1.4s-0.3,0.8-0.6,1.1
		s-0.6,0.5-1,0.7s-0.8,0.2-1.3,0.2s-0.9-0.1-1.3-0.2c-0.4-0.2-0.7-0.4-1-0.7s-0.5-0.6-0.6-1.1c-0.1-0.4-0.2-0.9-0.2-1.4
		s0.1-1,0.2-1.4c0.1-0.4,0.3-0.8,0.6-1.1s0.6-0.5,1-0.7C215.2,34.6,215.6,34.5,216.1,34.5z M216.1,40.4c0.6,0,1.1-0.2,1.4-0.6
		c0.3-0.4,0.5-1,0.5-1.8s-0.2-1.4-0.5-1.8c-0.3-0.4-0.8-0.7-1.4-0.7c-0.3,0-0.6,0.1-0.8,0.2c-0.2,0.1-0.5,0.3-0.6,0.5
		c-0.2,0.2-0.3,0.5-0.4,0.8c-0.1,0.3-0.1,0.7-0.1,1c0,0.8,0.2,1.4,0.5,1.8C214.9,40.2,215.4,40.4,216.1,40.4z M221.7,35.6
		c0.1-0.2,0.3-0.3,0.5-0.4c0.2-0.1,0.3-0.2,0.5-0.3s0.4-0.2,0.6-0.2c0.2-0.1,0.4-0.1,0.6-0.1c0.4,0,0.7,0.1,0.9,0.2s0.5,0.3,0.7,0.5
		s0.3,0.5,0.4,0.8c0.1,0.3,0.1,0.6,0.1,1v4.2h-1.2V37c0-0.5-0.1-0.9-0.3-1.1c-0.2-0.3-0.6-0.4-1-0.4c-0.3,0-0.7,0.1-1,0.2
		c-0.3,0.2-0.6,0.4-0.8,0.7v4.8h-1.1v-6.5h0.7c0.2,0,0.3,0.1,0.3,0.2L221.7,35.6z M241,31.9v9.2h-1.1v-6.8c0-0.1,0-0.2,0-0.3
		s0-0.2,0-0.3l-3.2,5.8c-0.1,0.2-0.3,0.3-0.5,0.3H236c-0.2,0-0.4-0.1-0.5-0.3l-3.2-5.8c0,0.2,0,0.4,0,0.6v6.8h-1.1v-9.2h0.9
		c0.1,0,0.2,0,0.3,0s0.1,0.1,0.2,0.2l3.2,5.7c0.1,0.1,0.1,0.2,0.2,0.3c0.1,0.1,0.1,0.2,0.1,0.3c0-0.1,0.1-0.2,0.1-0.3
		c0.1-0.1,0.1-0.2,0.2-0.3l3.1-5.7c0.1-0.1,0.1-0.2,0.2-0.2c0.1,0,0.2,0,0.3,0C240,31.9,241,31.9,241,31.9z"/>
	<g>
		<path class="st1" d="M245.5,34.6c0.4,0,0.8,0.1,1.1,0.2c0.3,0.1,0.6,0.3,0.9,0.6c0.2,0.2,0.4,0.6,0.6,0.9c0.1,0.4,0.2,0.8,0.2,1.2
			c0,0.2,0,0.3-0.1,0.4S248.1,38,248,38h-4.3c0,0.4,0.1,0.8,0.2,1.1c0.1,0.3,0.2,0.6,0.4,0.8s0.4,0.4,0.6,0.5
			c0.2,0.1,0.5,0.2,0.8,0.2s0.5,0,0.7-0.1s0.4-0.1,0.5-0.2c0.1-0.1,0.3-0.1,0.4-0.2c0.1-0.1,0.2-0.1,0.3-0.1s0.2,0,0.2,0.1l0.3,0.4
			c-0.1,0.2-0.3,0.3-0.5,0.4c-0.2,0.1-0.4,0.2-0.6,0.3c-0.2,0.1-0.5,0.1-0.7,0.2c-0.2,0-0.5,0.1-0.7,0.1c-0.5,0-0.9-0.1-1.2-0.2
			c-0.4-0.2-0.7-0.4-1-0.7s-0.5-0.7-0.6-1.1c-0.2-0.4-0.2-0.9-0.2-1.5c0-0.5,0.1-0.9,0.2-1.3c0.1-0.4,0.3-0.7,0.6-1s0.6-0.5,1-0.7
			C244.6,34.6,245,34.6,245.5,34.6z M245.5,35.4c-0.6,0-1,0.2-1.3,0.5s-0.5,0.8-0.6,1.3h3.5c0-0.3,0-0.5-0.1-0.7s-0.2-0.4-0.3-0.6
			c-0.1-0.2-0.3-0.3-0.5-0.4C246,35.4,245.8,35.4,245.5,35.4z"/>
		<path class="st1" d="M254.2,41.2c-0.2,0-0.3-0.1-0.3-0.2l-0.1-0.8c-0.3,0.3-0.6,0.6-1,0.8s-0.8,0.3-1.2,0.3s-0.7-0.1-1-0.2
			c-0.3-0.1-0.6-0.4-0.8-0.6c-0.2-0.3-0.4-0.6-0.5-1s-0.2-0.9-0.2-1.4s0.1-0.9,0.2-1.3c0.1-0.4,0.3-0.8,0.6-1.1
			c0.2-0.3,0.5-0.5,0.9-0.7c0.3-0.2,0.7-0.3,1.2-0.3c0.4,0,0.7,0.1,1,0.2c0.3,0.1,0.5,0.3,0.8,0.6v-3.6h1.1v9.5h-0.7V41.2z
			 M252,40.3c0.4,0,0.7-0.1,1-0.3s0.5-0.4,0.8-0.7v-3.2c-0.2-0.3-0.4-0.5-0.7-0.6s-0.5-0.2-0.8-0.2c-0.6,0-1.1,0.2-1.4,0.7
			c-0.3,0.4-0.5,1.1-0.5,1.9c0,0.4,0,0.8,0.1,1.1s0.2,0.6,0.3,0.7c0.1,0.2,0.3,0.3,0.5,0.4C251.5,40.3,251.8,40.3,252,40.3z"/>
		<path class="st1" d="M258.4,32.6c0,0.1,0,0.2-0.1,0.3c0,0.1-0.1,0.2-0.2,0.3s-0.2,0.1-0.3,0.2c-0.1,0-0.2,0.1-0.3,0.1
			c-0.1,0-0.2,0-0.3-0.1c-0.1,0-0.2-0.1-0.3-0.2c-0.1-0.1-0.1-0.2-0.2-0.3c0-0.1-0.1-0.2-0.1-0.3s0-0.2,0.1-0.3
			c0-0.1,0.1-0.2,0.2-0.3c0.1-0.1,0.2-0.1,0.3-0.2c0.1,0,0.2-0.1,0.3-0.1c0.1,0,0.2,0,0.3,0.1c0.1,0,0.2,0.1,0.3,0.2
			c0.1,0.1,0.1,0.2,0.2,0.3C258.4,32.4,258.4,32.5,258.4,32.6z M258.1,34.7v6.5H257v-6.5H258.1z"/>
		<path class="st1" d="M264.6,35.8l-0.1,0.1h-0.1c-0.1,0-0.1,0-0.2-0.1s-0.2-0.1-0.3-0.2c-0.1-0.1-0.3-0.1-0.4-0.2
			c-0.2-0.1-0.4-0.1-0.6-0.1c-0.3,0-0.6,0.1-0.8,0.2c-0.2,0.1-0.4,0.3-0.6,0.5s-0.3,0.5-0.4,0.8s-0.1,0.6-0.1,1s0,0.7,0.1,1.1
			s0.2,0.6,0.4,0.8c0.2,0.2,0.4,0.4,0.6,0.5s0.5,0.2,0.8,0.2s0.5,0,0.7-0.1s0.3-0.1,0.5-0.2c0.1-0.1,0.2-0.2,0.3-0.2
			c0.1-0.1,0.2-0.1,0.2-0.1c0.1,0,0.2,0,0.2,0.1l0.3,0.4c-0.3,0.3-0.6,0.6-1.1,0.8c-0.4,0.2-0.9,0.2-1.3,0.2s-0.8-0.1-1.1-0.2
			c-0.4-0.1-0.7-0.4-0.9-0.7c-0.3-0.3-0.5-0.6-0.6-1.1c-0.1-0.4-0.2-0.9-0.2-1.4s0.1-0.9,0.2-1.3c0.1-0.4,0.3-0.8,0.6-1.1
			c0.3-0.3,0.6-0.5,1-0.7s0.8-0.3,1.3-0.3s0.9,0.1,1.2,0.2c0.4,0.1,0.7,0.4,0.9,0.6L264.6,35.8z"/>
		<path class="st1" d="M267.7,32.6c0,0.1,0,0.2-0.1,0.3c0,0.1-0.1,0.2-0.2,0.3s-0.2,0.1-0.3,0.2c-0.1,0-0.2,0.1-0.3,0.1
			c-0.1,0-0.2,0-0.3-0.1c-0.1,0-0.2-0.1-0.3-0.2c-0.1-0.1-0.1-0.2-0.2-0.3c0-0.1-0.1-0.2-0.1-0.3s0-0.2,0.1-0.3
			c0-0.1,0.1-0.2,0.2-0.3c0.1-0.1,0.2-0.1,0.3-0.2c0.1,0,0.2-0.1,0.3-0.1c0.1,0,0.2,0,0.3,0.1c0.1,0,0.2,0.1,0.3,0.2
			c0.1,0.1,0.1,0.2,0.2,0.3C267.7,32.4,267.7,32.5,267.7,32.6z M267.4,34.7v6.5h-1.1v-6.5H267.4z"/>
		<path class="st1" d="M269.5,41.2v-6.5h0.7c0.2,0,0.3,0.1,0.3,0.2l0.1,0.7c0.3-0.3,0.6-0.6,0.9-0.8s0.8-0.3,1.2-0.3
			c0.4,0,0.7,0.1,0.9,0.2c0.3,0.1,0.5,0.3,0.7,0.5s0.3,0.5,0.4,0.8s0.1,0.6,0.1,1v4.2h-1.1V37c0-0.5-0.1-0.9-0.3-1.1
			c-0.2-0.3-0.6-0.4-1-0.4c-0.3,0-0.7,0.1-0.9,0.2c-0.3,0.2-0.6,0.4-0.8,0.7v4.8H269.5z"/>
		<path class="st1" d="M279.2,34.6c0.4,0,0.8,0.1,1.1,0.2c0.3,0.1,0.6,0.3,0.9,0.6c0.2,0.2,0.4,0.6,0.6,0.9c0.1,0.4,0.2,0.8,0.2,1.2
			c0,0.2,0,0.3-0.1,0.4s-0.1,0.1-0.2,0.1h-4.3c0,0.4,0.1,0.8,0.2,1.1s0.2,0.6,0.4,0.8c0.2,0.2,0.4,0.4,0.6,0.5s0.5,0.2,0.8,0.2
			s0.5,0,0.7-0.1s0.4-0.1,0.5-0.2c0.1-0.1,0.3-0.1,0.4-0.2c0.1-0.1,0.2-0.1,0.3-0.1c0.1,0,0.2,0,0.2,0.1l0.3,0.4
			c-0.1,0.2-0.3,0.3-0.5,0.4c-0.2,0.1-0.4,0.2-0.6,0.3s-0.5,0.1-0.7,0.2c-0.2,0-0.5,0.1-0.7,0.1c-0.5,0-0.9-0.1-1.2-0.2
			c-0.4-0.2-0.7-0.4-1-0.7s-0.5-0.7-0.6-1.1c-0.2-0.4-0.2-0.9-0.2-1.5c0-0.5,0.1-0.9,0.2-1.3c0.1-0.4,0.3-0.7,0.6-1
			c0.3-0.3,0.6-0.5,1-0.7C278.3,34.6,278.7,34.6,279.2,34.6z M279.2,35.4c-0.6,0-1,0.2-1.3,0.5s-0.5,0.8-0.6,1.3h3.5
			c0-0.3,0-0.5-0.1-0.7s-0.2-0.4-0.3-0.6c-0.1-0.2-0.3-0.3-0.5-0.4C279.7,35.4,279.5,35.4,279.2,35.4z"/>
	</g>
	<path class="st1" d="M8.8,44.5l0.3,0.3l-0.4,0.9l1.3,1.4l1-0.3l0.3,0.3l-3.6,1.2L7.3,48L8.8,44.5z M7.7,47.8l1.8-0.6l-1-1.2
		L7.7,47.8z"/>
	<polygon class="st1" points="6.7,43 6.7,43 5.8,45.1 8.2,43.6 8.4,43.9 5.5,45.8 5.3,45.4 6.2,43.4 3.9,43.3 3.7,43 6.6,41.1 
		6.8,41.5 4.4,43 	"/>
	<polygon class="st1" points="2.3,39.2 3.1,41.1 4.2,40.7 3.4,38.9 3.8,38.8 4.5,40.5 5.6,40 4.8,38.1 5.1,37.9 6.1,40.2 3,41.6 
		2,39.4 	"/>
	<path class="st1" d="M3.6,25.3v0.4L2.7,26l-0.1,1.9l0.9,0.5v0.4L0,26.9v-0.4L3.6,25.3z M0.5,26.8l1.7,0.9l0.1-1.6L0.5,26.8z"/>
	<polygon class="st1" points="1,21.3 1.1,20.9 4.4,21.7 4.3,22 1.1,23.5 3.8,24.2 3.8,24.6 0.4,23.8 0.5,23.4 3.7,21.9 	"/>
	<path class="st1" d="M3.3,18c0.1,0,0.1,0,0.2-0.1c0.1,0,0.2-0.1,0.3-0.2s0.2-0.2,0.3-0.4c0.2-0.3,0.5-0.5,0.7-0.6s0.4-0.1,0.7,0
		c0.1,0.1,0.2,0.1,0.3,0.2C5.9,17,5.9,17.1,6,17.2c0,0.1,0,0.3,0,0.4c0,0.2-0.1,0.3-0.1,0.5c-0.1,0.3-0.3,0.5-0.4,0.6
		C5.2,19,5,19.1,4.7,19.2l-0.2-0.3c0.2-0.1,0.4-0.2,0.6-0.3c0.2-0.1,0.3-0.3,0.4-0.5s0.1-0.4,0.1-0.6s-0.1-0.3-0.3-0.4
		c-0.1,0-0.1-0.1-0.2-0.1S5,17,4.9,17.1c-0.1,0-0.2,0.1-0.2,0.2c-0.1,0.1-0.2,0.2-0.3,0.4C4.2,17.8,4.1,17.9,4,18s-0.2,0.2-0.3,0.2
		c-0.1,0.1-0.2,0.1-0.3,0.1s-0.2,0-0.4-0.1c-0.1-0.1-0.2-0.1-0.3-0.2s-0.1-0.2-0.2-0.3c0-0.1,0-0.3,0-0.4s0.1-0.3,0.1-0.4
		c0.1-0.2,0.2-0.4,0.4-0.6c0.1-0.1,0.3-0.3,0.5-0.4l0.2,0.3c-0.2,0.1-0.3,0.2-0.5,0.3C3,16.7,2.9,16.8,2.9,17c0,0.1-0.1,0.2-0.1,0.3
		c0,0.1,0,0.2,0,0.3c0,0.1,0.1,0.1,0.1,0.2s0.1,0.1,0.2,0.1C3.1,17.9,3.2,18,3.3,18"/>
	<path class="st1" d="M7.5,13.1c0.1,0.2,0.2,0.4,0.3,0.6c0.1,0.2,0.1,0.4,0,0.7c0,0.2-0.1,0.5-0.3,0.7c-0.1,0.2-0.3,0.4-0.5,0.5
		s-0.4,0.2-0.6,0.3c-0.2,0-0.4,0-0.7,0c-0.2,0-0.4-0.1-0.6-0.3c-0.2-0.1-0.4-0.3-0.5-0.5s-0.2-0.4-0.3-0.6c-0.1-0.2-0.1-0.4,0-0.7
		c0-0.2,0.1-0.5,0.3-0.7c0.1-0.2,0.3-0.4,0.5-0.5s0.4-0.2,0.6-0.3c0.2,0,0.4,0,0.7,0c0.2,0,0.4,0.1,0.6,0.3
		C7.2,12.7,7.4,12.9,7.5,13.1 M6.3,12.7c-0.2,0-0.4,0-0.5,0c-0.2,0-0.3,0.1-0.5,0.2C5.1,13,5,13.1,4.9,13.3s-0.2,0.3-0.2,0.5
		s0,0.4,0,0.5c0,0.2,0.1,0.3,0.2,0.5s0.3,0.3,0.4,0.4c0.2,0.1,0.3,0.2,0.5,0.2s0.4,0,0.5,0c0.2,0,0.3-0.1,0.5-0.2s0.4-0.2,0.5-0.4
		c0.1-0.2,0.2-0.3,0.2-0.5s0-0.4,0-0.5c0-0.2-0.1-0.3-0.2-0.5C7.1,13.2,7,13,6.8,12.9C6.7,12.8,6.5,12.8,6.3,12.7"/>
	<path class="st1" d="M10.6,10.7c0,0.1,0,0.2-0.1,0.4c0,0.1-0.1,0.2-0.1,0.4c-0.1,0.1-0.1,0.2-0.3,0.3c-0.2,0.2-0.4,0.3-0.6,0.4
		c-0.2,0.1-0.4,0.1-0.6,0.2c-0.2,0-0.4,0-0.7-0.1C8,12.1,7.8,12,7.7,11.8c-0.2-0.2-0.3-0.4-0.4-0.6c-0.1-0.2-0.2-0.4-0.2-0.7
		c0-0.2,0-0.4,0.1-0.7c0.1-0.2,0.2-0.4,0.4-0.6C7.7,9.1,7.8,9,7.9,8.9c0,0.1,0.1,0,0.2,0s0.2-0.1,0.3-0.1s0.2,0,0.3,0v0.4
		c-0.2,0-0.4,0.1-0.6,0.1c0,0-0.2,0.1-0.3,0.3c-0.1,0.1-0.2,0.3-0.3,0.5c-0.1,0.2-0.1,0.3-0.1,0.5s0.1,0.3,0.1,0.5
		c0.1,0.2,0.2,0.3,0.3,0.4c0.1,0.1,0.3,0.2,0.5,0.3s0.3,0.1,0.5,0.1s0.3,0,0.5-0.1s0.3-0.2,0.4-0.3C9.9,11.3,10,11.1,10,11
		s0.1-0.4,0.1-0.6h0.4C10.6,10.4,10.6,10.6,10.6,10.7"/>
	<rect x="10.4" y="7" transform="matrix(0.7407 -0.6718 0.6718 0.7407 -3.1384 9.3924)" class="st1" width="0.4" height="3.5"/>
	<polygon class="st1" points="12.9,5.2 11.2,6.5 11.9,7.4 13.4,6.3 13.6,6.6 12.1,7.7 12.8,8.7 14.5,7.4 14.7,7.7 12.7,9.2 
		10.7,6.4 12.7,4.9 	"/>
	<polygon class="st1" points="16.6,6.6 16.3,6.8 14.7,4.1 13.7,4.7 13.6,4.3 15.9,3 16.1,3.3 15.1,3.9 	"/>
	<polygon class="st1" points="19.7,5.2 19.3,5.3 18.8,4 16.7,2.6 17.2,2.4 18.9,3.6 19.3,1.6 19.8,1.4 19.2,3.9 	"/>
	<path class="st1" d="M26.2,2.5c-0.1,0.2-0.1,0.4-0.3,0.6c-0.1,0.2-0.3,0.3-0.5,0.5c-0.2,0.1-0.4,0.2-0.7,0.3c-0.3,0-0.5,0-0.7,0
		c-0.2-0.1-0.4-0.2-0.6-0.3C23.3,3.4,23.1,3.2,23,3s-0.2-0.4-0.2-0.7c0-0.2,0-0.5,0-0.7c0.1-0.2,0.1-0.4,0.3-0.6
		c0.1-0.2,0.3-0.3,0.5-0.5c0.2-0.1,0.4-0.2,0.7-0.3c0.3,0,0.5,0,0.7,0c0.2,0.1,0.4,0.2,0.6,0.3S25.9,0.8,26,1s0.2,0.4,0.2,0.7
		C26.3,2,26.3,2.3,26.2,2.5 M25.7,1.3c-0.1-0.2-0.2-0.3-0.4-0.4c-0.1-0.1-0.3-0.2-0.5-0.2s-0.4-0.1-0.6,0c-0.2,0-0.4,0.1-0.5,0.2
		c-0.2,0.1-0.3,0.2-0.4,0.4c-0.1,0.1-0.2,0.3-0.2,0.5s0,0.4,0,0.6s0.1,0.4,0.2,0.5c0.1,0.2,0.2,0.3,0.4,0.4c0.1,0.1,0.3,0.2,0.5,0.2
		s0.4,0.1,0.6,0c0.2,0,0.4-0.1,0.5-0.2c0.2-0.1,0.3-0.2,0.4-0.4c0.1-0.1,0.2-0.3,0.2-0.5s0-0.4,0-0.6C25.8,1.7,25.8,1.5,25.7,1.3"/>
	<polygon class="st1" points="29.8,0.4 27.7,0.4 27.7,1.6 29.6,1.6 29.6,2 27.7,2 27.8,3.5 27.4,3.5 27.3,0 29.8,0 	"/>
	<path class="st1" d="M35.4,4.3L35,4.2l-0.2-1L33,2.8l-0.6,0.8l-0.4,0l2.2-3.1l0.4,0.1L35.4,4.3z M34.3,1l-1.1,1.6l1.5,0.3L34.3,1z"
		/>
	<path class="st1" d="M39.2,4.5c-0.2,0.2-0.3,0.3-0.5,0.4C38.4,5,38.2,5,38,5s-0.5,0-0.7-0.1l-1.1-0.4l1.2-3.2l1.1,0.4
		c0.1,0,0.4,0.2,0.5,0.3c0.2,0.2,0.3,0.3,0.4,0.5c0.1,0.2,0.2,0.4,0.2,0.6c0,0.2,0,0.5-0.1,0.7C39.4,4.1,39.3,4.3,39.2,4.5
		 M39.2,3.2c0-0.2,0-0.3-0.1-0.5s-0.2-0.3-0.3-0.4c-0.1-0.1-0.3-0.2-0.5-0.3l-0.8-0.3l-0.9,2.6l0.8,0.3c0.2,0.1,0.4,0.1,0.6,0.1
		c0.2,0,0.4,0,0.5-0.1c0.2-0.1,0.3-0.2,0.4-0.3C39,4.1,39.1,4,39.1,3.8C39.2,3.6,39.2,3.4,39.2,3.2"/>
	<path class="st1" d="M42.8,6.4c-0.2,0.1-0.4,0.2-0.6,0.3c-0.2,0.1-0.4,0.1-0.7,0c-0.2,0-0.5-0.1-0.7-0.2l-1-0.6l1.7-3l1,0.6
		c0.2,0.1,0.4,0.3,0.6,0.5c0.2,0.2,0.3,0.4,0.3,0.6c0.1,0.2,0.1,0.4,0.1,0.7c0,0.2-0.1,0.4-0.2,0.7C43.1,6,42.9,6.2,42.8,6.4
		 M43,5.1c0-0.2,0-0.4,0-0.5c0-0.2-0.1-0.3-0.3-0.5c-0.1-0.1-0.3-0.3-0.5-0.4l-0.7-0.4l-1.3,2.4l0.7,0.4c0.2,0.1,0.4,0.2,0.6,0.2
		c0.2,0,0.4,0,0.5,0c0.2,0,0.3-0.1,0.5-0.2c0.1-0.1,0.3-0.3,0.3-0.4C42.9,5.5,43,5.3,43,5.1"/>
	<rect x="42.5" y="6.4" transform="matrix(0.5724 -0.82 0.82 0.5724 13.4997 39.119)" class="st1" width="3.5" height="0.4"/>
	<path class="st1" d="M46.6,10.3c-0.1,0-0.2,0-0.4-0.1c-0.1,0-0.2-0.1-0.4-0.1c-0.1-0.1-0.2-0.1-0.4-0.2c-0.2-0.2-0.3-0.3-0.4-0.6
		c-0.1-0.2-0.2-0.4-0.2-0.6c0-0.2,0-0.4,0.1-0.7c0.1-0.2,0.2-0.4,0.4-0.6s0.3-0.3,0.6-0.4c0.2-0.1,0.4-0.2,0.6-0.2
		c0.2,0,0.4,0,0.7,0.1c0.2,0.1,0.4,0.2,0.6,0.4c0.1,0.1,0.2,0.2,0.3,0.3c0.1,0.1,0.1,0.2,0.2,0.3c0.1,0.1,0.1,0.2,0.1,0.3
		s0,0.2,0.1,0.3h-0.4c0-0.2-0.1-0.4-0.1-0.6c-0.1-0.2-0.2-0.3-0.4-0.5c-0.1-0.1-0.3-0.2-0.5-0.3c-0.2-0.1-0.3-0.1-0.5,0
		c-0.2,0-0.3,0.1-0.5,0.2s-0.3,0.2-0.4,0.4c-0.1,0.2-0.2,0.3-0.3,0.5s-0.1,0.4-0.1,0.5c0,0.2,0,0.3,0.1,0.5s0.2,0.3,0.3,0.4
		c0.2,0.2,0.4,0.3,0.5,0.3c0.2,0,0.4,0.1,0.6,0.1v0.4C46.8,10.3,46.7,10.3,46.6,10.3"/>
	<polygon class="st1" points="47.9,12.2 47.7,11.9 50,9.9 49.2,9 49.5,8.7 51.3,10.8 51,11 50.2,10.1 	"/>
	<rect x="49" y="12.7" transform="matrix(0.8086 -0.5884 0.5884 0.8086 2.141 32.3171)" class="st1" width="3.5" height="0.4"/>
	<path class="st1" d="M52.6,17.2c-0.2,0-0.5,0-0.7,0c-0.2-0.1-0.4-0.2-0.6-0.3c-0.2-0.1-0.4-0.3-0.5-0.6c-0.1-0.2-0.2-0.5-0.2-0.7
		s0-0.5,0.1-0.7s0.2-0.4,0.3-0.6c0.1-0.2,0.3-0.3,0.5-0.4c0.2-0.1,0.4-0.2,0.7-0.2c0.2,0,0.5,0,0.7,0c0.2,0.1,0.4,0.2,0.6,0.3
		c0.2,0.1,0.4,0.3,0.5,0.6c0.1,0.2,0.2,0.5,0.2,0.7s0,0.5-0.1,0.7c-0.1,0.2-0.2,0.4-0.3,0.6s-0.3,0.3-0.5,0.4
		C53,17.1,52.8,17.2,52.6,17.2 M53.5,16.3c0.1-0.1,0.2-0.3,0.3-0.5s0.1-0.3,0.1-0.5s-0.1-0.4-0.2-0.5c-0.1-0.2-0.2-0.3-0.4-0.4
		c-0.1-0.1-0.3-0.2-0.5-0.2s-0.3,0-0.5,0s-0.4,0.1-0.5,0.2c-0.2,0.1-0.3,0.2-0.4,0.4c-0.1,0.1-0.2,0.3-0.3,0.5S51,15.6,51,15.8
		s0.1,0.4,0.2,0.5c0.1,0.2,0.2,0.3,0.4,0.4c0.1,0.1,0.3,0.2,0.5,0.2s0.3,0,0.5,0s0.4-0.1,0.5-0.2C53.2,16.6,53.3,16.5,53.5,16.3"/>
	<polygon class="st1" points="56.2,19.8 56.3,20.2 53.1,21.4 53,21.1 54.9,18 52.2,19 52.1,18.7 55.3,17.5 55.4,17.8 53.6,20.8 	"/>
	<polygon class="st1" points="54.9,25.4 54.9,25.4 56.5,23.9 53.8,24.3 53.7,23.9 57.1,23.5 57.2,23.9 55.5,25.3 57.5,26.4 
		57.6,26.7 54.1,27.2 54.1,26.8 56.9,26.4 	"/>
	<polygon class="st1" points="57.2,30.8 57.2,28.7 56.1,28.6 56,30.5 55.7,30.5 55.7,28.6 54.5,28.6 54.5,30.7 54.1,30.7 54.2,28.2 
		57.6,28.3 57.6,30.8 	"/>
	<path class="st1" d="M54.6,34.6c-0.2-0.1-0.4-0.3-0.5-0.5s-0.2-0.4-0.3-0.6c-0.1-0.2-0.1-0.5,0-0.8l0.2-1.2l3.4,0.6l-0.2,1.2
		c0,0.3-0.1,0.5-0.2,0.7c-0.1,0.2-0.3,0.4-0.5,0.5s-0.4,0.2-0.6,0.3c-0.2,0.1-0.5,0.1-0.7,0C55,34.8,54.8,34.7,54.6,34.6 M55.8,34.4
		c0.2,0,0.3-0.1,0.5-0.2c0.1-0.1,0.3-0.2,0.4-0.4c0.1-0.2,0.2-0.4,0.2-0.6l0.1-0.8L54.3,32l-0.1,0.8c0,0.2,0,0.4,0,0.6
		c0,0.2,0.1,0.4,0.2,0.5s0.2,0.3,0.4,0.4c0.2,0.1,0.3,0.2,0.5,0.2C55.5,34.5,55.7,34.4,55.8,34.4"/>
	<rect x="54.7" y="34.3" transform="matrix(0.2675 -0.9636 0.9636 0.2675 5.4579 79.2669)" class="st1" width="0.4" height="3.5"/>
	<path class="st1" d="M52.2,39.5c0-0.1-0.1-0.2-0.1-0.4c0-0.1,0-0.2,0-0.4c0-0.1,0.1-0.3,0.1-0.4c0.1-0.2,0.2-0.4,0.4-0.6
		c0.2-0.2,0.3-0.3,0.6-0.4c0.2-0.1,0.4-0.1,0.7-0.1c0.2,0,0.5,0,0.7,0.1s0.4,0.2,0.6,0.4c0.2,0.2,0.3,0.3,0.4,0.5
		c0.1,0.2,0.1,0.4,0.2,0.7c0,0.2,0,0.5-0.1,0.7c-0.1,0.1-0.1,0.3-0.2,0.4c-0.1,0.1-0.1,0.2-0.2,0.3c-0.1,0.1-0.2,0.2-0.3,0.2
		s-0.2,0.1-0.3,0.2l-0.2-0.4c0.2-0.1,0.3-0.2,0.5-0.3c0.1-0.1,0.3-0.3,0.3-0.5c0.1-0.2,0.1-0.4,0.1-0.5c0-0.2,0-0.3-0.1-0.5
		s-0.2-0.3-0.3-0.4c-0.1-0.1-0.3-0.2-0.5-0.3s-0.4-0.1-0.6-0.1c-0.2,0-0.4,0-0.5,0.1c-0.2,0.1-0.3,0.2-0.4,0.3
		c-0.1,0.1-0.2,0.3-0.3,0.5s-0.1,0.4-0.1,0.6c0,0.2,0.1,0.4,0.2,0.6l-0.3,0.1C52.2,39.7,52.2,39.6,52.2,39.5"/>
	<rect x="52.6" y="39.5" transform="matrix(0.4602 -0.8878 0.8878 0.4602 -8.1465 69.1747)" class="st1" width="0.4" height="3.5"/>
	<polygon class="st1" points="52.2,45.6 52,45.9 49.1,44 49.3,43.8 52.9,43.5 50.5,41.9 50.7,41.6 53.6,43.5 53.4,43.8 49.9,44.1 	
		"/>
	<polygon class="st1" points="49.1,48.7 50.5,47.2 49.6,46.4 48.4,47.8 48.1,47.6 49.4,46.2 48.5,45.4 47.1,46.9 46.8,46.7 
		48.5,44.8 51,47.1 49.4,49 	"/>
	<path class="st1" d="M17.7,50l1.3,0.5l0.1,7.8l-1.5-0.6V56l-2.8-1.1l-1.2,1.2l-1.5-0.6L17.7,50z M17.7,54.5V52L16,53.8L17.7,54.5z"
		/>
	<path class="st1" d="M20.8,57.7l1.1-0.9c0.5,0.6,1.1,1.1,1.9,1.2c0.6,0.1,1.1-0.1,1.1-0.5l0,0c0.1-0.4-0.1-0.6-1.3-1.1
		c-1.3-0.6-2.2-1.1-2-2.5l0,0c0.2-1.3,1.4-1.9,2.8-1.7c1,0.2,1.8,0.6,2.4,1.3l-1,1c-0.5-0.5-1.1-0.9-1.7-1s-0.9,0.1-1,0.5l0,0
		c-0.1,0.5,0.2,0.7,1.4,1.2c1.4,0.6,2.1,1.3,1.9,2.5l0,0c-0.2,1.4-1.4,2-2.9,1.7C22.6,59.1,21.5,58.6,20.8,57.7"/>
	<path class="st1" d="M30.4,52.5l1.4-0.1l3.7,6.8l-1.6,0.1l-0.8-1.5l-3,0.3l-0.5,1.6L28,59.9L30.4,52.5z M32.4,56.5l-1.2-2.2
		l-0.7,2.4L32.4,56.5z"/>
	<polygon class="st1" points="35.1,52 36.6,51.3 39.6,53.2 40,49.7 41.5,49 44.5,55.4 43.1,56 41.1,51.9 40.6,55.5 40.6,55.5 
		37.5,53.6 39.5,57.8 38.1,58.4 	"/>
	<path class="st1" d="M23.3,48.6c1.5-1.9,2.1-3,6-3.3c1.8-0.1,1.9,0,2.6-0.1c3.4-0.4,3.2-1.6,3.4-2c0-2-3.7-1.9-5.7-2v-2.3
		c4.7,0.2,7.5,0.4,7.9,3.9c-0.1,3.7-3.6,4.1-5.5,4.2c-1.2,0-2.5-0.3-2.8-0.3c-1.7,0-4.6,1.1-5.2,1.6L23.3,48.6z"/>
	<path class="st1" d="M27,39v2.1c-7.1,0-8.8-3.6-8.8-5.3c0.4-3.2,3.5-4.1,6-4.4c5.2-0.6,7.8-1,10.5-1.9c2.3-0.9,1.5-2.9,0-3.4
		c-1.7-0.5-3.7-0.6-4.6-0.5l0.1-3c5.3,0.2,8.5,1.2,9.9,3.8c0.6,2.2-0.6,4.7-3.9,5.6c-4.9,0.8-10.7,1.6-11.4,1.7
		c-3.5,0.8-3.3,3.6-1.6,4.3c1.6,0.9,2.3,0.8,3.5,1H27z"/>
	<path class="st1" d="M26.7,22v3.1c-4-0.3-6.4-2.8-6.5-2.9c-2.1-2-3.4-4.5-0.9-7.2c2.5-1.6,4.3-2.1,7-2.2c3.3,0.1,6.4,1.6,6.6,1.7
		c0.3,0.1,0.1,0.3,0,0.4c-0.8,0.6-1.8,1.2-2,1.3l-0.1,0.2c0.7,0.2,1.3,0.5,1.4,0.6c-1.4,0.8-4.5,0.6-4.7,0.5
		c-1.1-0.2-2.6-1.1-2.8-1.2c-1.2-0.2-2.8,0.6-3,1.4c-0.3,1.2-0.5,2.9,2.5,3.6L26.7,22z"/>
	<path class="st1" d="M27,12.3c1.5,0.2,2.9,0.4,3.2,0.5v-1.5c0.5-1.1,1.7-1.6,2.1-1.6c-1.2-0.8-2.6-0.7-3.6,0
		c-2.2-0.9-2.9-0.4-4,0.1c1.7,0.4,2.2,1.1,2.3,1.6L27,12.3z"/>
	<path class="st1" d="M27.1,17.9c1.2,0.3,2.3,0.2,2.8,0.2l-0.5,12.2l-2,0.3L27.1,17.9z"/>
	<path class="st1" d="M27.5,33.6l1.8-0.2l-0.5,11.4c-0.3,0-1.1,0.1-1.2,0.2L27.5,33.6z"/>
	<path class="st1" d="M27.8,47.2c0.2-0.1,0.8-0.2,0.9-0.2l-0.1,2.5c-0.1,0.5-0.7,0.5-0.8,0V47.2z"/>
	<polygon class="st1" points="8.2,27 6.8,27 6.8,27.8 8,27.8 8,28.1 6.8,28.1 6.8,29 6.6,29 6.6,26.8 8.2,26.8 	"/>
	<path class="st1" d="M10.9,28.4c-0.1,0.1-0.1,0.3-0.2,0.4c-0.1,0.1-0.2,0.2-0.4,0.3c-0.1,0.1-0.3,0.1-0.5,0.1s-0.3,0-0.5-0.1
		C9.2,29,9,29,8.9,28.8c-0.1-0.1-0.2-0.2-0.2-0.4c-0.1-0.1-0.1-0.3-0.1-0.4c0-0.2,0-0.3,0.1-0.4s0.1-0.3,0.2-0.4
		C9,27.1,9.1,27,9.3,26.9c0.1-0.1,0.3-0.1,0.5-0.1s0.3,0,0.5,0.1c0.1,0.1,0.3,0.1,0.4,0.3c0.1,0.1,0.2,0.2,0.2,0.4
		C11,27.7,11,27.9,11,28S11,28.2,10.9,28.4 M10.7,27.6c0-0.1-0.1-0.2-0.2-0.3c-0.1-0.1-0.2-0.1-0.3-0.2C10.1,27,10,27,9.9,27
		s-0.2,0-0.4,0.1c-0.1,0-0.2,0.1-0.3,0.2S9.1,27.5,9,27.6c0,0.1,0,0.2,0,0.3s0,0.2,0.1,0.4c0,0.1,0.1,0.2,0.2,0.3
		c0.1,0.1,0.2,0.1,0.3,0.2c0.1,0,0.2,0.1,0.4,0.1c0.1,0,0.2,0,0.4-0.1c0.1,0,0.2-0.1,0.3-0.2s0.1-0.2,0.2-0.3c0-0.1,0.1-0.2,0.1-0.4
		C10.8,27.8,10.7,27.7,10.7,27.6"/>
	<path class="st1" d="M13.6,28.1c0,0.2,0,0.3-0.1,0.4c0,0.1-0.1,0.2-0.2,0.3c0,0.1-0.1,0.2-0.3,0.2c-0.1,0-0.2,0.1-0.4,0.1
		c-0.1,0-0.3,0-0.4-0.1c-0.1,0-0.2-0.1-0.3-0.2s-0.1-0.2-0.2-0.3c0-0.1-0.1-0.3-0.1-0.4v-1.3H12v1.3c0,0.2,0.1,0.4,0.2,0.6
		c0.1,0.1,0.3,0.2,0.5,0.2s0.4-0.1,0.5-0.2s0.2-0.3,0.2-0.6v-1.3h0.3L13.6,28.1L13.6,28.1z"/>
	<polygon class="st1" points="16,26.8 16.3,26.8 16.3,29 16.1,29 14.7,27.2 14.7,29 14.4,29 14.4,26.8 14.6,26.8 16,28.6 	"/>
	<path class="st1" d="M19,28.4c-0.1,0.1-0.1,0.3-0.2,0.4S18.6,29,18.4,29s-0.3,0-0.5,0h-0.8v-2.2h0.8c0.2,0,0.3,0,0.5,0.1
		c0.1,0.1,0.3,0.1,0.4,0.2s0.2,0.2,0.2,0.4c0.1,0.1,0.1,0.3,0.1,0.4C19.1,28.1,19.1,28.2,19,28.4 M18.8,27.6c0-0.1-0.1-0.2-0.2-0.3
		c-0.1-0.1-0.2-0.1-0.3-0.2c-0.1,0-0.2-0.1-0.4-0.1h-0.5v1.8h0.5c0.1,0,0.3,0,0.4-0.1c0.1,0,0.2-0.1,0.3-0.2
		c0.1-0.1,0.1-0.2,0.2-0.3c0-0.1,0.1-0.2,0.1-0.3C18.8,27.8,18.8,27.7,18.8,27.6"/>
	<polygon class="st1" points="21.5,27 20.1,27 20.1,27.8 21.3,27.8 21.3,28 20.1,28 20.1,28.8 21.5,28.8 21.5,29 19.8,29 19.8,26.8 
		21.5,26.8 	"/>
	<path class="st1" d="M24.1,28.4c-0.1,0.1-0.1,0.3-0.2,0.4S23.7,29,23.5,29c-0.2,0-0.4,0-0.5,0h-0.8v-2.2H23c0.2,0,0.3,0,0.5,0.1
		c0.1,0.1,0.3,0.1,0.4,0.2s0.2,0.2,0.2,0.4c0.1,0.1,0.1,0.3,0.1,0.4C24.2,28.1,24.1,28.2,24.1,28.4 M23.8,27.6
		c0-0.1-0.1-0.2-0.2-0.3c-0.1-0.1-0.2-0.1-0.3-0.2c-0.1,0-0.2-0.1-0.4-0.1h-0.5v1.8H23c0.1,0,0.3,0,0.4-0.1c0.1,0,0.2-0.1,0.3-0.2
		c0.1-0.1,0.1-0.2,0.2-0.3c0-0.1,0.1-0.2,0.1-0.3C23.9,27.8,23.9,27.7,23.8,27.6"/>
	<polygon class="st1" points="42.5,26.8 42.7,26.8 42.7,29 42.4,29 42.4,27 42,27.2 42,27 	"/>
	<path class="st1" d="M45,28.3c0,0.1-0.1,0.3-0.2,0.4c-0.1,0.1-0.2,0.2-0.3,0.3c-0.1,0.1-0.2,0.1-0.4,0.1c-0.1,0-0.3,0-0.4-0.1
		c-0.1-0.1-0.2-0.1-0.3-0.2l0.1-0.2c0.1,0.1,0.2,0.1,0.3,0.2c0.1,0,0.2,0.1,0.3,0.1s0.2,0,0.3-0.1c0.1,0,0.2-0.1,0.2-0.2
		c0.1-0.1,0.1-0.2,0.1-0.3c0-0.1,0-0.3,0-0.4c-0.1,0.1-0.1,0.2-0.2,0.3c-0.1,0.1-0.2,0.1-0.4,0.1c-0.1,0-0.2,0-0.3-0.1
		c-0.1,0-0.2-0.1-0.2-0.1c-0.1-0.1-0.1-0.1-0.2-0.2c0-0.1-0.1-0.2-0.1-0.3c0-0.1,0-0.2,0.1-0.3c0-0.1,0.1-0.2,0.2-0.2
		c0.1-0.1,0.2-0.1,0.3-0.2c0.1,0,0.2-0.1,0.3-0.1s0.2,0,0.3,0.1c0.1,0,0.2,0.1,0.3,0.2l0.1,0.1c0,0.1,0.1,0.1,0.1,0.2s0,0.1,0.1,0.2
		c0,0.1,0,0.2,0,0.3C45.1,28,45.1,28.2,45,28.3 M44.7,27.3c0-0.1-0.1-0.1-0.1-0.2c0,0-0.1-0.1-0.2-0.1c-0.1,0-0.1,0-0.2,0
		c-0.1,0-0.2,0-0.2,0c-0.1,0-0.1,0.1-0.2,0.1c0,0-0.1,0.1-0.1,0.2s0,0.1,0,0.2s0,0.1,0,0.2s0.1,0.1,0.1,0.2c0,0,0.1,0.1,0.2,0.1
		c0.1,0,0.1,0,0.2,0c0.1,0,0.2,0,0.2,0c0.1,0,0.1-0.1,0.2-0.1c0,0,0.1-0.1,0.1-0.2s0-0.1,0-0.2C44.8,27.4,44.8,27.4,44.7,27.3"/>
	<path class="st1" d="M45.9,26.8h1.3V27h-1.1v0.7c0.1,0,0.1-0.1,0.2-0.1c0.1,0,0.1,0,0.2,0c0.1,0,0.2,0,0.3,0s0.2,0.1,0.2,0.1
		c0.1,0.1,0.1,0.1,0.2,0.2c0,0.1,0.1,0.2,0.1,0.3c0,0.1,0,0.2-0.1,0.3c0,0.1-0.1,0.2-0.2,0.2c-0.1,0.1-0.2,0.1-0.3,0.2
		c-0.1,0-0.2,0.1-0.3,0.1c-0.2,0-0.3,0-0.4-0.1c-0.1-0.1-0.3-0.2-0.4-0.3l0.2-0.2c0.1,0.1,0.2,0.2,0.3,0.2c0.1,0.1,0.2,0.1,0.3,0.1
		s0.2,0,0.2,0c0.1,0,0.1-0.1,0.2-0.1c0,0,0.1-0.1,0.1-0.2s0-0.1,0-0.2s0-0.1,0-0.2s-0.1-0.1-0.1-0.1s-0.1-0.1-0.2-0.1
		c-0.1,0-0.1,0-0.2,0c-0.1,0-0.2,0-0.3,0c0,0.1-0.1,0.2-0.1,0.2l-0.2-0.1L45.9,26.8z"/>
	<path class="st1" d="M49.3,26.8v1.5h0.3v0.2h-0.3V29H49v-0.5h-1.2l-0.1-0.2l1.3-1.5H49.3z M49,27.1l-0.9,1.2H49V27.1z"/>
	<rect x="0.4" y="33.5" transform="matrix(0.9837 -0.1797 0.1797 0.9837 -6.0214 0.935)" class="st1" width="3.5" height="0.4"/>
	<path class="st1" d="M3.1,29.5c0.1,0.1,0.2,0.2,0.2,0.3c0.1,0.1,0.1,0.2,0.2,0.3c0,0.1,0.1,0.3,0.1,0.4c0,0.2,0,0.5-0.1,0.7
		s-0.2,0.4-0.3,0.6C3,32,2.8,32.1,2.6,32.2c-0.2,0.1-0.4,0.2-0.7,0.2c-0.2,0-0.5,0-0.7-0.1c-0.2,0-0.4-0.1-0.6-0.3s-0.3-0.3-0.4-0.5
		S0,31.1,0,30.8c0-0.2,0-0.3,0-0.4s0-0.2,0.1-0.4c0-0.1,0.1-0.2,0.1-0.3c0.1-0.1,0.1-0.2,0.2-0.3l0.3,0.2c-0.1,0.2-0.2,0.3-0.3,0.5
		s-0.1,0.4-0.1,0.6s0.1,0.4,0.1,0.5c0.1,0.2,0.2,0.3,0.3,0.4C1,31.8,1.1,31.9,1.3,32c0.2,0,0.4,0,0.6,0s0.4-0.1,0.6-0.1
		c0.2-0.1,0.3-0.2,0.4-0.3c0.1-0.1,0.2-0.3,0.3-0.4c0.1-0.2,0.1-0.3,0.1-0.5s-0.1-0.4-0.2-0.6c-0.1-0.2-0.2-0.3-0.4-0.5l0.2-0.3
		C3,29.3,3,29.4,3.1,29.5"/>
	<path class="st1" d="M4.2,34.9l-1,1.3l0.3,0.9l1.3-0.4l0.1,0.4l-3.3,1l-0.4-1.4C1,36.5,1,36.3,1,36.2c0-0.2,0-0.3,0.1-0.4
		c0.1-0.1,0.1-0.2,0.2-0.3s0.2-0.2,0.4-0.2c0.1,0,0.3-0.1,0.4,0c0.1,0,0.2,0,0.3,0.1s0.2,0.1,0.3,0.2c0.1,0.1,0.2,0.2,0.2,0.3
		L4,34.4L4.2,34.9z M1.4,35.9c-0.1,0.2-0.1,0.4,0,0.7l0.3,1L3,37.2l-0.3-1c0-0.1-0.1-0.2-0.1-0.3c-0.1-0.1-0.1-0.2-0.2-0.2
		c-0.1-0.1-0.2-0.1-0.3-0.1s-0.2,0-0.3,0C1.6,35.6,1.5,35.7,1.4,35.9"/>
</g>
</svg>
