<svg width="135" height="29" viewBox="0 0 135 29" fill="none" xmlns="http://www.w3.org/2000/svg">
<g clip-path="url(#clip0_17_25)">
<path d="M0.458374 12.0462C0.458374 6.02307 5.50082 1.11538 11.6893 1.11538C13.5229 1.11538 15.3565 1.56154 16.9609 2.45384V7.80769C15.8149 6.46923 13.9813 5.57692 11.6893 5.57692C8.02204 5.57692 5.04241 8.47692 5.04241 12.0462C5.04241 15.8385 8.02204 18.5154 11.6893 18.5154C13.9813 18.5154 15.8149 17.6231 16.9609 16.2846V21.6385C15.3565 22.5308 13.5229 22.9769 11.6893 22.9769C5.50082 22.9769 0.458374 18.0692 0.458374 12.0462ZM26.5874 19.1846C28.6502 19.1846 30.2546 17.4 30.2546 15.1692C30.2546 12.9385 28.6502 11.1538 26.5874 11.1538C24.5246 11.1538 22.9202 12.7154 22.9202 15.1692C22.691 17.6231 24.2954 19.1846 26.5874 19.1846ZM30.0254 7.80769H34.6095V22.7538H30.0254V21.1923C29.1086 22.3077 27.5042 23.2 25.4414 23.2C21.3158 23.2 18.1069 19.8538 18.1069 15.3923C18.1069 10.9308 21.3158 7.58461 25.4414 7.58461C27.5042 7.58461 29.1086 8.47692 30.0254 9.5923V7.80769ZM44.6944 19.1846C46.7572 19.1846 48.3616 17.4 48.3616 15.1692C48.3616 12.9385 46.7572 11.1538 44.6944 11.1538C42.6315 11.1538 41.0271 12.7154 41.0271 15.1692C41.0271 17.6231 42.6315 19.1846 44.6944 19.1846ZM45.8404 7.36154C49.966 7.36154 53.1748 10.7077 53.1748 15.1692C53.1748 19.6308 49.966 22.9769 45.8404 22.9769C43.7776 22.9769 41.9439 22.0846 41.2563 20.9692V28.5538H36.6723V7.80769H41.2563V9.36923C41.9439 8.47692 43.5484 7.36154 45.8404 7.36154ZM67.1562 14.9461L59.1341 0.669228L52.4872 22.7538H57.3005L60.5093 11.6L67.1562 23.4231L73.5738 11.6L77.0118 22.7538H81.8251L75.1782 0.669228L67.1562 14.9461ZM92.5976 13.8308C92.3684 12.4923 91.2224 11.1538 89.1596 11.1538C87.3259 11.1538 86.1799 12.0461 85.4923 13.8308H92.5976ZM89.1596 7.36154C94.4312 7.36154 97.4108 11.3769 96.9524 16.5077H85.4923C85.9507 18.2923 87.3259 19.4077 89.1596 19.4077C90.764 19.4077 91.6808 18.9615 92.3684 17.8461H96.7232C95.8064 21.1923 92.8268 22.9769 89.1596 22.9769C84.8047 22.9769 81.1375 19.6308 81.1375 15.1692C81.1375 10.7077 84.8047 7.36154 89.1596 7.36154ZM102.912 17.1769V11.3769H106.808V7.80769H102.912V4.23846H98.3276V7.80769V11.3769V17.6231C98.3276 21.1923 100.849 22.9769 104.058 22.9769C105.204 22.9769 106.35 22.7538 107.037 22.3077V18.5154C106.35 18.9615 105.662 19.1846 104.974 19.1846C103.599 19.1846 102.912 18.5154 102.912 17.1769ZM113.226 9.81538V7.80769H108.642V22.7538H113.226V15.6154C113.226 12.7154 115.289 11.6 118.039 12.0462V7.58461C115.747 7.36154 114.143 8.47692 113.226 9.81538ZM126.29 19.1846C128.353 19.1846 129.958 17.6231 129.958 15.1692C129.958 12.9385 128.353 11.1538 126.29 11.1538C124.227 11.1538 122.623 12.7154 122.623 15.1692C122.623 17.6231 124.227 19.1846 126.29 19.1846ZM126.29 7.36154C130.874 7.36154 134.542 10.7077 134.542 15.1692C134.542 19.6308 130.874 22.9769 126.29 22.9769C121.935 22.9769 118.039 19.6308 118.039 15.1692C118.039 10.7077 121.935 7.36154 126.29 7.36154Z" fill="#0069A7"/>
</g>
<defs>
<clipPath id="clip0_17_25">
<rect width="135" height="29" fill="white"/>
</clipPath>
</defs>
</svg>
