<?xml version="1.0" encoding="UTF-8"?>
<svg xmlns="http://www.w3.org/2000/svg" version="1.1" xmlns:xlink="http://www.w3.org/1999/xlink" viewBox="0 0 683.9 363.8">
  <defs>
    <style>
      .cls-1, .cls-2 {
        fill: #ee2e2c;
      }

      .cls-1, .cls-3, .cls-4, .cls-5 {
        fill-rule: evenodd;
      }

      .cls-3 {
        fill: #fff;
      }

      .cls-4 {
        fill: #816d6a;
      }

      .cls-5 {
        fill: url(#radial-gradient);
      }
    </style>
    <radialGradient id="radial-gradient" cx="157" cy="114.3" fx="157" fy="114.3" r="84.9" gradientUnits="userSpaceOnUse">
      <stop offset="0" stop-color="#fff"/>
      <stop offset=".5" stop-color="#b2b4b7"/>
      <stop offset=".9" stop-color="#816d6a"/>
    </radialGradient>
  </defs>
  <!-- Generator: Adobe Illustrator 28.7.1, SVG Export Plug-In . SVG Version: 1.2.0 Build 142)  -->
  <g>
    <g id="Layer_1">
      <g>
        <path class="cls-3" d="M106,175.5c15.3,10.7,32.6,18.1,50.4,21.3,5.2.9,10.6,1.5,15.9,1.7,14.5,7.9,37.8,8.9,44.5,8.9s14.3-.7,21.4-1.9c5.8,6,24.9,13.3,49.4,13.3s5.9-.1,8.8-.3c29.1-2.1,42.9-21.8,44.6-33.8,1.6-10.4-1.2-19.6-8.1-26.3,18.6,0,29.9-10.6,36-20.4,6.1-9.8,8.1-21.4,5.5-32.7-2.2-9.6-7.7-18.2-15.4-24.3-7.6-5.9-17.2-9.2-26.7-9.2s-6.6.4-9.8,1.1c-23.3,5.4-37.9,28.7-32.4,51.9.8,3.5,2,6.9,3.6,10-1.9-1.1-4-1.9-6.1-2.6-9.3-3.1-20.5.2-27.2,4.6,1.8-7.2,2.8-14.7,2.8-22.4s-.6-12.8-1.9-19.3c12-5.5,23.3-16.6,25-31.7,1.2-10.8-2-21.4-8.9-29.8-6.9-8.4-16.7-14.1-27.7-14.9-14.9-1.1-25.3,3.7-32.9,10.7-8.1-6-30.7-20.4-62.3-20-13.6.2-26.8,1.5-44.5,8.9C103.8,7.3,90.5,0,75.2,0s-38.4,15.5-40.7,36.1c-1.6,14.5,7.2,28,17.4,36-.2,2.2-.2,4.5-.2,6.7,0,4.8.3,8.9,1,13.7-1.9,8.5-3.6,27.3,4.4,47.5,8.4,21.3,25.7,32.5,49,35.5Z"/>
        <path class="cls-4" d="M100.5,167.3c-4.9-4-9.6-8.3-13.9-13-13-14.1-22.6-30.7-27.5-47.9-.4-1.4-.8-2.8-1.1-4.1,0-.3-.2-.4-.4-.4s-.4.2-.4.5h0c-.3,7.7.5,15.5,2.4,23.4.3,1.4.7,2.8,1.1,4.2.8,2.6,1.6,5,2.6,7.5,7.4,17,22,28.7,37,30.7h0c.2,0,.3,0,.4-.2.1-.2,0-.4-.1-.6h0Z"/>
        <path class="cls-5" d="M332.9,84.6c-.9,0-1.9,0-2.8,0-1.6,0-3.2.3-4.7.7-7.9,1.8-14.7,6.6-19,13.5-4.3,6.9-5.7,15.1-3.8,23,3.2,13.8,15.1,23.3,29,23.6.9,0,1.8,0,2.8,0,1.6,0,3.2-.3,4.7-.7,16.4-3.8,26.6-20.2,22.8-36.5-3.2-13.8-15.2-23.4-29-23.6ZM65.1,72.2c1.1.4,2.2.8,3.3,1.1-1.5,24.2,8.7,50.5,28.1,71.6,6.9,7.5,14.7,14.1,23.1,19.5,1.9-1.6,2.5-4,1.1-6.2h0c-6.1-11.6-8.2-25.8-4.6-39.4,2.3-8.6,6.5-15.8,11.9-21.2,6-6,13.4-8,21.4-8.1h2.4c1.6,0,3.3.2,4.9.3,10.8,1.3,20.4,4.4,26.4,13.7,4.1,6.5,6.7,14.4,7.1,23.3.6,14.1-4.5,27.5-12.9,37.3h0c-2.1,2.3-1.6,5.4.7,7.4l1.4,1.1c.9.6,1.9,1.2,2.9,1.8,5.8,3.2,12.4,4.4,19.1,3.9,8-2.6,15.4-6.5,21.8-11.6,10.6-8.5,17.8-19.7,21.3-33.1,3.4-12.8,3-27-.8-41.1,1.1,0,2.3,0,3.5-.2,2,7.5,3,15.1,3,22.5s-.8,13.2-2.5,19.5c-3.7,14.2-11.3,26-22.5,35-13.1,10.6-29.8,16.1-48.3,16.1s-11.6-.5-17.6-1.6c-24.3-4.4-47.5-17.4-65.2-36.6-18.8-20.3-29.1-45.5-29.1-69.3s0-3.9.2-5.8ZM76.1,6.6c1,0,2,0,3,.2,12.8,1.4,23.2,9.3,28.2,20,7.9-3.9,16.5-6.9,25.8-8.7,7-1.4,14.1-2.1,21.1-2.1,3.5,0,7,.2,10.4.5,10.3,1.3,20.6,4.1,30.4,8.4,8.3,3.6,15.8,8.1,22.5,13.3,6.6-8.4,17.1-13.5,28.5-13.1.9,0,1.9,0,2.9.2,19.2,2.1,32.7,18.9,30.7,37.5-1.6,14.3-13.9,24.6-26.1,28.3,2,7.8,3,15.7,3,23.4s-.9,14.4-2.7,21.2c-4,15.5-12.7,28.9-24.9,38.8-9.7,7.8-21,13-33.8,15.7l-4.2.9,3.9.9,4.1.8c6.1,1.1,12.2,1.6,18.4,1.6s16.2-1,24.1-2.8c.5-10.6,3.4-32.7,18.7-46.2,5.9-5.3,12.4-7.5,18.3-7.7h2.4c1.6,0,3.2.4,4.9.9,1.7.5,3.4,1.2,4.7,2.1l.7.4h.2c0,.1.4.3.4.3,1.5,1,2.9,2.2,4.3,3.5,1.2,1.2,2.2,2.4,3,3.7l.2.2.3.5c1.3,2.1,2.3,4.3,2.9,6.5,3.1-3.4,6-6.9,8.8-10.6-7.2-5-12.6-12.6-14.7-21.8-4.6-19.7,7.7-39.5,27.5-44,2.9-.7,5.9-1,8.8-1,16.5.2,31.3,11.6,35.2,28.5,4.6,19.7-7.8,39.5-27.5,44-6.3,1.5-12.7,1.2-18.5-.5l-.3-3.2c-.2-1.2-.7-1.9-1.4-2.1h-.5c-.6,0-1.2.5-1.8,1.3l-1,1.3c-4.3,6-9.1,11.6-14.2,16.6-.5,2.8-1.6,5.3-3.3,7.4,3.3-2.9,6.4-5.9,9.3-9,2.7-2.5,5.9-3.4,9.7-3.4s7.5,1.5,9.7,3.7c4.5,4.4,7.7,11,6.2,20.7-1.4,9.7-13.3,26.3-38.5,28.2-27.4,2-45.6-6.4-52.3-10.1-.2-.1-.3-.3-.2-.5,0-.1.1-.2.3-.3,11.9-2.8,23.6-7.5,34.6-13.9,5.8-3.4,11.4-7.3,16.6-11.5-2.4,1.3-5.2,2-8,2.1-20.8,14.9-45.4,23.2-70.2,23.2s-13-.6-19.4-1.7c-8.1-1.5-16-3.9-23.4-7.1h-.2c0,0-.1,0-.1,0-5.4-.1-10.8-.7-16-1.6-25.7-4.6-50-18.3-68.6-38.4-19.9-21.6-30.7-47.8-30.7-73.1s.2-6.6.5-9.8c-10.3-6.7-19.1-19.3-17.8-32.1,1.9-17.7,17.1-30.7,35-30.2ZM125.1,72c-2-2.3-5.1-3.4-8.3-3.2-3.3.2-6.8,1.5-9.7,4.1-5.9,5.1-7.5,13-3.5,17.7,1.7,1.9,4.1,3,6.8,3.2h1.6c1.1,0,2.2-.3,3.3-.6-2.2.2-4.4-.4-5.8-2-2.6-3-1.6-8,2.1-11.2,1.8-1.6,4-2.5,6-2.6.5,0,1,0,1.5,0l-1.2,3.5c-.5,1.4-.1,2.4.9,2.6h.7c.2,0,.5-.1.8-.2l4-1.4c.5,2.1,0,4.5-1.4,6.6,4.9-5.1,6-12.2,2.3-16.5ZM210.1,84c-3.2-4.2-7.7-6.5-11.8-6.5-2.1,0-4,.6-5.6,1.8-4.8,3.6-5.1,11.5-.6,17.8-1.8-3.6-1.3-7.7,1.4-9.7.9-.7,1.9-1.1,3-1.1h1.1c1.1,0,2.3.4,3.4,1.1l-1.5,4.1c-.5,1.4-.1,2.4.9,2.6h.7c.2,0,.5,0,.8-.2l3.7-1.3c1.5,3.5,1,7.3-1.5,9.2-1.6,1.2-3.6,1.4-5.6.9,3.9,1.9,8.1,1.9,11.2-.5,4.9-3.7,5.1-11.7.4-18Z"/>
        <g>
          <g>
            <rect class="cls-2" x="484.8" y="226.4" width="10.6" height="8.6"/>
            <path class="cls-1" d="M359.6,220.8h10.8l22.4,37.2c2.2,3.7,4.9,10,4.9,10h.2s-.6-6.2-.6-10v-37.2h10.7v64.4h-10.7l-22.4-37.1c-2.2-3.7-4.9-10-4.9-10h-.2s.6,6.2.6,10v37.1h-10.8v-64.4Z"/>
            <path class="cls-1" d="M437.4,256.2h1.4v-.6c0-6.1-3.5-8.2-8.2-8.2s-11.7,4.5-11.7,4.5l-4-8.3s6.6-5.7,16.7-5.7,17.7,6.7,17.7,18.4v28.9h-9.7v-3.8c0-1.8.2-3.3.2-3.3h-.2c0,0-3.3,8.2-12.9,8.2s-14.4-5.2-14.4-14.4c0-14.7,18.3-15.7,25.2-15.7ZM429.3,277.3c5.6,0,9.6-6.5,9.6-12.2v-1.1h-1.8c-5.4,0-14.2.8-14.2,7.3s2.1,6,6.4,6Z"/>
            <path class="cls-1" d="M457.7,248.8h-5.5v-9.1h5.8v-13.3h10.4v13.3h9.7v9.1h-9.7v17.9c0,7.6,5.5,8.7,8.4,8.7s1.9-.2,1.9-.2v10.1s-1.3.3-3.3.3c-5.9,0-17.7-1.9-17.7-17.4v-19.4Z"/>
            <rect class="cls-2" x="484.8" y="239" width="10.6" height="46.2"/>
            <path class="cls-1" d="M523,237.9c13,0,23.4,10.1,23.4,24.2s-10.4,24.2-23.3,24.2-23.5-10-23.5-24.2,10.4-24.2,23.4-24.2ZM523.1,276.5c6.8,0,12.6-5.8,12.6-14.4s-5.8-14.4-12.6-14.4-12.7,5.9-12.7,14.4,5.8,14.4,12.7,14.4Z"/>
            <path class="cls-1" d="M550.8,239h10.2v5.3c0,1.7-.2,3.2-.2,3.2h.2c1.8-3.9,6.5-9.6,15.1-9.6s14.7,5.3,14.7,17.6v29.7h-10.5v-27.4c0-5.6-1.3-9.4-6.7-9.4s-9.8,3.9-11.4,9.4c-.6,1.9-.8,4-.8,6.1v21.2h-10.6v-46.2Z"/>
            <path class="cls-1" d="M619.3,256.2h1.4v-.6c0-6.1-3.5-8.2-8.2-8.2s-11.7,4.5-11.7,4.5l-4-8.3s6.6-5.7,16.6-5.7,17.7,6.7,17.7,18.4v28.9h-9.8v-3.8c0-1.8.2-3.3.2-3.3h-.2c.1,0-3.2,8.2-12.9,8.2s-14.4-5.2-14.4-14.4c0-14.7,18.3-15.7,25.2-15.7ZM611.3,277.3c5.6,0,9.6-6.5,9.6-12.2v-1.1h-1.8c-5.4,0-14.2.8-14.2,7.3s2.1,6,6.4,6Z"/>
            <path class="cls-1" d="M637.5,220.8h10.5v48.2c0,5.1,1.6,6.4,4.3,6.4s1.6,0,1.6,0v10.1s-1.6.3-3.4.3c-5.8,0-13.1-1.6-13.1-14.9v-49.9Z"/>
          </g>
          <g>
            <path class="cls-1" d="M30.4,219.7c14.4,0,21.8,8.8,21.8,8.8l-5.2,8.7s-6.7-6.8-16.2-6.8-19.8,10.2-19.8,22.1,7.6,23,19.9,23,17.2-8.1,17.2-8.1l5.7,8.4s-8.2,10.4-23.3,10.4S0,271.7,0,252.7s13-33,30.4-33Z"/>
            <path class="cls-1" d="M58,220.8h10.6v22.3c0,2.3-.2,3.9-.2,3.9h.2c2.1-4.4,7.2-9.1,14.7-9.1s14.8,5.3,14.8,17.6v29.8h-10.5v-27.4c0-5.6-1.3-9.4-6.8-9.4s-9.9,4-11.5,9.6c-.5,1.8-.7,3.8-.7,6v21.2h-10.6v-64.4Z"/>
            <rect class="cls-2" x="104.9" y="238.9" width="10.6" height="46.2"/>
            <rect class="cls-2" x="104.9" y="226.4" width="10.6" height="8.7"/>
            <path class="cls-1" d="M122.4,220.8h10.5v48.2c0,5.1,1.6,6.3,4.3,6.3s1.6,0,1.6,0v10.1s-1.6.3-3.4.3c-5.8,0-13.1-1.6-13.1-14.9v-49.9Z"/>
            <path class="cls-1" d="M158.8,237.9c9.3,0,12.2,5.9,12.2,5.9h.2s0-1.2,0-2.6v-20.3h10.6v64.4h-10v-3.8c0-1.7.2-3,.2-3h-.2s-3.6,7.9-13.3,7.9-18.9-9.9-18.9-24.2,8-24.2,19.3-24.2ZM160.8,276.6c5.5,0,10.7-4.4,10.7-14.6s-3.5-14.2-10.6-14.2-10.7,5.2-10.7,14.3,4.3,14.5,10.6,14.5Z"/>
            <path class="cls-1" d="M189.3,238.9h10.2v8c0,1.7-.2,3.3-.2,3.3h.2c1.9-6.6,7-11.9,13.5-11.9s1.9.2,1.9.2v11.3s-1.1-.2-2.5-.2c-4.5,0-9.6,2.8-11.6,9.7-.7,2.3-.9,4.8-.9,7.5v18.3h-10.6v-46.2Z"/>
            <path class="cls-1" d="M236.5,237.9c12.2,0,18.8,9.7,18.8,21.9s-.3,4.4-.3,4.4h-29.3c.7,8.1,6.4,12.2,12.8,12.2s12.2-5.1,12.2-5.1l4.1,8.3s-6.5,6.6-17.1,6.6-22.8-11-22.8-24.2,8.9-24.2,21.6-24.2ZM244.6,256.4c-.2-6.2-3.7-9.6-8.4-9.6s-9.2,3.6-10.2,9.6h18.6Z"/>
            <path class="cls-1" d="M259.9,238.9h10.2v5.4c0,1.7-.2,3.2-.2,3.2h.2c1.8-3.9,6.5-9.6,15.1-9.6s14.8,5.3,14.8,17.6v29.8h-10.5v-27.4c0-5.6-1.3-9.4-6.7-9.4s-9.8,3.9-11.5,9.4c-.6,1.9-.8,4-.8,6.2v21.2h-10.6v-46.2Z"/>
            <path class="cls-1" d="M311.9,271.4s4.7,5.1,11.6,5.1,5.6-1.5,5.6-4.2c0-6.9-20.7-6-20.7-20.9s7.1-13.6,16.3-13.6,14.3,5.3,14.3,5.3l-4,8.5s-3.9-4-10.4-4-5.4,1.3-5.4,4.2c0,6.5,20.7,5.7,20.7,20.6s-6.2,13.9-16.2,13.9-16.5-6.8-16.5-6.8l4.8-8.1Z"/>
            <path class="cls-1" d="M303.8,239.1v-12.8h9.1s0,10.2-9.1,12.8Z"/>
          </g>
          <g>
            <polygon class="cls-1" points="668.2 276.9 664.6 276.9 664.6 276 672.8 276 672.8 276.9 669.2 276.9 669.2 286 668.2 286 668.2 276.9"/>
            <path class="cls-1" d="M674.8,276h1l2.6,5.9.5,1.2h0l.5-1.2,2.6-5.9h1l.8,10h-1l-.6-7c0-.5,0-1.4,0-1.4h0s-.3.9-.5,1.4l-2.3,5.1h-.9l-2.3-5.1c-.2-.5-.5-1.4-.5-1.4h0s0,.9,0,1.4l-.6,7h-1l.8-10Z"/>
          </g>
        </g>
        <path class="cls-4" d="M122.8,88.5c-1.9,1.8-4.7,3.9-7.5,4.7-2.2.2-4.4-.4-5.8-2-2.6-3-1.6-8,2.1-11.2,1.8-1.6,4-2.5,6-2.6.5,0,1,0,1.5,0l-1.2,3.5c-.5,1.4-.1,2.4.9,2.6h.7c.2,0,.5-.1.8-.2l4-1.4c.5,2.1,0,4.5-1.4,6.6Z"/>
        <path class="cls-4" d="M204.1,101.6c-1.6,1.2-3.6,1.4-5.6.9-1.5-.7-4.5-2.8-6.4-5.4-1.8-3.6-1.3-7.7,1.4-9.7.9-.7,1.9-1.1,3-1.1h1.1c1.1,0,2.3.4,3.4,1.1l-1.5,4.1c-.5,1.4-.1,2.4.9,2.6h.7c.2,0,.5,0,.8-.2l3.7-1.3c1.5,3.5,1,7.3-1.5,9.2Z"/>
        <path class="cls-4" d="M172.2,144.6c-.4-.3-.8-.3-1.1,0-.2.2-1.1,1.2-1.6,1.4-1,.5-2.1.9-5.6.6-3.6-.2-8.2-3.3-9.3-4.4-1.1-1.1-1-2.3-.9-2.9,0-.4.4-6.1.8-7.9.4-1.5.6-2,.6-2.2h.2c4.5-.8,13.5-4.4,14.1-9.7.7-6.3-5.4-12-13.6-12.9-8.2-.9-15.4,3.5-16,9.7-.6,5.4,7.6,10.8,11.9,12.4h0c0,.2,0,.9,0,2.2,0,1.8-1,7.4-1.1,7.8,0,.5-.3,1.8-1.6,2.5-1.4.8-6.6,2.6-10.1,2-3.5-.7-4.5-1.2-5.3-2-.4-.4-1-1.5-1.2-1.8-.2-.3-.6-.5-1.1-.3-.5.3-.5,1-.5,1.5,0,.4.6,6.5,6.8,7.2,7.2.9,12-3.2,13.7-5,0,0,.2-.3.5-.2.2,0,.3.2.4.3,1.2,2.1,4.7,7.3,12.1,8.2,6.2.8,8.2-5,8.4-5.4.1-.4.3-1.2-.2-1.5Z"/>
        <g>
          <path class="cls-2" d="M358.8,318h4.9v15.5h18.3v-15.5h4.9v35.3h-4.9v-15.5h-18.3v15.5h-4.9v-35.3Z"/>
          <path class="cls-2" d="M401.9,327.4c7.1,0,10.9,5.3,10.9,11.8s-.1,1.3-.2,2h-18.4c.2,5.4,4.1,8.4,8.7,8.4s5.4-1.2,7.4-3l2,3.5c-2.4,2.2-6.3,3.6-9.8,3.6-7.9,0-13.4-5.7-13.4-13.2s5.5-13.2,12.7-13.2ZM408,337.8c-.1-4.3-2.8-6.6-6.1-6.6s-6.7,2.4-7.4,6.6h13.5Z"/>
          <path class="cls-2" d="M430.7,337.5h1.3v-.5c0-4.1-2.4-5.5-5.5-5.5s-5,1-7.1,2.4l-1.9-3.5c2-1.7,5.9-3,9.4-3,6.3,0,10,3.5,10,9.9v16h-4.5v-2.5c0-1.1.1-2,.1-2h0c-1.4,2.9-4.5,5.1-8.3,5.1s-8.4-2.7-8.4-7.5c0-7.9,9.8-8.8,15.1-8.8ZM425.2,350c4.2,0,6.8-4.3,6.8-8v-1h-1.2c-3.6,0-10.3.3-10.3,4.9s1.6,4,4.7,4Z"/>
          <path class="cls-2" d="M440.1,318h4.8v27.5c0,3,1.2,3.6,2.7,3.6s.5,0,.9,0v4.3c-.4,0-.9.2-1.6.2-2.8,0-6.8-.8-6.8-7.2v-28.3Z"/>
          <path class="cls-2" d="M452.5,332.2h-3.3v-3.9h3.4v-7.2h4.7v7.2h6.1v3.9h-6.1v11.3c0,5,3.5,5.7,5.4,5.7s.7,0,1.2-.1v4.3c-.4,0-1,.2-1.7.2-3.2,0-9.7-1-9.7-9.5v-11.8Z"/>
          <path class="cls-2" d="M466.9,318h4.8v13.1c0,1.2-.2,2.1-.2,2.1h.1c1.1-2.4,4.4-5.8,9.5-5.8s8.6,3.2,8.6,9.7v16.2h-4.8v-15.1c0-3.5-.7-6.3-4.7-6.3s-8.4,4-8.4,9.4v12h-4.8v-35.3Z"/>
          <path class="cls-2" d="M507.6,345.5c2.1,2,5.5,3.8,8.9,3.8s6.2-2,6.2-5c0-7.8-17-6-17-17s5-9.8,11.5-9.8,7.2,1.2,9.8,3.6l-2.2,4c-2-1.8-5-3.1-7.8-3.1s-6.3,2-6.3,5c0,7.5,17,5.5,17,16.9s-4,10-11.2,10-8.5-1.6-11.6-4.6l2.8-3.7Z"/>
          <path class="cls-2" d="M531.4,359.6c2,0,3.6-1.5,4.6-3.7l1.2-2.9-10.6-25h5.4l6.3,16.5c.5,1.2.9,3,.9,3h.1s.4-1.7.8-3l6.1-16.6h5.2l-11.9,29.8c-1.5,3.9-4.6,5.9-8.2,5.9s-4.8-1.5-4.8-1.5l1.7-3.7s1.4,1.1,2.9,1.1Z"/>
          <path class="cls-2" d="M552.1,346.9c1.9,1.8,4.8,2.9,7.4,2.9s4.3-1.2,4.3-3.3c0-4.8-13-3.5-13-11.8s4.1-7.3,9.1-7.3,6,.8,8.2,2.8l-1.9,3.5c-1.5-1.4-4.1-2.2-6.4-2.2s-4.3,1-4.3,3.1c0,4.9,13,3.5,13,11.8s-3.7,7.4-9.1,7.4-7.1-1.1-9.6-3.7l2.3-3.3Z"/>
          <path class="cls-2" d="M573.3,332.2h-3.3v-3.9h3.4v-7.2h4.7v7.2h6.1v3.9h-6.1v11.3c0,5,3.5,5.7,5.4,5.7s.7,0,1.2-.1v4.3c-.4,0-1,.2-1.7.2-3.2,0-9.7-1-9.7-9.5v-11.8Z"/>
          <path class="cls-2" d="M598.5,327.4c7.1,0,10.9,5.3,10.9,11.8s-.1,1.3-.2,2h-18.4c.2,5.4,4.1,8.4,8.7,8.4s5.4-1.2,7.4-3l2,3.5c-2.4,2.2-6.3,3.6-9.8,3.6-7.9,0-13.4-5.7-13.4-13.2s5.5-13.2,12.7-13.2ZM604.6,337.8c-.1-4.3-2.8-6.6-6.1-6.6s-6.7,2.4-7.4,6.6h13.5Z"/>
          <path class="cls-2" d="M612.3,328h4.7v3.4c0,1-.2,1.9-.2,1.9h0c1.2-2.9,4.8-5.9,8.8-5.9s6.7,1.9,7.5,5.7h0c1.4-2.9,4.9-5.7,9-5.7s8.3,3.2,8.3,9.7v16.2h-4.8v-15.1c0-3.5-.7-6.3-4.4-6.3s-7.5,4.8-7.5,9.7v11.8h-4.8v-15.1c0-3.3-.5-6.3-4.3-6.3s-7.6,5-7.6,9.7v11.8h-4.8v-25.3Z"/>
        </g>
      </g>
    </g>
  </g>
</svg>