<?xml version="1.0" encoding="UTF-8"?>
<svg xmlns="http://www.w3.org/2000/svg" version="1.1" viewBox="0 0 437.8 500.7">
  <defs>
    <style>
      .cls-1 {
        fill: #231815;
      }

      .cls-2 {
        fill: #007062;
      }
    </style>
  </defs>
  <!-- Generator: Adobe Illustrator 28.7.1, SVG Export Plug-In . SVG Version: 1.2.0 Build 142)  -->
  <g>
    <g id="layer">
      <g>
        <polygon class="cls-2" points="270.2 20.9 246.4 78.5 246.4 20.9 270.2 20.9"/>
        <polygon class="cls-2" points="222.3 133.1 222.2 20.9 239 20.9 239 108.3 222.3 133.1"/>
        <polygon class="cls-2" points="322.4 20.9 279.5 124.5 254.5 141 304.3 20.9 322.4 20.9"/>
        <polygon class="cls-2" points="278.2 20.9 241.7 108.9 247.7 138.2 296.3 20.9 278.2 20.9"/>
        <polygon class="cls-2" points="281.3 160.6 416.4 25.5 416.4 49.2 310.7 154.9 281.3 160.6"/>
        <polygon class="cls-2" points="416.4 158.3 327.9 194.9 298.6 188.9 416.4 140.1 416.4 158.3"/>
        <polygon class="cls-2" points="416.4 114 312.2 157.2 295.8 182.1 416.4 132.2 416.4 114"/>
        <polygon class="cls-2" points="386.9 20.9 281.8 126 276.1 155.4 410.6 20.9 386.9 20.9"/>
        <polygon class="cls-2" points="376.5 20.9 297.7 99.7 330.4 20.9 376.5 20.9"/>
        <polygon class="cls-2" points="416.4 106.1 337 139 416.4 59.6 416.4 106.1"/>
        <polygon class="cls-2" points="416.4 190.3 358.3 190.3 416.4 166.3 416.4 190.3"/>
        <polygon class="cls-2" points="166.9 20.9 190.8 78.5 190.8 20.9 166.9 20.9"/>
        <polygon class="cls-2" points="214.9 133.1 214.9 20.9 198.2 20.9 198.1 108.3 214.9 133.1"/>
        <polygon class="cls-2" points="114.8 20.9 157.7 124.5 182.7 141 132.9 20.9 114.8 20.9"/>
        <polygon class="cls-2" points="159 20.9 195.5 108.9 189.4 138.2 140.9 20.9 159 20.9"/>
        <polygon class="cls-2" points="155.8 160.6 20.8 25.5 20.8 49.2 126.5 154.9 155.8 160.6"/>
        <polygon class="cls-2" points="20.8 158.3 109.3 194.9 138.6 188.9 20.8 140.1 20.8 158.3"/>
        <polygon class="cls-2" points="20.8 114 125 157.2 141.4 182.1 20.8 132.2 20.8 114"/>
        <polygon class="cls-2" points="0 211.4 0 0 437.2 0 437.2 211.4 308 211.4 328.4 197.6 423.4 197.6 423.4 13.8 13.8 13.8 13.8 197.6 108.8 197.6 129.1 211.4 0 211.4"/>
        <polygon class="cls-2" points="50.2 20.9 155.4 126 161 155.4 26.5 20.9 50.2 20.9"/>
        <polygon class="cls-2" points="60.6 20.9 139.5 99.7 106.8 20.9 60.6 20.9"/>
        <polygon class="cls-2" points="20.8 106.1 100.2 139 20.8 59.6 20.8 106.1"/>
        <polygon class="cls-2" points="20.8 190.3 78.9 190.3 20.8 166.3 20.8 190.3"/>
        <path class="cls-1" d="M43.1,296.2c-3.5,1.6-7.7,2.9-11.5,2.9-16.6,0-31.1-13.8-31.1-32s14.5-32,31.1-32,8,1.2,11.5,2.8l.8,6.8c-2.5-2-7.5-4.1-12.7-4.1-14.1,0-24.6,11.8-24.6,26.4s10.6,26.4,24.6,26.4,10.2-2.1,12.7-4.1l-.8,6.9Z"/>
        <path class="cls-1" d="M112.9,267.1c0,17.7-14.8,32-32.3,32s-32.3-14.2-32.3-32,14.8-32,32.3-32,32.3,14.3,32.3,32M54.3,267.1c0,14.4,12,26.4,26.3,26.4s26.3-12,26.3-26.4-12-26.4-26.3-26.4-26.3,12-26.3,26.4"/>
        <polygon class="cls-1" points="125.9 297.6 125.9 236.6 131.5 235.1 131.5 292.1 153.7 292.1 152 297.6 125.9 297.6"/>
        <path class="cls-1" d="M202.9,278.3c0,13-8.3,20.7-21.4,20.7s-21.4-7.7-21.4-20.7v-41.7l5.5-1.4v43.3c0,6.5,5.1,15,15.8,15s15.8-7.9,15.8-16.7v-40.2l5.5-1.4v43.1h.2Z"/>
        <path class="cls-1" d="M309.9,236.6c10.4,0,17.3,4.9,17.3,16s-2.8,10.9-8,13.4c6.7,3.3,9.8,7.7,9.8,15,0,10.6-6.2,16.6-19.2,16.6h-15.3v-61h15.4ZM299.9,263.9h8.4c8.9,0,13.4-4.3,13.4-11.2s-4.9-10.6-11-10.6h-10.7v21.8h0ZM299.9,292.1h9.3c11,0,13.6-5.2,13.6-11s-4.2-11.7-11.8-11.7h-11.1v22.7Z"/>
        <path class="cls-1" d="M384.8,278.3c0,13-8.3,20.7-21.4,20.7s-21.4-7.7-21.4-20.7v-41.7l5.5-1.4v43.3c0,6.5,5.1,15,15.8,15s15.8-7.9,15.8-16.7v-40.2l5.5-1.4v43.1h.2Z"/>
        <path class="cls-1" d="M400,285c3.7,5.8,8.2,8.5,15.1,8.5s13-4.4,13-12.1c0-17.1-31.3-7.7-31.3-29s8.7-17.3,19.1-17.3,12.1,2.9,16.1,7.3l-3.4,4.1c-3.8-3.4-7.4-5.9-12.7-5.9s-13.1,3.7-13.1,11.4c0,15.2,31.3,7.2,31.3,28.8s-8.4,18.2-19.1,18.2-15-3.4-19.3-10.7l4.3-3.3Z"/>
        <polygon class="cls-1" points="53.3 385.8 53.3 318.9 89.5 318.9 90.7 324.9 59.3 324.9 59.3 348.9 86.2 348.9 86.2 354.9 59.3 354.9 59.3 379.8 92.3 379.8 91.2 385.8 53.3 385.8"/>
        <path class="cls-1" d="M157,378.3c-7.6,5.9-15.9,9.1-24.3,9.1-18.4,0-33.7-14.8-33.7-35.5s13.5-34.6,35-34.6,16.6,3.7,21.8,8.8l-3.7,4.7c-5-3.7-11.6-7.4-18-7.4-16.6,0-28.5,13.1-28.5,28.5s12.5,29.5,27.6,29.5,12.4-2.5,17.7-6.5v-19.2h-21.5l2-6.1h25.6v28.7Z"/>
        <path class="cls-1" d="M266.4,352.4c0,19.4-16.2,35-35.4,35s-35.4-15.6-35.4-35,16.2-35,35.4-35,35.4,15.5,35.4,35M202.1,352.4c0,15.8,13.2,29,28.8,29s28.8-13.2,28.8-29-13.2-29-28.8-29-28.8,13.2-28.8,29"/>
        <polygon class="cls-1" points="409.1 385.8 409.1 318.9 415.1 317.3 415.1 379.8 437.8 379.8 436 385.8 409.1 385.8"/>
        <path class="cls-1" d="M344.6,385.8l11.5-26.5h25.5l11.7,26.5h5.9l-30.4-68.5h-.2l-30,68.5h6ZM368.6,331l9.9,22.2h-19.8l9.9-22.2Z"/>
        <polygon class="cls-2" points="16.9 458.6 62.5 458.6 62.5 500.7 75.7 500.7 75.7 406 62.5 408.1 62.5 446.4 16.9 446.4 16.9 406 3.7 408.1 3.7 500.7 16.9 500.7 16.9 458.6"/>
        <polygon class="cls-2" points="149.5 488.5 107.6 488.5 107.6 458.6 138.7 458.6 138.7 446.4 107.6 446.4 107.6 420.3 146.6 420.3 143.7 408.1 94.3 408.1 94.3 500.7 145.7 500.7 149.5 488.5"/>
        <polygon class="cls-2" points="304 488.5 264.8 488.5 264.8 406 251.5 408.1 251.5 500.7 298.6 500.7 304 488.5"/>
        <polygon class="cls-2" points="328.2 420.3 349.8 420.3 349.8 408.1 295.1 408.1 290.9 420.3 315 420.3 315 500.7 328.2 500.7 328.2 420.3"/>
        <polygon class="cls-2" points="376.8 458.6 422.4 458.6 422.4 500.7 435.6 500.7 435.6 406 422.4 408.1 422.4 446.4 376.8 446.4 376.8 406 363.5 408.1 363.5 500.7 376.8 500.7 376.8 458.6"/>
        <path class="cls-2" d="M168,500.6l13.1-29.7h33.5l13.2,29.7h13.3l-42.7-94.6h-.3l-42.2,94.6h.3c0,0,11.8,0,11.8,0h0ZM197.9,432.3l11.9,26.6h-23.7l11.8-26.6Z"/>
        <path class="cls-1" d="M10.8,385.8v-31.9h.4l24.4,31.9h9l-22.7-28.2c10-1.8,15.9-9.1,15.9-19.1s-8.4-19.6-19.5-19.6H4.8v67h6ZM10.8,324.9h8.5c7.1,0,11.8,7,11.8,13.6s-3.9,14.3-11.9,14.3h-8.4v-27.9Z"/>
        <polygon class="cls-1" points="181.4 385.8 181.4 317.3 175.3 318.9 175.3 385.8 181.4 385.8"/>
        <polygon class="cls-1" points="323.3 318.9 323.3 371.1 323.1 371.1 278.3 317.3 278.1 317.3 278.1 385.8 284.1 385.8 284.1 333.3 284.3 333.3 329.1 387.4 329.3 387.4 329.3 317.7 323.3 318.9"/>
        <polygon class="cls-1" points="266 253.1 274.6 297.6 280.3 297.6 268 235.1 267.8 235.1 247.2 284.9 226.5 235.1 226.3 235.1 213.9 297.6 219.5 297.6 227.8 253.1 227.9 253.1 247.2 299 247.3 299 265.8 253.1 266 253.1"/>
      </g>
    </g>
  </g>
</svg>