<?xml version="1.0" encoding="UTF-8"?>
<svg xmlns="http://www.w3.org/2000/svg" version="1.1" viewBox="0 0 652 652">
  <defs>
    <style>
      .cls-1 {
        fill: #231815;
      }

      .cls-2 {
        fill: #007062;
      }
    </style>
  </defs>
  <!-- Generator: Adobe Illustrator 28.7.1, SVG Export Plug-In . SVG Version: 1.2.0 Build 142)  -->
  <g>
    <g id="layer">
      <g>
        <polygon class="cls-2" points="378.1 46.7 354.3 104.3 354.3 46.7 378.1 46.7"/>
        <polygon class="cls-2" points="330.2 158.9 330.1 46.7 346.9 46.7 346.9 134.1 330.2 158.9"/>
        <polygon class="cls-2" points="430.3 46.7 387.4 150.3 362.4 166.8 412.2 46.7 430.3 46.7"/>
        <polygon class="cls-2" points="386.1 46.7 349.6 134.7 355.6 164 404.2 46.7 386.1 46.7"/>
        <polygon class="cls-2" points="389.2 186.4 524.3 51.3 524.3 75 418.6 180.7 389.2 186.4"/>
        <polygon class="cls-2" points="524.3 184.1 435.8 220.7 406.5 214.7 524.3 165.9 524.3 184.1"/>
        <polygon class="cls-2" points="524.3 139.8 420.1 183 403.7 207.9 524.3 158 524.3 139.8"/>
        <polygon class="cls-2" points="494.8 46.7 389.7 151.8 384 181.2 518.5 46.7 494.8 46.7"/>
        <polygon class="cls-2" points="484.4 46.7 405.6 125.5 438.3 46.7 484.4 46.7"/>
        <polygon class="cls-2" points="524.3 131.9 444.9 164.8 524.3 85.4 524.3 131.9"/>
        <polygon class="cls-2" points="524.3 216.1 466.2 216.1 524.3 192.1 524.3 216.1"/>
        <polygon class="cls-2" points="274.8 46.7 298.7 104.3 298.7 46.7 274.8 46.7"/>
        <polygon class="cls-2" points="322.8 158.9 322.8 46.7 306.1 46.7 306 134.1 322.8 158.9"/>
        <polygon class="cls-2" points="222.7 46.7 265.6 150.3 290.6 166.8 240.8 46.7 222.7 46.7"/>
        <polygon class="cls-2" points="266.9 46.7 303.4 134.7 297.3 164 248.8 46.7 266.9 46.7"/>
        <polygon class="cls-2" points="263.7 186.4 128.7 51.3 128.7 75 234.4 180.7 263.7 186.4"/>
        <polygon class="cls-2" points="128.7 184.1 217.2 220.7 246.5 214.7 128.7 165.9 128.7 184.1"/>
        <polygon class="cls-2" points="128.7 139.8 232.9 183 249.3 207.9 128.7 158 128.7 139.8"/>
        <polygon class="cls-2" points="107.9 237.2 107.9 25.8 545.1 25.8 545.1 237.2 415.9 237.2 436.3 223.4 531.3 223.4 531.3 39.6 121.7 39.6 121.7 223.4 216.7 223.4 237 237.2 107.9 237.2"/>
        <polygon class="cls-2" points="158.1 46.7 263.3 151.8 268.9 181.2 134.4 46.7 158.1 46.7"/>
        <polygon class="cls-2" points="168.5 46.7 247.4 125.5 214.7 46.7 168.5 46.7"/>
        <polygon class="cls-2" points="128.7 131.9 208.1 164.8 128.7 85.4 128.7 131.9"/>
        <polygon class="cls-2" points="128.7 216.1 186.8 216.1 128.7 192.1 128.7 216.1"/>
        <g>
          <path class="cls-1" d="M151,322c-3.5,1.6-7.7,2.9-11.5,2.9-16.6,0-31.1-13.8-31.1-32s14.5-32,31.1-32,8,1.2,11.5,2.8l.8,6.8c-2.5-2-7.5-4.1-12.7-4.1-14.1,0-24.6,11.8-24.6,26.4s10.6,26.4,24.6,26.4,10.2-2.1,12.7-4.1l-.8,6.9Z"/>
          <path class="cls-1" d="M220.8,292.9c0,17.7-14.8,32-32.3,32s-32.3-14.2-32.3-32,14.8-32,32.3-32,32.3,14.3,32.3,32M162.2,292.9c0,14.4,12,26.4,26.3,26.4s26.3-12,26.3-26.4-12-26.4-26.3-26.4-26.3,12-26.3,26.4"/>
          <polygon class="cls-1" points="233.8 323.4 233.8 262.4 239.4 260.9 239.4 317.9 261.6 317.9 259.9 323.4 233.8 323.4"/>
          <path class="cls-1" d="M310.8,304.1c0,13-8.3,20.7-21.4,20.7s-21.4-7.7-21.4-20.7v-41.7l5.5-1.4v43.3c0,6.5,5.1,15,15.8,15s15.8-7.9,15.8-16.7v-40.2l5.5-1.4v43.1h.2Z"/>
          <path class="cls-1" d="M417.8,262.4c10.4,0,17.3,4.9,17.3,16s-2.8,10.9-8,13.4c6.7,3.3,9.8,7.7,9.8,15,0,10.6-6.2,16.6-19.2,16.6h-15.3v-61h15.4ZM407.8,289.7h8.4c8.9,0,13.4-4.3,13.4-11.2s-4.9-10.6-11-10.6h-10.7v21.8h0ZM407.8,317.9h9.3c11,0,13.6-5.2,13.6-11s-4.2-11.7-11.8-11.7h-11.1v22.7Z"/>
          <path class="cls-1" d="M492.7,304.1c0,13-8.3,20.7-21.4,20.7s-21.4-7.7-21.4-20.7v-41.7l5.5-1.4v43.3c0,6.5,5.1,15,15.8,15s15.8-7.9,15.8-16.7v-40.2l5.5-1.4v43.1h.2Z"/>
          <path class="cls-1" d="M507.9,310.8c3.7,5.8,8.2,8.5,15.1,8.5s13-4.4,13-12.1c0-17.1-31.3-7.7-31.3-29s8.7-17.3,19.1-17.3,12.1,2.9,16.1,7.3l-3.4,4.1c-3.8-3.4-7.4-5.9-12.7-5.9s-13.1,3.7-13.1,11.4c0,15.2,31.3,7.2,31.3,28.8s-8.4,18.2-19.1,18.2-15-3.4-19.3-10.7l4.3-3.3Z"/>
          <polygon class="cls-1" points="161.2 411.6 161.2 344.7 197.4 344.7 198.6 350.7 167.2 350.7 167.2 374.7 194.1 374.7 194.1 380.7 167.2 380.7 167.2 405.6 200.2 405.6 199.1 411.6 161.2 411.6"/>
          <path class="cls-1" d="M264.9,404.1c-7.6,5.9-15.9,9.1-24.3,9.1-18.4,0-33.7-14.8-33.7-35.5s13.5-34.6,35-34.6,16.6,3.7,21.8,8.8l-3.7,4.7c-5-3.7-11.6-7.4-18-7.4-16.6,0-28.5,13.1-28.5,28.5s12.5,29.5,27.6,29.5,12.4-2.5,17.7-6.5v-19.2h-21.5l2-6.1h25.6v28.7Z"/>
          <path class="cls-1" d="M374.3,378.2c0,19.4-16.2,35-35.4,35s-35.4-15.6-35.4-35,16.2-35,35.4-35,35.4,15.5,35.4,35M310,378.2c0,15.8,13.2,29,28.8,29s28.8-13.2,28.8-29-13.2-29-28.8-29-28.8,13.2-28.8,29"/>
          <polygon class="cls-1" points="517 411.6 517 344.7 523 343.1 523 405.6 545.7 405.6 543.9 411.6 517 411.6"/>
          <path class="cls-1" d="M452.5,411.6l11.5-26.5h25.5l11.7,26.5h5.9l-30.4-68.5h-.2l-30,68.5h6ZM476.5,356.8l9.9,22.2h-19.8l9.9-22.2Z"/>
          <polygon class="cls-2" points="124.8 484.4 170.4 484.4 170.4 526.5 183.6 526.5 183.6 431.8 170.4 433.9 170.4 472.2 124.8 472.2 124.8 431.8 111.6 433.9 111.6 526.5 124.8 526.5 124.8 484.4"/>
          <polygon class="cls-2" points="257.4 514.3 215.5 514.3 215.5 484.4 246.6 484.4 246.6 472.2 215.5 472.2 215.5 446.1 254.5 446.1 251.6 433.9 202.2 433.9 202.2 526.5 253.6 526.5 257.4 514.3"/>
          <polygon class="cls-2" points="411.9 514.3 372.7 514.3 372.7 431.8 359.4 433.9 359.4 526.5 406.5 526.5 411.9 514.3"/>
          <polygon class="cls-2" points="436.1 446.1 457.7 446.1 457.7 433.9 403 433.9 398.8 446.1 422.9 446.1 422.9 526.5 436.1 526.5 436.1 446.1"/>
          <polygon class="cls-2" points="484.7 484.4 530.3 484.4 530.3 526.5 543.5 526.5 543.5 431.8 530.3 433.9 530.3 472.2 484.7 472.2 484.7 431.8 471.4 433.9 471.4 526.5 484.7 526.5 484.7 484.4"/>
          <path class="cls-2" d="M275.9,526.4l13.1-29.7h33.5l13.2,29.7h13.3l-42.7-94.6h-.3l-42.2,94.6h.3c0,0,11.8,0,11.8,0h0ZM305.8,458.1l11.9,26.6h-23.7l11.8-26.6Z"/>
          <path class="cls-1" d="M118.7,411.6v-31.9h.4l24.4,31.9h9l-22.7-28.2c10-1.8,15.9-9.1,15.9-19.1s-8.4-19.6-19.5-19.6h-13.5v67h6ZM118.7,350.7h8.5c7.1,0,11.8,7,11.8,13.6s-3.9,14.3-11.9,14.3h-8.4v-27.9Z"/>
          <polygon class="cls-1" points="289.3 411.6 289.3 343.1 283.2 344.7 283.2 411.6 289.3 411.6"/>
          <polygon class="cls-1" points="431.2 344.7 431.2 396.9 431 396.9 386.2 343.1 386 343.1 386 411.6 392 411.6 392 359.1 392.2 359.1 437 413.2 437.2 413.2 437.2 343.5 431.2 344.7"/>
          <polygon class="cls-1" points="373.9 278.9 382.5 323.4 388.2 323.4 375.9 260.9 375.7 260.9 355.1 310.7 334.4 260.9 334.2 260.9 321.8 323.4 327.4 323.4 335.7 278.9 335.8 278.9 355.1 324.8 355.2 324.8 373.7 278.9 373.9 278.9"/>
          <path class="cls-1" d="M111.6,611.5c.4-.7.8-1.8,1.4-3.3l.2-.2.4-1.2.3-.4v-.2c0,0,.2-.3.4-.5.7-1.3,1.4-2.5,2.2-3.5.2-.2.4-.4.5-.6l.3-.4.2-.3,1-1.5c.2,0,.4-.3.8-.5,0-.3.4-.6,1-1,.5-.4.9-.7,1-.9.3-.2.7-.6,1.3-1.1.5-1,.6-2,.5-3.1h0c0,0-.3,0-.6.3l-.7.3c-.2,0-.4.3-.6.5-1,.9-2.9,1.9-5.5,2.8h-1c-.6,0-1.5-.7-2.6-1.9l-.9-1.7c0,0,0-.3,0-.5h0c0,0-.3-1.8-.3-1.8,0-.4,0-.9.2-1.3.2-.7.3-1.8.4-3.2l.4-1.4.4-.9,1.4-3.9.4-.9.2-.8v-1c0,0,.9-1.5.9-1.5.2,0,.4-.2.7-.3.5-.2.8-.2.9-.2.2,0,.4.3.7.6,0,0,0,.3,0,.6v.4c0,0-.9,1-.9,1,0,.3-.3.8-.6,1.6l-1.7,5-.8,3.2c0,.8,0,2.1.2,3.8,0,0,.5.7,1.5,1.7.9.4,1.4.5,1.5.5.2,0,.6-.2,1-.4l.7-.3c.2,0,.5-.3.8-.5,1.1-.5,1.6-.7,1.7-.8.7-.3,1.2-.7,1.4-1.1h0c.6-.6,1.1-1.1,1.4-1.7l.3-.9s0,0,0-.2q0,0,0-.2v-.4c0,0,1.3-6.5,1.3-6.5l.4-1.2v-.6c0,0,.3-.7.3-.7,0,0,.2-.3.2-.5v-.3l.3-.8c.2-.2.3-.5.5-.9l1.1-.5,1.3.6.3.4v.5c0,.4-.2,1.1-.5,2.1-.3.9-.4,1.6-.3,2.1-.2,1.2-.5,2.7-.9,4.5-.1.3-.2.6-.3.8-.2,1-.5,2.2-.9,3.6l-.3.9v.8c0,0-.3.5-.3.5v.5c0,.3,0,.4,0,.5l.8-.4c.6-.3,1.2-.6,1.9-1l1.5-.3c.9-.2,1.5-.2,1.9,0h.6c.1.2.2.3.4.4.1,0,.2.2.3.3,0,.2,0,.4-.1.4-.4,0-1.1.2-2,.5-1,.4-2.5,1-4.5,1.5-.4.3-1,.8-1.7,1.5l-.5,2.2c0,0,0,.3,0,.6s0,.5,0,.6v.8c0,0-.3,1-.3,1l-.2.6-.8,3.1-.6,1.6-.2.8s0,0,0,.3c0,0,0,.2,0,.3l-.4,2.2-.2.8c-.3.7-.6,1.3-.8,2.1l-.6,1.6-.3,1.1-.3.8-.4.6c-.2.3-.3.5-.3.7l-.4.4c0,.2-.2.6-.6,1.2l-.2.4c-.2.2-.2.4-.2.4l-.5.9c0,0,0,.3-.4.7l-.7,1.3-.5.6c0,.2-.4.5-.7.9-.2,0-.4.2-.7.4l-.7.3-.8.2s-.3,0-.7,0h-.6c0,0-.3-.4-.3-.4-.2-.2-.4-.3-.6-.4l-.8-1.5-.3-.6v-.6c0,0,0-3.2,0-3.2,0,0,0-.2,0-.3,0-.2,0-.4.2-.7l.2-1.1c0-.4.3-1.1.5-2.3.2-.4.5-1.1.9-1.9-.1,0,0-.6.4-1.1M113,613.6l-.3,1.2c-.3.2-.4.5-.3,1l-.6,2c0,.9-.2,1.6-.2,2.1s0,.4,0,.7c0,.3,0,.5,0,.6v1c0,0,.3.3.3.3,0,0,.3.3.7.6l.9-.6.3-.4c0,0,.2-.3.4-.7l.2-.3,1.2-2,.4-1.3,1.1-1.9c.3-.7.5-1.4.8-2.1l.4-1.5.9-2.8c0-.3,0-.5,0-.5h0l.3-1.3.2-.3v-.8c0,0,.4-.7.4-.7l.4-1.4c0,0,0-.3,0-.6l.6-2.3.4-1.4v-.9l-1.1.4-1.1,1.2-2.5,3.9c0,0-.2.2-.3.3l-.2.5c0,0-.2.2-.2.3l-.2.7-.3.9c0,0-.2.2-.3.6l-.4.8-.3.5c0,.3-.2,1-.5,1.9-.2.7-.5,1.2-.8,1.5l-.2.4-.5.4Z"/>
          <path class="cls-1" d="M154.5,586.8l-.6,1.5-1.2,1.7-.5.6c-.1.3-.2.5-.4.7l-1,1.1-1.2.9c-.1.2-.2.3-.3.3l-1,.6-1.5.9c-.1,0-.2.2-.2.3-1.2.4-2.1.8-2.7,1-1.1.2-1.8.3-2.1.3l-1.3-.4-1-.2-.7-.3c-.9-.2-1.7-.8-2.4-1.9-.1-.2-.3-.8-.6-1.6-.3-.7-.4-1.2-.4-1.7v-.9c.1-.4.1-.7,0-.9l1.8-4.2s.1,0,.2-.3c0,0,.1-.2.2-.2l.3-.9.2-.4c.9-1.1,1.8-2.6,2.8-4.4.2,0,.3,0,.3-.2l1-1.5c.2,0,.3,0,.3-.2.4-.7.8-1.1,1.3-1.3.5-.3.9-.5,1.2-.6h.7c.1.2.4.5.9.8l.3.4v.8c-.1,0,1.5.4,1.5.4h.2l3.3,1.1c.3.4.5.7.8.8.4,0,.8.2,1,.7.4.2.7.5.9.7l.7,1.3c-.1.2,0,.5,0,.9s.1.3.1.6v1.8c-.2.2-.4.8-.9,1.9M152.7,585.4v-.8c0-.4-.1-.7-.2-.9l-.8-1.5-.3-.8c-.2,0-.3-.2-.5-.4l-1.9-1s-.1,0-.1-.2l-2.1-.5c-.1,0-.2,0-.4,0-.3,0-.8,0-1.5,0q-.1,0-.2,0t-.2,0h-.6c-.3.2-.7.5-1.3.9l-.4.6c-.1,0-.3.5-.8,1.2-.6.9-1,1.7-1.2,2.2v.3c-.3.4-.6.8-.7,1-.1.6-.2.9-.1,1l-.5.6c0,0-.2.8-.7,2.1.2,1.8,1,2.9,2.2,3.4,1.5.4,2.3.5,2.4.5.4,0,.9,0,1.5-.3l1-.2.6-.5,1.3-.6,2.2-1.5c.2-.5.6-.8,1.1-1l.7-1.1.4-.8.3-.6.5-.9c.2.3.3,0,.3-.2"/>
          <path class="cls-1" d="M435.5,586.8l-.6,1.5-1.2,1.7-.5.6c-.1.3-.3.5-.4.7l-1,1.1-1.2.9c-.1.2-.2.3-.3.3l-1,.6-1.5.9c-.1,0-.2.2-.2.3-1.2.4-2.1.8-2.7,1-1.1.2-1.8.3-2.1.3l-1.3-.4-1-.2-.7-.3c-.9-.2-1.7-.8-2.4-1.9,0-.2-.3-.8-.6-1.6-.3-.7-.4-1.2-.4-1.7v-.9c.1-.4.1-.7,0-.9l1.8-4.2s.1,0,.2-.3c0,0,.1-.2.2-.2l.3-.9.2-.4c.9-1.1,1.8-2.6,2.8-4.4.2,0,.3,0,.3-.2l1-1.5c.1,0,.3,0,.3-.2.4-.7.8-1.1,1.3-1.3.5-.3.9-.5,1.2-.6h.7c.2.2.4.5.9.8l.3.4v.8c-.1,0,1.5.4,1.5.4h.2l3.3,1.1c.3.4.5.7.8.8.4,0,.8.2,1,.7.4.2.7.5.9.7l.7,1.3c-.1.2,0,.5,0,.9s.1.3.1.6v1.8c-.2.2-.5.8-.9,1.9M433.7,585.4v-.8c0-.4-.1-.7-.2-.9l-.8-1.5-.3-.8c-.2,0-.3-.2-.4-.4l-1.9-1s-.1,0-.1-.2l-2.1-.5c-.1,0-.2,0-.4,0-.3,0-.8,0-1.5,0q-.1,0-.2,0t-.2,0h-.6c-.3.2-.7.5-1.3.9l-.4.6c-.1,0-.3.5-.8,1.2-.6.9-1,1.7-1.1,2.2v.3c-.3.4-.6.8-.7,1-.2.6-.2.9-.2,1l-.5.6c0,0-.2.8-.7,2.1.2,1.8,1,2.9,2.2,3.4,1.5.4,2.3.5,2.4.5.4,0,.9,0,1.5-.3l1-.2.6-.5,1.3-.6,2.2-1.5c.2-.5.6-.8,1.1-1l.7-1.1.4-.8.3-.6.5-.9c0,.3.1,0,.2-.2"/>
          <path class="cls-1" d="M159.4,588.8v-.4c.1,0,.1-.5.1-.5v-.5c-.2-.5-.1-1,0-1.5v-1.2l.3-1.5c0-.4,0-1.1.1-2.1,0,0,.1-.3.3-.7l.2-.7.3-.6c.1,0,.2-.2.3-.4l.8-.2,1.1.5.3.8c.2,0,.3.2.2.3l.3.6v2.1c-.1,0-.8,2.3-.8,2.3,0,.5-.1.7-.1.6l-.3,1.7c0,0,0,.4-.1.8v3.1c.1,0,.1.2.2.4v1.1c.1,0,.8,1.2.8,1.2.1,0,.2.2.3.4,0,0,.2.2.4.3h.4c.4.3.8.4,1.3.4s.6,0,1-.3l.2-.4c.4-.2.8-.6,1.2-1.2h.3c0,0,2.2-2.4,2.2-2.4l1.5-1.3c.1,0,.2-.2.3-.4h0l.8-.7v-.4c.2-.2.3-.4.3-.5l.6-1.1c0,0,.1-.3.3-.6l.3-.4c0,0,.1-.2.1-.3h0l.4-.7v-.5c.3,0,.4-.2.5-.4l.5-2.1.4-.6v-1.3c.1,0,.4-1.6.4-1.6v-1.2c.2,0,.3-.4.4-.7l.6-.6v-.4c.2,0,.4-.2.6-.3l.3-.2c.2,0,.7-.3,1.3-.5v.6c.1.2.1.6.1.9-.2,1.3-.6,3-1.2,4.9v.8c-.1,0-.3.3-.3.3l-.2.5s-.1.2-.1.5,0,.2-.1.4l-.5,1.1-.6,1.3c-.1.2-.2.5-.4.9,0-.2-.1,0-.2.5-.2.2-.4.5-.6.9l-.7,1.4-.5.6-.5.5c-.1.2-.4.6-.8,1.2l-.4.3c-.1.3-.2.5-.3.7l-1.1.7c-.1.2-.2.3-.2.4l-.5.4c-.5.6-.8.9-1,1.2-.2.5-.5.8-.9,1-.1.2-.3.4-.3.4-.3.2-.4.5-.5.6l-.3.2c-.2.4-.5.6-.9.7-.2.2-.6.4-1.2.6l-1,.3h-.1c-.7,0-1.2,0-1.5,0-.5-.3-1.1-.5-1.6-.8-.6-.3-1-.7-1.2-1.2-.7-1.1-1-1.9-1.1-2.3l-.3-1.3v-2.4c-.1,0-.1-.3-.1-.8v-1.2Z"/>
          <path class="cls-1" d="M222.1,585.3h.1c.1-.3.1-.5.1-.7.2-.7.5-1.6,1.1-2.6h1.1c.3,0,.5-.2.6-.4l2-2.5c.1-.4.4-.7.9-1.2.6-.5,1-.8,1.2-.8.2-.2.3-.3.3-.4.6-.6,1.1-1.1,1.4-1.3l1.2-.4c.1,0,.3,0,.6,0,.2,0,.4,0,.5,0,.2,0,.4,0,.7,0h1.3c.1,0,.2,0,.2,0l1.5.6,1,.6c.4.3.5.6.5.9v.5l.3.6-.4,2.6c.1.6-.3,1.8-1.2,3.5-.1,0-.2.3-.4.6l-.7.9-1.4,1.8-3.1,3.4-.4.3-1.7,1.8-.6.4c-1.2,1.3-2.1,2.1-2.7,2.2l-1.4,1.4c-.1,0-.2.2-.5.4l-.3.3h-.1c0,0-.1,0-.1,0h-.1c0,0,0,.2-.1.2h-.1c-.1,0-.1.2-.2.2-.2,0-.4,0-.6,0s-.5,0-.8,0c-.1,0-.2,0-.2.2,0-.3-.1.3-.3,1.5h0l-.2.7-.6,3.5c0,0-.1.3-.2.4h-.1c0,0,.1.4.1.4l-.4,2.3-.4,2.9-.5,2c0,.3,0,.5-.1.8l.2,1v.4c0,0-.1,0-.3,0l-.6.8-.5.4-1.9-.3v-.8c-.1,0-.1-.7-.1-.7l.5-1.4c.2-.5.3-.9.3-1.3l.2-1.3.3-.8v-.8c0,0,.1-.3.1-.7h0c0,0,.9-6.2.9-6.2l.6-2.7v-.5l.3-1.3.3-1.1c.2-.3.3-.8.4-1.4v-.2h0l.9-3.1c.3-.4.7-1.4,1-2.9v-.2c.1,0,.2-.3.2-.3l.4-1.8v-.4ZM236,580.9c.2-.5.3-1.2.3-2.3v-1.1c-.4-.4-.7-.6-.9-.8-.4,0-.7,0-.9,0l-1.4.4-1.5,1.2-.4.6c-.1,0-.3.3-.4.4l-1,1-.3.5c-.2,0-.4.3-.6.5l-.9,1.9c-.2.3-.5.6-.8.9l-1.7,3.9-.3.3-1.3,3.6v.5c.1,0,.1.2.2.3h1l.9.7,1-1c.4-.4,1-1,1.8-1.6l.3-.3,4.6-5.4c.2-.5.5-.9.9-1.3,0,0,.1-.2.1-.3l.9-2.1.4-.4Z"/>
          <path class="cls-1" d="M261,598.3l-1.3-.6c-.7,0-1.2-.2-1.3-.4-.6-.2-1.2-.7-1.9-1.4-.9-1-1.4-1.6-1.6-1.7l-.3-1.3-.5-.9-.3-1.4v-.7c-.1,0-.2-.2-.2-.3-.2.2-.3.4-.5.5-.3.3-.5.6-.7.8l-.6.8-.5.7c-.3.2-.4.3-.5.4-.2.4-.5.6-.7.7,0,0-.1.2-.4.3l-1.1,1.1-1,.9c-.7.2-1.3.4-1.5.5-1.2.5-2.4.6-3.7.4-.6-.2-1.1-.9-1.3-2.1-.1-.4-.1-.7-.1-1v-1.2c.1,0,.9-3.7.9-3.7,0-.2.1-.5.3-1.1.4-1,.8-1.9,1.1-2.7l.8-1.1.8-1.3,1.1-1.4,1.3-1.2,1.2-1.3c.2,0,.4-.2.5-.4l.8-1,1.4-.9c.4,0,.7-.2.9-.4,1.4-.2,2.3-.3,2.7-.3h.8c.7,0,1.4.4,2.1,1,.1.2.2.6.1,1,0,.2.1.4.1.5v.7c-.1,0-.1,1.7-.1,1.7l-.2,1.3c.1.3,0,1-.4,2.1,0,0,.1.2.1.3l-.5,1.4c-.1,0-.2.2-.2.5-.1,1.3-.2,2-.2,2.1,0,.2,0,.5-.1.9s-.1.7-.1.9l.5,1.9,1.3,2.1,1.9,1.8,2.1,1.2.3.4c0,.2,0,.4.1.5,0,0-.1.2-.2.3s-.2.2-.2.4c-.4-.3-.7-.3-1-.3M254.2,582.6l.6-.9.4-1.3c-.1-1.1-.6-1.9-1.4-2.4,0,0-.1-.2-.1-.2l-1.4.4c-.2,0-.3.2-.5,0l-1,.9c-.1,0-.2,0-.3,0l-1.7,2.2c-.5.4-.8.7-.9.9-.9,1.3-1.5,2.1-1.6,2.4l-1.5,3.2c-.3,1.2-.5,2.1-.7,2.7v.5c0,.2,0,.5.1.7v1.5c.2.2.4.3.6.2.6,0,1.3-.3,1.9-.7.3-.2.8-.6,1.6-1.2l.7-.8.6-.7c0,0,.2-.3.5-.6l.4-.7c.1,0,.2,0,.3,0,.3-.5.6-.9,1.2-1.4.5-1,.9-1.7,1.2-2.1.1,0,.2,0,.3-.2l.7-1.7c0-.3,0-.7,0-.8"/>
          <path class="cls-1" d="M308.6,594.5c0-.3,0-.5.1-.6v-.6c.2-.6.3-.9.2-1l.2-.5v-1.3c.2-.3.3-.6.4-.8l.7-3,.4-1.8.5-2,.4-.7v-2.3c.1,0,.3-.8.3-.8,0-.4,0-.7.1-.9l.4-2.7h.8c.1,0,.2-.2.4-.3.2,0,.4-.2.5-.2,1.1.4,1.8,1,2.3,1.8v.4c-.3.5-.4.8-.5.9-.1.4-.2.7-.3.8,0,.2-.1.6-.5,1,0,.3-.1.7-.3,1.4-.2.6-.3,1.1-.3,1.4-.1.2-.2.3-.2.4l-.6,2.5c.1.3,0,.6-.3.9,0,.7-.2,1.5-.5,2.5-.1.4-.2.8-.2,1.2l.4.2,2.6-2,1.6-1.2c.1,0,.2-.3.2-.3l.5-.3c.4-.6.8-.9,1.2-1,1-.9,1.8-1.6,2.4-2.2l.3-.3c.3-.2.5-.4.6-.4h.2l1.5-.9,3.4-1.1c.8,0,1.3.2,1.4.3l.7.4c.6.6,1,1.1,1.2,1.6.1.2.3.9.5,1.9.2.5.2,1.2.2,2.2s0,1.7.1,2.2l-.2.8c.1.2.1.3.2.3-.1,1-.1,1.5-.1,1.8.2,1.4.3,2.4.4,2.9v.8l.3,1.5.9,1.7.6.5.3,1-.4.5c-.3,0-.5.2-.6.2h-.1c0,0-2.4-.3-2.4-.3l-.2-.4-.7-1.7-.6-.9v-1.2c-.1,0-.4-1.5-.4-1.5v-1c-.2-1-.3-1.5-.3-1.6,0-.3,0-.5.1-.8-.1-.3-.1-.8,0-1.5.1-.6.1-1.1,0-1.5-.3-2.1-.6-3.4-.9-3.7-.2-.5-.6-.8-1.2-.8-.7.2-1.2.4-1.5.4-.8.5-1.3.9-1.7,1.1l-1.7,1.2c0,.2-.1.3-.1.4l-1,.6c-.7.4-1.3,1-1.9,1.8-.3,0-.7.4-1.2.9s-.9.8-1.2.9l-.2.4-1.9,1.4-1.3,1.1-.7.3-1.1.9-.2.2h-.9c0,0-1.1-1.5-1.1-1.5Z"/>
          <path class="cls-1" d="M356.4,591v.4c-.2.2-.3.3-.5.5l-.5.4-.4.3c-.5.4-1.4,1.1-2.8,2.4l-1.3.8-1.9.8c-.1,0-.5.4-1.3.8-.2,0-.6.2-1.3.5l-2.5.2-2.3-.8c-.1,0-.2-.2-.2-.3l-.3-.2-1.2-1c-.4-.5-.6-.8-.6-1s-.2-.3-.5-.7l-.5-1.9v-3c.1,0,.1-.4.1-.4l.2-.8.4-1.5,1.6-3.7.6-1.5c.2-.3.4-.5.6-.8l.7-.8c.2,0,.4-.4.7-.9.1,0,.3-.4.7-.9.1,0,.2-.2.4-.4,0,0,0,0,.1,0l1.8-1.2,1.3-.8c.1,0,.3,0,.5-.3.9-.2,1.6-.4,2-.6,1.6,0,2.8.2,3.5,1,0,0,.2.5.6,1v1.2c-.1,0-.2.6-.2.6l-.6,1-.5,1-.7.7c-.1.2-.3.4-.6.7,0,0-.2.2-.4.4l-.6.6s-.8.7-2.2,1.9l-.3.4c-.9.4-1.8,1.1-2.7,2.3-.7.5-1.1.9-1.3,1.2-.1,0-.3,0-.4.3h-.6c0,0-1.3.9-1.3.9.1.7.1,1.1.1,1.2.1.6.3,1.5.8,2.6.1.4.3.6.4.7.5.6,1,1,1.5,1.3.1,0,.2,0,.4,0,.2,0,.3,0,.4,0h.7c.1,0,.3,0,.4,0l1.2-.4c1.2-.6,2.9-1.5,5.2-2.7l.6-.3c.4-.2.6-.3.6-.4l1.3-1,.2-.5.2-.4.6.2c-.1,0,0,.2,0,.9M346.9,582.1l1.2-.8c.7-.6,1-1.1,1.2-1.5l.8-1.1.3-.2c.1-.4.2-.7.1-.9,0-.2-.1-.3-.1-.4l-.6-.2h-.6l-1,.4-1.3.6c-.3.3-1.2,1.3-2.7,2.9-.2.2-.4.5-.6,1-.1.3-.3.5-.4.8l-.4.7-.5,1-.3.6v.8c.1,0,.4-.2.7-.5l.4-.2h0l2.5-1.9c.8-.6,1.3-1,1.3-1.1"/>
          <path class="cls-1" d="M544,591v.4c-.2.2-.3.3-.5.5l-.5.4-.4.3c-.5.4-1.4,1.1-2.8,2.4l-1.3.8-1.9.8c0,0-.5.4-1.4.8-.2,0-.6.2-1.3.5l-2.5.2-2.3-.8c0,0-.2-.2-.2-.3l-.3-.2-1.2-1c-.4-.5-.6-.8-.6-1s-.2-.3-.5-.7l-.5-1.9v-3c0,0,0-.4,0-.4l.2-.8.4-1.5,1.6-3.7.6-1.5c.2-.3.4-.5.6-.8l.7-.8c.2,0,.4-.4.7-.9,0,0,.3-.4.7-.9,0,0,.2-.2.4-.4,0,0,0,0,0,0l1.8-1.2,1.3-.8c0,0,.3,0,.5-.3.9-.2,1.6-.4,2-.6,1.6,0,2.8.2,3.5,1,0,0,.2.5.6,1v1.2c0,0-.2.6-.2.6l-.6,1-.5,1-.7.7c0,.2-.3.4-.6.7,0,0-.2.2-.4.4l-.6.6s-.8.7-2.2,1.9l-.3.4c-.9.4-1.8,1.1-2.8,2.3-.7.5-1.1.9-1.3,1.2,0,0-.3,0-.4.3h-.6c0,0-1.3.9-1.3.9,0,.7,0,1.1,0,1.2,0,.6.3,1.5.8,2.6,0,.4.3.6.4.7.5.6,1,1,1.5,1.3,0,0,.2,0,.4,0s.3,0,.4,0h.7c0,0,.3,0,.4,0l1.2-.4c1.2-.6,2.9-1.5,5.2-2.7l.6-.3c.4-.2.6-.3.6-.4l1.3-1,.2-.5.2-.4.6.2c.2,0,.3.2.3.9M534.6,582.1l1.2-.8c.6-.6,1-1.1,1.1-1.5l.8-1.1.3-.2c0-.4.2-.7,0-.9,0-.2,0-.3,0-.4l-.6-.2h-.6l-1,.4-1.3.6c-.3.3-1.2,1.3-2.7,2.9-.2.2-.4.5-.6,1,0,.3-.3.5-.4.8l-.5.7-.5,1-.3.6v.8c.1,0,.4-.2.7-.5l.4-.2h0l2.5-1.9c1-.6,1.5-1,1.5-1.1"/>
          <path class="cls-1" d="M477.7,588.4l.3-1.8c0,0,0-.2.1-.3s.1-.2.1-.3l.3-1.3c.3-.9.5-1.4.5-1.5.2-1.2.4-1.9.4-2-.1-2.4.1-3.6.7-3.7h.3l1.5-6.8s0-.2.1-.5l.6-2.5.5-1.4.7-3.1c.4-.5.6-1.2.6-1.8.1-.3.3-1.1.6-2.5.2-1,.6-1.8,1-2.2.5,0,.9-.2,1.2-.3.6.4,1,.6,1.3.7l-1.1,2.9-1.1,5.4-.7,1.9c-.2.5-.3.7-.3.8-.3,1.2-.4,1.9-.5,2-.5,2.4-.9,4-1,4.8l-.2,1.2-.7,2.1-.3,1.1-.4,1.2-.3.8-.4,1.6-.3.9c-.2.4-.3.7-.3.9v.3c-.1.4-.2.7-.3.9l-.2,2.9c-.1.7-.2,1.1-.2,1.4v1.8c-.1.6-.1,1,.1,1.3.1.3.1.6.1.8v.2c.1.5.1.8.2,1.2,0,0,0,0,.1.2.1.2.1.5,0,.8-.2.6-.5.9-.9,1.2l-.9,2-.7.6c0,0-.2,0-.5,0h-.4l-.5-.5c-.3-.3-.5-.7-.7-.9v-1c0-.3.1-.5.2-.6.2-.3.3-.7.3-1s-.1-.7-.3-1.1v-.5c.1,0,.1-.8.1-.8,0,0,.1-.2.2-.6.2-.4.2-.7.2-.8-.1-.3,0-.7.3-1.3v-1c.6-.8.6-1.4.6-1.9"/>
          <path class="cls-1" d="M491.6,587.7h0l1.7-5.5c0,0,.2-.6.5-1.5l.2-1c0,0,.1-.2.1-.3v-.2h0c.4-.7.5-1.4.3-1.9.1,0,.1-.3.1-.4s.1,0,.1-.2v-.6c.1,0,.1,0,.1,0v-.2c0-.2,0-.3.1-.4l.8-.9h.9l.4-.2.8.2.8,1.5h.2c0,0-.2.6-.2.6l-.3.5-.6,1.5-.8,1.7c-.1,0-.2.2-.3.3-.1.7-.2,1.1-.3,1.3l-.5,1.1c-.2.5-.3.8-.3,1.1-1,3.3-1.5,5.3-1.5,6.1l-.2,1.3-.5,3v2.2c.1,0-.3.8-.3.8l-.5.2-.9.6c-.3,0-.5-.2-.6-.4l-.6-.3c-.1,0-.2-.2-.3-.5v-1.9l.5-3.1c0,0,.1-.5.3-1,0,0,.1-.2.1-.4,0,0,0,0,.1-.2l.3-2.3c.2-.3.3-.4.3-.5M501.7,564.1v.6c-.1,0-1.4,1.6-1.4,1.6-.1,0-.2.3-.3.4-.2,0-.3,0-.5.2l-2.2-1.1-1.2-1.3v-1c-.1,0,.7-.7.7-.7l.2-.5,1-.4,2.1.3,1.3,1.7c.1.1.2.2.3.2"/>
          <path class="cls-1" d="M188.5,587.4c-.1-.5-.1-1-.1-1v1.2c-.1,0,.1-.2.1-.2Z"/>
          <path class="cls-1" d="M188.6,589.1c0-.2,0-1-.1-1.7h-.2c0,0,.1-1.1.1-1.1v-2.4c.1,0,.5-1.3.5-1.3l.6-1.7c0-.3,0-.7.2-1.2.3-.2.5-.7.6-1.3.2-.7.3-1.2.4-1.5,0-.2-.1-.3-.1-.5l-2.2-1.3-1.3.5c-.3.2-.6.6-.9,1,0,0-.1.3-.3.5,0,.2-.1.4-.2.6v.4c-.1,0-.1.5-.1.5v.5c.1.5.3,1.5.4,2.9l-.2,2.1-.5,1.9-1,4.3c.2.4,0,1.4-.5,3l-.2.4c0,.2,0,.5-.1.9,0,0-.1.3-.1.7v.4c.1,0,.4.2.4.2.2,0,.6.2,1.1.3s.8,0,1,0c0,0,.2-.3.3-.6h.5c0,0,.1-.2.1-.3l.5-.6.2-.3c-.2-1.1.7-4.3.7-4.3,0,0,.3-.7.4-1"/>
          <path class="cls-1" d="M200.3,575.3c-.1,0-.2,0-.4,0h-.9c-.9.2-2.1.6-3.8,1.2-.2,0-.6.3-1.1.6l-1.4,1-.5.4-.6.5-.9.8c-.2.2-.6.7-1.1,1.4-.1,0-.2.2-.4.4l-2.2,3.3,1,1.8-.2,1.6c.1-.2.3-.3.4-.5,1-1.3,1.7-2.3,2.1-3l.3-.5.5-.5c0,0,.1-.2.3-.4l1.3-1.3c0,0,.3-.4.8-.9l1.9-1.7c.1,0,.2,0,.3,0,.6-.6,1.3-.9,2.2-1.1.2,0,.6,0,1.2-.4.6-.2,1-.4,1.3-.3.5,0,.8,0,.9,0l.8-.5h.2l.6-.6c.1,0,.1-.2.1-.4-.1-.3-1.1-.6-2.7-1"/>
          <path class="cls-1" d="M271,587.3c-.1-.5-.1-1-.1-1v1.2c-.1,0,.1-.2.1-.2Z"/>
          <path class="cls-1" d="M271.1,589c0-.2,0-1-.1-1.7h-.2c0,0,.1-1.1.1-1.1v-2.4c.1,0,.5-1.3.5-1.3l.6-1.7c0-.3,0-.7.2-1.2.3-.2.5-.7.6-1.3.2-.7.3-1.2.4-1.5,0-.2-.1-.3-.1-.5l-2.2-1.3-1.3.5c-.3.2-.6.6-.9,1,0,0-.1.3-.3.5,0,.2-.1.4-.2.6v.4c-.1,0-.1.5-.1.5v.5c.2.5.3,1.5.4,2.9l-.2,2.1-.5,1.9-1,4.3c.2.4,0,1.4-.5,3l-.2.4c0,.2,0,.5-.1.9,0,0-.1.3-.1.7v.4c.1,0,.4.2.4.2.2,0,.6.2,1.1.3s.8,0,1,0c0,0,.2-.3.3-.6h.5c0,0,.1-.2.1-.3l.5-.6.2-.3c-.2-1.1.8-4.3.8-4.3,0,0,.2-.8.3-1"/>
          <path class="cls-1" d="M282.8,575.1c-.1,0-.2,0-.4,0h-.9c-.9.2-2.1.6-3.8,1.2-.2,0-.6.3-1.1.6l-1.4,1-.5.4-.6.5-.9.8c-.2.2-.6.7-1.1,1.4-.1,0-.2.2-.4.4l-2.3,3.3,1,1.8-.2,1.6c.1-.2.3-.3.4-.5,1-1.3,1.7-2.3,2.1-3l.3-.5.5-.5c0,0,.1-.2.3-.4l1.3-1.3c0,0,.3-.4.8-.9l1.9-1.7c.1,0,.2,0,.3,0,.6-.6,1.3-.9,2.2-1.1.2,0,.6,0,1.2-.4.6-.3,1-.4,1.3-.3.5,0,.8,0,.9,0l.8-.4h.2l.6-.6c.1,0,.1-.2.1-.4,0-.3-.9-.7-2.6-1.1"/>
          <path class="cls-1" d="M364.5,587.3c-.1-.5-.1-1-.1-1v1.2c-.1,0,.1-.2.1-.2Z"/>
          <path class="cls-1" d="M364.6,589c0-.2,0-1-.1-1.7h-.2c0,0,.1-1.1.1-1.1v-2.4c.1,0,.5-1.3.5-1.3l.6-1.7c0-.3,0-.7.2-1.2.3-.2.5-.7.6-1.3.1-.7.3-1.2.4-1.5,0-.2-.1-.3-.1-.5l-2.2-1.3-1.3.5c-.3.2-.6.6-.9,1,0,0-.1.3-.3.5,0,.2-.1.4-.2.6v.4c-.1,0-.1.5-.1.5v.5c.1.5.3,1.5.4,2.9l-.2,2.1-.5,1.9-1,4.3c.2.4,0,1.4-.4,3l-.2.4c0,.2,0,.5-.1.9,0,0-.1.3-.1.7v.4c.1,0,.4.2.4.2.2,0,.6.2,1.1.3s.8,0,1,0c0,0,.2-.3.3-.6h.5c0,0,.1-.2.1-.3l.5-.6.2-.3c-.2-1.1.7-4.3.7-4.3,0,0,.2-.8.3-1"/>
          <path class="cls-1" d="M376.3,575.1c-.1,0-.2,0-.4,0h-.9c-.9.2-2.1.6-3.8,1.2-.2,0-.6.3-1.1.6l-1.4,1-.5.4-.6.5-.9.8c-.2.2-.6.7-1.1,1.4-.1,0-.2.2-.4.4l-2.3,3.3,1,1.8-.2,1.6c.1-.2.3-.3.4-.5,1-1.3,1.7-2.3,2.1-3l.3-.5.5-.5c0,0,.1-.2.3-.4l1.3-1.3c0,0,.3-.4.8-.9l1.9-1.7c.1,0,.2,0,.3,0,.6-.6,1.3-.9,2.2-1.1.2,0,.6,0,1.2-.4.6-.3,1-.4,1.3-.3.5,0,.8,0,.9,0l.8-.4h.2l.6-.6c.1,0,.1-.2.1-.4,0-.3-.9-.7-2.6-1.1"/>
          <path class="cls-1" d="M445.1,587.3c-.1-.5-.1-1-.1-1v1.2c-.1,0,.1-.2.1-.2Z"/>
          <path class="cls-1" d="M445.2,589c0-.2,0-1-.1-1.7h-.2c0,0,.1-1.1.1-1.1v-2.4c.1,0,.5-1.3.5-1.3l.6-1.7c0-.3,0-.7.2-1.2.3-.2.5-.7.6-1.3.2-.7.3-1.2.4-1.5,0-.2-.1-.3-.1-.5l-2.2-1.3-1.3.5c-.3.2-.6.6-.9,1,0,0-.1.3-.3.5,0,.2-.1.4-.2.6v.4c-.1,0-.1.5-.1.5v.5c.1.5.3,1.5.4,2.9l-.2,2.1-.5,1.9-1,4.3c.2.4,0,1.4-.5,3l-.2.4c.1.2,0,.5-.1.9,0,0-.1.3-.1.7v.4c.1,0,.4.2.4.2.2,0,.6.2,1.1.3s.8,0,1,0c0,0,.1-.3.3-.6h.5c0,0,.1-.2.1-.3l.5-.6.2-.3c-.2-1.1.8-4.3.8-4.3,0,0,.2-.8.3-1"/>
          <path class="cls-1" d="M456.9,575.1c-.1,0-.2,0-.4,0h-.8c-.9.2-2.1.6-3.8,1.2-.2,0-.6.3-1.1.6l-1.4,1-.5.4-.6.5-.9.8c-.2.2-.6.7-1.1,1.4-.1,0-.2.2-.4.4l-2.3,3.3,1,1.8-.2,1.6c.1-.2.3-.3.4-.5,1-1.3,1.7-2.3,2.1-3l.3-.5.5-.5c0,0,.1-.2.3-.4l1.3-1.3c0,0,.3-.4.8-.9l1.9-1.7c.1,0,.2,0,.3,0,.6-.6,1.3-.9,2.2-1.1.2,0,.6,0,1.2-.4.6-.3,1-.4,1.3-.3.5,0,.8,0,.9,0l.8-.4h.2l.6-.6c.1,0,.1-.2.1-.4,0-.3-1.1-.7-2.7-1.1"/>
          <path class="cls-1" d="M284.2,583h.1q0,0-.1-.2h-.1v.2h.1Z"/>
          <path class="cls-1" d="M310.7,576.9l-.9-.2h-1c.2-.2-.1-.2-.9-.3-.6,0-.8,0-.7,0h-.4c-.3,0-.6,0-.8,0h-.6c0,0-1.9,0-1.9,0-.1,0-.3,0-.6,0h-.9c-.6,0-.9,0-1.1,0h-2c.1-.3.1-.5.2-.6l.3-1.2.6-1.9.6-1.2c0-.3.1-.9.5-1.7.3-.8.5-1.3.5-1.6.1-.2.3-.5.6-1,0,0,.1-.3.3-.8l.3-.8.2-.8c.1-.3.2-.6.4-.9l.8-1.5.4-.7c.1,0,.1-.5,0-1.3l-.3-.4v-.3c-.1,0-2.2-1.4-2.2-1.4h-.6c0,0-.4.5-.4.5-.3,0-.6.3-.8.8v.8c.1,0-.1,1.1-.1,1.1-.1.8-.2,1.2-.3,1.3v.2c-.6,1.6-.9,2.8-.9,3.7-.1,0-.2.2-.3.4l-.8,2.3-1.9,7.2-.9.2h-1c-.5.2-.9.3-1.3.4l-1.2.2-.4.2h-.3c-.3,0-.5,0-.8.4l-1.1.3c-.1,0-.2,0-.4,0h-.6l-2.2.5-1.6.8c-.1,0-.2,0-.4,0l-.6,1.2v.5c.1,0,.1.2.2.4,0,.3.3.7.8,1.2l2.1-.6c.2,0,.3-.2.4-.3h.3c0,0,.1-.2.1-.2l.6-.4c.2,0,.3,0,.4,0,.2,0,.4,0,.4,0h0c.1,0,.2-.2.3-.3l3.2-.9c1-.6,1.8-.7,2.4-.4.1,0,.2,0,.3.3l-.6,2.9-.6,3.9v1.2l-.3,2.4-.5.8-.3,1.6c-.1,0-.1.2-.1.6s-.1.5-.1.5c-.2.8-.4,1.6-.5,2.5l.3,1.5v.2c0,0,0,.2-.1.3.1.2.2.3.4.4l2.7-.6c.1,0,.2-.3.3-.3v-.3l.3-.4v-.4c-.1,0-.2-1.9-.2-1.9l.2-1.2c.1-.4.2-.7.2-.9l.2-1.5c0,0,0-.7.2-1.7l.2-1.2c0-.3.1-.4.1-.5v-1.6c.1,0,.7-1.8.7-1.8.1,0,.1,0,.1-.4,0,.2,0,0,.1-.6v-.9c.1-.2.1-.4.2-.5,0-.4.1-.7.4-1.1v-.6c0-.5.1-.8.2-.9l5.7-.7,1.5-.4h.1q0,0,0,0h.6c.4,0,.6,0,.7,0h1.4c1.3,0,2,0,2,0l.6-.5.2-.2-.3-.3Z"/>
          <path class="cls-1" d="M419.8,578h0s0,0,0,0h0Z"/>
          <path class="cls-1" d="M409.7,574.2h0v-.2.2q0-.1,0,0"/>
          <path class="cls-1" d="M419.7,578h0"/>
          <path class="cls-1" d="M419.4,579.1c.1,0,.3-.3.3-.4.1-.2.1-.5.1-.7h-.1c-.1,0-.3,0-.9-.2-.6,0-.8-.2-.7-.2h-.4c-.3,0-.5,0-.8,0h-.6c0,0-1.9-.3-1.9-.3-.1,0-.3-.2-.6-.2-.5,0-.8,0-.9,0-.5,0-.9,0-1.1-.2h-1.1q0,0-.1,0c-.5-.2-1,0-1.6,0s-.4-.3-.3-.7c.2-.9,0-1.7.4-2.6.3-.7.5-1.5.8-2.2.1-.2.2-.4.3-.4.1,0,.2-.3.1-.6l.4-.5c.5-.9.9-1.5,1.3-1.9,0,0,.1-.2.1-.3l.6-.9.2-.3.4-.5.4-.5.5-.5c.9-1,1.6-1.7,2.1-2.2l.7-.8,1.5-1.1c.4,0,.7-.2.7-.3h.4c0,0,.3,0,.3,0,0,.2.1.5.1.7,0,.4-.1.5-.2.8-.1.8,1,1.2,1.5.7s.3-1,.6-1.4c.1,0,.2-.3.1-.6v-.3c.1,0,.2-.4.2-.4l.2-.5-.6-1.3c-.6-.7-1.3-.9-1.9-.7-.2,0-.5,0-.7,0l-3.2,1.9-1.1.9-2,1.8-.2.2c-.2.2-.3.4-.3.7l-1.4,1.6-.4.3-.7,1c-.4.5-.6.9-.7,1.1-1.8,2.8-3,5.5-3.6,8.8-.1.2-.2.5-.3.8h-.2v.3h-.3c-.5.2-.9.3-1.3.3h-1.2c0,0-.4.3-.4.3h-.3c-.3,0-.6,0-.8.2l-1.1.2c-.1,0-.3,0-.4,0h-.5l-2.2.4-1.7.7c-.1,0-.2,0-.4,0l-.7,1.1v.5c.1,0,.1.2.1.4,0,.3.2.7.7,1.3l2.2-.4c.2,0,.3-.2.4-.2h.3c0,0,.1-.2.1-.2l.6-.3h.4c.2,0,.4,0,.4,0,.1,0,.2-.2.3-.3l3.2-.6h1c0,0-.3.6-.3.6,0,.5-.2,1.1-.4,1.7-.1.3-.2.5-.3.8,0,0-.6,4.1-1.1,6.2,0,0,0,.2-.1.3v.7c-.1.9-.1,1.6-.2,1.9-.2.9-.2,1.7-.1,2.3v2.3c.1,0,.3,0,.3,0l.5,1.4h.8c.4-.2.7-.5,1-.7.2-.2.3-.5.4-.8.2-.6.3-1.2.3-2l-.2-.6v-.2c.1-.2.1-.3,0-.4l.2-.9c.1-.4.2-.7.2-.9-.2-.6-.2-1.1-.1-1.3l.2-2.5s0-.3.1-.3c.3-1.8.8-3.8.8-3.8-.1,0,0-.4.2-.8.4-1.2.7-2.1.9-2.7.1-.3.2-.5.3-.7h.4c.4,0,1,0,1.2,0,1.9,0,3.8,0,5.6-.2.3,0,1.5-.4,1.7,0h0c.6,0,1,0,1.5.2.4,0,.9.3,1.3,0,.6-.5.7-.6.8-.7"/>
          <path class="cls-1" d="M527.5,578h0Z"/>
          <path class="cls-1" d="M517.4,574.2h0v-.2c0,0,0,0,0,.2q0-.1,0,0"/>
          <path class="cls-1" d="M527.5,578h0"/>
          <path class="cls-1" d="M527.1,579.1c0,0,.3-.3.3-.4,0-.2,0-.5,0-.7h0c0,0-.3,0-.9-.2-.6,0-.8-.2-.7-.2h-.4c-.3,0-.5,0-.8,0h-.6c0,0-1.9-.3-1.9-.3,0,0-.3-.2-.6-.2-.5,0-.8,0-.9,0-.5,0-.9,0-1.1-.2h-1.1q0,0,0,0c-.5-.2-1,0-1.6,0s-.4-.3-.3-.7c.2-.9,0-1.7.4-2.6.3-.7.5-1.5.8-2.2,0-.2.2-.4.3-.4,0,0,.2-.3,0-.6l.4-.5c.5-.9.9-1.5,1.3-1.9,0,0,0-.2,0-.3l.6-.9.2-.3.4-.5.4-.5.5-.5c.9-1,1.6-1.7,2.1-2.2l.7-.8,1.5-1.1c.4,0,.7-.2.7-.3h.4c0,0,.3,0,.3,0,0,.2,0,.5,0,.7,0,.4,0,.5-.2.8,0,.8,1,1.2,1.5.7s.3-1,.6-1.4c0,0,.2-.3,0-.6v-.3c0,0,.2-.4.2-.4l.2-.5-.6-1.3c-.6-.7-1.3-.9-1.9-.7-.2,0-.5,0-.7,0l-3.2,1.9-1.1.9-2,1.8-.2.2c-.2.2-.3.4-.3.7l-1.4,1.6-.4.3-.7,1c-.4.5-.6.9-.7,1.1-1.8,2.8-3,5.5-3.6,8.8,0,.2-.2.5-.3.8h-.2v.3h-.3c-.5.2-.9.3-1.3.3h-1.2c0,0-.4.3-.4.3h-.3c-.3,0-.6,0-.8.2l-1.1.2c-.1,0-.3,0-.4,0h-.5l-2.2.4-1.7.7c-.1,0-.2,0-.4,0l-.7,1.1v.5c.1,0,.1.2.1.4,0,.3.2.7.7,1.3l2.2-.4c.2,0,.3-.2.4-.2h.3c0,0,.1-.2.1-.2l.6-.3h.4c.2,0,.4,0,.4,0,.1,0,.2-.2.3-.3l3.2-.6h1c0,0-.3.6-.3.6,0,.5-.2,1.1-.4,1.7-.1.3-.2.5-.3.8,0,0-.6,4.1-1.1,6.2,0,0,0,.2-.1.3v.7c-.1.9-.1,1.6-.2,1.9-.2.9-.2,1.7-.1,2.3v2.3c.1,0,.3,0,.3,0l.5,1.4h.8c.4-.2.7-.5,1-.7.2-.2.3-.5.4-.8.2-.6.3-1.2.3-2l-.2-.6v-.2c.1-.2.1-.3,0-.4l.2-.9c0-.4.2-.7.2-.9-.2-.6-.2-1.1,0-1.3l.2-2.5s0-.3,0-.3c.3-1.8.8-3.8.8-3.8,0,0,0-.4.2-.8.4-1.2.7-2.1.9-2.7,0-.3.2-.5.3-.7h.4c.4,0,1,0,1.2,0,1.9,0,3.8,0,5.6-.2.3,0,1.5-.4,1.7,0h0c.6,0,1,0,1.5.2.4,0,.9.3,1.3,0,.6-.5.7-.6.8-.7"/>
          <path class="cls-1" d="M126.5,607.2s-4.6,3.5-6.8,4.5"/>
        </g>
      </g>
    </g>
  </g>
</svg>