<?xml version="1.0" encoding="UTF-8"?>
<svg xmlns="http://www.w3.org/2000/svg" version="1.1" viewBox="0 0 266.7 151">
  <defs>
    <style>
      .cls-1 {
        fill: #fff;
      }

      .cls-2 {
        fill: #929596;
      }

      .cls-3 {
        fill: #bd2934;
      }

      .cls-4 {
        fill: #6d6e71;
      }
    </style>
  </defs>
  <!-- Generator: Adobe Illustrator 28.7.1, SVG Export Plug-In . SVG Version: 1.2.0 Build 142)  -->
  <g>
    <g id="Layer_1">
      <g>
        <g>
          <g>
            <path class="cls-4" d="M20.9,125.8v-4.2h1.8v19.5c0,6.6-3.7,9.8-11.2,9.8s-5.8-.5-7.5-1.6c-1.8-1.1-2.8-2.9-3.2-5.3h1.8c.5,3.5,3.4,5.3,8.8,5.3s9.4-2.7,9.4-8.1v-4.3h0c-1.7,3.3-5,4.9-9.6,4.9s-6.6-1.1-8.6-3.3c-1.7-1.9-2.6-4.3-2.6-7.3s.9-5.3,2.6-7.2c2-2.1,4.9-3.2,8.5-3.2s7.9,1.6,9.6,4.8h0ZM11.2,122.6c-2.6,0-4.8.7-6.5,2.1-1.9,1.6-2.8,3.8-2.8,6.6s.8,5.2,2.5,6.7c1.7,1.6,4,2.3,7.1,2.3s5.1-.7,6.7-2.2c1.8-1.6,2.7-3.9,2.7-6.9s-.9-4.8-2.6-6.3c-1.7-1.5-4.1-2.3-7.1-2.3Z"/>
            <path class="cls-4" d="M27.5,142.2v-20.5h1.8v4.9c1.4-3.7,4.3-5.5,8.6-5.5s1,0,1.5.2v1.8c-.4-.2-1.1-.2-2.1-.2-2.5,0-4.5.8-6,2.5-1.3,1.6-2,3.5-2,5.7v11.1h-1.8Z"/>
            <path class="cls-4" d="M63.4,132.3h-20.9c0,2.6.9,4.8,2.6,6.4,1.8,1.7,4.2,2.5,7.2,2.5,4.3,0,7.2-2,8.7-5.9h1.8c-1.7,5-5.3,7.5-10.8,7.5s-6.3-1-8.3-3c-2.1-2-3.1-4.7-3.1-8.1s.8-5,2.4-7c2.1-2.5,5.1-3.8,9-3.8s6.3,1.1,8.3,3.2c2,2.1,3,4.8,3,8.1ZM42.5,130.7h18.9c-.4-2.7-1.4-4.8-3.2-6.2-1.7-1.3-3.7-1.9-6.2-1.9s-4.7.7-6.4,2.2c-1.6,1.5-2.7,3.4-3.1,5.9Z"/>
            <path class="cls-4" d="M74.3,142.2l-10.4-20.5h2.1l9.2,18.5,8.5-18.5h2.1l-11.3,24.2c-.6,1.3-1.2,2.2-1.8,2.7-.8.7-2,1-3.5,1h-2.6v-1.6h2.2c1.2,0,2-.2,2.5-.6.5-.4,1.1-1.4,1.9-3.1l1-2.1Z"/>
            <path class="cls-4" d="M105.4,127.7h-1.8c-.1-1.7-.8-3-2-3.8-1.2-.8-3.1-1.2-5.8-1.2-4.5,0-6.7,1.4-6.7,4.1s1.4,3.1,4.1,3.5l6.5.9c4.3.6,6.5,2.5,6.5,5.6s-3.3,6.1-9.8,6.1-9.8-2.4-10-7.1h1.8c.2,1.6.7,2.8,1.4,3.5,1.3,1.3,3.7,1.9,7.2,1.9,5,0,7.5-1.5,7.5-4.5s-1.4-3.4-4.1-3.7l-7.2-1c-3.9-.5-5.8-2.2-5.8-5.2s.6-2.8,1.7-3.8c1.5-1.4,3.8-2,6.9-2,6,0,9.2,2.2,9.6,6.7Z"/>
            <path class="cls-4" d="M111.6,121.7v-6.9h1.8v6.9h6.1v1.6h-6.1v14.8c0,1.2.4,2,1.1,2.4.5.3,1.4.5,2.6.5s.9,0,2.6-.2v1.6c-.8.2-1.8.2-3.1.2-2.1,0-3.4-.4-4.1-1.3-.6-.7-.9-2.2-.9-4.3v-13.8h-4.7v-1.6h4.7Z"/>
            <path class="cls-4" d="M121.3,131.9c0-3,1-5.6,3.1-7.6,2.2-2.2,5-3.3,8.5-3.3s6.4,1.1,8.5,3.3c2,2.1,3.1,4.6,3.1,7.6s-1,5.6-3.1,7.6c-2.2,2.2-5,3.3-8.5,3.3s-6.4-1.1-8.5-3.3c-2-2.1-3.1-4.6-3.1-7.6ZM123.2,131.9c0,2.5.8,4.7,2.4,6.4,1.8,1.9,4.2,2.9,7.3,2.9s5.5-1,7.3-2.9c1.6-1.7,2.4-3.9,2.4-6.4s-.8-4.7-2.4-6.4c-1.8-1.9-4.2-2.9-7.3-2.9s-5.5,1-7.3,2.9c-1.6,1.7-2.4,3.9-2.4,6.4Z"/>
            <path class="cls-4" d="M148.1,142.2v-20.5h1.8v4.1c1.7-3.2,4.6-4.7,8.7-4.7s6.9,1.1,8.3,3.3c.8,1.2,1.2,2.9,1.2,5.2v12.7h-1.8v-12.6c0-2.3-.5-4-1.5-5.1-1.2-1.3-3.2-1.9-6.1-1.9s-5,.8-6.6,2.4c-1.4,1.4-2.1,3.1-2.1,5.2v12h-1.8Z"/>
            <path class="cls-4" d="M194.5,132.3h-20.9c0,2.6.9,4.8,2.6,6.4,1.8,1.7,4.2,2.5,7.2,2.5,4.3,0,7.2-2,8.7-5.9h1.8c-1.7,5-5.3,7.5-10.8,7.5s-6.3-1-8.3-3c-2.1-2-3.1-4.7-3.1-8.1s.8-5,2.4-7c2.1-2.5,5.1-3.8,9-3.8s6.3,1.1,8.3,3.2c2,2.1,3,4.8,3,8.1ZM173.5,130.7h18.9c-.4-2.7-1.4-4.8-3.2-6.2-1.7-1.3-3.7-1.9-6.2-1.9s-4.7.7-6.4,2.2c-1.6,1.5-2.7,3.4-3.1,5.9Z"/>
            <path class="cls-4" d="M206.9,142.2v-20.5h1.8v4.1c1.7-3.2,4.6-4.7,8.7-4.7s6.9,1.1,8.3,3.3c.8,1.2,1.2,2.9,1.2,5.2v12.7h-1.8v-12.6c0-2.3-.5-4-1.5-5.1-1.2-1.3-3.2-1.9-6.1-1.9s-5,.8-6.6,2.4c-1.4,1.4-2.1,3.1-2.1,5.2v12h-1.8Z"/>
            <path class="cls-4" d="M253.3,132.3h-20.9c0,2.6.9,4.8,2.6,6.4,1.8,1.7,4.2,2.5,7.2,2.5,4.3,0,7.2-2,8.7-5.9h1.8c-1.7,5-5.3,7.5-10.8,7.5s-6.3-1-8.3-3c-2.1-2-3.1-4.7-3.1-8.1s.8-5,2.4-7c2.1-2.5,5.1-3.8,9-3.8s6.3,1.1,8.3,3.2c2,2.1,3,4.8,3,8.1ZM232.3,130.7h18.9c-.4-2.7-1.4-4.8-3.2-6.2-1.7-1.3-3.7-1.9-6.2-1.9s-4.7.7-6.4,2.2c-1.6,1.5-2.7,3.4-3.1,5.9Z"/>
            <path class="cls-4" d="M258.5,121.7v-6.9h1.8v6.9h6.1v1.6h-6.1v14.8c0,1.2.4,2,1.1,2.4.5.3,1.4.5,2.6.5s.9,0,2.6-.2v1.6c-.8.2-1.8.2-3.1.2-2.1,0-3.4-.4-4.1-1.3-.6-.7-.9-2.2-.9-4.3v-13.8h-4.7v-1.6h4.7Z"/>
          </g>
          <circle class="cls-4" cx="200.4" cy="140.1" r="2.3"/>
        </g>
        <path class="cls-2" d="M110.7,0c2.9,0,6.3.2,9.7.6,11.4,1.2,22.6,3.7,33.6,7.1,6.1,1.9,11.9,4.3,17.4,7.6,4.3,2.6,8.1,5.6,11.3,9.4,4.1,4.9,6.6,10.5,7.5,16.8,1,6.9-.1,13.6-2.6,20-2.3,6.1-5.6,11.6-9.7,16.6-6.5,8.2-14.4,14.9-23.6,19.9-4.3,2.3-8.9,4.1-13.7,5.2-4.4,1-8.8,1.4-13.2,1-7.5-.6-14.2-3.3-20.2-7.7-5.2-3.8-9.5-8.6-13.2-13.9-3.7-5.3-6.8-11-9.3-17-3.1-7.3-5.7-14.7-7.5-22.4-1.2-5.3-2-10.6-1.8-16,.1-3.6.7-7.1,1.9-10.5,2.4-6.6,6.8-11.2,13.3-13.7,2.9-1.1,5.9-1.9,9-2.4C103.4.2,107.5,0,110.7,0ZM179,53.1c0-2.9-.3-5.8-1.1-8.6-1.7-6.3-5.2-11.5-9.7-16-3.4-3.3-7.2-6.2-11.3-8.5-10.2-5.9-21.1-10.4-32.5-13.4-4.4-1.2-9-2-13.6-2.1-2.9,0-5.8,0-8.6.8-3.2.8-6,2.2-8.4,4.6-2.1,2.1-3.6,4.6-4.6,7.4-1.5,3.9-2.1,8-2.3,12.1-.2,4.2,0,8.5.6,12.7.7,5.6,1.8,11.2,3.3,16.7,1.7,6.3,3.8,12.5,6.7,18.3,2.5,5,5.6,9.7,9.7,13.7,7.5,7.3,16.5,10.3,26.8,9.2,3.3-.3,6.5-1.2,9.6-2.4,7.2-2.7,13.5-6.8,19.1-12,5.2-4.8,9.5-10.3,12.5-16.7,2.4-5,3.8-10.3,3.7-15.9Z"/>
        <path class="cls-1" d="M179,53.1c0,5.6-1.4,10.8-3.7,15.9-3,6.4-7.3,11.9-12.5,16.7-5.6,5.2-11.9,9.3-19.1,12-3.1,1.2-6.3,2-9.6,2.4-10.4,1.1-19.4-1.9-26.8-9.2-4.1-4-7.1-8.6-9.7-13.7-3-5.8-5.1-12-6.7-18.3-1.4-5.5-2.5-11-3.3-16.7-.5-4.2-.8-8.4-.6-12.7.2-4.1.8-8.2,2.3-12.1,1.1-2.8,2.6-5.3,4.6-7.4,2.3-2.4,5.2-3.8,8.4-4.6,2.8-.7,5.7-.9,8.6-.8,4.6.1,9.2.9,13.6,2.1,11.4,3.1,22.3,7.5,32.5,13.4,4.1,2.4,7.9,5.2,11.3,8.5,4.6,4.5,8,9.7,9.7,16,.8,2.8,1.1,5.7,1.1,8.6ZM148.7,77.9c.1-.2.3-.5.4-.7.1-.3.3-.5.4-.8,1.5-3.1,2.2-6.5,2.2-10,0-14.5,0-29.1,0-43.6,0-.2,0-.5,0-.7-.9-.2-9.5-.1-10.1,0,0,.7,0,1.3,0,2s0,1.4,0,2.1c0,.6,0,1.3-.1,1.9-.1,0-.2-.2-.3-.3-1.8-3.3-4.6-5.3-8.2-6.4-2.8-.8-5.6-.9-8.5-.5-4.8.7-8.8,2.8-11.9,6.5-3.5,4.1-5.2,8.9-5.6,14.3-.2,2.1,0,4.2.1,6.2.3,3,1,6,2.2,8.8,1.8,4.2,4.7,7.4,8.8,9.4,2.1,1,4.3,1.6,6.7,1.8,1.7.2,3.4.3,5.1,0,4.8-.8,8.5-3.2,11.2-7.3.1-.2.2-.3.3-.5h.2c0,.2,0,.4,0,.5,0,2,0,4,0,6,0,1.4,0,2.9-.4,4.3-.9,3.8-3.1,6.3-6.9,7.3-3.2.8-6.4.8-9.6,0-3.1-.7-5-2.6-5.8-5.7,0-.2-.1-.3-.2-.5h-10.1c0,.3,0,.5,0,.7.2,1,.4,2,.7,3,1.2,3.6,3.7,6.2,7.1,7.9,3,1.6,6.3,2.3,9.7,2.6,2.5.2,5,.2,7.6-.1,2.8-.3,5.4-.9,7.9-2.1.2,0,.4-.1.6-.2"/>
        <path class="cls-4" d="M142,83.8c-.2,0-.4.1-.6.2-2.5,1.1-5.2,1.8-7.9,2.1-2.5.3-5,.4-7.6.1-3.4-.3-6.7-1-9.7-2.6-3.4-1.7-5.9-4.3-7.1-7.9-.3-1-.5-2-.7-3,0-.2,0-.4,0-.7h10.1c0,.2.1.3.2.5.8,3,2.7,5,5.8,5.7,3.2.8,6.4.8,9.6,0,3.8-1,6-3.5,6.9-7.3.3-1.4.4-2.8.4-4.3,0-2,0-4,0-6,0-.2,0-.3,0-.5h-.2c-.1.1-.2.3-.3.5-2.6,4.1-6.4,6.5-11.2,7.3-1.7.3-3.4.2-5.1,0-2.3-.2-4.5-.8-6.7-1.8-4.2-2-7-5.2-8.8-9.4-1.2-2.8-1.9-5.8-2.2-8.8-.2-2.1-.3-4.2-.1-6.2.4-5.3,2.1-10.2,5.6-14.3,3.2-3.6,7.2-5.8,11.9-6.5,2.9-.4,5.7-.3,8.5.5,3.6,1.1,6.4,3.1,8.2,6.4,0,.1.1.2.3.3.2-.6,0-1.3.1-1.9,0-.7,0-1.4,0-2.1s0-1.3,0-2c.6-.2,9.2-.2,10.1,0,0,.2,0,.4,0,.7,0,14.5,0,29.1,0,43.6,0,3.5-.6,6.8-2.2,10-.1.3-.3.5-.4.8-.1.2-.3.5-.4.7M141.5,44.1c0-.7,0-1.5-.1-2.2-.2-2.3-.7-4.5-1.7-6.6-1.3-2.8-3.4-4.8-6.3-5.8-1.9-.7-3.9-.8-5.9-.6-2.4.3-4.5,1.3-6.2,3-1.2,1.2-2,2.6-2.7,4.2-.9,2.1-1.3,4.3-1.5,6.6-.3,3.4,0,6.6,1.3,9.8.8,2.1,2,4,3.9,5.3,3.7,2.7,7.7,2.9,11.8,1.2,2.6-1.1,4.3-3.2,5.5-5.8,1.3-2.9,1.8-5.9,1.8-9.1Z"/>
        <path class="cls-1" d="M141.5,44.1c0,3.2-.5,6.2-1.8,9.1-1.2,2.5-2.9,4.7-5.5,5.8-4.1,1.7-8.1,1.5-11.8-1.2-1.8-1.3-3-3.2-3.9-5.3-1.3-3.2-1.6-6.4-1.3-9.8.2-2.3.6-4.5,1.5-6.6.6-1.5,1.5-3,2.7-4.2,1.7-1.7,3.8-2.7,6.2-3,2-.3,4,0,5.9.6,2.9,1,5,3,6.3,5.8,1,2.1,1.5,4.3,1.7,6.6,0,.7,0,1.5.1,2.2Z"/>
        <circle class="cls-3" cx="145.7" cy="81.5" r="4.8"/>
      </g>
    </g>
  </g>
</svg>