<?xml version="1.0" encoding="UTF-8"?>
<svg xmlns="http://www.w3.org/2000/svg" version="1.1" viewBox="0 0 255 106.9">
  <defs>
    <style>
      .cls-1 {
        fill: #8fad3d;
      }

      .cls-2 {
        fill: #868686;
      }
    </style>
  </defs>
  <!-- Generator: Adobe Illustrator 28.7.1, SVG Export Plug-In . SVG Version: 1.2.0 Build 142)  -->
  <g>
    <g id="Layer_1">
      <g>
        <path class="cls-1" d="M1.2,89.9h2v6.2h3.5v-6.2h2v16.5h-2v-7.3h-3.5v7.3H1.2v-16.5Z"/>
        <path class="cls-1" d="M11.2,89.9h5.8v3.1h-3.8v3h3.8v3h-3.8v4.4h3.8v3.1h-5.8v-16.5Z"/>
        <path class="cls-1" d="M22,89.9h2l4.1,16.5h-2.1l-.8-3.4h-4.3l-.9,3.4h-2.1l4.1-16.5ZM23.1,94.3l-1.4,5.7h2.8l-1.4-5.7Z"/>
        <path class="cls-1" d="M29.7,89.9h2v13.5h2.9v3h-4.9v-16.5Z"/>
        <path class="cls-1" d="M35.1,89.9h5.8v3.1h-1.9v13.4h-2v-13.4h-1.9v-3.1Z"/>
        <path class="cls-1" d="M42.3,89.9h2v6.2h3.5v-6.2h2v16.5h-2v-7.3h-3.5v7.3h-2v-16.5Z"/>
        <path class="cls-1" d="M62,92.8l-1.4,2.1c-1-1.6-2-2.4-3.2-2.4s-1.9.5-2.5,1.6c-.7,1.1-1,2.4-1,4s.2,2.1.5,2.9c.3.9.7,1.5,1.3,2,.6.5,1.2.7,1.9.7s1.1-.2,1.6-.5c.5-.3,1-1,1.6-1.9l1.4,2.2c-.8,1.2-1.5,2-2.2,2.5s-1.5.7-2.4.7c-1.6,0-3-.8-4-2.4s-1.6-3.7-1.6-6.3.2-3.1.7-4.4,1.2-2.3,2-3.1,1.8-1.2,2.9-1.2,1.7.3,2.5.9c.8.6,1.5,1.4,2.1,2.5Z"/>
        <path class="cls-1" d="M67,89.9h2l4.1,16.5h-2.1l-.8-3.4h-4.3l-.9,3.4h-2.1l4.1-16.5ZM68,94.3l-1.4,5.7h2.8l-1.4-5.7Z"/>
        <path class="cls-1" d="M74.8,89.9h2.1c1.2,0,2,.2,2.5.5s.9.9,1.2,1.6c.3.8.5,1.7.5,2.7s-.2,2-.5,2.7-.8,1.3-1.5,1.7l2.5,7.4h-2.2l-2.4-7h-.2v7h-2v-16.5ZM76.8,96.4h.6c.6,0,1.1-.1,1.3-.4.2-.3.4-.7.4-1.3s0-.7-.2-.9c-.1-.3-.3-.5-.5-.6-.2-.1-.6-.2-1.1-.2h-.6v3.4Z"/>
        <path class="cls-1" d="M83.2,89.9h5.8v3.1h-3.8v3h3.8v3h-3.8v4.4h3.8v3.1h-5.8v-16.5Z"/>
        <path class="cls-2" d="M94.8,89.9h2v16.5h-2v-16.5Z"/>
        <path class="cls-2" d="M99,89.9h1.9l4.5,10.9v-10.9h2v16.5h-1.9l-4.5-10.9v10.9h-2v-16.5Z"/>
        <path class="cls-2" d="M108.8,89.9h5.8v3.1h-1.9v13.4h-2v-13.4h-1.9v-3.1Z"/>
        <path class="cls-2" d="M116,89.9h5.8v3.1h-3.8v3h3.8v3h-3.8v4.4h3.8v3.1h-5.8v-16.5Z"/>
        <path class="cls-2" d="M123.8,89.9h2.1c1.2,0,2,.2,2.5.5.5.3.9.9,1.2,1.6.3.8.5,1.7.5,2.7s-.2,2-.5,2.7-.8,1.3-1.5,1.7l2.5,7.4h-2.2l-2.4-7h-.2v7h-2v-16.5ZM125.8,96.4h.6c.6,0,1.1-.1,1.3-.4.2-.3.4-.7.4-1.3s0-.7-.2-.9c-.1-.3-.3-.5-.5-.6-.2-.1-.6-.2-1.1-.2h-.6v3.4Z"/>
        <path class="cls-2" d="M132.2,89.9h1.9l4.5,10.9v-10.9h2v16.5h-1.9l-4.5-10.9v10.9h-2v-16.5Z"/>
        <path class="cls-2" d="M143.1,89.9h5.8v3.1h-3.8v3h3.8v3h-3.8v4.4h3.8v3.1h-5.8v-16.5Z"/>
        <path class="cls-2" d="M149.7,89.9h5.8v3.1h-1.9v13.4h-2v-13.4h-1.9v-3.1Z"/>
        <path class="cls-2" d="M170.7,92.8l-1.4,2.1c-1-1.6-2-2.4-3.2-2.4s-1.9.5-2.5,1.6c-.7,1.1-1,2.4-1,4s.2,2.1.5,2.9c.3.9.7,1.5,1.3,2,.6.5,1.2.7,1.9.7s1.1-.2,1.6-.5,1-1,1.6-1.9l1.4,2.2c-.8,1.2-1.5,2-2.2,2.5s-1.5.7-2.4.7c-1.6,0-3-.8-4-2.4s-1.6-3.7-1.6-6.3.2-3.1.7-4.4,1.2-2.3,2-3.1,1.8-1.2,2.9-1.2,1.7.3,2.5.9c.8.6,1.5,1.4,2.1,2.5Z"/>
        <path class="cls-2" d="M177.4,89.5c1.5,0,2.8.8,3.9,2.5s1.6,3.8,1.6,6.2-.5,4.5-1.6,6.1-2.3,2.5-3.9,2.5-2.9-.9-3.9-2.6c-1-1.7-1.6-3.8-1.6-6.1s.2-3,.7-4.4c.5-1.3,1.2-2.4,2-3.2.9-.8,1.8-1.2,2.8-1.2ZM177.4,92.6c-1,0-1.8.5-2.5,1.6-.7,1.1-1,2.4-1,4.1s.4,3.3,1.3,4.3c.7.8,1.4,1.2,2.2,1.2s1.8-.5,2.4-1.6,1-2.4,1-4-.3-2.9-1-4-1.5-1.6-2.5-1.6Z"/>
        <path class="cls-2" d="M184.8,89.9h1.9l4.5,10.9v-10.9h2v16.5h-1.9l-4.5-10.9v10.9h-2v-16.5Z"/>
        <path class="cls-2" d="M195.7,89.9h5.2v3.1h-3.2v3h3.2v3h-3.2v7.4h-2v-16.5Z"/>
        <path class="cls-2" d="M202.7,89.9h5.8v3.1h-3.8v3h3.8v3h-3.8v4.4h3.8v3.1h-5.8v-16.5Z"/>
        <path class="cls-2" d="M210.5,89.9h2.1c1.2,0,2,.2,2.5.5.5.3.9.9,1.2,1.6.3.8.5,1.7.5,2.7s-.2,2-.5,2.7-.8,1.3-1.5,1.7l2.5,7.4h-2.2l-2.4-7h-.2v7h-2v-16.5ZM212.5,96.4h.6c.6,0,1.1-.1,1.3-.4.2-.3.4-.7.4-1.3s0-.7-.2-.9c-.1-.3-.3-.5-.5-.6-.2-.1-.6-.2-1.1-.2h-.6v3.4Z"/>
        <path class="cls-2" d="M218.8,89.9h5.8v3.1h-3.8v3h3.8v3h-3.8v4.4h3.8v3.1h-5.8v-16.5Z"/>
        <path class="cls-2" d="M226.5,89.9h1.9l4.5,10.9v-10.9h2v16.5h-1.9l-4.5-10.9v10.9h-2v-16.5Z"/>
        <path class="cls-2" d="M247,92.8l-1.4,2.1c-1-1.6-2-2.4-3.2-2.4s-1.9.5-2.5,1.6c-.7,1.1-1,2.4-1,4s.2,2.1.5,2.9c.3.9.7,1.5,1.3,2,.6.5,1.2.7,1.9.7s1.1-.2,1.6-.5,1-1,1.6-1.9l1.4,2.2c-.8,1.2-1.5,2-2.2,2.5s-1.5.7-2.4.7c-1.6,0-3-.8-4-2.4s-1.6-3.7-1.6-6.3.2-3.1.7-4.4,1.2-2.3,2-3.1,1.8-1.2,2.9-1.2,1.7.3,2.5.9c.8.6,1.5,1.4,2.1,2.5Z"/>
        <path class="cls-2" d="M248.8,89.9h5.8v3.1h-3.8v3h3.8v3h-3.8v4.4h3.8v3.1h-5.8v-16.5Z"/>
        <path class="cls-2" d="M240.5,1.8c5.7,2.8,10.6,6.5,14.5,11.3V0h-18.9c1.5.5,3,1.1,4.4,1.8Z"/>
        <path class="cls-2" d="M183.1,71.2c-7.3-8.3-11-18.4-11-30.1s4.4-22.8,13.3-31.2c4.7-4.4,9.9-7.7,15.8-9.8h-37.4v83.7h38.7c-7.6-2.3-14.1-6.5-19.4-12.5Z"/>
        <path class="cls-1" d="M130.1,81.5c-1.9.9-3.8,1.6-5.8,2.2h30.9V0h-29.3c1.5.5,2.9,1.1,4.3,1.8,6.5,3.1,11.8,7.5,15.9,13.1l-6.8,5.1c-3.8-4.8-8.3-8.4-13.5-10.9s-11-3.7-17.3-3.7-13.3,1.6-19.1,4.9c-5.9,3.2-10.4,7.6-13.6,13.1-3.2,5.5-4.8,11.6-4.8,18.4,0,10.3,3.6,18.9,10.8,25.8,7.2,6.9,16.3,10.3,27.3,10.3s22.2-4.6,30.3-13.9l6.8,5.1c-4.3,5.4-9.7,9.5-16.1,12.4Z"/>
        <path class="cls-2" d="M249.6,64.1l5.3,4V16.1l-5.3,4c-3.8-4.8-8.3-8.4-13.5-10.9-5.3-2.5-11-3.7-17.3-3.7s-13.3,1.6-19.1,4.9c-5.9,3.2-10.4,7.6-13.6,13.1-3.2,5.5-4.8,11.6-4.8,18.4,0,10.3,3.6,18.9,10.8,25.8,7.2,6.9,16.3,10.3,27.3,10.3s22.2-4.6,30.3-13.9Z"/>
        <rect class="cls-1" x=".3" width="43.8" height="34.8"/>
        <path class="cls-2" d="M240.3,81.6c-1.8.8-3.7,1.5-5.6,2.1h20.2v-12.8c-4,4.5-8.9,8.1-14.6,10.7Z"/>
        <path class="cls-1" d="M72.9,71.1c-7.3-8.3-11-18.4-11-30.1s4.4-22.8,13.3-31.2c4.6-4.4,9.9-7.7,15.7-9.8h-38.3v83.7h-8.6v-40.7H.3v40.7h-.3s92.5,0,92.5,0c-7.7-2.3-14.3-6.5-19.6-12.5Z"/>
      </g>
    </g>
  </g>
</svg>