<svg id="Layer_1" data-name="Layer 1" xmlns="http://www.w3.org/2000/svg" viewBox="0 0 513.24 40.14"><defs><style>.cls-1{fill:#231f20;}.cls-2{fill:#939598;}</style></defs><title>Forum Logo</title><path class="cls-1" d="M148.56,345.65h-3.63v-5.14h3.63v-2.83c0-6.91,3.68-10.34,11.65-10.34a23.48,23.48,0,0,1,5,.55V333a9.79,9.79,0,0,0-3.33-.55c-4.54,0-6.31,1.82-6.31,5.3v2.73h5.55v5.14h-5.55v16.09h3.78v5.15H145.53v-5.15h3V345.65Z" transform="translate(-144.92 -327.34)"/><path class="cls-1" d="M176.55,361.74c4.34,0,6.2-2.87,6.2-7.61,0-5.65-1.87-8.48-6.2-8.48s-6.2,3.68-6.2,8.48,1.87,7.61,6.2,7.61m0-21.84c8.88,0,13.87,4.9,13.87,14.07,0,7.87-5.45,13.52-13.87,13.52s-13.87-4.54-13.87-13.52c0-7.57,5.25-14.07,13.87-14.07" transform="translate(-144.92 -327.34)"/><path class="cls-1" d="M196.26,345.65h-3.43v-5.14h10.24a40.18,40.18,0,0,1-.46,6h0.1c1.06-4.43,3.53-6.65,7.56-6.65a11.28,11.28,0,0,1,2.32.3l-0.45,6.31a12.05,12.05,0,0,0-2.27-.25c-3.83,0-6.56,2.62-6.56,7v8.52h3.33v5.15H193.39v-5.15h2.87V345.65Z" transform="translate(-144.92 -327.34)"/><path class="cls-1" d="M232.52,340.5h10.39v21.24H246v5.14h-9.88c0-1.76,0-4.18.65-5.44h-0.1c-1.66,4.19-4.59,6-9.13,6-6,0-8.88-3.63-8.88-9.23V345.65h-3.53V340.5h10.59v14.78c0,3.73.4,6.46,4.64,6.46,3,0,5.5-2.42,5.5-6.61v-9.48h-3.33V340.5Z" transform="translate(-144.92 -327.34)"/><path class="cls-1" d="M283.66,361.74h2.57V350.9c0-3.63-1.92-4.95-4.59-4.95-3.43,0-5.6,2.77-5.6,7v8.78h3v5.14H266.41v-5.14H269V350.9c0-3.63-1.92-4.95-4.59-4.95-3.73,0-5.6,3-5.6,7v8.78h3v5.14h-13v-5.14h2.87V345.65h-3.43V340.5h10.34a23.68,23.68,0,0,1-.41,5.35h0.1c1.46-3.83,4.74-6,9.13-6s7.06,2,7.77,6h0.1c1.26-3.68,4.19-6,8.83-6,6.25,0,9.13,4,9.13,10.29v11.55h3v5.14H283.66v-5.14Z" transform="translate(-144.92 -327.34)"/><polygon class="cls-2" points="170.67 13.27 170.67 16.37 164.76 16.37 164.76 24.04 170.67 24.04 170.67 27.14 164.76 27.14 164.76 39.52 161.12 39.52 161.12 13.27 170.67 13.27"/><path class="cls-2" d="M324.33,364.11c2.57,0,3.1-4.49,3.1-11.19,0-7.95-1.36-9.55-3.1-9.55s-3.14,2.64-3.14,10.94c0,5.31.5,9.8,3.14,9.8m0-24c6.27,0,6.92,6.88,6.92,13.66,0,7.24-1.29,13.66-6.92,13.66-6.31,0-7-6.88-7-13.66,0-7.24,1.28-13.66,7-13.66" transform="translate(-144.92 -327.34)"/><path class="cls-2" d="M337.35,351.74c3.56,0,5.2-1.11,5.2-4.17a3.66,3.66,0,0,0-4-3.85h-1.25v8Zm-3.64-11.12h5.88c4,0,6.77,2.81,6.77,7.2,0,2.67-1.5,5.67-4.49,6.49l5.31,12.55H343l-4.81-12h-0.85v12h-3.64V340.62Z" transform="translate(-144.92 -327.34)"/><polygon class="cls-2" points="211.67 13.27 215.31 13.27 215.31 24.04 220.55 24.04 220.55 13.27 224.18 13.27 224.18 39.52 220.55 39.52 220.55 27.14 215.31 27.14 215.31 39.52 211.67 39.52 211.67 13.27"/><polygon class="cls-2" points="237.27 13.27 237.27 16.37 231.35 16.37 231.35 24.04 237.27 24.04 237.27 27.14 231.35 27.14 231.35 36.41 237.27 36.41 237.27 39.52 227.72 39.52 227.72 13.27 237.27 13.27"/><path class="cls-2" d="M394.14,358.51l-2.28-12h-0.07l-2.28,12h4.63Zm-0.54-17.9,5.92,26.24h-3.82l-1-5.42h-5.74l-1,5.42h-3.46L390,340.62h3.64Z" transform="translate(-144.92 -327.34)"/><polygon class="cls-2" points="260.87 13.27 260.87 36.23 266.72 36.23 266.72 39.52 257.24 39.52 257.24 13.27 260.87 13.27"/><polygon class="cls-2" points="270.78 16.55 266.15 16.55 266.15 13.27 279.05 13.27 279.05 16.55 274.42 16.55 274.42 39.51 270.78 39.51 270.78 16.55"/><polygon class="cls-2" points="282.05 13.27 285.69 13.27 285.69 24.04 290.93 24.04 290.93 13.27 294.56 13.27 294.56 39.52 290.93 39.52 290.93 27.14 285.69 27.14 285.69 39.52 282.05 39.52 282.05 13.27"/><path class="cls-2" d="M452.36,347.28c-0.43-2.82-1.46-3.92-2.71-3.92-2.85,0-3.56,4.92-3.56,10.05,0,5.88.64,10.7,3.46,10.7,2,0,2.93-2.56,3.25-5.1l3.49,1.25c-0.57,3.93-2.49,7.13-6.81,7.13-4.81,0-7.2-3.78-7.2-13.83,0-5.13.71-13.48,7.41-13.48,3.11,0,5.27,1.93,6.28,6Z" transform="translate(-144.92 -327.34)"/><path class="cls-2" d="M467,358.51l-2.28-12h-0.07l-2.28,12H467Zm-0.54-17.9,5.92,26.24h-3.82l-1-5.42h-5.74l-1,5.42h-3.46l5.52-26.24h3.64Z" transform="translate(-144.92 -327.34)"/><path class="cls-2" d="M478.2,351.74c3.57,0,5.21-1.11,5.21-4.17a3.66,3.66,0,0,0-4-3.85H478.2v8Zm-3.63-11.12h5.88c4,0,6.78,2.81,6.78,7.2,0,2.67-1.5,5.67-4.49,6.49L488,366.86h-4.17l-4.81-12H478.2v12h-3.63V340.62Z" transform="translate(-144.92 -327.34)"/><polygon class="cls-2" points="355.49 13.27 355.49 16.37 349.57 16.37 349.57 24.04 355.49 24.04 355.49 27.14 349.57 27.14 349.57 36.41 355.49 36.41 355.49 39.52 345.93 39.52 345.93 13.27 355.49 13.27"/><path class="cls-2" d="M516.6,347c-0.14-2-.78-3.64-2.64-3.64a2.47,2.47,0,0,0-2.28,2.75c0,1.32.57,2.82,2.46,4.67l3,2.89c2.5,2.43,3.25,4.42,3.25,7.17,0,3.6-2.17,6.56-6.31,6.56-3.57,0-5.92-2.21-6.34-6.28l3.46-1.1c0.21,2.42,1.1,4.28,2.92,4.28,1.32,0,2.64-1.11,2.64-3.21,0-1.42-.61-3-2.57-5l-2.85-2.82c-2.36-2.35-3.25-4.38-3.25-7a5.91,5.91,0,0,1,5.85-6.24c3.6,0,5.88,2.18,6,5.74Z" transform="translate(-144.92 -327.34)"/><polygon class="cls-2" points="381.34 16.55 376.7 16.55 376.7 13.27 389.61 13.27 389.61 16.55 384.98 16.55 384.98 39.51 381.34 39.51 381.34 16.55"/><path class="cls-2" d="M540.67,351.74c3.56,0,5.21-1.11,5.21-4.17a3.66,3.66,0,0,0-4-3.85h-1.25v8ZM537,340.62h5.88c4,0,6.78,2.81,6.78,7.2,0,2.67-1.5,5.67-4.49,6.49l5.31,12.55h-4.17l-4.81-12h-0.86v12H537V340.62Z" transform="translate(-144.92 -327.34)"/><path class="cls-2" d="M561.74,358.51l-2.28-12h-0.07l-2.28,12h4.64Zm-0.53-17.9,5.92,26.24H563.3l-1-5.42h-5.74l-1,5.42H552l5.52-26.24h3.64Z" transform="translate(-144.92 -327.34)"/><polygon class="cls-2" points="426.22 16.55 421.59 16.55 421.59 13.27 434.49 13.27 434.49 16.55 429.86 16.55 429.86 39.51 426.22 39.51 426.22 16.55"/><polygon class="cls-2" points="446.51 13.27 446.51 16.37 440.59 16.37 440.59 24.04 446.51 24.04 446.51 27.14 440.59 27.14 440.59 36.41 446.51 36.41 446.51 39.52 436.95 39.52 436.95 13.27 446.51 13.27"/><path class="cls-2" d="M603.73,347.21c-0.32-2.42-1.14-3.85-2.67-3.85-1.89,0-3.14,2.64-3.14,10.95,0,5.32.5,9.81,3.14,9.81,2.46,0,3-3.64,3.13-9.09h-3.71v-3.28h7.34v3c0,6.31-1.21,12.62-6.77,12.62-6.31,0-7-6.88-7-13.65,0-7.24,1.28-13.66,7-13.66,3.64,0,5.38,2.39,6.2,5.81Z" transform="translate(-144.92 -327.34)"/><rect class="cls-2" x="466.47" y="13.27" width="3.64" height="26.24"/><path class="cls-2" d="M626.79,347c-0.14-2-.78-3.64-2.64-3.64a2.47,2.47,0,0,0-2.29,2.75c0,1.32.58,2.82,2.46,4.67l3,2.89c2.5,2.43,3.25,4.42,3.25,7.17,0,3.6-2.17,6.56-6.31,6.56-3.57,0-5.92-2.21-6.34-6.28l3.46-1.1c0.22,2.42,1.1,4.28,2.92,4.28,1.32,0,2.64-1.11,2.64-3.21,0-1.42-.61-3-2.57-5l-2.85-2.82c-2.36-2.35-3.25-4.38-3.25-7a5.91,5.91,0,0,1,5.85-6.24c3.6,0,5.88,2.18,6,5.74Z" transform="translate(-144.92 -327.34)"/><polygon class="cls-2" points="491.1 16.55 486.47 16.55 486.47 13.27 499.38 13.27 499.38 16.55 494.74 16.55 494.74 39.51 491.1 39.51 491.1 16.55"/><path class="cls-2" d="M654.42,347c-0.14-2-.78-3.64-2.64-3.64a2.47,2.47,0,0,0-2.28,2.75c0,1.32.57,2.82,2.46,4.67l3,2.89c2.49,2.43,3.24,4.42,3.24,7.17,0,3.6-2.17,6.56-6.31,6.56-3.56,0-5.92-2.21-6.35-6.28L649,360c0.21,2.42,1.1,4.28,2.92,4.28,1.32,0,2.64-1.11,2.64-3.21,0-1.42-.61-3-2.56-5l-2.85-2.82c-2.36-2.35-3.25-4.38-3.25-7a5.9,5.9,0,0,1,5.85-6.24c3.6,0,5.88,2.18,6,5.74Z" transform="translate(-144.92 -327.34)"/></svg>