<?xml version="1.0" encoding="utf-8"?>
<!-- Generator: Adobe Illustrator 26.2.1, SVG Export Plug-In . SVG Version: 6.00 Build 0)  -->
<svg version="1.1" id="Layer_1" xmlns="http://www.w3.org/2000/svg" xmlns:xlink="http://www.w3.org/1999/xlink" x="0px" y="0px"
	 viewBox="0 0 451.4 125.2" style="enable-background:new 0 0 451.4 125.2;" xml:space="preserve">
<style type="text/css">
	.st0{fill:#1A459C;}
	.st1{fill:#69AEE0;}
	.st2{fill:#102C4F;}
</style>
<g>
	<g>
	</g>
</g>
<polygon class="st0" points="65.4,38.6 0,0.6 0,54.1 40.6,77.7 40.6,55.8 "/>
<g>
	<polygon class="st1" points="40.6,77.7 40.6,109.2 65.4,94.7 	"/>
</g>
<g>
	<polygon class="st2" points="65.4,38.6 40.6,55.8 40.6,77.7 65.4,94.7 	"/>
</g>
<g>
	<polygon class="st1" points="69.6,38.6 135,0.6 135,54.1 94.4,77.7 94.4,55.8 	"/>
</g>
<polygon class="st0" points="94.4,77.7 94.4,109.2 69.6,94.7 "/>
<g>
	<polygon class="st2" points="69.6,38.6 94.4,55.8 94.4,77.7 69.6,94.7 	"/>
</g>
<g>
	<rect x="41.7" y="123.6" class="st2" width="51.7" height="1.6"/>
</g>
<polygon class="st2" points="160.2,89.3 164.9,100.6 165.6,100.6 170.4,89.3 170.4,100.6 171.7,100.6 171.7,87.6 169.7,87.6 
	165.3,98.3 160.9,87.6 158.9,87.6 158.9,100.6 160.2,100.6 "/>
<rect x="178.9" y="87.6" class="st2" width="1.3" height="12.9"/>
<path class="st2" d="M195.6,99.3c-0.6,0.4-1.3,0.5-2.1,0.5c-0.9,0-1.6-0.2-2.3-0.5c-0.7-0.3-1.2-0.7-1.7-1.2s-0.8-1.1-1.1-1.8
	c-0.3-0.6-0.4-1.3-0.4-2.1c0-0.7,0.2-1.4,0.4-2.1c0.3-0.7,0.6-1.3,1.1-1.8s1-0.9,1.7-1.2c0.7-0.4,1.5-0.5,2.3-0.5
	c0.4,0,0.8,0,1.2,0.1c0.4,0.1,0.7,0.2,1,0.4c0.3,0.2,0.6,0.4,0.8,0.6s0.4,0.4,0.5,0.6l1.1-0.8c-0.2-0.4-0.5-0.7-0.8-0.9
	c-0.3-0.2-0.7-0.4-1.1-0.6c-0.4-0.2-0.8-0.3-1.3-0.4c-0.5-0.1-0.9-0.1-1.4-0.1c-1,0-1.9,0.2-2.7,0.5c-0.9,0.3-1.6,0.8-2.2,1.4
	c-0.6,0.6-1.1,1.3-1.4,2.1s-0.5,1.7-0.5,2.7s0.2,1.9,0.5,2.7s0.8,1.5,1.4,2.1c0.6,0.6,1.4,1.1,2.2,1.4s1.7,0.5,2.7,0.5
	c0.6,0,1.1-0.1,1.6-0.2s1-0.3,1.4-0.5s0.8-0.5,1.1-0.8c0.3-0.3,0.6-0.6,0.8-0.9l-1.1-0.7C196.8,98.5,196.3,99,195.6,99.3z"/>
<polygon class="st2" points="212.8,100.6 214.1,100.6 214.1,87.6 212.8,87.6 212.8,93.2 205.7,93.2 205.7,87.6 204.3,87.6 
	204.3,100.6 205.7,100.6 205.7,94.4 212.8,94.4 "/>
<rect x="221.3" y="87.6" class="st2" width="1.3" height="12.9"/>
<path class="st2" d="M236.4,95h3v4.1c-0.4,0.2-0.9,0.4-1.5,0.6c-0.6,0.1-1.3,0.2-2,0.2c-0.9,0-1.6-0.2-2.3-0.5
	c-0.7-0.3-1.2-0.7-1.7-1.2s-0.8-1.1-1.1-1.8c-0.3-0.7-0.4-1.4-0.4-2.2s0.1-1.5,0.4-2.2s0.6-1.3,1.1-1.8s1-0.9,1.7-1.2
	c0.7-0.4,1.5-0.5,2.3-0.5c0.9,0,1.6,0.1,2.2,0.4c0.6,0.3,1.1,0.6,1.6,1.1l0.9-0.7c-0.6-0.6-1.2-1-2-1.3c-0.7-0.3-1.7-0.5-2.7-0.5
	s-1.9,0.2-2.7,0.5c-0.9,0.3-1.6,0.8-2.2,1.4s-1.1,1.3-1.4,2.1c-0.3,0.8-0.5,1.7-0.5,2.7s0.2,1.9,0.5,2.7s0.8,1.5,1.4,2.1
	c0.6,0.6,1.4,1.1,2.2,1.4c0.8,0.3,1.7,0.5,2.7,0.5c0.9,0,1.8-0.1,2.6-0.3c0.8-0.3,1.6-0.6,2.3-1v-5.8h-4.4V95z"/>
<path class="st2" d="M251.8,87.7l-5.6,12.9h1.5l1.4-3.4h6.7l1.4,3.4h1.5l-5.6-12.9H251.8z M249.6,96l2.9-6.9l2.9,6.9H249.6z"/>
<polygon class="st2" points="275,100.6 275,87.6 273.7,87.6 273.7,98.6 266.1,87.6 264.4,87.6 264.4,100.6 265.7,100.6 265.7,89.4 
	265.8,89.4 273.4,100.6 "/>
<path class="st2" d="M291.5,97.2h6.7l1.4,3.4h1.5l-5.6-12.9h-1.3l-5.6,12.9h1.5L291.5,97.2z M294.9,89.1l2.9,6.9H292L294.9,89.1z"/>
<path class="st2" d="M314.2,97.2c0-0.7-0.1-1.2-0.3-1.6c-0.2-0.4-0.5-0.7-0.9-1c-0.3-0.3-0.7-0.5-1.2-0.7c-0.5-0.2-0.9-0.4-1.4-0.5
	c-0.4-0.2-0.8-0.3-1.1-0.4c-0.3-0.2-0.6-0.3-0.9-0.5c-0.2-0.2-0.4-0.4-0.6-0.7c-0.1-0.2-0.2-0.6-0.2-1c0-0.4,0-0.8,0.2-1.1
	s0.4-0.6,0.7-0.8c0.3-0.2,0.6-0.3,0.9-0.4c0.4-0.1,0.7-0.1,1-0.1c0.6,0,1.2,0.2,1.6,0.4c0.5,0.2,0.8,0.5,1.1,0.9l1-0.6
	c-0.3-0.4-0.8-0.8-1.4-1.1c-0.7-0.3-1.4-0.5-2.3-0.5c-0.5,0-1,0.1-1.5,0.2c-0.5,0.1-1,0.3-1.4,0.6c-0.4,0.3-0.8,0.7-1,1.1
	c-0.3,0.4-0.4,1-0.4,1.6c0,0.6,0.1,1.1,0.3,1.5c0.2,0.4,0.5,0.7,0.8,1s0.7,0.5,1.1,0.7c0.4,0.2,0.9,0.4,1.3,0.5
	c0.4,0.1,0.8,0.3,1.2,0.4c0.4,0.1,0.7,0.3,1,0.5c0.3,0.2,0.5,0.4,0.7,0.7s0.3,0.6,0.3,1.1c0,0.4-0.1,0.8-0.3,1.1
	c-0.2,0.3-0.4,0.6-0.7,0.8c-0.2,0.2-0.6,0.4-0.9,0.5c-0.3,0.2-0.7,0.2-1,0.2c-0.7,0-1.3-0.2-1.8-0.5s-0.9-0.7-1.2-1.2l-1.1,0.8
	c0.2,0.3,0.5,0.6,0.8,0.8c0.3,0.2,0.6,0.4,1,0.6c0.3,0.2,0.7,0.3,1.1,0.4c0.4,0.1,0.8,0.1,1.2,0.1c0.5,0,1-0.1,1.5-0.2
	c0.5-0.2,1-0.4,1.4-0.7c0.4-0.3,0.8-0.7,1-1.2C314.1,98.4,314.2,97.8,314.2,97.2z"/>
<path class="st2" d="M327.1,94.6c-0.3-0.3-0.7-0.5-1.2-0.7c-0.5-0.2-0.9-0.4-1.4-0.5c-0.4-0.2-0.8-0.3-1.1-0.4
	c-0.3-0.2-0.6-0.3-0.9-0.5c-0.2-0.2-0.4-0.4-0.6-0.7c-0.1-0.2-0.2-0.6-0.2-1c0-0.4,0-0.8,0.2-1.1s0.4-0.6,0.7-0.8
	c0.3-0.2,0.6-0.3,0.9-0.4c0.4-0.1,0.7-0.1,1-0.1c0.6,0,1.2,0.2,1.6,0.4c0.5,0.2,0.8,0.5,1.1,0.9l1-0.6c-0.3-0.4-0.8-0.8-1.4-1.1
	c-0.7-0.3-1.4-0.5-2.3-0.5c-0.5,0-1,0.1-1.5,0.2c-0.4,0.1-0.9,0.3-1.3,0.6c-0.4,0.3-0.7,0.7-1,1.1c-0.3,0.4-0.4,1-0.4,1.6
	c0,0.6,0.1,1.1,0.3,1.5c0.2,0.4,0.5,0.7,0.8,1s0.7,0.5,1.1,0.7c0.4,0.2,0.9,0.4,1.3,0.5c0.4,0.1,0.8,0.3,1.2,0.4
	c0.4,0.1,0.7,0.3,1,0.5c0.3,0.2,0.5,0.4,0.7,0.7s0.3,0.6,0.3,1.1c0,0.4-0.1,0.8-0.3,1.1c-0.2,0.3-0.4,0.6-0.7,0.8
	c-0.2,0.2-0.6,0.4-0.9,0.5c-0.3,0.2-0.7,0.2-1,0.2c-0.7,0-1.3-0.2-1.8-0.5s-0.9-0.7-1.2-1.2l-1.1,0.8c0.2,0.3,0.5,0.6,0.8,0.8
	c0.3,0.2,0.6,0.4,1,0.6c0.3,0.2,0.7,0.3,1.1,0.4c0.4,0.1,0.8,0.1,1.2,0.1c0.5,0,1-0.1,1.5-0.2c0.5-0.2,1-0.4,1.4-0.7
	c0.4-0.3,0.8-0.7,1-1.2c0.3-0.5,0.4-1.1,0.4-1.7c0-0.7-0.2-1.2-0.4-1.6C327.8,95.2,327.5,94.9,327.1,94.6z"/>
<path class="st2" d="M343.7,100.3c0.9-0.3,1.6-0.8,2.2-1.4c0.6-0.6,1.1-1.3,1.4-2.1c0.3-0.8,0.5-1.7,0.5-2.7s-0.1-1.9-0.5-2.7
	c-0.3-0.8-0.8-1.5-1.4-2.1c-0.7-0.6-1.4-1.1-2.2-1.4c-0.8-0.3-1.7-0.5-2.7-0.5s-1.9,0.2-2.7,0.5c-0.9,0.3-1.6,0.8-2.2,1.4
	c-0.6,0.6-1.1,1.3-1.4,2.1s-0.5,1.7-0.5,2.7s0.2,1.9,0.5,2.7s0.8,1.5,1.4,2.1c0.6,0.6,1.4,1.1,2.2,1.4c0.8,0.3,1.7,0.5,2.7,0.5
	S342.9,100.6,343.7,100.3z M338.6,99.3c-0.7-0.3-1.2-0.7-1.7-1.2s-0.9-1.1-1.1-1.8c-0.3-0.7-0.4-1.4-0.4-2.2c0-0.8,0.2-1.5,0.4-2.2
	c0.3-0.7,0.6-1.3,1.1-1.8s1-0.9,1.7-1.2c0.7-0.4,1.5-0.5,2.3-0.5c0.9,0,1.6,0.2,2.3,0.5s1.2,0.7,1.7,1.2s0.9,1.1,1.1,1.8
	c0.3,0.7,0.4,1.4,0.4,2.2c0,0.8-0.1,1.5-0.4,2.2c-0.3,0.7-0.6,1.3-1.1,1.8s-1,0.9-1.7,1.2c-0.7,0.4-1.5,0.5-2.3,0.5
	C340,99.8,339.3,99.6,338.6,99.3z"/>
<path class="st2" d="M360.4,100.9c0.6,0,1.1-0.1,1.6-0.2s1-0.3,1.4-0.5c0.4-0.2,0.8-0.5,1.1-0.8s0.6-0.6,0.8-0.9l-1.1-0.7
	c-0.5,0.7-1,1.2-1.7,1.5c-0.6,0.4-1.4,0.5-2.1,0.5c-0.9,0-1.6-0.2-2.3-0.5c-0.7-0.3-1.2-0.7-1.7-1.2s-0.8-1.1-1.1-1.8
	c-0.3-0.6-0.4-1.3-0.4-2.1c0-0.7,0.2-1.4,0.4-2.1c0.3-0.7,0.6-1.3,1.1-1.8s1-0.9,1.7-1.2c0.7-0.4,1.4-0.5,2.3-0.5
	c0.4,0,0.8,0,1.2,0.1c0.4,0.1,0.7,0.2,1,0.4s0.6,0.4,0.8,0.6s0.4,0.4,0.5,0.6l1.1-0.8c-0.2-0.4-0.5-0.7-0.8-0.9
	c-0.3-0.2-0.7-0.4-1.1-0.6c-0.4-0.2-0.8-0.3-1.3-0.4c-0.5-0.1-0.9-0.1-1.4-0.1c-1,0-1.9,0.2-2.7,0.5c-0.9,0.3-1.6,0.8-2.2,1.4
	c-0.6,0.6-1.1,1.3-1.4,2.1s-0.5,1.7-0.5,2.7s0.2,1.9,0.5,2.7s0.8,1.5,1.4,2.1c0.6,0.6,1.4,1.1,2.2,1.4S359.4,100.9,360.4,100.9z"/>
<rect x="371.3" y="87.6" class="st2" width="1.3" height="12.9"/>
<path class="st2" d="M379.7,100.6l1.3-3.4h6.8l1.4,3.4h1.5l-5.6-12.9h-1.3l-5.6,12.9H379.7z M384.5,89.1l2.9,6.9h-5.8L384.5,89.1z"
	/>
<polygon class="st2" points="403.8,87.6 393.7,87.6 393.7,88.8 398.1,88.8 398.1,100.6 399.4,100.6 399.4,88.8 403.8,88.8 "/>
<rect x="409.5" y="87.6" class="st2" width="1.3" height="12.9"/>
<path class="st2" d="M419.1,98.9c0.6,0.6,1.4,1.1,2.2,1.4c0.8,0.3,1.7,0.5,2.7,0.5s1.9-0.2,2.7-0.5c0.9-0.3,1.6-0.8,2.2-1.4
	c0.6-0.6,1.1-1.3,1.4-2.1c0.3-0.8,0.5-1.7,0.5-2.7s-0.1-1.9-0.5-2.7c-0.3-0.8-0.8-1.5-1.4-2.1c-0.6-0.6-1.4-1.1-2.2-1.4
	c-0.8-0.3-1.7-0.5-2.7-0.5s-1.9,0.2-2.7,0.5c-0.9,0.3-1.6,0.8-2.2,1.4c-0.6,0.6-1.1,1.3-1.4,2.1s-0.5,1.7-0.5,2.7s0.2,1.9,0.5,2.7
	S418.5,98.3,419.1,98.9z M418.8,91.9c0.3-0.7,0.6-1.3,1.1-1.8s1-0.9,1.7-1.2c0.7-0.4,1.5-0.5,2.3-0.5c0.9,0,1.6,0.2,2.3,0.5
	s1.2,0.7,1.7,1.2s0.9,1.1,1.1,1.8c0.3,0.7,0.4,1.4,0.4,2.2c0,0.8-0.1,1.5-0.4,2.2c-0.3,0.7-0.6,1.3-1.1,1.8s-1,0.9-1.7,1.2
	c-0.7,0.4-1.5,0.5-2.3,0.5c-0.9,0-1.6-0.2-2.3-0.5c-0.7-0.3-1.2-0.7-1.7-1.2s-0.9-1.1-1.1-1.8c-0.3-0.7-0.4-1.4-0.4-2.2
	C418.4,93.3,418.6,92.6,418.8,91.9z"/>
<polygon class="st2" points="446.6,98.6 439,87.6 437.3,87.6 437.3,100.6 438.6,100.6 438.6,89.4 438.7,89.4 446.3,100.6 
	447.9,100.6 447.9,87.6 446.6,87.6 "/>
<path class="st2" d="M172.4,111.2c-0.7-0.7-1.6-1.3-2.6-1.7c-1-0.4-2-0.6-3.2-0.6c-1.1,0-2.2,0.2-3.2,0.6c-1,0.4-1.9,1-2.6,1.7
	c-0.7,0.8-1.3,1.6-1.7,2.6c-0.4,1-0.6,2.1-0.6,3.3c0,1.2,0.2,2.3,0.6,3.3c0.4,1,1,1.9,1.7,2.6s1.6,1.3,2.6,1.7s2,0.6,3.2,0.6
	c1.1,0,2.2-0.2,3.2-0.6s1.9-1,2.6-1.7c0.7-0.7,1.3-1.6,1.7-2.6c0.4-1,0.6-2.1,0.6-3.3c0-1.2-0.2-2.3-0.6-3.3
	C173.7,112.8,173.1,111.9,172.4,111.2z M172.6,119.7c-0.3,0.8-0.7,1.5-1.3,2.1c-0.5,0.6-1.2,1.1-2,1.5c-0.8,0.4-1.7,0.6-2.7,0.6
	s-1.9-0.2-2.7-0.6c-0.8-0.4-1.4-0.9-2-1.5c-0.6-0.6-1-1.3-1.3-2.1s-0.4-1.7-0.4-2.6c0-0.9,0.1-1.8,0.4-2.6c0.3-0.9,0.7-1.6,1.3-2.2
	c0.5-0.6,1.2-1.1,2-1.5c0.8-0.3,1.7-0.5,2.7-0.5s1.9,0.1,2.7,0.5c0.8,0.4,1.4,0.9,2,1.5c0.6,0.7,1,1.4,1.3,2.2
	c0.3,0.8,0.4,1.7,0.4,2.6C173,118,172.9,118.8,172.6,119.7z"/>
<polygon class="st2" points="182.4,124.8 184,124.8 184,117.5 191.3,117.5 191.3,116.1 184,116.1 184,110.7 191.9,110.7 
	191.9,109.3 182.4,109.3 "/>
<path class="st2" d="M211.4,111c0.3-0.2,0.7-0.4,1.1-0.5c0.4-0.1,0.8-0.2,1.2-0.2c0.7,0,1.4,0.1,1.9,0.4s1,0.6,1.3,1.1l1.5-0.7
	c-0.4-0.5-1-0.9-1.7-1.3c-0.7-0.4-1.6-0.6-2.7-0.6c-0.6,0-1.2,0-1.8,0.2c-0.6,0.2-1.1,0.5-1.6,0.8s-0.9,0.8-1.2,1.3
	s-0.5,1.2-0.5,1.9s0.2,1.3,0.4,1.8c0.3,0.5,0.6,0.9,1,1.2c0.4,0.3,0.8,0.6,1.3,0.8s1,0.3,1.5,0.5s0.9,0.3,1.4,0.5
	c0.4,0.2,0.8,0.4,1.2,0.6c0.4,0.2,0.7,0.5,0.9,0.9c0.2,0.3,0.3,0.8,0.3,1.3s-0.1,0.9-0.3,1.3c-0.2,0.3-0.5,0.6-0.8,0.9
	c-0.3,0.3-0.7,0.5-1.1,0.6c-0.4,0.1-0.8,0.2-1.2,0.2c-0.9,0-1.6-0.2-2.2-0.6c-0.6-0.4-1.1-0.8-1.4-1.4l-1.4,1c0.3,0.4,0.6,0.7,1,1
	c0.4,0.3,0.8,0.5,1.2,0.7c0.4,0.2,0.8,0.3,1.3,0.4c0.5,0,0.9,0.1,1.4,0.1c0.6,0,1.2-0.1,1.8-0.3c0.6-0.2,1.1-0.4,1.6-0.8
	c0.5-0.4,0.9-0.8,1.2-1.4s0.4-1.2,0.4-2s-0.1-1.4-0.4-1.9c-0.3-0.5-0.7-0.9-1.1-1.2c-0.5-0.3-0.9-0.6-1.5-0.8
	c-0.5-0.2-1.1-0.4-1.6-0.6c-0.5-0.1-0.9-0.3-1.3-0.4c-0.4-0.2-0.8-0.4-1.1-0.6c-0.4-0.2-0.6-0.5-0.8-0.8c-0.2-0.3-0.3-0.7-0.3-1.2
	s0.1-0.9,0.3-1.3C210.8,111.5,211.1,111.2,211.4,111z"/>
<path class="st2" d="M236.1,123.3c-0.8,0.3-1.7,0.5-2.6,0.5c-1,0-1.9-0.1-2.7-0.5c-0.9-0.4-1.5-0.9-2.1-1.5c-0.6-0.7-1-1.4-1.3-2.2
	c-0.3-0.8-0.5-1.7-0.5-2.6c0-0.9,0.1-1.8,0.4-2.6c0.3-0.9,0.7-1.6,1.3-2.2c0.6-0.6,1.3-1.1,2.1-1.5c0.8-0.4,1.7-0.6,2.7-0.6
	c0.5,0,1,0.1,1.4,0.2c0.4,0.2,0.8,0.3,1.2,0.5c0.4,0.2,0.7,0.5,1,0.7c0.3,0.2,0.5,0.4,0.7,0.7l1.3-1c-0.3-0.4-0.6-0.7-1-1
	c-0.4-0.3-0.8-0.6-1.3-0.8s-1-0.4-1.6-0.5c-0.6-0.1-1.1-0.2-1.7-0.2c-1.1,0-2.2,0.2-3.2,0.6c-1,0.4-1.9,1-2.6,1.7
	c-0.7,0.8-1.3,1.6-1.7,2.6c-0.4,1-0.6,2.1-0.6,3.3s0.2,2.3,0.6,3.3c0.4,1,1,1.9,1.7,2.6c0.7,0.7,1.6,1.3,2.6,1.7
	c1,0.4,2.1,0.6,3.3,0.6c0.7,0,1.4,0,2-0.2c0.6-0.1,1.1-0.3,1.6-0.6c0.5-0.2,0.9-0.5,1.3-0.9c0.4-0.3,0.7-0.7,1-1.1l-1.3-0.8
	C237.6,122.4,236.9,122.9,236.1,123.3z"/>
<polygon class="st2" points="256.7,116 248.1,116 248.1,109.3 246.5,109.3 246.5,124.8 248.1,124.8 248.1,117.5 256.7,117.5 
	256.7,124.8 258.3,124.8 258.3,109.3 256.7,109.3 "/>
<path class="st2" d="M280,111.2c-0.7-0.7-1.6-1.3-2.6-1.7c-1-0.4-2-0.6-3.2-0.6c-1.1,0-2.2,0.2-3.2,0.6c-1,0.4-1.9,0.9-2.6,1.7
	s-1.3,1.6-1.7,2.6c-0.4,1-0.6,2.1-0.6,3.3c0,1.2,0.2,2.3,0.6,3.3s1,1.9,1.7,2.6s1.6,1.3,2.6,1.7s2,0.6,3.2,0.6
	c1.1,0,2.2-0.2,3.2-0.6s1.9-1,2.6-1.7s1.3-1.6,1.7-2.6c0.4-1,0.6-2.1,0.6-3.3c0-1.2-0.2-2.3-0.6-3.3S280.7,111.9,280,111.2z
	 M280.3,119.7c-0.3,0.8-0.7,1.5-1.3,2.1c-0.5,0.6-1.2,1.1-2,1.5c-0.8,0.4-1.7,0.6-2.7,0.6s-1.9-0.2-2.7-0.6c-0.8-0.4-1.4-0.9-2-1.5
	c-0.6-0.6-1-1.3-1.3-2.1s-0.4-1.7-0.4-2.6c0-0.9,0.1-1.7,0.4-2.6c0.3-0.9,0.7-1.6,1.3-2.2c0.5-0.6,1.2-1.1,2-1.5
	c0.8-0.3,1.7-0.5,2.7-0.5s1.9,0.1,2.7,0.5c0.8,0.4,1.4,0.9,2,1.5c0.6,0.7,1,1.4,1.3,2.2s0.4,1.7,0.4,2.6
	C280.7,118,280.5,118.8,280.3,119.7z"/>
<path class="st2" d="M303.3,111.2c-0.7-0.7-1.6-1.3-2.6-1.7c-0.9-0.4-2-0.6-3.2-0.6c-1.1,0-2.2,0.2-3.2,0.6c-1,0.4-1.9,1-2.6,1.7
	c-0.7,0.8-1.3,1.6-1.7,2.6c-0.4,1-0.6,2.1-0.6,3.3c0,1.2,0.2,2.3,0.6,3.3c0.4,1,1,1.9,1.7,2.6s1.6,1.3,2.6,1.7s2,0.6,3.2,0.6
	c1.1,0,2.2-0.2,3.2-0.6s1.9-1,2.6-1.7s1.3-1.6,1.7-2.6c0.4-1,0.6-2.1,0.6-3.3c0-1.2-0.2-2.3-0.6-3.3S304,111.9,303.3,111.2z
	 M303.5,119.7c-0.3,0.8-0.7,1.5-1.3,2.1c-0.5,0.6-1.2,1.1-2,1.5c-0.8,0.4-1.7,0.6-2.7,0.6s-1.9-0.2-2.7-0.6
	c-0.9-0.4-1.5-0.9-2.1-1.5c-0.6-0.6-1-1.3-1.3-2.1s-0.4-1.7-0.4-2.6c0-0.9,0.1-1.8,0.4-2.6c0.3-0.9,0.7-1.6,1.3-2.2
	c0.6-0.6,1.3-1.1,2.1-1.5c0.8-0.3,1.7-0.5,2.7-0.5s1.9,0.1,2.7,0.5c0.8,0.4,1.4,0.9,2,1.5c0.6,0.7,1,1.4,1.3,2.2s0.4,1.7,0.4,2.6
	C303.9,118,303.8,118.8,303.5,119.7z"/>
<polygon class="st2" points="314.9,109.3 313.3,109.3 313.3,124.8 322.2,124.8 322.2,123.4 314.9,123.4 "/>
<path class="st2" d="M345.5,116.5c0.8-0.2,1.5-0.6,2-1.2c0.5-0.6,0.8-1.3,0.8-2.1c0-0.7-0.2-1.4-0.5-1.9c-0.3-0.5-0.7-0.9-1.2-1.2
	c-0.5-0.3-1-0.5-1.6-0.6c-0.6-0.1-1.2-0.2-1.8-0.2h-4.6v15.5h4.6c0.9,0,1.7-0.1,2.4-0.3s1.3-0.5,1.8-0.9c0.5-0.4,0.9-0.9,1.2-1.4
	c0.3-0.6,0.4-1.2,0.4-1.8c0-1.1-0.3-2-1-2.7C347.4,117,346.5,116.6,345.5,116.5z M340.1,110.7h2.8c0.6,0,1,0,1.5,0.1
	c0.5,0.1,0.9,0.3,1.2,0.5s0.6,0.5,0.8,0.8c0.2,0.4,0.3,0.8,0.3,1.3s-0.1,0.9-0.3,1.3c-0.2,0.3-0.5,0.6-0.8,0.8
	c-0.4,0.3-0.7,0.4-1.1,0.5c-0.4,0.1-0.8,0.1-1.2,0.1h-3.2V110.7z M347.1,121.8c-0.2,0.3-0.5,0.7-0.9,0.9c-0.4,0.2-0.9,0.4-1.4,0.5
	c-0.6,0.1-1.1,0.2-1.7,0.2h-3v-6.1h3.3c1.3,0,2.3,0.3,3,0.8s1.1,1.3,1.1,2.3C347.5,120.9,347.3,121.4,347.1,121.8z"/>
<path class="st2" d="M370.2,111.2c-0.7-0.7-1.6-1.3-2.6-1.7c-1-0.4-2-0.6-3.2-0.6c-1.1,0-2.2,0.2-3.2,0.6c-1,0.4-1.9,1-2.6,1.7
	c-0.7,0.8-1.3,1.6-1.7,2.6c-0.4,1-0.6,2.1-0.6,3.3c0,1.2,0.2,2.3,0.6,3.3s1,1.9,1.7,2.6s1.6,1.3,2.6,1.7s2,0.6,3.2,0.6
	c1.1,0,2.2-0.2,3.2-0.6s1.9-1,2.6-1.7s1.3-1.6,1.7-2.6c0.4-1,0.6-2.1,0.6-3.3c0-1.2-0.2-2.3-0.6-3.3
	C371.5,112.8,370.9,111.9,370.2,111.2z M370.4,119.7c-0.3,0.8-0.7,1.5-1.3,2.1c-0.5,0.6-1.2,1.1-2,1.5c-0.8,0.4-1.7,0.6-2.7,0.6
	s-1.9-0.2-2.7-0.6c-0.9-0.4-1.5-0.9-2.1-1.5c-0.6-0.6-1-1.3-1.3-2.1s-0.4-1.7-0.4-2.6c0-0.9,0.1-1.8,0.4-2.6
	c0.3-0.9,0.7-1.6,1.3-2.2c0.6-0.6,1.3-1.1,2.1-1.5c0.8-0.3,1.7-0.5,2.7-0.5s1.9,0.1,2.7,0.5c0.8,0.4,1.4,0.9,2,1.5
	c0.6,0.7,1,1.4,1.3,2.2s0.4,1.7,0.4,2.6C370.8,118,370.6,118.8,370.4,119.7z"/>
<path class="st2" d="M384.8,109.3l-6.8,15.5h1.7l1.7-4.1h8.1l1.7,4.1h1.8l-6.7-15.5H384.8z M382,119.3l3.4-8.2l3.5,8.2H382z"/>
<path class="st2" d="M407.2,117c0.5-0.2,0.9-0.5,1.3-0.8c0.3-0.3,0.6-0.7,0.8-1.2c0.2-0.5,0.3-1,0.3-1.6c0-0.7-0.1-1.4-0.4-1.9
	c-0.2-0.5-0.6-1-1.1-1.3s-1-0.6-1.7-0.7c-0.6-0.1-1.3-0.2-2.1-0.2h-4.6v15.5h1.6h0v-7.3h2.7l4.3,7.3h1.9l-4.6-7.4
	C406.2,117.3,406.7,117.2,407.2,117z M401.4,116.2v-5.7h2.8c0.6,0,1.1,0.1,1.6,0.2c0.4,0.1,0.9,0.3,1.2,0.5c0.3,0.3,0.6,0.5,0.8,0.9
	c0.2,0.4,0.3,0.8,0.3,1.3c0,1-0.3,1.6-1,2.1s-1.7,0.7-3,0.7H401.4z"/>
<path class="st2" d="M428.2,111.3c-0.8-0.7-1.7-1.2-2.7-1.5c-0.9-0.3-1.9-0.5-2.9-0.5h-5.2v15.6h5.2c0.9,0,1.9-0.2,2.9-0.5
	c1-0.4,1.9-0.9,2.7-1.5s1.4-1.4,1.9-2.4s0.7-2.1,0.7-3.4c0-1.3-0.2-2.4-0.7-3.4C429.6,112.8,429,112,428.2,111.3z M428.8,119.4
	c-0.3,0.7-0.7,1.4-1.3,2c-0.6,0.6-1.3,1-2.2,1.4c-0.9,0.4-1.9,0.6-3.1,0.6H419v-12.5h3.2c1.2,0,2.2,0.1,3.1,0.5
	c0.9,0.3,1.6,0.8,2.2,1.4c0.6,0.6,1,1.2,1.3,2c0.3,0.7,0.4,1.5,0.4,2.3C429.2,117.9,429.1,118.6,428.8,119.4z"/>
<path class="st2" d="M446.2,117.6c-0.5-0.3-0.9-0.6-1.5-0.8c-0.5-0.2-1.1-0.4-1.6-0.6c-0.5-0.1-0.9-0.3-1.3-0.4
	c-0.4-0.2-0.8-0.4-1.1-0.6c-0.4-0.2-0.6-0.5-0.8-0.8c-0.2-0.3-0.3-0.7-0.3-1.2s0.1-0.9,0.3-1.3c0.2-0.4,0.5-0.7,0.8-0.9
	c0.3-0.2,0.7-0.4,1.1-0.5c0.4-0.1,0.8-0.2,1.2-0.2c0.7,0,1.4,0.1,1.9,0.4s1,0.6,1.3,1.1l1.3-0.7c-0.4-0.5-0.9-0.9-1.7-1.3
	c-0.7-0.4-1.6-0.6-2.7-0.6c-0.5,0-1.1,0-1.7,0.2c-0.6,0.2-1.1,0.5-1.6,0.8s-0.9,0.8-1.2,1.3c-0.4,0.5-0.5,1.2-0.5,1.9
	s0.2,1.3,0.4,1.8c0.3,0.5,0.6,0.9,1,1.2c0.4,0.3,0.8,0.6,1.3,0.8s1,0.3,1.5,0.5s0.9,0.3,1.4,0.5c0.4,0.2,0.8,0.4,1.2,0.6
	c0.4,0.2,0.7,0.5,0.9,0.9c0.2,0.3,0.3,0.8,0.3,1.3s-0.1,0.9-0.3,1.3c-0.2,0.3-0.5,0.6-0.8,0.9c-0.3,0.3-0.7,0.5-1.1,0.6
	c-0.4,0.1-0.8,0.2-1.2,0.2c-0.9,0-1.6-0.2-2.2-0.6c-0.6-0.4-1.1-0.8-1.4-1.4l-1.4,1c0.3,0.4,0.6,0.7,1,1c0.4,0.3,0.8,0.5,1.2,0.7
	c0.5,0.2,0.9,0.3,1.4,0.4c0.5,0,0.9,0.1,1.4,0.1c0.6,0,1.2-0.1,1.8-0.3c0.6-0.2,1.1-0.4,1.6-0.8c0.5-0.4,0.9-0.8,1.2-1.4
	c0.2-0.6,0.4-1.2,0.4-2s-0.1-1.4-0.4-1.9C447,118.3,446.6,117.9,446.2,117.6z"/>
<polygon class="st2" points="229.1,69.7 234.3,69.7 234.3,0.7 228.5,0.7 196.6,62.7 164.8,0.7 158.9,0.7 158.9,69.7 164.1,69.7 
	164.1,10.5 194.5,69.7 198.8,69.7 229.1,10.5 "/>
<path class="st2" d="M307.4,69.7h5.7l-31.6-69h-4.8l-32.7,69h6L260.2,48h37.2L307.4,69.7z M262.5,43.1l16.8-34.9l16,34.9H262.5z"/>
<path class="st2" d="M371.4,38.2c-4.2-2.5-12.5-4.8-25-7c-6.7-1.3-11.5-2.6-14.3-4c-4.1-2.1-6.1-5.3-6.1-9.5
	c0-8.6,7.4-12.9,22.3-12.9c7.4,0,12.9,1.1,16.6,3.1c4.5,2.4,7,7.2,7.4,14.3h5.1C377.2,7.4,367.5,0,348.3,0
	c-18.4,0-27.6,5.9-27.6,17.7c0,6.1,3.2,10.8,9.4,13.9c3.1,1.6,9.1,3.3,17.9,5.1c7.7,1.7,12.5,2.8,14.6,3.3c3.8,1.2,6.5,2.5,8.1,4
	c1.9,1.8,2.9,4.4,2.9,7.9c0,5-2.6,8.6-7.9,11c-4.1,1.8-9.2,2.7-15.3,2.7c-17.7,0-26.6-6.2-26.6-18.6v-2h-5.2v2.4
	c0,8.3,3.4,14.3,10.2,18.2c5.4,3.2,12.6,4.8,21.6,4.8c7.3,0,13.5-1.2,18.5-3.7c6.7-3.3,10-8.2,10-14.5S376.4,41.2,371.4,38.2z"/>
<path class="st2" d="M442.8,65.6c5.8-3.4,8.7-8.4,8.7-15.2c0-8.8-4.6-14.4-13.6-17c7.5-3.1,11.3-8,11.3-14.6
	c0-6.1-2.4-10.7-7.2-13.9c-4.1-2.8-9.5-4.2-16-4.2h-34.8v69h33.4C431.9,69.7,437.9,68.4,442.8,65.6z M396.4,5.5h29.3
	c4.9,0,9,0.9,12.2,2.8c4,2.3,6,5.6,6,10.1s-2,7.9-5.8,10.2c-3.2,1.9-7.4,2.9-12.5,2.9h-29.2V5.5z M396.4,36.2h29
	c5.8,0,10.4,1,14,2.8c4.6,2.4,6.9,6.3,6.9,11.5c0,4.9-2.2,8.6-6.5,11.1c-3.7,2.2-8.3,3.3-14,3.3h-29.4V36.2z"/>
</svg>
