<?xml version="1.0" encoding="UTF-8" standalone="no"?>
<!DOCTYPE svg PUBLIC "-//W3C//DTD SVG 1.1//EN" "http://www.w3.org/Graphics/SVG/1.1/DTD/svg11.dtd">
<svg width="100%" height="100%" viewBox="0 0 190 100" version="1.1" xmlns="http://www.w3.org/2000/svg" xmlns:xlink="http://www.w3.org/1999/xlink" xml:space="preserve" xmlns:serif="http://www.serif.com/" style="fill-rule:evenodd;clip-rule:evenodd;stroke-linejoin:round;stroke-miterlimit:1.41421;">
    <g transform="matrix(1,0,0,1,-202,-75)">
        <path d="M209.46,114.761L210.594,106.51L216.502,106.51L217.86,98.234L227.831,95.261L226.21,106.51L235.826,106.51L234.695,114.761L225.08,114.761L222.733,131.75C222.164,135.634 222.976,138.062 227.263,138.062C228.962,138.062 230.244,137.741 231.618,136.848L230.485,145.02C228.302,145.992 225.888,146.314 223.623,146.314C213.346,146.314 211.566,141.703 212.862,132.559L215.369,114.761L209.46,114.761ZM274.742,145.344L284.45,145.344L287.448,124.145C288.17,118.968 291.329,114.274 297.72,114.274C304.517,114.274 303.871,121.394 303.223,125.686L300.47,145.344L310.183,145.344L313.661,120.828C314.712,112.898 312.043,105.54 301.603,105.54C295.13,105.54 291.005,108.854 288.739,112.738L288.576,112.738L289.385,106.51L280.164,106.51L274.742,145.344ZM355.481,129.324L355.802,126.655C357.746,113.143 351.434,105.538 340.594,105.538C328.86,105.538 318.343,113.71 316.642,125.928C314.942,138.144 323.114,146.314 334.848,146.314C340.994,146.314 347.27,143.926 352.61,138.343L345.785,133.632C342.955,136.625 339.864,138.547 335.011,138.547C329.59,138.547 325.704,135.07 325.867,129.324L355.481,129.324ZM326.837,122.042C328.378,116.46 332.501,112.819 338.246,112.819C344.314,112.819 347.47,116.378 346.74,122.042L326.837,122.042ZM272.801,129.324L273.125,126.655C275.066,113.143 268.757,105.538 257.914,105.538C246.18,105.538 235.664,113.71 233.964,125.928C232.264,138.144 240.437,146.314 252.168,146.314C258.317,146.314 264.595,143.926 269.933,138.343L263.105,133.632C260.275,136.625 257.186,138.547 252.331,138.547C246.91,138.547 243.026,135.07 243.187,129.324L272.801,129.324ZM244.157,122.042C245.695,116.46 249.821,112.819 255.566,112.819C261.636,112.819 264.792,116.378 264.062,122.042L244.157,122.042ZM364.085,114.761L361.577,132.559C360.283,141.703 362.062,146.314 372.338,146.314C374.606,146.314 377.016,145.992 379.2,145.02L380.333,136.848C378.955,137.741 377.678,138.062 375.977,138.062C371.69,138.062 370.879,135.634 371.448,131.75L373.795,114.761L383.407,114.761L384.54,106.51L374.923,106.51L376.546,95.261L366.574,98.234L365.215,106.51L359.306,106.51L358.174,114.761L364.085,114.761ZM270.929,173.491L273.074,173.491L274.104,166.248L282.31,166.248L281.28,173.491L283.428,173.491L285.662,157.661L283.517,157.661L282.578,164.234L274.37,164.234L275.311,157.661L273.166,157.661L270.929,173.491ZM292.205,173.491L302.83,173.491L303.12,171.48L294.646,171.48L295.361,166.404L302.873,166.404L303.144,164.39L295.63,164.39L296.302,159.677L304.37,159.677L304.663,157.661L294.446,157.661L292.205,173.491ZM308.458,173.491L310.963,173.491L313.085,169.579L320.621,169.579L321.65,173.491L324.154,173.491L319.615,157.661L317.671,157.661L308.458,173.491ZM314.09,167.7L318.12,160.435L318.163,160.435L320.086,167.7L314.09,167.7ZM330.811,173.491L340.226,173.491L340.514,171.48L333.25,171.48L335.191,157.661L333.05,157.661L330.811,173.491ZM348.266,173.494L350.414,173.494L352.361,159.674L357.456,159.674L357.749,157.661L345.403,157.661L345.115,159.674L350.21,159.674L348.266,173.494ZM362.503,173.491L364.651,173.491L365.681,166.248L373.886,166.248L372.857,173.491L375.005,173.491L377.239,157.661L375.094,157.661L374.153,164.234L365.945,164.234L366.888,157.661L364.74,157.661L362.503,173.491Z" style="fill:rgb(27,94,151);fill-rule:nonzero;"/>
        <path d="M203.35,172.978C208.978,174.406 260.561,178.992 272.998,144.754C254.731,164.563 212.939,160.414 205.446,158.426L203.35,172.978ZM388.57,92.138C359.942,86.311 332.575,95.494 322.495,107.83C334.116,70.414 384.955,76.346 390.65,77.465L388.57,92.138Z" style="fill:rgb(255,136,48);fill-rule:nonzero;"/>
    </g>
</svg>
