<?xml version="1.0" encoding="UTF-8"?>
<svg xmlns="http://www.w3.org/2000/svg" version="1.1" viewBox="0 0 384.4 132">
  <defs>
    <style>
      .cls-1 {
        fill: #81cfd2;
      }
    </style>
  </defs>
  <!-- Generator: Adobe Illustrator 28.7.1, SVG Export Plug-In . SVG Version: 1.2.0 Build 142)  -->
  <g>
    <g id="Layer_1">
      <g>
        <g>
          <path d="M24.5,0v3h-10.8v25.7h-2.9V3H0V0h24.5Z"/>
          <path d="M61.8,0h3v28.7h-3v-13.1h-16.4v13.1h-2.9V0h2.9v12.6h16.4V0Z"/>
          <path d="M88.6,25.8h17.9v2.9h-20.9V0h20.7v3h-17.8v9.9h15.1v2.7h-15.1v10.2Z"/>
        </g>
        <g>
          <path d="M18.8,102.9c2.9,0,5.3.8,7,2.4,1.7,1.6,2.6,3.6,2.6,6.1s-.9,4.6-2.6,6.2c-1.8,1.6-4.1,2.4-7,2.4h-8.9v11.6h-2.9v-28.7h11.8ZM18.8,117c2.2,0,3.8-.5,5-1.6,1.1-1,1.7-2.4,1.7-4.1s-.6-3-1.8-4c-1.2-1-2.8-1.5-4.9-1.5h-8.9v11.2h8.9Z"/>
          <path d="M69,131.6h-3.4l-6.8-11.6h-9.2v11.6h-2.9v-28.7h11.8c2.9,0,5.3.8,7,2.4,1.7,1.6,2.6,3.6,2.6,6.1s-.6,3.7-1.7,5.1-2.6,2.5-4.6,3l7.2,12ZM49.5,105.8v11.2h8.9c2.2,0,3.8-.5,5-1.6,1.1-1,1.7-2.4,1.7-4.1s-.6-3-1.8-4c-1.2-1-2.8-1.5-4.9-1.5h-8.9Z"/>
          <path d="M92.5,128c-2.6-2.7-3.9-6.2-3.9-10.7s1.3-8,3.9-10.7c2.6-2.6,5.9-4,10.1-4s7.5,1.3,10.1,4c2.6,2.7,3.9,6.2,3.9,10.7s-1.3,8.1-3.9,10.7c-2.6,2.7-6,4-10.1,4s-7.5-1.3-10.1-4ZM102.6,129.3c3.3,0,6-1.1,8-3.2,2-2.1,3-5,3-8.8s-1-6.7-3-8.8c-2-2.1-4.7-3.2-8-3.2s-6,1.1-8,3.2c-2,2.1-3,5.1-3,8.8s1,6.7,3,8.8c2,2.1,4.7,3.2,8,3.2Z"/>
          <path d="M134.4,128.3l2.3-1.7c1.2,1.7,2.7,2.6,4.4,2.6s2.3-.4,3.1-1.3c.8-.8,1.1-1.8,1.1-3v-22.1h3v21.7c0,2.2-.6,3.9-1.9,5.3-1.3,1.4-3,2.1-5.4,2.1s-4.9-1.2-6.7-3.6Z"/>
          <path d="M171.9,128.6h17.9v2.9h-20.9v-28.7h20.7v3h-17.8v9.9h15.1v2.7h-15.1v10.2Z"/>
          <path d="M212.3,127.9c-2.5-2.6-3.8-6.2-3.8-10.7s1.2-8,3.7-10.6c2.5-2.6,5.7-3.9,9.7-3.9s8.4,2,10.6,5.9l-2.6,1.4c-1.7-2.9-4.3-4.4-7.9-4.4s-5.7,1-7.6,3c-1.9,2-2.9,4.9-2.9,8.5s1,6.5,2.9,8.6c1.9,2.1,4.4,3.1,7.5,3.1s6-1.3,7.7-3.9l2.5,1.6c-2.3,3.4-5.7,5.2-10.1,5.2s-7.2-1.3-9.7-4Z"/>
          <path d="M272.9,102.9v3h-10.8v25.7h-2.9v-25.7h-10.8v-3h24.5Z"/>
        </g>
        <g>
          <path d="M7,80.2v-28.7h2.9v28.7h-2.9Z"/>
          <path d="M52.1,51.5h3v28.7h-2.5l-19.4-23v23h-2.9v-28.7h2.2l19.7,23.3v-23.3Z"/>
          <path d="M96.4,51.5h3v28.7h-2.5l-19.4-23v23h-2.9v-28.7h2.2l19.7,23.3v-23.3Z"/>
          <path d="M186.3,51.5h3.2l-12.2,28.7h-2.2l-12.2-28.7h3.2l10,23.9,10.1-23.9Z"/>
          <path d="M277.5,51.5v3h-10.8v25.7h-2.9v-25.7h-10.8v-3h24.5Z"/>
          <path d="M295.5,80.2v-28.7h2.9v28.7h-2.9Z"/>
          <path d="M381.5,51.5h3v28.7h-2.5l-19.4-23v23h-2.9v-28.7h2.2l19.7,23.3v-23.3Z"/>
          <path class="cls-1" d="M340.5,54.6v22.8h-22.8v-22.8h22.8M343.5,51.7h-28.7v28.7h28.7v-28.7h0Z"/>
          <path class="cls-1" d="M221.8,56.6l12.1,21h-24.2l12.1-21M221.8,50.7l-17.2,29.8h34.4l-17.2-29.8h0Z"/>
          <path class="cls-1" d="M134.4,53.6c6.5,0,11.8,5.3,11.8,11.8s-5.3,11.8-11.8,11.8-11.8-5.3-11.8-11.8,5.3-11.8,11.8-11.8M134.4,50.7c-8.1,0-14.8,6.6-14.8,14.8s6.6,14.8,14.8,14.8,14.8-6.6,14.8-14.8-6.6-14.8-14.8-14.8h0Z"/>
        </g>
      </g>
    </g>
  </g>
</svg>