<?xml version="1.0" encoding="UTF-8"?>
<svg xmlns="http://www.w3.org/2000/svg" version="1.1" viewBox="0 0 148.9 148.9">
  <defs>
    <style>
      .cls-1 {
        fill: #d14927;
      }

      .cls-2 {
        fill: #fff;
      }
    </style>
  </defs>
  <!-- Generator: Adobe Illustrator 28.7.1, SVG Export Plug-In . SVG Version: 1.2.0 Build 142)  -->
  <g>
    <g id="Layer_1">
      <g>
        <rect class="cls-1" width="148.9" height="148.9"/>
        <g>
          <g>
            <path class="cls-2" d="M43.6,104h17v6.4h-9.4v11.1h6.9v6.8h-6.9v17.3h-7.6v-41.5Z"/>
            <path class="cls-2" d="M79.6,130.8c0,2.8-.2,5.1-.7,7-.5,1.9-1.1,3.5-2,4.7-.8,1.2-1.8,2.1-2.9,2.6-1.1.5-2.4.8-3.7.8s-2.5-.3-3.7-.8c-1.1-.5-2.1-1.4-2.9-2.6-.8-1.2-1.5-2.8-2-4.7-.5-1.9-.7-4.3-.7-7s.2-5.1.7-7c.5-1.9,1.1-3.5,2-4.7.8-1.2,1.8-2.1,2.9-2.6,1.1-.5,2.4-.8,3.7-.8s2.5.3,3.7.8c1.1.5,2.1,1.4,2.9,2.6.8,1.2,1.5,2.7,2,4.7.5,1.9.7,4.3.7,7ZM72.3,130.8c0-2.2,0-4-.1-5.3,0-1.3-.2-2.4-.4-3.1-.2-.7-.4-1.2-.6-1.4-.3-.2-.6-.3-1-.3s-.7.1-1,.3c-.3.2-.5.7-.6,1.4-.2.7-.3,1.8-.4,3.1,0,1.3-.1,3.1-.1,5.3s0,4,.1,5.3c0,1.3.2,2.4.4,3.1.2.7.4,1.2.6,1.4.3.2.6.4,1,.4s.7-.1,1-.4c.3-.2.5-.7.6-1.4.2-.7.3-1.8.4-3.1,0-1.3.1-3.1.1-5.3Z"/>
            <path class="cls-2" d="M82.5,116.2h6.8v5.1h.1c.4-.6.8-1.2,1.3-1.8.4-.6,1-1.2,1.5-1.7.6-.5,1.2-.9,1.8-1.2.6-.3,1.4-.5,2.2-.6v7.8c-.5-.2-.9-.3-1.3-.3-.4,0-.9,0-1.3,0-.9,0-1.7.3-2.5.9-.8.6-1.4,1.2-1.7,1.8v19.4h-6.8v-29.3Z"/>
            <path class="cls-2" d="M109.8,143.2h-.1c-.7.8-1.4,1.4-2.1,2-.7.5-1.7.8-3.1.8-2.5,0-4.2-1.3-5.2-4-1-2.6-1.5-6.4-1.5-11.2s.6-8.6,1.8-11.2c1.2-2.6,3-3.9,5.5-3.9s1.9.2,2.6.6,1.3.9,1.7,1.5h.1v-13.9h6.8v41.5h-6.5v-2.3ZM109.5,121.2c-.2-.3-.4-.5-.7-.7-.3-.2-.7-.3-1.1-.3s-.9.1-1.2.4c-.3.2-.6.7-.8,1.4-.2.7-.3,1.8-.4,3.1,0,1.4-.1,3.2-.1,5.5s0,4.1,0,5.4c0,1.4.2,2.4.3,3.1.2.7.4,1.2.7,1.4.3.2.7.4,1.2.4s.9,0,1.3-.3.6-.4.8-.7v-18.9Z"/>
          </g>
          <g>
            <path class="cls-2" d="M60.6,69.9h6.2v13.7h3.9v-13.7h6.2v34h-6.2v-14.4h-3.9v14.4h-6.2v-34Z"/>
            <path class="cls-2" d="M86,93.7v1.1c0,1.1,0,1.9.2,2.6.1.7.3,1.2.5,1.5.2.4.4.6.7.7.3.1.5.2.8.2.5,0,.9,0,1.2-.3.3-.2.6-.4.8-.7s.4-.7.5-1.1c.1-.4.3-.8.4-1.2l3.9,1.1c-.4,2.3-1.2,3.9-2.5,5.1-1.2,1.1-2.8,1.7-4.7,1.7s-2.1-.2-3-.6c-.9-.4-1.8-1.1-2.4-2.1-.7-1-1.2-2.3-1.6-3.8-.4-1.6-.6-3.5-.6-5.8s.2-4.2.6-5.8c.4-1.6.9-2.8,1.6-3.8.7-1,1.5-1.7,2.4-2.1.9-.4,2-.7,3-.7s2.6.4,3.5,1.2c.9.8,1.6,1.7,2.2,2.9.5,1.1.9,2.4,1.1,3.8.2,1.4.3,2.6.3,3.8v2.4h-8.8ZM89.6,89.4v-.7c0-1.8-.1-3-.4-3.7s-.8-1.1-1.4-1.1-1.1.3-1.3,1c-.3.7-.4,2-.4,3.8v.7h3.6Z"/>
            <path class="cls-2" d="M96.9,80h5.5v2.3h0c.6-.7,1.4-1.3,2.2-1.8.8-.6,1.8-.8,2.8-.8s2.3.4,2.9,1.3c.6.9.9,2.1.9,3.7v19.4h-5.5v-17.4c0-.9-.1-1.6-.4-1.9-.3-.3-.7-.5-1.1-.5s-.7,0-1.1.3c-.3.2-.6.4-.8.6v18.9h-5.5v-24Z"/>
            <path class="cls-2" d="M114.8,80h5.5v4.2h0c.3-.5.7-1,1-1.5.4-.5.8-.9,1.2-1.4.5-.4,1-.7,1.5-1s1.1-.4,1.8-.5v6.4c-.4-.1-.7-.2-1.1-.2-.4,0-.7,0-1.1,0-.7,0-1.4.2-2.1.7s-1.2,1-1.4,1.5v15.9h-5.5v-24Z"/>
            <path class="cls-2" d="M138.3,103.6c-.3,1.4-.6,2.6-1,3.6-.4,1-1,1.7-1.6,2.3-.6.6-1.4,1-2.3,1.3-.9.3-1.9.4-3.2.4s-.7,0-1,0c-.3,0-.7,0-1-.1v-4.5c.4,0,.8,0,1.2,0h1.1c.9,0,1.5-.3,2-.8.5-.5.7-1.2.7-2.1s0-1.1-.2-1.8l-4.6-21.9h5.3l2.4,12.6h0l2-12.6h4.5l-4.4,23.6Z"/>
          </g>
          <g>
            <path class="cls-2" d="M21.8,57.2v3.6h4.1c0,.3,0,.5-.1.6,0,.1-.1.2-.2.2,0,0-.1,0-.2,0h-3.5v10.8c0,.4,0,.7,0,1s0,.6.2.9c0,.3.2.6.4.8.2.2.4.4.8.5.3.1.7.2,1.2.2.7,0,1.6-.2,2.6-.6l.3.8c-.6.4-1.3.7-2.2.9-.9.3-1.6.4-2.3.4-1.1,0-1.9-.3-2.4-.9-.6-.6-.8-1.5-.8-2.5v-12.3h-.8c-.4,0-.7,0-.8,0-.1,0-.2-.1-.2-.2s.1-.3.4-.6l3.1-3.6h.5Z"/>
            <path class="cls-2" d="M43.7,64.9v5.4c0,1,0,1.8,0,2.4,0,.6,0,1.1,0,1.6s.1.8.2,1c0,.2.1.4.3.5.2.1.3.2.4.2.1,0,.3,0,.6,0h1.5v.9h-7.4v-.9h1.4c.5,0,.7-.1.7-.4v-9.8c0-2.6-1-3.8-3.1-3.8s-2,.2-2.9.6c-.9.4-1.8,1-2.7,1.8v5.9c0,1,0,1.8,0,2.4,0,.6,0,1.1,0,1.6s.1.8.2,1c0,.2.1.4.3.5.2.1.3.2.4.2.1,0,.3,0,.6,0h1.5v.9h-7.4v-.9h1.4c.5,0,.7-.1.7-.4v-20.1c0-.8,0-1.5,0-1.9s-.1-.8-.2-1c-.1-.2-.2-.3-.3-.4s-.2,0-.5,0h-2v-.9c1.7-.1,3.5-.4,5.2-.9v12.9c1.2-1,2.2-1.7,3.2-2.2,1-.5,2-.8,3.2-.8s1.6.1,2.2.4c.6.3,1.1.6,1.4,1.1.3.5.6.9.7,1.5.1.5.2,1.1.2,1.7Z"/>
            <path class="cls-2" d="M60.9,73.9l.5.6c-1.9,2-4.2,3-6.9,3s-2.1-.2-3-.7-1.6-1.1-2.2-1.8c-.5-.8-1-1.6-1.2-2.6-.3-1-.4-2-.4-3.1s.1-2.2.5-3.2.7-2,1.3-2.9c.6-.9,1.3-1.6,2.2-2.2.9-.5,2-.8,3.1-.8s1.5.1,2.1.4c.7.3,1.2.7,1.7,1.2.5.5.9,1.1,1.3,1.6.4.6.7,1.2,1.1,1.9-4.1,1.3-7.8,2.4-11.2,3.1,0,1,.2,2,.4,2.8.2.8.6,1.6,1.1,2.3.5.7,1.1,1.2,1.9,1.6.8.4,1.8.6,2.8.6,1.9,0,3.5-.6,4.8-1.9ZM49.8,67.5l8.5-2.3c-.4-1.1-.9-2-1.7-2.8-.7-.8-1.6-1.2-2.5-1.2s-1.6.3-2.3,1c-.7.7-1.2,1.5-1.5,2.4-.3.9-.5,1.9-.5,2.9Z"/>
          </g>
        </g>
      </g>
    </g>
  </g>
</svg>