<?xml version="1.0" encoding="utf-8"?>
<!-- Generator: Adobe Illustrator 26.0.2, SVG Export Plug-In . SVG Version: 6.00 Build 0)  -->
<svg version="1.1" id="Layer_1" xmlns="http://www.w3.org/2000/svg" xmlns:xlink="http://www.w3.org/1999/xlink" x="0px" y="0px"
	 viewBox="0 0 221 72.6" style="enable-background:new 0 0 221 72.6;" xml:space="preserve">
<style type="text/css">
	.st0{fill:#FFE2A4;}
	.st1{fill:#FFC844;}
	.st2{fill:#498076;}
	.st3{fill:#00594E;}
	.st4{fill:#FFFFFF;}
	.st5{fill:none;stroke:#00594E;stroke-width:0.5;stroke-miterlimit:10;}
</style>
<g>
	<g>
		<g>
			<path class="st0" d="M69.4,16.9c0,0-14.6-5.4-29.3-5.4c-14.7,0-29.3,5.4-29.3,5.4s-4.1,27.9,29.3,48
				C73.5,44.8,69.4,16.9,69.4,16.9z"/>
		</g>
		<g>
			<path class="st1" d="M40.2,11.4c14.7,0,29.3,5.4,29.3,5.4s4.1,27.9-29.3,48V11.4z"/>
		</g>
		<g>
			<g>
				<path class="st2" d="M40.2,59.4V15.6c-11.4,0-25,4.3-25,4.3S14.4,43.8,40.2,59.4z"/>
			</g>
			<g>
				<path class="st2" d="M65.2,19.9c0,0-13.7-4.3-25-4.3v43.8C66,43.8,65.2,19.9,65.2,19.9z"/>
			</g>
		</g>
		<g>
			<path class="st3" d="M40.2,15.6c11.4,0,25,4.3,25,4.3s0.8,23.9-25,39.4V15.6z"/>
		</g>
		<path id="Whole_2_" class="st4" d="M45.4,28.9l-1.9,4.2l1.9,4.1c6.4-4.6,7.6-9.3,7.6-9.3l-3.7-4.2h10.3c0,7.1-4.6,15.4-15.7,24.4
			l-3.7-9.5l-3.7,9.5c-11.1-8.9-15.7-17.3-15.7-24.4h10.3l-3.7,4.2c0,0,1.1,4.7,7.6,9.3l1.9-4.1L35,28.9H45.4z"/>
	</g>
	<g>
		<path class="st3" d="M102.3,20.5c1.3,4.1,2.6,8.3,3.9,12.9h0c1.1-4.8,2.2-9,3.3-13.2l2.6,0.5l-4.5,15.9h-3.3
			c-1.2-3.8-2.4-7.7-3.6-12h0c-1.1,4.4-2.3,8.2-3.5,12h-3.3l-4.5-15.9l3.2-0.5c1.1,4.2,2.1,8.4,3.2,13.2h0c1.3-4.7,2.6-8.8,3.8-12.9
			H102.3z"/>
		<path class="st3" d="M122.2,20.5l6,16.1h-3.6l-1.5-4.4h-5.7l-1.7,4.4H113l6.6-16.1H122.2z M122.7,30.2c-0.7-2.1-1.4-4.1-2.1-6.6h0
			c-0.7,2.5-1.4,4.4-2.2,6.6H122.7z"/>
		<path class="st3" d="M133.7,36.6v-6.7l-4.9-9.1l3.6-0.5c1.1,2.3,2.2,4.6,3.4,7.4c1.2-2.8,2.5-5.1,3.7-7.4l2.7,0.5l-5.2,9.1v6.7
			H133.7z"/>
		<path class="st3" d="M160.2,36.6h-2.3c-3.1-3.7-6.2-7.4-9.2-11.5h0v11.5h-2.6V20.5h2.4c3.1,3.7,6.1,7.3,9.2,11.5h0V20.5h2.6V36.6z
			"/>
		<path class="st3" d="M174.2,22.6h-5.4V27h5.3v2.2h-5.3v5.2h6.4v2.2h-9.6V20.5h8.6V22.6z"/>
		<path class="st3" d="M94.5,55.6h-3.2V39.5h5.1c3.6,0,5.9,1.5,5.9,4.6c0,2.7-2.3,5.4-6.2,5.4h-0.8v-2l0.7-0.1c1.5-0.1,3-1,3-3.2
			c0-1.7-1.1-2.6-3-2.6h-1.4V55.6z"/>
		<path class="st3" d="M113.8,41.6h-5.4V46h5.3v2.2h-5.3v5.2h6.4v2.2h-9.6V39.5h8.6V41.6z"/>
		<path class="st3" d="M123.5,39.5c6.6,0,8.8,3.7,8.8,7.6c0,5.3-3.4,8.5-9.1,8.5h-5.3V39.5H123.5z M121.2,53.4h2
			c3.7,0,5.7-1.9,5.7-6.4c0-3.3-1.9-5.4-5.3-5.4h-2.3V53.4z"/>
		<path class="st3" d="M135.6,55.6V39.5h3.2v16.1H135.6z"/>
		<path class="st3" d="M150.3,39.5l6,16.1h-3.6l-1.5-4.4h-5.7l-1.7,4.4H141l6.6-16.1H150.3z M150.7,49.2c-0.7-2.1-1.4-4.1-2.1-6.6h0
			c-0.7,2.5-1.4,4.4-2.2,6.6H150.7z"/>
		<path class="st3" d="M160.6,55.6V41.6h-5v-2.2h13.2v2.2h-5v13.9H160.6z"/>
		<path class="st3" d="M171.2,39.5h5.6c3.1,0,5.2,1.5,5.2,4.2c0,2.4-1.2,3.8-2.7,4.7l3.8,6.9l-3.4,0.6l-3.3-6.7h-1.9v6.4h-3.2V39.5z
			 M174.5,47h1.3c2.2,0,2.9-1.7,2.9-2.9c0-1.8-1.3-2.4-2.6-2.4h-1.7V47z"/>
		<path class="st3" d="M185.6,55.6V39.5h3.2v16.1H185.6z"/>
		<path class="st3" d="M204.6,42.4c-0.8-0.4-2.1-0.9-3.3-0.9c-3.3,0-5.7,2.3-5.7,6c0,3.8,2.6,6.1,5.8,6.1c1.2,0,2.4-0.3,3.2-0.8
			l0.9,2c-1,0.6-2.7,1.1-4.3,1.1c-5.6,0-9.1-3.7-9.1-8.4c0-4.4,3.5-8.2,9.2-8.2c1.7,0,3.2,0.6,4.3,1.2L204.6,42.4z"/>
		<path class="st3" d="M216.7,42.3c-0.7-0.5-1.7-0.9-2.6-0.9c-1.4,0-2.1,0.8-2.1,1.7c0,1.1,1.1,1.9,3,3.4c2.2,1.7,3.3,3.1,3.3,5.1
			c0,2-1.9,4.4-5.6,4.4c-1.7,0-3.5-0.5-4.7-1.6l1.2-1.8c0.9,0.6,1.8,1.3,3.3,1.3c1.3,0,2.5-0.7,2.5-2.2c0-1.8-2.2-2.9-3.4-4
			c-1.6-1.3-2.9-2.3-2.9-4.4c0-2.2,2.2-3.9,5.1-3.9c1.8,0,3.3,0.7,4.1,1.4L216.7,42.3z"/>
	</g>
	<line class="st5" x1="79.5" y1="20.1" x2="79.5" y2="55.6"/>
</g>
</svg>
